<?xml version="1.0" encoding="iso-8859-1"?>
<!-- Generator: Adobe Illustrator 19.0.0, SVG Export Plug-In . SVG Version: 6.00 Build 0)  -->
<svg xmlns="http://www.w3.org/2000/svg" xmlns:xlink="http://www.w3.org/1999/xlink" version="1.1" id="Layer_1" x="0px" y="0px" viewBox="0 0 508 508" style="enable-background:new 0 0 508 508;" xml:space="preserve">
<circle style="fill:#F1543F;" cx="254" cy="254" r="254"/>
<path style="fill:#FF7058;" d="M94.8,452c43.6,35.2,98.8,56,159.2,56s115.6-21.2,159.2-56H94.8z"/>
<g>
	<path style="fill:#324A5E;" d="M406.8,326c-3.2,22.4-17.6,38.8-32.4,36.8c-1.2,0-2.4-0.4-3.6-0.8c16-12.8,24-29.2,17.6-38   c-5.6-8-20.4-7.6-35.6,0c0-1.6,0.4-3.6,0.4-5.2c3.2-22.4,17.6-38.8,32.4-36.8C400.4,283.6,410,303.6,406.8,326z"/>
	<polygon style="fill:#324A5E;" points="400.4,272 365.2,279.2 350.8,169.2 369.2,165.2  "/>
</g>
<polygon style="fill:#E6E9EE;" points="333.2,146.4 333.2,186.8 376.4,175.6 381.6,146.4 "/>
<path style="fill:#FFFFFF;" d="M411.2,255.6c1.2,34-12.8,43.2-30,43.6s-31.6-7.6-32.8-41.6c-0.4-6.8,0-14,0.8-21.6  c19.2-9.2,32.4-34.4,39.6-52.8C401.2,197.2,410.4,230,411.2,255.6z"/>
<g>
	<path style="fill:#324A5E;" d="M101.2,326c3.2,22.4,17.6,38.8,32.4,36.8c1.2,0,2.4-0.4,3.6-0.8c-16-12.8-24-29.2-17.6-38   c5.6-8,20.4-7.6,35.6,0c0-1.6-0.4-3.6-0.4-5.2c-3.2-22.4-17.6-38.8-32.4-36.8C107.6,283.6,98,303.6,101.2,326z"/>
	<polygon style="fill:#324A5E;" points="107.6,272 142.8,279.2 157.2,169.2 138.8,165.2  "/>
</g>
<polygon style="fill:#E6E9EE;" points="174.8,146.4 174.8,186.8 131.6,175.6 126.4,146.4 "/>
<path style="fill:#FFFFFF;" d="M96.8,255.6c-1.2,34,12.8,43.2,30,43.6s31.6-7.6,32.8-41.6c0.4-6.8,0-14-0.8-21.6  c-19.2-9.2-32.4-34.4-39.6-52.8C106.8,197.2,97.6,230,96.8,255.6z"/>
<g>
	<polygon style="fill:#324A5E;" points="311.2,393.6 302,303.2 271.2,303.2 279.6,393.6  "/>
	<polygon style="fill:#324A5E;" points="228.4,393.6 236.8,303.2 206,303.2 196.8,393.6  "/>
</g>
<g>
	<path style="fill:#CED5E0;" d="M342.8,452.4l6-10.4L326,426.4c0-13.2-3.2-24.8-8-34h-43.6c-5.2,8.8-8,20.8-8,34   c0,9.2,1.6,18,4.4,25.6h72V452.4z"/>
	<path style="fill:#CED5E0;" d="M237.6,452.4c2.8-7.6,4.4-16,4.4-25.6c0-13.2-3.2-25.2-8-34h-43.6c-5.2,8.8-8,20.8-8,34l-22.8,15.6   l6,10.4h72V452.4z"/>
</g>
<polygon style="fill:#324A5E;" points="310,83.2 289.2,92 289.2,71.2 310,80 "/>
<circle style="fill:#FFD05B;" cx="313.6" cy="81.6" r="6.8"/>
<polygon style="fill:#324A5E;" points="198,83.2 218.8,92 218.8,71.2 198,80 "/>
<circle style="fill:#FFD05B;" cx="194.4" cy="81.6" r="6.8"/>
<path style="fill:#ACB3BA;" d="M311.2,130H196.8c-19.6,0-34.8,16.8-32.4,36.4l12.4,112c2,16.4,16,29.2,32.4,29.2h89.6  c16.8,0,30.8-12.4,32.4-29.2l12.4-112C346,146.8,330.8,130,311.2,130z"/>
<path style="fill:#E6E9EE;" d="M216.8,65.2L208,130h92.4l-9.2-64.8c-0.8-5.6-5.6-9.6-10.8-9.6h-52C222.4,55.6,217.6,59.6,216.8,65.2  z"/>
<circle style="fill:#FFFFFF;" cx="274.4" cy="80" r="10.8"/>
<circle style="fill:#84DBFF;" cx="274.4" cy="80" r="6.8"/>
<circle style="fill:#324A5E;" cx="274.4" cy="80" r="4"/>
<g>
	<circle style="fill:#FFFFFF;" cx="272" cy="77.2" r="2"/>
	<circle style="fill:#FFFFFF;" cx="233.6" cy="80" r="10.8"/>
</g>
<circle style="fill:#84DBFF;" cx="233.6" cy="80" r="6.8"/>
<circle style="fill:#324A5E;" cx="233.6" cy="80" r="4"/>
<circle style="fill:#FFFFFF;" cx="231.2" cy="77.2" r="2"/>
<g>
	<path style="fill:#CED5E0;" d="M231.2,121.6H228c-0.8,0-2-0.8-2-2v-11.2c0-0.8,0.8-2,2-2h3.2c0.8,0,2,0.8,2,2v11.2   C232.8,120.8,232,121.6,231.2,121.6z"/>
	<path style="fill:#CED5E0;" d="M243.2,121.6H240c-0.8,0-2-0.8-2-2v-11.2c0-0.8,0.8-2,2-2h3.2c0.8,0,2,0.8,2,2v11.2   C245.2,120.8,244.4,121.6,243.2,121.6z"/>
	<path style="fill:#CED5E0;" d="M255.6,121.6h-3.2c-0.8,0-2-0.8-2-2v-11.2c0-0.8,0.8-2,2-2h3.2c0.8,0,2,0.8,2,2v11.2   C257.2,120.8,256.4,121.6,255.6,121.6z"/>
	<path style="fill:#CED5E0;" d="M267.6,121.6h-3.2c-0.8,0-2-0.8-2-2v-11.2c0-0.8,0.8-2,2-2h3.2c0.8,0,2,0.8,2,2v11.2   C269.6,120.8,268.8,121.6,267.6,121.6z"/>
	<path style="fill:#CED5E0;" d="M280,121.6h-3.2c-0.8,0-2-0.8-2-2v-11.2c0-0.8,0.8-2,2-2h3.2c0.8,0,2,0.8,2,2v11.2   C282,120.8,281.2,121.6,280,121.6z"/>
</g>
<path style="fill:#FFFFFF;" d="M344,166l-4,35.2c-24,6-54,9.2-86,9.2s-61.6-3.6-86-9.2l-4-35.2c-2-19.2,13.2-36,32.4-36h114.8  C330.8,130,346,146.8,344,166z"/>
<circle style="fill:#2B3B4E;" cx="210" cy="175.6" r="8"/>
<circle style="fill:#324A5E;" cx="232" cy="175.6" r="8"/>
<circle style="fill:#ACB3BA;" cx="254" cy="175.6" r="8"/>
<circle style="fill:#CED5E0;" cx="276" cy="175.6" r="8"/>
<circle style="fill:#E6E9EE;" cx="298" cy="175.6" r="8"/>
<g>
</g>
<g>
</g>
<g>
</g>
<g>
</g>
<g>
</g>
<g>
</g>
<g>
</g>
<g>
</g>
<g>
</g>
<g>
</g>
<g>
</g>
<g>
</g>
<g>
</g>
<g>
</g>
<g>
</g>
</svg>
