<?xml version="1.0" encoding="iso-8859-1"?>
<!-- Generator: Adobe Illustrator 19.0.0, SVG Export Plug-In . SVG Version: 6.00 Build 0)  -->
<svg xmlns="http://www.w3.org/2000/svg" xmlns:xlink="http://www.w3.org/1999/xlink" version="1.1" id="Layer_1" x="0px" y="0px" viewBox="0 0 508 508" style="enable-background:new 0 0 508 508;" xml:space="preserve">
<circle style="fill:#84DBFF;" cx="254" cy="254" r="254"/>
<path style="fill:#54C0EB;" d="M95.2,452.4C138.8,487.2,194,508,254,508s115.2-20.8,158.8-55.6H95.2z"/>
<rect x="276.152" y="104.013" transform="matrix(-0.5545 0.8322 -0.8322 -0.5545 588.1615 -99.6437)" style="fill:#FFFFFF;" width="89.201" height="7.2"/>
<circle style="fill:#FF7058;" cx="345.6" cy="70.8" r="15.2"/>
<rect x="142.388" y="104.461" transform="matrix(0.5545 0.8322 -0.8322 0.5545 173.232 -107.4678)" style="fill:#FFFFFF;" width="89.201" height="7.2"/>
<circle style="fill:#FF7058;" cx="162.4" cy="70.8" r="15.2"/>
<rect x="279.6" y="250" style="fill:#2B3B4E;" width="27.6" height="201.2"/>
<circle style="fill:#FFFFFF;" cx="293.2" cy="351.6" r="31.2"/>
<circle style="fill:#E6E9EE;" cx="293.2" cy="351.6" r="17.6"/>
<rect x="200.8" y="250" style="fill:#2B3B4E;" width="27.6" height="201.2"/>
<circle style="fill:#FFFFFF;" cx="214.8" cy="351.6" r="31.2"/>
<circle style="fill:#E6E9EE;" cx="214.8" cy="351.6" r="17.6"/>
<g>
	<path style="fill:#FFFFFF;" d="M430.4,250c1.2,0,2.8,0,4-0.4l-3.2,16.8c-0.4,2.8-3.2,4.4-5.6,4c-2.8-0.4-4.4-3.2-3.6-5.6l2.8-15.2   C426.4,249.6,428.4,250,430.4,250z"/>
	<path style="fill:#FFFFFF;" d="M454.4,277.6c-0.4,0-0.4,0-0.8,0c-2.4,0-4.4-1.6-4.8-4c-1.6-9.2-5.6-18-12.4-24.8   c3.2-1.2,5.6-3.6,7.2-6.4c7.6,8,12.8,18.8,14.8,30C458.8,274.4,457.2,276.8,454.4,277.6z"/>
</g>
<polygon style="fill:#2B3B4E;" points="411.2,184 387.6,136.8 376.4,142.4 396.8,184 "/>
<path style="fill:#FFFFFF;" d="M433.6,227.2l-13.6,6.4c-8,3.6-17.2-0.4-20-8.8l-8.8-28c-2-6.8,1.2-14.4,7.6-17.2l6-2.8  c6.4-3.2,14.4-0.8,18,5.2l16,24.8C444.4,213.6,441.6,223.6,433.6,227.2z"/>
<circle style="fill:#324A5E;" cx="430.4" cy="234.8" r="15.2"/>
<path style="fill:#FFFFFF;" d="M386.8,114.8h-20.4v41.6h20.4c3.6,0,6-2.8,6-6v-29.2C393.2,117.6,390.4,114.8,386.8,114.8z"/>
<rect x="331.6" y="124" style="fill:#2B3B4E;" width="35.2" height="22.8"/>
<g>
	<path style="fill:#FFFFFF;" d="M77.6,250c-1.2,0-2.8,0-4-0.4l3.2,16.8c0.4,2.8,3.2,4.4,5.6,4c2.8-0.4,4.4-3.2,3.6-5.6l-2.8-15.2   C81.6,249.6,79.6,250,77.6,250z"/>
	<path style="fill:#FFFFFF;" d="M53.6,277.6c0.4,0,0.4,0,0.8,0c2.4,0,4.4-1.6,4.8-4c1.6-9.2,5.6-18,12.4-24.8   c-3.2-1.2-5.6-3.6-7.2-6.4c-7.6,8-12.8,18.8-14.8,30C49.2,274.4,50.8,276.8,53.6,277.6z"/>
</g>
<polygon style="fill:#2B3B4E;" points="96.8,184 120.4,136.8 131.6,142.4 111.2,184 "/>
<path style="fill:#FFFFFF;" d="M74.4,227.2l13.6,6.4c8,3.6,17.2-0.4,20-8.8l8.8-28c2-6.8-1.2-14.4-7.6-17.2l-6-2.8  c-6.4-3.2-14.4-0.8-18,5.2l-16,24.8C63.6,213.6,66.4,223.6,74.4,227.2z"/>
<circle style="fill:#324A5E;" cx="77.6" cy="234.8" r="15.2"/>
<path style="fill:#FFFFFF;" d="M121.2,114.8h20.4v41.6h-20.4c-3.6,0-6-2.8-6-6v-29.2C114.8,117.6,117.6,114.8,121.2,114.8z"/>
<rect x="141.2" y="124" style="fill:#2B3B4E;" width="35.2" height="22.8"/>
<circle style="fill:#FFFFFF;" cx="254" cy="177.6" r="105.2"/>
<g>
	<path style="fill:#E6E9EE;" d="M350.8,196H157.2c-10.4,0-18.4-8.4-18.4-18.4l0,0c0-10.4,8.4-18.4,18.4-18.4h193.6   c10.4,0,18.4,8.4,18.4,18.4l0,0C369.2,188,360.8,196,350.8,196z"/>
	<path style="fill:#E6E9EE;" d="M298.4,141.2h-88.8c-9.2,0-16.8-7.6-16.8-16.8l0,0c0-9.2,7.6-16.8,16.8-16.8h88.8   c9.2,0,16.8,7.6,16.8,16.8l0,0C315.2,134,307.6,141.2,298.4,141.2z"/>
</g>
<g>
	<circle style="fill:#324A5E;" cx="281.2" cy="124.4" r="9.6"/>
	<circle style="fill:#324A5E;" cx="226.8" cy="124.4" r="9.6"/>
	<path style="fill:#324A5E;" d="M359.6,452.4c-1.6-24-22-43.2-46.4-43.2s-44.8,19.2-46.4,43.2H359.6z"/>
	<path style="fill:#324A5E;" d="M241.2,452.4c-1.6-24-22-43.2-46.4-43.2c-24.8,0-44.8,19.2-46.4,43.2H241.2z"/>
</g>
<g>
</g>
<g>
</g>
<g>
</g>
<g>
</g>
<g>
</g>
<g>
</g>
<g>
</g>
<g>
</g>
<g>
</g>
<g>
</g>
<g>
</g>
<g>
</g>
<g>
</g>
<g>
</g>
<g>
</g>
</svg>
