<?xml version="1.0" encoding="iso-8859-1"?>
<!-- Generator: Adobe Illustrator 19.0.0, SVG Export Plug-In . SVG Version: 6.00 Build 0)  -->
<svg xmlns="http://www.w3.org/2000/svg" xmlns:xlink="http://www.w3.org/1999/xlink" version="1.1" id="Layer_1" x="0px" y="0px" viewBox="0 0 508 508" style="enable-background:new 0 0 508 508;" xml:space="preserve">
<circle style="fill:#FD8469;" cx="254" cy="254" r="254"/>
<path style="fill:#F1543F;" d="M72.4,431.6c46,47.2,110.4,76.4,181.6,76.4s135.6-29.2,181.6-76.4H72.4z"/>
<g>
	<path style="fill:#324A5E;" d="M364.8,260.4c-7.6,13.6-19.2,21.6-27.2,19.6c11.6-10.4,17.2-22,12.8-27.2   c-3.2-3.6-10.4-3.2-18.8,0.8c1.2-3.2,2.4-6.4,4-9.2c8.4-14.8,21.6-23.2,29.6-18.8C373.2,230,373.2,245.6,364.8,260.4z"/>
	<path style="fill:#324A5E;" d="M318.8,149.2c2.4,6.8,6.4,14,11.2,21.6c12.8,19.6,28.4,32,34.4,28c6.4-4,1.2-23.2-11.6-43.2   c-4.8-7.6-10.4-14-15.2-18.8L318.8,149.2z"/>
</g>
<path style="fill:#FFFFFF;" d="M380.4,236.4c0,8.4-2,14-5.2,17.6c-8-16-23.6-22.8-32.8-25.6c0.8-7.6,3.2-15.6,6-21.6  c-1.6-3.2-2.8-6.8-3.6-10.8c15.2-7.6,21.6-15.2,24.8-20.8c2.8,4,4.4,10,4.4,16.4c0,4.4-0.8,8.8-2.4,12  C376.8,212.4,380.4,225.6,380.4,236.4z"/>
<circle style="fill:#E6E9EE;" cx="324" cy="140.8" r="22"/>
<g>
	<path style="fill:#324A5E;" d="M143.2,260.4c7.6,13.6,19.2,21.6,27.2,19.6c-11.6-10.4-17.2-22-12.8-27.2c3.2-3.6,10.4-3.2,18.8,0.8   c-1.2-3.2-2.4-6.4-4-9.2c-8.4-14.8-21.6-23.2-29.6-18.8C134.8,230,134.8,245.6,143.2,260.4z"/>
	<path style="fill:#324A5E;" d="M189.2,149.2c-2.4,6.8-6.4,14-11.2,21.6c-12.8,19.6-28.4,32-34.4,28c-6.4-4-1.2-23.2,11.6-43.2   c4.8-7.6,10.4-14,15.2-18.8L189.2,149.2z"/>
</g>
<path style="fill:#FFFFFF;" d="M127.6,236.4c0,8.4,2,14,5.2,17.6c8-16,23.6-22.8,32.8-25.6c-0.8-7.6-3.2-15.6-6-21.6  c1.6-3.2,2.8-6.8,3.6-10.8c-15.2-7.6-21.6-15.2-24.8-20.8c-2.8,4-4.4,10-4.4,16.4c0,4.4,0.8,8.8,2.4,12  C131.2,212.4,127.6,225.6,127.6,236.4z"/>
<circle style="fill:#E6E9EE;" cx="184" cy="140.8" r="22"/>
<rect x="279.215" y="37.734" transform="matrix(0.602 0.7985 -0.7985 0.602 162.656 -199.2632)" style="fill:#324A5E;" width="4" height="51.6"/>
<g>

		<ellipse transform="matrix(-0.602 -0.7985 0.7985 -0.602 445.0616 317.7515)" style="fill:#FFFFFF;" cx="301.721" cy="47.958" rx="15.2" ry="3.2"/>

		<ellipse transform="matrix(-0.602 -0.7985 0.7985 -0.602 427.2954 320.9901)" style="fill:#FFFFFF;" cx="293.645" cy="54.005" rx="15.2" ry="3.2"/>

		<ellipse transform="matrix(-0.602 -0.7985 0.7985 -0.602 409.4972 324.2928)" style="fill:#FFFFFF;" cx="285.569" cy="60.092" rx="15.2" ry="3.2"/>

		<ellipse transform="matrix(-0.602 -0.7985 0.7985 -0.602 391.6435 327.8386)" style="fill:#FFFFFF;" cx="277.525" cy="66.314" rx="15.2" ry="3.2"/>
</g>
<rect x="224.807" y="37.714" transform="matrix(-0.602 0.7985 -0.7985 -0.602 414.0609 -79.3559)" style="fill:#324A5E;" width="4" height="51.6"/>
<g>

		<ellipse transform="matrix(0.602 -0.7985 0.7985 0.602 43.6613 183.5822)" style="fill:#FFFFFF;" cx="205.988" cy="47.993" rx="15.2" ry="3.2"/>

		<ellipse transform="matrix(0.602 -0.7985 0.7985 0.602 42.1559 192.7456)" style="fill:#FFFFFF;" cx="214.427" cy="54.085" rx="15.2" ry="3.2"/>

		<ellipse transform="matrix(0.602 -0.7985 0.7985 0.602 40.7173 201.5533)" style="fill:#FFFFFF;" cx="222.543" cy="59.932" rx="15.2" ry="3.2"/>

		<ellipse transform="matrix(0.602 -0.7985 0.7985 0.602 39.0809 210.2523)" style="fill:#FFFFFF;" cx="230.451" cy="65.923" rx="15.2" ry="3.2"/>
</g>
<g>
	<rect x="204" y="374" style="fill:#324A5E;" width="100" height="10.8"/>
	<rect x="248.8" y="279.2" style="fill:#324A5E;" width="10.8" height="100"/>
</g>
<polygon style="fill:#CED5E0;" points="271.2,278.8 236.8,278.8 242.8,324 265.2,324 "/>
<path style="fill:#FFFFFF;" d="M289.6,278.8h-71.2c-8,0-14.8-6-15.6-14l-13.6-149.2c-0.8-9.6,6.8-18,16.8-18h95.2  c10,0,17.6,8.4,16.8,18l-13.6,149.2C304,272.8,297.6,278.8,289.6,278.8z"/>
<circle style="fill:#324A5E;" cx="254" cy="171.2" r="45.6"/>
<circle style="fill:#84DBFF;" cx="254" cy="171.2" r="37.2"/>
<circle style="fill:#54C0EB;" cx="254" cy="171.2" r="16.4"/>
<g>

		<ellipse transform="matrix(-0.7071 -0.7071 0.7071 -0.7071 300.3589 446.694)" style="fill:#FFFFFF;" cx="242.693" cy="161.141" rx="4.4" ry="8.4"/>
	<path style="fill:#FFFFFF;" d="M313.2,354.8c-13.6,0-24.4,11.2-24.4,24.4c0,13.6,10.8,24.4,24.4,24.4V354.8z"/>
</g>
<path style="fill:#324A5E;" d="M361.2,432.4h-42.8c-2.8,0-5.6-2.4-5.6-5.6v-95.2c0-2.8,2.4-5.6,5.6-5.6h42.8c2.8,0,5.6,2.4,5.6,5.6  v95.6C366.4,430,364,432.4,361.2,432.4z"/>
<path style="fill:#FFFFFF;" d="M366.4,420h4.8c6,0,11.2-5.2,11.2-11.2V350c0-6-5.2-11.2-11.2-11.2h-4.8V420z"/>
<g>
	<path style="fill:#2B3B4E;" d="M355.6,345.2h-32.8c-2.4,0-4.4-2-4.4-4.4l0,0c0-2.4,2-4.4,4.4-4.4h32.8c2.4,0,4.4,2,4.4,4.4l0,0   C359.6,343.2,358,345.2,355.6,345.2z"/>
	<path style="fill:#2B3B4E;" d="M355.6,364.4h-32.8c-2.4,0-4.4-2-4.4-4.4l0,0c0-2.4,2-4.4,4.4-4.4h32.8c2.4,0,4.4,2,4.4,4.4l0,0   C359.6,362.4,358,364.4,355.6,364.4z"/>
	<path style="fill:#2B3B4E;" d="M355.6,383.6h-32.8c-2.4,0-4.4-2-4.4-4.4l0,0c0-2.4,2-4.4,4.4-4.4h32.8c2.4,0,4.4,2,4.4,4.4l0,0   C359.6,381.6,358,383.6,355.6,383.6z"/>
	<path style="fill:#2B3B4E;" d="M355.6,402.8h-32.8c-2.4,0-4.4-2-4.4-4.4l0,0c0-2.4,2-4.4,4.4-4.4h32.8c2.4,0,4.4,2,4.4,4.4l0,0   C359.6,400.8,358,402.8,355.6,402.8z"/>
	<path style="fill:#2B3B4E;" d="M355.6,422h-32.8c-2.4,0-4.4-2-4.4-4.4l0,0c0-2.4,2-4.4,4.4-4.4h32.8c2.4,0,4.4,2,4.4,4.4l0,0   C359.6,420,358,422,355.6,422z"/>
</g>
<path style="fill:#FFFFFF;" d="M194.8,354.8c13.6,0,24.4,11.2,24.4,24.4c0,13.6-10.8,24.4-24.4,24.4V354.8z"/>
<path style="fill:#324A5E;" d="M146.8,432.4h42.8c2.8,0,5.6-2.4,5.6-5.6v-95.2c0-2.8-2.4-5.6-5.6-5.6h-42.8c-2.8,0-5.6,2.4-5.6,5.6  v95.6C141.6,430,144,432.4,146.8,432.4z"/>
<path style="fill:#FFFFFF;" d="M141.6,420h-4.8c-6,0-11.2-5.2-11.2-11.2V350c0-6,5.2-11.2,11.2-11.2h4.8V420z"/>
<g>
	<path style="fill:#2B3B4E;" d="M152.4,345.2h32.8c2.4,0,4.4-2,4.4-4.4l0,0c0-2.4-2-4.4-4.4-4.4h-32.8c-2.4,0-4.4,2-4.4,4.4l0,0   C148.4,343.2,150,345.2,152.4,345.2z"/>
	<path style="fill:#2B3B4E;" d="M152.4,364.4h32.8c2.4,0,4.4-2,4.4-4.4l0,0c0-2.4-2-4.4-4.4-4.4h-32.8c-2.4,0-4.4,2-4.4,4.4l0,0   C148.4,362.4,150,364.4,152.4,364.4z"/>
	<path style="fill:#2B3B4E;" d="M152.4,383.6h32.8c2.4,0,4.4-2,4.4-4.4l0,0c0-2.4-2-4.4-4.4-4.4h-32.8c-2.4,0-4.4,2-4.4,4.4l0,0   C148.4,381.6,150,383.6,152.4,383.6z"/>
	<path style="fill:#2B3B4E;" d="M152.4,402.8h32.8c2.4,0,4.4-2,4.4-4.4l0,0c0-2.4-2-4.4-4.4-4.4h-32.8c-2.4,0-4.4,2-4.4,4.4l0,0   C148.4,400.8,150,402.8,152.4,402.8z"/>
	<path style="fill:#2B3B4E;" d="M152.4,422h32.8c2.4,0,4.4-2,4.4-4.4l0,0c0-2.4-2-4.4-4.4-4.4h-32.8c-2.4,0-4.4,2-4.4,4.4l0,0   C148.4,420,150,422,152.4,422z"/>
</g>
<circle style="fill:#FFFFFF;" cx="254" cy="379.2" r="19.2"/>
<path style="fill:#E6E9EE;" d="M278.4,97.2c-0.8-12.8-11.6-22.8-24.4-22.8l0,0c-12.8,0-23.6,10-24.4,22.8H278.4z"/>
<g>
</g>
<g>
</g>
<g>
</g>
<g>
</g>
<g>
</g>
<g>
</g>
<g>
</g>
<g>
</g>
<g>
</g>
<g>
</g>
<g>
</g>
<g>
</g>
<g>
</g>
<g>
</g>
<g>
</g>
</svg>
