<?xml version="1.0" encoding="iso-8859-1"?>
<!-- Generator: Adobe Illustrator 19.0.0, SVG Export Plug-In . SVG Version: 6.00 Build 0)  -->
<svg xmlns="http://www.w3.org/2000/svg" xmlns:xlink="http://www.w3.org/1999/xlink" version="1.1" id="Layer_1" x="0px" y="0px" viewBox="0 0 508 508" style="enable-background:new 0 0 508 508;" xml:space="preserve">
<circle style="fill:#54C0EB;" cx="254" cy="254" r="254"/>
<path style="fill:#84DBFF;" d="M110,463.2c40.8,28,90.4,44.8,144,44.8s102.8-16.4,144-44.8H110z"/>
<g>
	<rect x="241.6" y="171.6" style="fill:#324A5E;" width="25.2" height="38.8"/>
	<circle style="fill:#324A5E;" cx="286.4" cy="286" r="16.8"/>
	<circle style="fill:#324A5E;" cx="221.6" cy="286" r="16.8"/>
	<circle style="fill:#324A5E;" cx="286.4" cy="423.2" r="16.8"/>
	<circle style="fill:#324A5E;" cx="221.6" cy="423.2" r="16.8"/>
</g>
<g>
	<ellipse style="fill:#FFFFFF;" cx="286.4" cy="353.2" rx="23.2" ry="65.2"/>
	<ellipse style="fill:#FFFFFF;" cx="221.6" cy="353.2" rx="23.2" ry="65.2"/>
</g>
<path style="fill:#324A5E;" d="M324.4,143.2h-15.6V78.4h15.6c3.2,0,6,2.8,6,6v52.8C330.4,140.4,328,143.2,324.4,143.2z"/>
<path style="fill:#FFFFFF;" d="M330.4,84.4v52.8c14-0.4,25.6-12,25.6-26.4S344.8,84.8,330.4,84.4z"/>
<path style="fill:#324A5E;" d="M183.6,143.2h15.6V78.4h-15.6c-3.2,0-6,2.8-6,6v52.8C177.6,140.4,180,143.2,183.6,143.2z"/>
<path style="fill:#FFFFFF;" d="M177.6,84.4v52.8c-14-0.4-25.6-12-25.6-26.4S163.2,84.8,177.6,84.4z"/>
<g>
	<polygon style="fill:#324A5E;" points="372.4,244.4 362,259.2 320.8,234.8 336,213.2  "/>
	<polygon style="fill:#324A5E;" points="363.6,262.8 368,310.4 380.4,310.4 379.6,262.8  "/>
</g>
<circle style="fill:#FFFFFF;" cx="373.6" cy="320.4" r="14"/>
<circle style="fill:#324A5E;" cx="373.6" cy="320.4" r="8"/>
<g>
	<path style="fill:#FFFFFF;" d="M376.4,356c-4.4,4.4-10,7.2-14.8,7.2c0.8-0.8,1.6-1.2,2.4-2c7.6-7.2,10.8-16,7.2-19.6   c-2.8-3.2-10-1.2-16.8,4c1.2-2.4,2.8-4.4,5.2-6.4c7.6-7.2,17.2-9.6,22-4.8C386.4,338.8,384,348.8,376.4,356z"/>
	<circle style="fill:#FFFFFF;" cx="369.2" cy="252.4" r="18.4"/>
</g>
<polygon style="fill:#324A5E;" points="135.6,244.4 146,259.2 187.2,234.8 172,213.2 "/>
<g>
	<path style="fill:#FFFFFF;" d="M328,202.4h-18.8v40.8c2.4,0.8,5.2,1.6,8,1.6c12.4,0,22.8-10,22.8-22.8   C339.6,213.6,334.8,206,328,202.4z"/>
	<path style="fill:#FFFFFF;" d="M168.4,222c0,12.4,10,22.8,22.8,22.8c2.8,0,5.6-0.4,8-1.6v-40.8h-18.8   C173.2,206,168.4,213.6,168.4,222z"/>
</g>
<polygon style="fill:#324A5E;" points="128.4,262.8 127.6,310.4 140,310.4 144.4,262.8 "/>
<circle style="fill:#FFFFFF;" cx="134.4" cy="320.4" r="14"/>
<circle style="fill:#324A5E;" cx="134.4" cy="320.4" r="8"/>
<g>
	<path style="fill:#FFFFFF;" d="M131.6,356c4.4,4.4,10,7.2,14.8,7.2c-0.8-0.8-1.6-1.2-2.4-2c-7.6-7.2-10.8-16-7.2-19.6   c2.8-3.2,10-1.2,16.8,4c-1.2-2.4-2.8-4.4-5.2-6.4c-7.6-7.2-17.2-9.6-22-4.8C121.6,338.8,124,348.8,131.6,356z"/>
	<circle style="fill:#FFFFFF;" cx="138.8" cy="252.4" r="18.4"/>
	<circle style="fill:#FFFFFF;" cx="254" cy="112.8" r="66.4"/>
</g>
<circle style="fill:#E6E9EE;" cx="254" cy="112.8" r="45.2"/>
<circle style="fill:#54C0EB;" cx="254" cy="112.8" r="29.6"/>
<circle style="fill:#84DBFF;" cx="254" cy="112.8" r="19.6"/>
<circle style="fill:#324A5E;" cx="254" cy="112.8" r="11.6"/>
<g>
	<circle style="fill:#FFFFFF;" cx="246.8" cy="106" r="6"/>
	<circle style="fill:#FFFFFF;" cx="262.4" cy="121.6" r="4"/>
</g>
<g>
	<circle style="fill:#CED5E0;" cx="254" cy="76" r="4"/>
	<circle style="fill:#CED5E0;" cx="254" cy="150.8" r="4"/>
	<circle style="fill:#CED5E0;" cx="291.6" cy="113.6" r="4"/>
	<circle style="fill:#CED5E0;" cx="216.4" cy="113.6" r="4"/>
	<circle style="fill:#CED5E0;" cx="280.4" cy="86.8" r="4"/>
	<circle style="fill:#CED5E0;" cx="227.6" cy="140" r="4"/>
	<circle style="fill:#CED5E0;" cx="280.4" cy="140" r="4"/>
	<circle style="fill:#CED5E0;" cx="227.6" cy="86.8" r="4"/>
</g>
<g>
	<path style="fill:#FFFFFF;" d="M177.2,227.6l65.2,65.2c6.4,6.4,16.8,6.4,23.2,0l65.2-65.2c10.4-10.4,3.2-28-11.6-28H188.8   C174,199.6,166.8,217.2,177.2,227.6z"/>
	<path style="fill:#FFFFFF;" d="M312.4,452l-21.6-21.6c-2-2-5.6-2-8,0L261.2,452c-3.6,3.6-1.2,9.6,4,9.6h43.6   C313.2,461.6,315.6,455.6,312.4,452z"/>
	<path style="fill:#FFFFFF;" d="M247.2,452l-21.6-21.6c-2-2-5.6-2-8,0L196,452c-3.6,3.6-1.2,9.6,4,9.6h43.6   C248,461.6,250.8,455.6,247.2,452z"/>
</g>
<g>
</g>
<g>
</g>
<g>
</g>
<g>
</g>
<g>
</g>
<g>
</g>
<g>
</g>
<g>
</g>
<g>
</g>
<g>
</g>
<g>
</g>
<g>
</g>
<g>
</g>
<g>
</g>
<g>
</g>
</svg>
