<?xml version="1.0" encoding="iso-8859-1"?>
<!-- Generator: Adobe Illustrator 19.0.0, SVG Export Plug-In . SVG Version: 6.00 Build 0)  -->
<svg xmlns="http://www.w3.org/2000/svg" xmlns:xlink="http://www.w3.org/1999/xlink" version="1.1" id="Layer_1" x="0px" y="0px" viewBox="0 0 508 508" style="enable-background:new 0 0 508 508;" xml:space="preserve">
<circle style="fill:#324A5E;" cx="254" cy="254" r="254"/>
<path style="fill:#E6E9EE;" d="M273.6,113.6v16h-38.8v-16c6,1.2,12.8,1.6,19.6,1.6C260.8,115.2,267.2,114.8,273.6,113.6z"/>
<path style="fill:#2B3B4E;" d="M112.8,465.2C153.2,492.4,202,508,254,508c52.4,0,100.8-16,141.2-42.8H112.8z"/>
<path style="fill:#CED5E0;" d="M290.8,258.8v14c-2-0.8-4-1.2-6-1.2h-61.2c-1.2,0-2.8,0-4,0.4v-12.8c0.8,0,1.6,0,2.4,0h64  C287.6,259.6,289.2,259.2,290.8,258.8z"/>
<g>
	<path style="fill:#E6E9EE;" d="M385.2,246.8c-0.4,0.4-1.2,0.8-2,0.8c-1.2,0-2.4-0.8-2.8-2c-1.2-2.8-3.2-6.8-5.6-9.6   s-6.8-0.8-6.8,2.8c0,1.2,0.4,2.8,1.2,4.4c0.8,1.6,0,3.2-1.6,4c-0.4,0-0.8,0.4-1.2,0.4c-1.2,0-2.4-0.8-2.8-2c-0.8-2.4-2-6-2-10   c0.4,0,0.8,0,1.2-0.4l16-6.8c0,0,0.4,0,0.4-0.4c2.8,3.2,5.6,8.4,7.6,15.2C386.8,244.4,386,246,385.2,246.8z"/>
	<path style="fill:#E6E9EE;" d="M356.8,169.2L337.2,182c-6.4-4.4-13.2-11.2-19.2-19.6c-0.8-1.2-1.6-2.4-2.4-3.6l17.2-28.8   c4,4,8,8.4,12,14C350.8,152.4,354.8,161.6,356.8,169.2z"/>
</g>
<path style="fill:#FFFFFF;" d="M373.6,210c-0.4,0-1.2,0-1.6,0.4l-18.4,8c-0.8,0.4-1.6,0.8-2,1.6c-4.8-5.6-9.2-13.2-12.4-22.4  c-1.6-4.8-3.2-9.6-4-14.4l23.6-15.6c3.6,5.2,7.2,11.6,9.6,19.2C371.6,194.8,373.2,203.2,373.6,210z"/>
<path style="fill:#54C0EB;" d="M372,210.4l-18.4,8c-2.8,1.2-3.6,5.2-1.6,8.4l4,6.4c1.6,2.4,4,3.2,6,2.4l16-6.8c2-0.8,3.2-3.6,2.4-6  l-1.6-7.2C378,211.2,374.8,209.2,372,210.4z"/>
<g>
	<path style="fill:#E6E9EE;" d="M147.2,235.6c0,3.6-1.2,7.2-2,10c-0.4,1.2-1.6,2-2.8,2c-0.4,0-0.8,0-1.2-0.4c-1.6-0.8-2.4-2.4-1.6-4   c0.8-1.6,1.2-3.2,1.2-4.4c0-3.6-4.4-5.2-6.8-2.8c-2.4,2.8-4.4,6.8-5.6,9.6c-0.4,1.2-1.6,2-2.8,2c-0.8,0-1.2,0-2-0.8   c-1.2-0.8-1.6-2.4-1.2-3.6c2-6.8,4.8-12,7.6-15.2c0,0,0.4,0,0.4,0.4l16,6.8C146.4,235.2,146.8,235.6,147.2,235.6z"/>
	<path style="fill:#E6E9EE;" d="M192.4,158.8c-0.8,1.2-1.6,2.4-2.4,3.6c-6,8.8-12.8,15.6-19.2,19.6l-19.6-12.8   c1.6-7.6,6-16.4,12-25.6c3.6-5.2,7.6-10,12-14L192.4,158.8z"/>
</g>
<path style="fill:#FFFFFF;" d="M172.8,183.2c-0.8,4.4-2,9.2-4,14.4c-3.2,9.2-7.6,16.8-12.4,22.4c-0.4-0.8-1.2-1.2-2-1.6l-18.4-8  c-0.4-0.4-0.8-0.4-1.6-0.4c0.4-6.8,2-14.8,4.8-23.2c2.8-7.2,6-14,9.6-19.2L172.8,183.2z"/>
<g>
	<path style="fill:#54C0EB;" d="M136,210.4l18.4,8c2.8,1.2,3.6,5.2,1.6,8.4l-4,6.4c-1.6,2.4-4,3.2-6,2.4l-16-6.8   c-2-0.8-3.2-3.6-2.4-6l1.6-7.2C130,211.2,133.2,209.2,136,210.4z"/>
	<path style="fill:#54C0EB;" d="M336.8,122.8L312,164l-8-34.8l0,0C312,120,325.6,117.6,336.8,122.8z"/>
	<path style="fill:#54C0EB;" d="M204,129.6L204,129.6l-8,34.8l-24.8-41.2C182.4,117.6,196,120,204,129.6z"/>
	<path style="fill:#54C0EB;" d="M298.8,67.6v29.2c5.2,0,9.6-6.4,9.6-14.4S304,67.6,298.8,67.6z"/>
	<path style="fill:#54C0EB;" d="M200,82.4c0,8,4.4,14.4,9.6,14.4V67.6C204,67.6,200,74.4,200,82.4z"/>
</g>
<path style="fill:#FFFFFF;" d="M298.4,60.8v38c0,4-2,7.6-5.6,9.2c-10.8,4.8-24,7.6-38.8,7.6s-28.4-2.8-38.8-7.6  c-3.6-1.6-5.6-5.2-5.6-9.2v-38c0-4,2-7.6,5.6-9.2C226,46.8,239.6,44,254,44s28.4,2.8,38.8,7.6C296.4,53.2,298.4,56.8,298.4,60.8z"/>
<path style="fill:#54C0EB;" d="M290,50.4l-6.8,16.8c-1.6,3.6-5.2,6.4-9.2,6.4h-40c-4,0-7.6-2.4-9.2-6.4L218,50.4  c10-4,22.8-6.4,36-6.4C267.6,44,280,46.4,290,50.4z"/>
<g>
	<circle style="fill:#324A5E;" cx="276.4" cy="89.6" r="5.6"/>
	<circle style="fill:#324A5E;" cx="231.6" cy="89.6" r="5.6"/>
</g>
<path style="fill:#FFFFFF;" d="M304.4,129.6H203.6l-8,34.8l10.8,81.6c1.2,7.6,7.6,13.6,15.6,13.6h64c8,0,14.4-5.6,15.6-13.6  l10.8-81.6L304.4,129.6z"/>
<g>
	<path style="fill:#E6E9EE;" d="M296,379.2v69.6c-0.4,0-0.8,0-1.2,0c-2.8,0-5.2,1.6-6.4,3.6c-1.2-2.4-3.6-3.6-6.4-3.6   s-5.2,1.6-6.4,3.6c-1.2-2.4-3.6-3.6-6.4-3.6c-0.4,0-0.8,0-1.2,0v-69.6c0.8,0.4,2,0.8,2.8,0.8c1.2,0,2.8-0.4,4-1.2   c1.2,0.8,2.4,1.2,4,1.2c1.2,0,2.8-0.4,4-1.2c1.2,0.8,2.4,1.2,4,1.2s2.8-0.4,4-1.2c1.2,0.8,2.4,1.2,4,1.2   C294,380,295.2,379.6,296,379.2z"/>
	<path style="fill:#E6E9EE;" d="M243.2,379.2v69.6c-0.4,0-1.2,0-1.6,0c-2.8,0-5.2,1.6-6.4,3.6c-1.2-2.4-3.6-3.6-6.4-3.6   c-2.8,0-5.2,1.6-6.4,3.6c-1.2-2.4-3.6-3.6-6.4-3.6c-0.4,0-0.4,0-0.8,0v-69.6c0.8,0.4,2,0.8,2.8,0.8c1.2,0,2.8-0.4,4-1.2   c1.2,0.8,2.4,1.2,4,1.2c1.2,0,2.8-0.4,4-1.2c1.2,0.8,2.4,1.2,4,1.2c1.2,0,2.8-0.4,4-1.2c1.2,0.8,2.4,1.2,4,1.2   C241.2,380,242,379.6,243.2,379.2z"/>
	<path style="fill:#E6E9EE;" d="M297.6,342c0,2.4,0,4.8-0.4,7.2c-1.2-1.2-2.8-1.6-4.4-1.6c-1.2,0-2.8,0.4-4,1.2   c-1.2-0.8-2.4-1.2-4-1.2s-2.8,0.4-4,1.2c-1.2-0.8-2.4-1.2-4-1.2c-1.2,0-2.8,0.4-4,1.2c-1.2-0.8-2.4-1.2-4-1.2c-2,0-3.6,0.8-5.2,2.4   c0-2.8,0.4-6.4,0.4-9.6c1.2-12.4,2.8-26,4.8-36.4h14.4c2,0,4.4-0.4,6-1.2C294.8,312.8,298,327.6,297.6,342z"/>
</g>
<path style="fill:#FFFFFF;" d="M293.2,347.2c-1.2,0-2.8,0.4-4,1.2c-1.2-0.8-2.4-1.2-4-1.2c-1.2,0-2.8,0.4-4,1.2  c-1.2-0.8-2.4-1.2-4-1.2c-1.2,0-2.8,0.4-4,1.2c-1.2-0.8-2.4-1.2-4-1.2c-5.2,0-9.6,7.2-9.6,16.4c0,8.8,4.4,16.4,9.6,16.4  c1.2,0,2.8-0.4,4-1.2c1.2,0.8,2.4,1.2,4,1.2c1.2,0,2.8-0.4,4-1.2c1.2,0.8,2.4,1.2,4,1.2c1.2,0,2.8-0.4,4-1.2c1.2,0.8,2.4,1.2,4,1.2  c5.2,0,9.6-7.2,9.6-16.4C302.8,354.8,298.4,347.2,293.2,347.2z"/>
<path style="fill:#E6E9EE;" d="M245.2,349.6c-1.6-1.6-3.2-2.4-5.2-2.4c-1.2,0-2.8,0.4-4,1.2c-1.2-0.8-2.4-1.2-4-1.2  c-1.2,0-2.8,0.4-4,1.2c-1.2-0.8-2.4-1.2-4-1.2c-1.2,0-2.8,0.4-4,1.2c-1.2-0.8-2.4-1.2-4-1.2s-2.8,0.4-4.4,1.6c0-2.4-0.4-4.8-0.4-7.2  c-0.4-14,2.8-28.4,6.8-39.2c1.2,0.4,2.8,0.4,4,0.4h16.4c2,10.4,3.6,24,4.8,36.4C244.8,343.6,245.2,346.8,245.2,349.6z"/>
<g>
	<path style="fill:#FFFFFF;" d="M217.2,347.2c1.2,0,2.8,0.4,4,1.2c1.2-0.8,2.4-1.2,4-1.2c1.2,0,2.8,0.4,4,1.2c1.2-0.8,2.4-1.2,4-1.2   c1.2,0,2.8,0.4,4,1.2c1.2-0.8,2.4-1.2,4-1.2c5.2,0,9.6,7.2,9.6,16.4c0,8.8-4.4,16.4-9.6,16.4c-1.2,0-2.8-0.4-4-1.2   c-1.2,0.8-2.4,1.2-4,1.2c-1.2,0-2.8-0.4-4-1.2c-1.2,0.8-2.4,1.2-4,1.2c-1.2,0-2.8-0.4-4-1.2c-1.2,0.8-2.4,1.2-4,1.2   c-5.2,0-9.6-7.2-9.6-16.4C207.6,354.8,212,347.2,217.2,347.2z"/>
	<path style="fill:#FFFFFF;" d="M294.8,448.8c-2.8,0-5.2,1.6-6.4,3.6c-1.2-2.4-3.6-3.6-6.4-3.6s-5.2,1.6-6.4,3.6   c-1.2-2.4-3.6-3.6-6.4-3.6c-4.4,0-7.6,3.6-7.6,7.6c0,4.4,3.6,7.6,7.6,7.6h26.4c4.4,0,7.6-3.6,7.6-7.6   C302.4,452,299.2,448.8,294.8,448.8z"/>
	<path style="fill:#FFFFFF;" d="M241.6,448.8c-2.8,0-5.2,1.6-6.4,3.6c-1.2-2.4-3.6-3.6-6.4-3.6c-2.8,0-5.2,1.6-6.4,3.6   c-1.2-2.4-3.6-3.6-6.4-3.6c-4.4,0-7.6,3.6-7.6,7.6c0,4.4,3.6,7.6,7.6,7.6h26.4c4.4,0,7.6-3.6,7.6-7.6   C249.2,452,245.6,448.8,241.6,448.8z"/>
	<path style="fill:#FFFFFF;" d="M284.8,303.2h-61.6c-8.8,0-16-7.2-16-16l0,0c0-8.8,7.2-16,16-16h61.2c8.8,0,16,7.2,16,16l0,0   C300.4,296.4,293.2,303.2,284.8,303.2z"/>
</g>
<circle style="fill:#84DBFF;" cx="254" cy="195.6" r="38.8"/>
<g>
	<circle style="fill:#FFFFFF;" cx="254" cy="195.6" r="23.2"/>
	<circle style="fill:#FFFFFF;" cx="254" cy="165.2" r="4.4"/>
	<circle style="fill:#FFFFFF;" cx="254" cy="226.8" r="4.4"/>
	<circle style="fill:#FFFFFF;" cx="284.8" cy="196" r="4.4"/>
	<circle style="fill:#FFFFFF;" cx="223.2" cy="196" r="4.4"/>
	<circle style="fill:#FFFFFF;" cx="275.6" cy="174.4" r="4.4"/>
	<circle style="fill:#FFFFFF;" cx="232.4" cy="218" r="4.4"/>
	<circle style="fill:#FFFFFF;" cx="275.6" cy="218" r="4.4"/>
	<circle style="fill:#FFFFFF;" cx="232.4" cy="174.4" r="4.4"/>
</g>
<g>
</g>
<g>
</g>
<g>
</g>
<g>
</g>
<g>
</g>
<g>
</g>
<g>
</g>
<g>
</g>
<g>
</g>
<g>
</g>
<g>
</g>
<g>
</g>
<g>
</g>
<g>
</g>
<g>
</g>
</svg>
