<?xml version="1.0" encoding="iso-8859-1"?>
<!-- Generator: Adobe Illustrator 19.0.0, SVG Export Plug-In . SVG Version: 6.00 Build 0)  -->
<svg xmlns="http://www.w3.org/2000/svg" xmlns:xlink="http://www.w3.org/1999/xlink" version="1.1" id="Layer_1" x="0px" y="0px" viewBox="0 0 508 508" style="enable-background:new 0 0 508 508;" xml:space="preserve">
<circle style="fill:#FD8469;" cx="254" cy="254" r="254"/>
<g>
	<path style="fill:#2B3B4E;" d="M372.8,222c-2.4-32.4-9.6-52.8-17.2-65.2h-22.4c6,6,18,23.6,21.6,65.2H372.8z"/>
	<path style="fill:#2B3B4E;" d="M153.2,222c3.2-41.6,15.6-59.2,21.6-65.2h-22.4c-7.2,12.4-14.8,32.8-17.2,65.2H153.2z"/>
</g>
<path style="fill:#F1543F;" d="M94.8,452c43.6,35.2,98.8,56,159.2,56s115.6-21.2,159.2-56H94.8z"/>
<path style="fill:#324A5E;" d="M376.4,282c0,0,9.2,23.6-8.8,41.2c-6.8,6.8-18.4,2.8-18.8-6.8c-0.4-4-0.4-8.4,0.4-12  c0,0-0.8,1.6-1.6,4.4c-3.6,8.4-16,4.4-14.4-4.4s5.6-18.8,15.6-28L376.4,282z"/>
<path style="fill:#E6E9EE;" d="M390.8,253.6c0,34-12,35.2-26.4,35.2c-14.8,0-26.4-1.2-26.4-35.2c0-9.6,0.8-20.4,2.4-31.6  c18-10.8,28.8-28.8,35.2-45.2C384.8,194.4,390.8,229.2,390.8,253.6z"/>
<circle style="fill:#CED5E0;" cx="335.6" cy="146" r="23.2"/>
<path style="fill:#324A5E;" d="M131.6,282c0,0-9.2,23.6,8.8,41.2c6.8,6.8,18.4,2.8,18.8-6.8c0.4-4,0.4-8.4-0.4-12  c0,0,0.8,1.6,1.6,4.4c3.6,8.4,16,4.4,14.4-4.4s-5.6-18.8-15.6-28L131.6,282z"/>
<path style="fill:#E6E9EE;" d="M117.2,253.6c0,34,12,35.2,26.4,35.2c14.8,0,26.4-1.2,26.4-35.2c0-9.6-0.8-20.4-2.4-31.6  c-18-10.8-28.8-28.8-35.2-45.2C123.2,194.4,117.2,229.2,117.2,253.6z"/>
<circle style="fill:#CED5E0;" cx="172.4" cy="146" r="23.2"/>
<rect x="274.8" y="293.6" style="fill:#324A5E;" width="17.2" height="143.2"/>
<path style="fill:#CED5E0;" d="M310.4,452.4h-54v-7.2c0-4.8,4-8.8,8.8-8.8H302c4.8,0,8.8,4,8.8,8.8v7.2H310.4z"/>
<g>
	<path style="fill:#E6E9EE;" d="M294.8,365.6H272c-4,0-7.2-3.2-7.2-7.2V326c0-4,3.2-7.2,7.2-7.2h22.8c4,0,7.2,3.2,7.2,7.2v32   C302,362,298.8,365.6,294.8,365.6z"/>
	<path style="fill:#E6E9EE;" d="M294.8,426.4H272c-4,0-7.2-3.2-7.2-7.2v-32.4c0-4,3.2-7.2,7.2-7.2h22.8c4,0,7.2,3.2,7.2,7.2v32.4   C302,423.2,298.8,426.4,294.8,426.4z"/>
</g>
<rect x="216" y="293.6" style="fill:#324A5E;" width="17.2" height="143.2"/>
<path style="fill:#CED5E0;" d="M251.6,452.4h-54v-7.2c0-4.8,4-8.8,8.8-8.8h36.8c4.8,0,8.8,4,8.8,8.8v7.2H251.6z"/>
<g>
	<path style="fill:#E6E9EE;" d="M236,365.6h-22.8c-4,0-7.2-3.2-7.2-7.2V326c0-4,3.2-7.2,7.2-7.2H236c4,0,7.2,3.2,7.2,7.2v32   C243.2,362,240,365.6,236,365.6z"/>
	<path style="fill:#E6E9EE;" d="M236,426.4h-22.8c-4,0-7.2-3.2-7.2-7.2v-32.4c0-4,3.2-7.2,7.2-7.2H236c4,0,7.2,3.2,7.2,7.2v32.4   C243.2,423.2,240,426.4,236,426.4z"/>
</g>
<rect x="224.4" y="115.2" style="fill:#324A5E;" width="59.2" height="15.2"/>
<g>
	<path style="fill:#E6E9EE;" d="M314.8,279.2H193.2c-7.2,0-13.2-6-13.2-13.2V143.6c0-7.2,6-13.2,13.2-13.2h122   c7.2,0,13.2,6,13.2,13.2V266C328.4,273.6,322.4,279.2,314.8,279.2z"/>
	<path style="fill:#E6E9EE;" d="M296,115.2v-44c0-8.4-6.8-15.2-15.2-15.2h-53.2c-8.4,0-15.2,6.8-15.2,15.2v44H296z"/>
</g>
<rect x="220.4" y="70.8" style="fill:#84DBFF;" width="67.2" height="21.2"/>
<polygon style="fill:#54C0EB;" points="287.6,70.8 287.6,92 252.4,92 265.2,70.8 "/>
<path style="fill:#CED5E0;" d="M317.2,279.2H190.8v3.6c0,8.4,6.8,15.2,15.2,15.2h96.4c8.4,0,15.2-6.8,15.2-15.2v-3.6H317.2z"/>
<rect x="196.8" y="154" style="fill:#FFFFFF;" width="114.4" height="56"/>
<path style="fill:#84DBFF;" d="M296,198c-4.8-18.8-21.6-32.8-42-32.8s-37.2,14-42,32.8H296z"/>
<g>
</g>
<g>
</g>
<g>
</g>
<g>
</g>
<g>
</g>
<g>
</g>
<g>
</g>
<g>
</g>
<g>
</g>
<g>
</g>
<g>
</g>
<g>
</g>
<g>
</g>
<g>
</g>
<g>
</g>
</svg>
