<?xml version="1.0" encoding="iso-8859-1"?>
<!-- Generator: Adobe Illustrator 19.0.0, SVG Export Plug-In . SVG Version: 6.00 Build 0)  -->
<svg xmlns="http://www.w3.org/2000/svg" xmlns:xlink="http://www.w3.org/1999/xlink" version="1.1" id="Layer_1" x="0px" y="0px" viewBox="0 0 508 508" style="enable-background:new 0 0 508 508;" xml:space="preserve">
<circle style="fill:#FFD05B;" cx="254" cy="254" r="254"/>
<path style="fill:#F9B54C;" d="M95.2,452.4C138.8,487.2,193.6,508,254,508c60,0,115.2-20.8,158.8-55.6H95.2z"/>
<rect x="274" y="310" style="fill:#2B3B4E;" width="18.4" height="103.6"/>
<path style="fill:#FFFFFF;" d="M313.6,416.4c-0.8,30-12.8,30.8-27.2,30.4c-14.8-0.4-26.4-2-25.6-32c0.4-8.4,1.6-18,3.6-28  c18.4-9.2,29.6-24.8,36.4-38.8C308.8,364,314,394.8,313.6,416.4z"/>
<path style="fill:#324A5E;" d="M331.6,452.4c-3.6-16.4-18-29.2-35.6-29.2s-32.4,12.4-35.6,29.2H331.6z"/>
<rect x="215.6" y="310" style="fill:#2B3B4E;" width="18.4" height="103.6"/>
<path style="fill:#FFFFFF;" d="M194.4,416.4c0.8,30,12.8,30.8,27.2,30.4c14.8-0.4,26.4-2,25.6-32c-0.4-8.4-1.6-18-3.6-28  c-18.4-9.2-29.6-24.8-36.4-38.8C199.2,364,194,394.8,194.4,416.4z"/>
<g>
	<path style="fill:#324A5E;" d="M176.4,452.4c3.6-16.4,18-29.2,35.6-29.2s32.4,12.4,35.6,29.2H176.4z"/>
	<rect x="244.8" y="162.4" style="fill:#324A5E;" width="18.4" height="44.4"/>
	<path style="fill:#324A5E;" d="M366.8,339.6c0,0,9.2,23.6-8.8,41.2c-6.8,6.8-18.4,2.8-18.8-6.8c-0.4-4-0.4-8.4,0.4-12   c0,0-0.8,1.6-1.6,4.4c-3.6,8.4-16,4.4-14.4-4.4s5.6-18.8,15.6-28L366.8,339.6z"/>
</g>
<path style="fill:#2B3B4E;" d="M328,195.2l-8,16c0.4,0,28,17.6,25.6,101.2l18,0.4C366.4,216.8,332,197.2,328,195.2z"/>
<g>
	<path style="fill:#FFFFFF;" d="M381.2,310.8c0,34-12,35.2-26.4,35.2c-14.8,0-26.4-1.2-26.4-35.2c0-9.6,0.8-20.4,2.4-31.6   c18-10.8,28.8-28.8,35.2-45.2C374.8,252,381.2,286.4,381.2,310.8z"/>
	<circle style="fill:#FFFFFF;" cx="325.6" cy="203.2" r="23.2"/>
</g>
<path style="fill:#324A5E;" d="M141.2,339.6c0,0-9.2,23.6,8.8,41.2c6.8,6.8,18.4,2.8,18.8-6.8c0.4-4,0.4-8.4-0.4-12  c0,0,0.8,1.6,1.6,4.4c3.6,8.4,16,4.4,14.4-4.4s-5.6-18.8-15.6-28L141.2,339.6z"/>
<path style="fill:#2B3B4E;" d="M180,195.2l8,16c-0.4,0-28,17.6-25.6,101.2l-18,0.4C141.6,216.8,176,197.2,180,195.2z"/>
<g>
	<path style="fill:#FFFFFF;" d="M126.8,310.8c0,34,12,35.2,26.4,35.2c14.8,0,26.4-1.2,26.4-35.2c0-9.6-0.8-20.4-2.4-31.6   c-18-10.8-28.8-28.8-35.2-45.2C133.2,252,126.8,286.4,126.8,310.8z"/>
	<circle style="fill:#FFFFFF;" cx="182.4" cy="203.2" r="23.2"/>
</g>
<polygon style="fill:#E6E9EE;" points="287.6,120 274.8,110 314.8,65.2 320,69.2 "/>
<circle style="fill:#FF7058;" cx="319.6" cy="64.4" r="8.8"/>
<polygon style="fill:#E6E9EE;" points="220.4,120 233.2,110 193.2,65.2 188,69.2 "/>
<circle style="fill:#FF7058;" cx="188.4" cy="64.4" r="8.8"/>
<circle style="fill:#FFFFFF;" cx="254" cy="124" r="49.6"/>
<g>
	<circle style="fill:#84DBFF;" cx="275.6" cy="134" r="8.8"/>
	<circle style="fill:#84DBFF;" cx="232.4" cy="134" r="8.8"/>
</g>
<path style="fill:#FFFFFF;" d="M304.8,325.2H203.2c-5.2,0-9.2-4-9.2-9.2V201.2c0-5.2,4-9.2,9.2-9.2h101.6c5.2,0,9.2,4,9.2,9.2v115.2  C314,321.2,310,325.2,304.8,325.2z"/>
<g>
	<path style="fill:#E6E9EE;" d="M294.4,223.2h-80.8c-4.4,0-8-3.6-8-8l0,0c0-4.4,3.6-8,8-8h80.8c4.4,0,8,3.6,8,8l0,0   C302.4,219.6,298.8,223.2,294.4,223.2z"/>
	<path style="fill:#E6E9EE;" d="M294.4,250h-80.8c-4.4,0-8-3.6-8-8l0,0c0-4.4,3.6-8,8-8h80.8c4.4,0,8,3.6,8,8l0,0   C302.4,246.4,298.8,250,294.4,250z"/>
	<path style="fill:#E6E9EE;" d="M294.4,276.8h-80.8c-4.4,0-8-3.6-8-8l0,0c0-4.4,3.6-8,8-8h80.8c4.4,0,8,3.6,8,8l0,0   C302.4,273.2,298.8,276.8,294.4,276.8z"/>
	<path style="fill:#E6E9EE;" d="M294.4,303.6h-80.8c-4.4,0-8-3.6-8-8l0,0c0-4.4,3.6-8,8-8h80.8c4.4,0,8,3.6,8,8l0,0   C302.4,300,298.8,303.6,294.4,303.6z"/>
</g>
<g>
</g>
<g>
</g>
<g>
</g>
<g>
</g>
<g>
</g>
<g>
</g>
<g>
</g>
<g>
</g>
<g>
</g>
<g>
</g>
<g>
</g>
<g>
</g>
<g>
</g>
<g>
</g>
<g>
</g>
</svg>
