<?xml version="1.0" encoding="iso-8859-1"?>
<!-- Generator: Adobe Illustrator 19.0.0, SVG Export Plug-In . SVG Version: 6.00 Build 0)  -->
<svg xmlns="http://www.w3.org/2000/svg" xmlns:xlink="http://www.w3.org/1999/xlink" version="1.1" id="Layer_1" x="0px" y="0px" viewBox="0 0 508 508" style="enable-background:new 0 0 508 508;" xml:space="preserve">
<circle style="fill:#FFD05B;" cx="254" cy="254" r="254"/>
<g>
	<path style="fill:#324A5E;" d="M350,254.4l-5.6,21.2L334,272l4.8-19.2c2,1.2,4.4,2,6.8,2C347.6,255.2,348.8,254.8,350,254.4z"/>
	<path style="fill:#324A5E;" d="M352.4,232L352.4,232c-0.4-0.4-0.8-0.4-1.2-0.8l0,0c-0.4,0-0.8-0.4-1.6-0.4l0,0   c-0.4,0-0.8-0.4-1.6-0.4c-0.4,0-1.2,0-1.6,0s-0.8,0-1.6,0c-0.4,0-0.8,0-1.2,0c-0.4,0-0.8,0-1.2,0.4c-0.4,0-0.8,0.4-1.2,0.4l0,0   L338,196h11.2L352.4,232z"/>
	<polygon style="fill:#324A5E;" points="154.8,232 158,196 169.2,196 166,231.6  "/>
	<path style="fill:#324A5E;" d="M172.8,272l-10.4,3.6l-5.6-21.2c1.2,0.4,2.4,0.8,4,0.8c2.8,0,5.2-0.8,7.2-2.4L172.8,272z"/>
</g>
<path style="fill:#F9B54C;" d="M94,451.6c43.6,35.2,99.2,56.4,159.6,56.4s116-21.2,159.6-56.4H94z"/>
<g>
	<path style="fill:#324A5E;" d="M334.8,338.4c-4.8,10.8-12.4,18.8-19.6,21.2c4.8-13.6,4.8-26-1.2-28.4c-4.4-2-10.4,2.4-16,10.4   c0-5.2,1.2-11.2,4-17.2c6.4-15.6,19.2-24.8,28.4-21.2C339.2,307.2,341.2,323.2,334.8,338.4z"/>
	<path style="fill:#324A5E;" d="M172.4,338.4c4.8,10.8,12.4,18.8,19.6,21.2c-4.8-13.6-4.8-26,1.2-28.4c4.4-2,10.4,2.4,16,10.4   c0-5.2-1.2-11.2-4-17.2c-6.4-15.6-19.2-24.8-28.4-21.2C168,307.2,166,323.2,172.4,338.4z"/>
</g>
<path id="SVGCleanerId_0" style="fill:#E6E9EE;" d="M327.6,196c2.8-13.2,2.8-31.2-13.2-44.4c21.6,1.2,43.2,19.6,51.2,44.4H327.6z"/>
<path style="fill:#E6E9EE;" d="M179.6,196h-38c8-25.2,29.6-43.2,51.2-44.4C176.8,164.8,176.8,182.4,179.6,196z"/>
<g>
	<path id="SVGCleanerId_0_1_" style="fill:#E6E9EE;" d="M327.6,196c2.8-13.2,2.8-31.2-13.2-44.4c21.6,1.2,43.2,19.6,51.2,44.4H327.6   z"/>
</g>
<g>
	<path style="fill:#FFFFFF;" d="M343.2,321.2c3.2-6,5.6-12.4,7.2-19.2c2.4-9.6,2.4-18,0.8-24l-22.8-8.4c-5.2,4-10.4,10.4-14.8,19.2   c-3.2,6.4-5.2,12.8-6.8,19.6L343.2,321.2z"/>
	<path style="fill:#FFFFFF;" d="M164,321.2c-3.2-6-5.6-12.4-7.2-19.2c-2.4-9.6-2.4-18-0.8-24l22.8-8.4c5.2,4,10.4,10.4,14.8,19.2   c3.2,6.4,5.2,12.8,6.8,19.6L164,321.2z"/>
	<circle style="fill:#FFFFFF;" cx="161.2" cy="242.8" r="12.4"/>
	<circle style="fill:#FFFFFF;" cx="346" cy="242.8" r="12.4"/>
	<circle style="fill:#FFFFFF;" cx="161.2" cy="242.8" r="12.4"/>
	<path style="fill:#FFFFFF;" d="M341.2,231.6c0.4,0,0.8-0.4,1.2-0.4C342,231.2,341.6,231.6,341.2,231.6L341.2,231.6z"/>
	<path style="fill:#FFFFFF;" d="M352.4,232L352.4,232c-0.4-0.4-0.8-0.4-1.2-0.8C351.2,231.6,352,232,352.4,232z"/>
</g>
<rect x="271.2" y="300.4" style="fill:#324A5E;" width="14.4" height="65.6"/>
<path style="fill:#FFFFFF;" d="M303.2,450.8c0.4-15.2-0.4-31.6-2-47.6c-2-22.4-5.6-40.8-10-52.8l-24.4,1.2  c-2.8,12.4-4.8,30.8-4.8,53.6c0,16,0.8,32.4,2.4,47.6L303.2,450.8z"/>
<g>
	<path style="fill:#324A5E;" d="M321.6,452.4c-1.2-15.6-2.8-28.4-18.8-28.4s-40.8,12.4-41.6,28.4H321.6z"/>
	<rect x="222" y="300.4" style="fill:#324A5E;" width="14.4" height="65.6"/>
</g>
<path style="fill:#FFFFFF;" d="M204.8,450.8c-0.4-15.2,0.4-31.6,2-47.6c2-22.4,5.6-40.8,10-52.8l24.4,1.2  c2.8,12.4,4.8,30.8,4.8,53.6c0,16-0.8,32.4-2.4,47.6L204.8,450.8z"/>
<path style="fill:#324A5E;" d="M186.4,452.4c1.2-15.6,2.8-28.4,18.8-28.4s40.8,12.4,41.6,28.4H186.4z"/>
<polygon style="fill:#E6E9EE;" points="311.2,214.4 300.4,254.4 206.8,254.4 195.6,214.4 222,214.4 228.4,234 278.8,234   285.2,214.4 "/>
<g>
	<path style="fill:#FFFFFF;" d="M294,140h-80.8c-54.4,19.6-30,67.6-27.2,74.4h36l6.4,19.6h50l6.4-19.6h36   C324,207.6,348.4,159.6,294,140z"/>
	<path style="fill:#FFFFFF;" d="M283.6,313.2H226c-4.8,0-9.2-3.2-10.4-8l-6.4-24c-1.6-6.8,3.2-13.2,10.4-13.2h72   c4.4,0,8,4.4,6.8,8.8L290,308C289.6,311.2,286.8,313.2,283.6,313.2z"/>
</g>
<rect x="230.4" y="254.4" style="fill:#324A5E;" width="46.4" height="13.6"/>
<g>
	<path style="fill:#FF7058;" d="M253.6,212L253.6,212c-3.6,0-6.4-2.8-6.4-6.4V196c0-3.6,2.8-6.4,6.4-6.4l0,0c3.6,0,6.4,2.8,6.4,6.4   v9.6C260,208.8,257.2,212,253.6,212z"/>
	<polygon style="fill:#FF7058;" points="263.6,180 263.6,208.4 282.8,180.4 282.4,180  "/>
	<polygon style="fill:#FF7058;" points="243.6,180 243.6,208.4 224.4,180.4 224.8,180  "/>
</g>
<path style="fill:#FFFFFF;" d="M294,84.4c0,8.8-2.4,24.8-6.4,36.4L273.2,108H234l-14.4,12.8c-4-12-6.4-27.6-6.4-36.4  c0-10.8,3.6-21.2,9.2-28.8h10.4l3.2,10h34.8l3.2-10h10.4C290.4,63.6,294,73.6,294,84.4z"/>
<polygon style="fill:#E6E9EE;" points="273.2,108 234,108 214,126 214,140 293.2,140 293.2,126 "/>
<g>
	<path style="fill:#84DBFF;" d="M263.6,84.4c2.4,4.8,7.6,7.2,12.8,5.2c5.2-1.6,8-6.8,6.8-12L263.6,84.4z"/>
	<path style="fill:#84DBFF;" d="M243.6,84.4c-2.4,4.8-7.6,7.2-12.8,5.2c-5.2-1.6-8-6.8-6.8-12L243.6,84.4z"/>
</g>
<g>
	<circle style="fill:#E6E9EE;" cx="280" cy="376" r="7.6"/>
	<circle style="fill:#E6E9EE;" cx="224.4" cy="376" r="7.6"/>
</g>
<g>
	<rect x="239.6" y="116.8" style="fill:#ACB3BA;" width="6" height="14.8"/>
	<rect x="250.4" y="116.8" style="fill:#ACB3BA;" width="6" height="14.8"/>
	<rect x="261.6" y="116.8" style="fill:#ACB3BA;" width="6" height="14.8"/>
</g>
<g>
</g>
<g>
</g>
<g>
</g>
<g>
</g>
<g>
</g>
<g>
</g>
<g>
</g>
<g>
</g>
<g>
</g>
<g>
</g>
<g>
</g>
<g>
</g>
<g>
</g>
<g>
</g>
<g>
</g>
</svg>
