<?xml version="1.0" encoding="iso-8859-1"?>
<!-- Generator: Adobe Illustrator 19.0.0, SVG Export Plug-In . SVG Version: 6.00 Build 0)  -->
<svg xmlns="http://www.w3.org/2000/svg" xmlns:xlink="http://www.w3.org/1999/xlink" version="1.1" id="Layer_1" x="0px" y="0px" viewBox="0 0 508 508" style="enable-background:new 0 0 508 508;" xml:space="preserve">
<circle style="fill:#90DFAA;" cx="254" cy="254" r="254"/>
<path style="fill:#2C9984;" d="M110,463.2c40.8,28,90.4,44.8,144,44.8s102.8-16.4,144-44.8H110z"/>
<g>
	<rect x="244.8" y="295.6" style="fill:#324A5E;" width="18.4" height="98.8"/>
	<rect x="244.8" y="319.2" style="fill:#324A5E;" width="18.4" height="52.4"/>
</g>
<g>
	<polygon style="fill:#E6E9EE;" points="389.2,145.2 374.4,160.4 310.8,136 318.8,68  "/>
	<polygon style="fill:#E6E9EE;" points="359.6,233.2 349.6,224 366.8,155.2 401.2,159.2  "/>
</g>
<circle style="fill:#324A5E;" cx="382" cy="154.4" r="26.8"/>
<circle style="fill:#2B3B4E;" cx="382" cy="154.4" r="15.6"/>
<path style="fill:#324A5E;" d="M360.8,248.8c-0.8,0-1.6,0-2.4-0.4c-2.4-1.2-3.2-4.4-2-6.4c2.4-4.4,0.8-10-3.6-12.4  c-2-1.2-4.4-1.2-6.8-0.8c-2.4,0.8-4.4,2.4-5.2,4.4c-1.2,2.4-4.4,3.2-6.4,2c-2.4-1.2-3.2-4.4-2-6.4c2.4-4.4,6.4-7.6,11.2-9.2  c4.8-1.6,10-0.8,14.4,1.6c9.2,4.8,12.4,16.4,7.6,25.6C364.4,247.6,362.8,248.8,360.8,248.8z"/>
<g>
	<polygon style="fill:#E6E9EE;" points="118.8,145.2 133.6,160.4 197.2,136 189.2,68  "/>
	<polygon style="fill:#E6E9EE;" points="148.4,233.2 158.4,224 141.2,155.2 106.8,159.2  "/>
</g>
<circle style="fill:#324A5E;" cx="126" cy="154.4" r="26.8"/>
<circle style="fill:#2B3B4E;" cx="126" cy="154.4" r="15.6"/>
<path style="fill:#324A5E;" d="M147.2,248.8c0.8,0,1.6,0,2.4-0.4c2.4-1.2,3.2-4.4,2-6.4c-2.4-4.4-0.8-10,3.6-12.4  c2-1.2,4.4-1.2,6.8-0.8c2.4,0.8,4.4,2.4,5.2,4.4c1.2,2.4,4.4,3.2,6.4,2c2.4-1.2,3.2-4.4,2-6.4c-2.4-4.4-6.4-7.6-11.2-9.2  c-4.8-1.6-10-0.8-14.4,1.6c-9.2,4.8-12.4,16.4-7.6,25.6C143.6,247.6,145.2,248.8,147.2,248.8z"/>
<g>
	<path style="fill:#FFFFFF;" d="M331.6,76l-22.4,203.6C296,264,276,254,254,254s-42,10-55.2,25.6L176.4,76   c-2-16.4,11.2-30.8,28-30.8H304C320.4,44.8,333.2,59.6,331.6,76z"/>
	<circle style="fill:#FFFFFF;" cx="254" cy="129.6" r="58.8"/>
</g>
<circle style="fill:#84DBFF;" cx="254" cy="129.6" r="44.8"/>
<circle style="fill:#54C0EB;" cx="254" cy="129.6" r="31.2"/>
<g>
	<circle style="fill:#FFFFFF;" cx="236" cy="106.8" r="8.4"/>
	<circle style="fill:#FFFFFF;" cx="249.2" cy="119.6" r="5.2"/>
</g>
<path style="fill:#E6E9EE;" d="M326,319.2c-3.6-36.8-34.4-65.2-72-65.2s-68.4,28.8-72,65.2H326z"/>
<path style="fill:#324A5E;" d="M236.4,405.6v50c0,4.4,3.6,7.6,7.6,7.6h20c4.4,0,7.6-3.6,7.6-7.6v-50H236.4z"/>
<path style="fill:#E6E9EE;" d="M281.6,417.2v-32c0-7.6-6-13.6-13.6-13.6h-28c-7.6,0-13.6,6-13.6,13.6v32H281.6z"/>
<g>
</g>
<g>
</g>
<g>
</g>
<g>
</g>
<g>
</g>
<g>
</g>
<g>
</g>
<g>
</g>
<g>
</g>
<g>
</g>
<g>
</g>
<g>
</g>
<g>
</g>
<g>
</g>
<g>
</g>
</svg>
