<?xml version="1.0" encoding="iso-8859-1"?>
<!-- Generator: Adobe Illustrator 19.0.0, SVG Export Plug-In . SVG Version: 6.00 Build 0)  -->
<svg xmlns="http://www.w3.org/2000/svg" xmlns:xlink="http://www.w3.org/1999/xlink" version="1.1" id="Layer_1" x="0px" y="0px" viewBox="0 0 508 508" style="enable-background:new 0 0 508 508;" xml:space="preserve">
<circle style="fill:#90DFAA;" cx="254" cy="254" r="254"/>
<path style="fill:#2C9984;" d="M97.2,453.6c43.2,34,97.6,54.4,156.8,54.4s113.6-20.4,156.8-54.4H97.2z"/>
<g>
	<rect x="274" y="284.4" style="fill:#324A5E;" width="7.6" height="145.2"/>
	<rect x="226.4" y="284.4" style="fill:#324A5E;" width="7.6" height="145.2"/>
</g>
<g>
	<path style="fill:#FFFFFF;" d="M294.4,378.8c0,16-7.6,6-16.8,6s-16.8,10-16.8-6s7.6-52.4,16.8-52.4S294.4,362.4,294.4,378.8z"/>
	<path style="fill:#FFFFFF;" d="M295.2,452.4c1.2-2.4,1.6-4.8,1.6-7.6c0-10.4-8.4-18.8-18.8-18.8s-18.8,8.4-18.8,18.8   c0,2.8,0.4,5.2,1.6,7.6H295.2z"/>
	<path style="fill:#FFFFFF;" d="M246.8,378.8c0,16-7.6,6-16.8,6s-16.8,10-16.8-6s7.6-52.4,16.8-52.4S246.8,362.4,246.8,378.8z"/>
	<path style="fill:#FFFFFF;" d="M247.6,452.4c1.2-2.4,1.6-4.8,1.6-7.6c0-10.4-8.4-18.8-18.8-18.8c-10.4,0-18.8,8.4-18.8,18.8   c0,2.8,0.4,5.2,1.6,7.6H247.6z"/>
</g>
<g>
	<circle style="fill:#324A5E;" cx="254" cy="262.8" r="40.8"/>
	<polygon style="fill:#324A5E;" points="286,166.4 222,166.4 240.8,120.8 267.2,120.8  "/>
</g>
<path style="fill:#FFFFFF;" d="M315.2,106.8c0,28.4-27.6,32-61.2,32s-61.2-3.6-61.2-32s27.6-51.2,61.2-51.2S315.2,78.4,315.2,106.8z  "/>
<path style="fill:#84DBFF;" d="M306.8,107.6c0,21.6-23.6,24.4-52.8,24.4s-52.8-2.8-52.8-24.4s23.6-39.2,52.8-39.2  S306.8,85.6,306.8,107.6z"/>
<g>
	<circle style="fill:#FFFFFF;" cx="278.8" cy="100.8" r="10.4"/>
	<circle style="fill:#FFFFFF;" cx="229.2" cy="100.8" r="10.4"/>
	<path style="fill:#FFFFFF;" d="M322.8,215.6c-2.8,14-8,26-15.2,35.6c-14.8,8-33.6,12.4-54,12.4c-20,0-39.2-4.8-54-12.4   c-6.8-9.6-12.4-21.6-15.2-35.6c-3.2-15.2-2.8-30.4,0.8-45.2c15.6-13.2,40-22,68-22s52.4,8.8,68,22   C325.6,185.2,326,200.4,322.8,215.6z"/>
</g>
<circle style="fill:#FF7058;" cx="254" cy="186.8" r="14.4"/>
<polygon style="fill:#324A5E;" points="338.4,288.4 351.2,288.4 356.4,239.6 341.6,180 313.2,190.4 340,242.4 "/>
<g>
	<circle style="fill:#FFFFFF;" cx="326.8" cy="185.6" r="18"/>
	<circle style="fill:#FFFFFF;" cx="347.6" cy="240.4" r="12.4"/>
</g>
<polygon style="fill:#324A5E;" points="169.6,288.4 168,242.4 194.8,190.4 166.4,180 151.6,239.6 156.8,288.4 "/>
<g>
	<circle style="fill:#FFFFFF;" cx="181.2" cy="185.6" r="18"/>
	<circle style="fill:#FFFFFF;" cx="160.4" cy="240.4" r="12.4"/>
	<path style="fill:#FFFFFF;" d="M172.8,340.4c-1.6-2-2.8-4.4-4-6.8c-8-15.6-8.4-31.6-0.8-35.6c7.6-4,20.4,5.6,28.4,21.2v0.4   c-0.4-5.2-2.4-10.8-5.2-16.4c-8-15.6-22.8-24-32.8-18.8s-11.6,22-3.2,37.6C159.6,330.8,166.4,337.2,172.8,340.4z"/>
	<path style="fill:#FFFFFF;" d="M335.2,340.4c1.6-2,2.8-4.4,4-6.8c8-15.6,8.4-31.6,0.8-35.6s-20.4,5.6-28.4,21.2v0.4   c0.4-5.2,2.4-10.8,5.2-16.4c8-15.6,22.8-24,32.8-18.8s11.6,22,3.2,37.6C348.4,330.8,341.6,337.2,335.2,340.4z"/>
</g>
<g>
</g>
<g>
</g>
<g>
</g>
<g>
</g>
<g>
</g>
<g>
</g>
<g>
</g>
<g>
</g>
<g>
</g>
<g>
</g>
<g>
</g>
<g>
</g>
<g>
</g>
<g>
</g>
<g>
</g>
</svg>
