<?xml version="1.0" encoding="iso-8859-1"?>
<!-- Generator: Adobe Illustrator 19.0.0, SVG Export Plug-In . SVG Version: 6.00 Build 0)  -->
<svg xmlns="http://www.w3.org/2000/svg" xmlns:xlink="http://www.w3.org/1999/xlink" version="1.1" id="Layer_1" x="0px" y="0px" viewBox="0 0 508 508" style="enable-background:new 0 0 508 508;" xml:space="preserve">
<circle style="fill:#324A5E;" cx="254" cy="254" r="254"/>
<g>
	<polygon style="fill:#84DBFF;" points="286.8,384.8 279.2,324.4 266.8,324.4 278,384.8  "/>
	<polygon style="fill:#84DBFF;" points="274.8,384.8 262,324.4 256.8,324.4 271.2,384.8  "/>
	<polygon style="fill:#84DBFF;" points="230,384.8 241.2,324.4 228.8,324.4 221.2,384.8  "/>
	<polygon style="fill:#84DBFF;" points="236.8,384.8 251.2,324.4 246,324.4 233.2,384.8  "/>
</g>
<path style="fill:#2B3B4E;" d="M95.2,452c43.6,34.8,98.8,56,158.8,56s115.6-20.8,158.8-56H95.2z"/>
<g>
	<rect x="243.6" y="148" style="fill:#84DBFF;" width="20.8" height="30.4"/>
	<path style="fill:#84DBFF;" d="M294,89.6c-2.4-19.2-19.2-34-40-34s-38,14.8-40,34H294z"/>
</g>
<path style="fill:#FFFFFF;" d="M298.4,102.8c0,28-20,50.8-44.4,50.8s-44.4-22.8-44.4-50.8c0-8.8,2-16.8,5.2-24  c9.6,4.8,23.6,7.6,38.8,7.6c15.6,0,29.2-3.2,38.8-7.6C296.4,86,298.4,94.4,298.4,102.8z"/>
<g>
	<ellipse style="fill:#84DBFF;" cx="274" cy="104.8" rx="10.8" ry="5.6"/>
	<ellipse style="fill:#84DBFF;" cx="234" cy="104.8" rx="10.8" ry="5.6"/>
</g>
<path style="fill:#FFFFFF;" d="M306.4,413.2c1.2,32.4-10.4,33.6-24.4,33.2s-25.2-2.4-24.4-34.8c0.4-8.8,1.2-18.4,2.8-28  c16-8.8,25.6-23.2,30.8-36.4C299.2,361.6,305.6,391.2,306.4,413.2z"/>
<path style="fill:#84DBFF;" d="M326.4,452.4c-4.8-18.4-19.6-32-36-32s-30,13.6-33.2,32H326.4z"/>
<path style="fill:#FFFFFF;" d="M201.6,413.2c-1.2,32.4,10.4,33.6,24.4,33.2s25.2-2.4,24.4-34.8c-0.4-8.8-1.2-18.4-2.8-28  c-16-8.8-25.6-23.2-30.8-36.4C208.8,361.6,202.4,391.2,201.6,413.2z"/>
<path style="fill:#84DBFF;" d="M181.6,452.4c4.8-18.4,19.6-32,36-32s30,13.6,33.2,32H181.6z"/>
<g>
	<circle style="fill:#FFFFFF;" cx="274" cy="104.8" r="3.2"/>
	<circle style="fill:#FFFFFF;" cx="234" cy="104.8" r="3.2"/>
	<path style="fill:#FFFFFF;" d="M296.4,255.2c5.2-8.4,8-18,8-28.8c0-29.2-22.8-53.2-50.8-53.2s-50.8,23.6-50.8,53.2   c0,10.4,2.8,20.4,8,28.8H296.4z"/>
</g>
<rect x="239.6" y="255.2" style="fill:#54C0EB;" width="28.8" height="44"/>
<g>
	<path style="fill:#84DBFF;" d="M270.8,269.2h-33.6c-2.8,0-4.8-2-4.8-4.8l0,0c0-2.8,2-4.8,4.8-4.8h33.6c2.8,0,4.8,2,4.8,4.8l0,0   C275.6,266.8,273.2,269.2,270.8,269.2z"/>
	<path style="fill:#84DBFF;" d="M270.8,281.6h-33.6c-2.8,0-4.8-2-4.8-4.8l0,0c0-2.8,2-4.8,4.8-4.8h33.6c2.8,0,4.8,2,4.8,4.8l0,0   C275.6,279.6,273.2,281.6,270.8,281.6z"/>
	<path style="fill:#84DBFF;" d="M270.8,294h-33.6c-2.8,0-4.8-2-4.8-4.8l0,0c0-2.8,2-4.8,4.8-4.8h33.6c2.8,0,4.8,2,4.8,4.8l0,0   C275.6,292,273.2,294,270.8,294z"/>
</g>
<path style="fill:#FFFFFF;" d="M270.8,299.2h-33.6c-8,0-14.8,6.4-14.8,14.8l0,0c0,8,6.4,14.8,14.8,14.8h33.6c8,0,14.8-6.4,14.8-14.8  l0,0C285.6,306,278.8,299.2,270.8,299.2z"/>
<g>

		<rect x="327.645" y="171.691" transform="matrix(-0.4441 0.896 -0.896 -0.4441 671.4064 9.2118)" style="fill:#84DBFF;" width="10.4" height="82.402"/>

		<rect x="286.412" y="221.059" transform="matrix(0.896 0.444 -0.444 0.896 133.1052 -122.2695)" style="fill:#84DBFF;" width="82.398" height="4"/>
	<polygon style="fill:#84DBFF;" points="382.4,284.8 377.2,243.2 367.2,243.2 375.6,284.8  "/>
	<polygon style="fill:#84DBFF;" points="372.8,284.8 363.2,243.2 359.2,243.2 370,284.8  "/>
</g>
<circle style="fill:#FFFFFF;" cx="366" cy="232.8" r="18.4"/>
<path style="fill:#84DBFF;" d="M371.6,339.6c-8.4,10.8-19.6,16.8-26.4,14c11.2-7.6,17.6-17.2,14.8-22.4c-2-3.6-8.8-4-16.4-1.6  c1.2-2.4,2.8-5.2,4.8-7.6c9.2-12,21.6-17.6,28.4-12.8C383.2,314,380.8,327.6,371.6,339.6z"/>
<g>
	<path style="fill:#FFFFFF;" d="M386.8,322.8c-1.2,7.2-3.6,12-6.8,14.8c-5.2-15.2-18-23.2-25.6-26.4c1.6-6.4,4.8-13.2,8-18   c-1.2-2.8-1.6-6.4-1.6-10c14-4.8,20.8-10.8,24.4-15.2c2,4,2.4,9.2,1.6,14.8c-0.4,4-1.6,7.6-3.6,10.4   C387.2,301.2,388.4,313.2,386.8,322.8z"/>
	<circle style="fill:#FFFFFF;" cx="296" cy="206.8" r="26"/>
</g>
<g>

		<rect x="169.878" y="171.555" transform="matrix(0.4441 0.896 -0.896 0.4441 287.9532 -38.5939)" style="fill:#84DBFF;" width="10.4" height="82.402"/>

		<rect x="178.085" y="181.998" transform="matrix(0.444 0.896 -0.896 0.444 300.1143 -37.2648)" style="fill:#84DBFF;" width="4" height="82.398"/>
	<polygon style="fill:#84DBFF;" points="132.4,284.8 140.8,243.2 130.8,243.2 125.6,284.8  "/>
	<polygon style="fill:#84DBFF;" points="138,284.8 148.8,243.2 144.8,243.2 135.2,284.8  "/>
</g>
<circle style="fill:#FFFFFF;" cx="142" cy="232.8" r="18.4"/>
<path style="fill:#84DBFF;" d="M136.4,339.6c8.4,10.8,19.6,16.8,26.4,14c-11.2-7.6-17.6-17.2-14.8-22.4c2-3.6,8.8-4,16.4-1.6  c-1.2-2.4-2.8-5.2-4.8-7.6c-9.2-12-21.6-17.6-28.4-12.8C124.8,314,127.2,327.6,136.4,339.6z"/>
<g>
	<path style="fill:#FFFFFF;" d="M121.2,322.8c1.2,7.2,3.6,12,6.8,14.8c5.2-15.2,18-23.2,25.6-26.4c-1.6-6.4-4.8-13.2-8-18   c1.2-2.8,1.6-6.4,1.6-10c-14-4.8-20.8-10.8-24.4-15.2c-2,4-2.4,9.2-1.6,14.8c0.4,4,1.6,7.6,3.6,10.4   C120.8,301.2,119.6,313.2,121.2,322.8z"/>
	<circle style="fill:#FFFFFF;" cx="212" cy="206.8" r="26"/>
</g>
<g>
</g>
<g>
</g>
<g>
</g>
<g>
</g>
<g>
</g>
<g>
</g>
<g>
</g>
<g>
</g>
<g>
</g>
<g>
</g>
<g>
</g>
<g>
</g>
<g>
</g>
<g>
</g>
<g>
</g>
</svg>
