<?xml version="1.0" encoding="iso-8859-1"?>
<!-- Generator: Adobe Illustrator 19.0.0, SVG Export Plug-In . SVG Version: 6.00 Build 0)  -->
<svg xmlns="http://www.w3.org/2000/svg" xmlns:xlink="http://www.w3.org/1999/xlink" version="1.1" id="Layer_1" x="0px" y="0px" viewBox="0 0 508 508" style="enable-background:new 0 0 508 508;" xml:space="preserve">
<circle style="fill:#90DFAA;" cx="254" cy="254" r="254"/>
<path style="fill:#2C9984;" d="M104.4,459.2C146.4,490,198,508,254,508s107.6-18,149.6-48.8H104.4z"/>
<rect x="281.6" y="341.6" style="fill:#324A5E;" width="19.2" height="77.2"/>
<rect x="276" y="283.6" style="fill:#E6E9EE;" width="30" height="74.4"/>
<path style="fill:#FFFFFF;" d="M318.4,443.6c-1.2-22.4-12.8-40-27.2-40s-26,17.6-27.2,40H318.4z"/>
<g>
	<path style="fill:#324A5E;" d="M317.6,443.6h-52.8c-4,0-7.6,3.2-7.6,7.6l0,0c0,4,3.2,7.6,7.6,7.6h52.8c4,0,7.6-3.2,7.6-7.6l0,0   C324.8,446.8,321.6,443.6,317.6,443.6z"/>
	<rect x="207.2" y="341.6" style="fill:#324A5E;" width="19.2" height="77.2"/>
</g>
<rect x="202" y="283.6" style="fill:#E6E9EE;" width="30" height="74.4"/>
<path style="fill:#FFFFFF;" d="M244,443.6c-1.2-22.4-12.8-40-27.2-40s-26,17.6-27.2,40H244z"/>
<path style="fill:#324A5E;" d="M243.2,443.6h-52.8c-4,0-7.6,3.2-7.6,7.6l0,0c0,4,3.2,7.6,7.6,7.6h52.8c4,0,7.6-3.2,7.6-7.6l0,0  C250.8,446.8,247.2,443.6,243.2,443.6z"/>
<g>
	<path style="fill:#FFFFFF;" d="M254,311.6L254,311.6c-40,0-72.4-32.4-72.4-72.4v-66c0-8,6.4-14.4,14.4-14.4h116.4   c8,0,14.4,6.4,14.4,14.4v66C326.4,279.2,294,311.6,254,311.6z"/>
	<path style="fill:#FFFFFF;" d="M330.8,126.4c0-3.6-0.4-7.2-0.8-10.8c-4.8-34.8-33.6-62-68.4-65.6c-46-4.4-84.4,31.6-84.4,76.4l0,0   c0,8.4,7.2,15.2,15.6,15.2h122.4C324,142,330.8,134.8,330.8,126.4z"/>
</g>
<circle style="fill:#324A5E;" cx="313.6" cy="98" r="22"/>
<circle style="fill:#84DBFF;" cx="313.6" cy="98" r="15.6"/>
<circle style="fill:#324A5E;" cx="194.4" cy="98" r="22"/>
<circle style="fill:#84DBFF;" cx="194.4" cy="98" r="15.6"/>
<rect x="210" y="142" style="fill:#324A5E;" width="88" height="17.2"/>
<g>
	<circle style="fill:#84DBFF;" cx="297.2" cy="191.2" r="11.6"/>
	<circle style="fill:#84DBFF;" cx="254" cy="191.2" r="11.6"/>
	<circle style="fill:#84DBFF;" cx="210.8" cy="191.2" r="11.6"/>
</g>
<path style="fill:#E6E9EE;" d="M356.8,231.6v-36.8c0-10.8-8.8-19.6-19.6-19.6h-10.8v56.4H356.8z"/>
<g>
	<rect x="330.4" y="231.6" style="fill:#324A5E;" width="22" height="76.4"/>
	<path style="fill:#324A5E;" d="M350,333.2L350,333.2c-10.8,0-19.6-8.8-19.6-19.2v-19.2H350c10.8,0,19.2,8.8,19.2,19.2l0,0   C369.2,324.4,360.8,333.2,350,333.2z"/>
</g>
<path style="fill:#FFFFFF;" d="M358.8,322.8c2.4-2.4,4-5.6,4-9.2c-0.4-6.8-6-12.4-12.8-12s-12.4,6-12,12.8c0,2.8,1.2,5.6,2.8,7.6  c-5.6,2.8-11.2,7.6-16,14c-2.8,4.4-5.2,8.8-6.4,12.8c8-8.4,16.8-12.4,21.6-9.2c6,4.4,3.6,18.8-6,32.4c-0.4,0.4-0.8,0.8-1.2,1.6  c7.6-0.8,16.8-6.8,23.2-16C365.2,344.4,366,329.6,358.8,322.8z"/>
<path style="fill:#E6E9EE;" d="M151.2,231.6v-36.8c0-10.8,8.8-19.6,19.6-19.6h10.8v56.4H151.2z"/>
<g>
	<rect x="155.2" y="231.6" style="fill:#324A5E;" width="22" height="76.4"/>
	<path style="fill:#324A5E;" d="M158,333.2L158,333.2c10.8,0,19.6-8.8,19.6-19.2v-19.2H158c-10.8,0-19.2,8.8-19.2,19.2l0,0   C138.8,324.4,147.2,333.2,158,333.2z"/>
</g>
<path style="fill:#FFFFFF;" d="M149.2,322.8c-2.4-2.4-4-5.6-4-9.2c0.4-6.8,6-12.4,12.8-12s12.4,6,12,12.8c0,2.8-1.2,5.6-2.8,7.6  c5.6,2.8,11.2,7.6,16,14c2.8,4.4,5.2,8.8,6.4,12.8c-8-8.4-16.8-12.4-21.6-9.2c-6,4.4-3.6,18.8,6,32.4c0.4,0.4,0.8,0.8,1.2,1.6  c-7.6-0.8-16.8-6.8-23.2-16C142.8,344.4,142,329.6,149.2,322.8z"/>
<g>
</g>
<g>
</g>
<g>
</g>
<g>
</g>
<g>
</g>
<g>
</g>
<g>
</g>
<g>
</g>
<g>
</g>
<g>
</g>
<g>
</g>
<g>
</g>
<g>
</g>
<g>
</g>
<g>
</g>
</svg>
