<?xml version="1.0" encoding="iso-8859-1"?>
<!-- Generator: Adobe Illustrator 19.0.0, SVG Export Plug-In . SVG Version: 6.00 Build 0)  -->
<svg xmlns="http://www.w3.org/2000/svg" xmlns:xlink="http://www.w3.org/1999/xlink" version="1.1" id="Layer_1" x="0px" y="0px" viewBox="0 0 508 508" style="enable-background:new 0 0 508 508;" xml:space="preserve">
<circle style="fill:#324A5E;" cx="254" cy="254" r="254"/>
<path style="fill:#4CDBC4;" d="M395.6,309.6c0,0,6.4,19.2,0,34c-1.6,4-6.8,4.8-10,2l0,0c-1.6-1.6-2.4-4-1.6-6l3.2-12.8l-5.2,4.4  c-2,1.6-4.8,1.2-6.8-0.8l0,0c-1.2-1.2-1.2-3.2-0.8-4.4C376.4,320.4,382.4,307.2,395.6,309.6z"/>
<rect x="356.721" y="180.646" transform="matrix(0.7668 -0.6419 0.6419 0.7668 -47.8582 281.9651)" style="fill:#CED5E0;" width="14.8" height="52.4"/>
<path style="fill:#E6E9EE;" d="M412.8,286.8c2.8,28-8.8,28.8-23.6,30.4c-14.4,1.6-26.4,3.2-29.2-24.8c-2.8-28,4-74.8,18.4-76.4  C392.8,214.4,409.6,258.8,412.8,286.8z"/>
<circle style="fill:#4CDBC4;" cx="348.4" cy="186" r="25.6"/>
<circle style="fill:#FFFFFF;" cx="348.4" cy="186" r="13.6"/>
<path style="fill:#4CDBC4;" d="M112.4,309.6c0,0-6.4,19.2,0,34c1.6,4,6.8,4.8,10,2l0,0c1.6-1.6,2.4-4,1.6-6l-3.2-12.8l5.2,4.4  c2,1.6,4.8,1.2,6.8-0.8l0,0c1.2-1.2,1.2-3.2,0.8-4.4C131.6,320.4,125.6,307.2,112.4,309.6z"/>
<rect x="136.749" y="180.935" transform="matrix(-0.7668 -0.6419 0.6419 -0.7668 121.7228 458.4931)" style="fill:#CED5E0;" width="14.8" height="52.4"/>
<path style="fill:#E6E9EE;" d="M95.2,286.8c-2.8,28,8.8,28.8,23.6,30.4c14.4,1.6,26.4,3.2,29.2-24.8s-4-74.8-18.4-76.4  C115.2,214.4,98.4,258.8,95.2,286.8z"/>
<circle style="fill:#4CDBC4;" cx="159.6" cy="186" r="25.6"/>
<circle style="fill:#FFFFFF;" cx="159.6" cy="186" r="13.6"/>
<rect x="274" y="271.2" style="fill:#2C9984;" width="27.2" height="164"/>
<circle style="fill:#4CDBC4;" cx="287.6" cy="335.2" r="25.6"/>
<circle style="fill:#FFFFFF;" cx="287.6" cy="335.2" r="13.6"/>
<rect x="201.2" y="271.2" style="fill:#2C9984;" width="27.2" height="164"/>
<circle style="fill:#4CDBC4;" cx="214.8" cy="335.2" r="25.6"/>
<circle style="fill:#FFFFFF;" cx="214.8" cy="335.2" r="13.6"/>
<path style="fill:#2B3B4E;" d="M85.2,443.6c44.8,40,104,64.4,168.8,64.4s124-24.4,168.8-64.4H85.2z"/>
<g>
	<path style="fill:#E6E9EE;" d="M269.2,443.6h88c0-18.8-15.2-34-34-34h-54V443.6z"/>
	<path style="fill:#E6E9EE;" d="M238.8,443.6h-88c0-18.8,15.2-34,34-34h54V443.6z"/>
	<path style="fill:#E6E9EE;" d="M308,138.4H200c-4,0-7.2-3.2-7.2-7.2V72.8c0-4,3.2-7.2,7.2-7.2h108.4c4,0,7.2,3.2,7.2,7.2v58.4   C315.2,135.2,312,138.4,308,138.4z"/>
</g>
<circle style="fill:#FFFFFF;" cx="288.8" cy="88" r="15.2"/>
<circle style="fill:#4CDBC4;" cx="288.8" cy="88" r="8.4"/>
<circle style="fill:#FFFFFF;" cx="219.2" cy="88" r="15.2"/>
<circle style="fill:#4CDBC4;" cx="219.2" cy="88" r="8.4"/>
<rect x="240" y="138.4" style="fill:#2C9984;" width="28" height="20"/>
<path style="fill:#E6E9EE;" d="M320,158.8H188c-6.4,0-12,5.2-12,12V272c0,6.4,5.2,12,12,12h132c6.4,0,12-5.2,12-12V170.8  C332,164,326.4,158.8,320,158.8z"/>
<path style="fill:#FFFFFF;" d="M276,129.2h-44c-5.2,0-9.2-4.4-9.2-9.2l0,0c0-5.2,4.4-9.2,9.2-9.2h44c5.2,0,9.2,4.4,9.2,9.2l0,0  C285.6,124.8,281.2,129.2,276,129.2z"/>
<g>
</g>
<g>
</g>
<g>
</g>
<g>
</g>
<g>
</g>
<g>
</g>
<g>
</g>
<g>
</g>
<g>
</g>
<g>
</g>
<g>
</g>
<g>
</g>
<g>
</g>
<g>
</g>
<g>
</g>
</svg>
