<?xml version="1.0" encoding="iso-8859-1"?>
<!-- Generator: Adobe Illustrator 19.0.0, SVG Export Plug-In . SVG Version: 6.00 Build 0)  -->
<svg xmlns="http://www.w3.org/2000/svg" xmlns:xlink="http://www.w3.org/1999/xlink" version="1.1" id="Layer_1" x="0px" y="0px" viewBox="0 0 508 508" style="enable-background:new 0 0 508 508;" xml:space="preserve">
<circle style="fill:#FFD05B;" cx="254" cy="254" r="254"/>
<path style="fill:#F9B54C;" d="M123.2,471.6C161.6,494.8,206,508,254,508s92.8-13.2,130.8-36.4H123.2z"/>
<g>
	<rect x="282.8" y="359.2" style="fill:#2B3B4E;" width="12.4" height="102.8"/>
	<polygon style="fill:#2B3B4E;" points="254.8,308.8 278,339.2 282.8,323.2 272,308.8  "/>
</g>
<ellipse transform="matrix(0.9913 -0.1314 0.1314 0.9913 -42.6138 40.6738)" style="fill:#324A5E;" cx="286.884" cy="343.227" rx="16" ry="24.399"/>
<g>
	<path style="fill:#FFFFFF;" d="M276.8,332.8l25.6,34c12.8-10.4,15.6-29.2,5.2-42.4c-2.8-3.6-6-6-9.6-8L276.8,332.8z"/>
	<path style="fill:#FFFFFF;" d="M289.2,384.4L289.2,384.4c-10,0-18,8-18,18v20.8c0,10,8,18,18,18l0,0c10,0,18-8,18-18v-20.8   C307.2,392.4,299.2,384.4,289.2,384.4z"/>
	<path style="fill:#FFFFFF;" d="M327.2,472.4h-50v-15.2h34.4C320,456.8,327.2,463.6,327.2,472.4L327.2,472.4z"/>
</g>
<g>
	<rect x="212.8" y="359.2" style="fill:#2B3B4E;" width="12.4" height="102.8"/>
	<polygon style="fill:#2B3B4E;" points="236,308.8 225.2,323.2 230,339.2 253.2,308.8  "/>
</g>
<ellipse transform="matrix(0.9913 0.1314 -0.1314 0.9913 46.9579 -26.0479)" style="fill:#324A5E;" cx="220.847" cy="342.782" rx="16" ry="24.399"/>
<g>
	<path style="fill:#FFFFFF;" d="M231.2,332.8l-25.6,34c-12.8-10.4-15.6-29.2-5.2-42.4c2.8-3.6,6-6,9.6-8L231.2,332.8z"/>
	<path style="fill:#FFFFFF;" d="M218.8,384.4L218.8,384.4c10,0,18,8,18,18v20.8c0,10-8,18-18,18l0,0c-10,0-18-8-18-18v-20.8   C200.8,392.4,208.8,384.4,218.8,384.4z"/>
	<path style="fill:#FFFFFF;" d="M180.8,472.4h50v-15.2h-34.4C188,456.8,180.8,463.6,180.8,472.4L180.8,472.4z"/>
</g>
<path style="fill:#324A5E;" d="M254,240.8L254,240.8c-5.2,0-9.2,4-9.2,9.2v42.4c0,5.2,4,9.2,9.2,9.2l0,0c5.2,0,9.2-4,9.2-9.2V250  C263.2,245.2,259.2,240.8,254,240.8z"/>
<path style="fill:#FFFFFF;" d="M290.8,299.6L290.8,299.6c0-7.2-5.6-12.8-12.8-12.8h-48.4c-7.2,0-12.8,5.6-12.8,12.8l0,0  c0,7.2,5.6,12.8,12.8,12.8H278C285.2,312.4,290.8,306.8,290.8,299.6z"/>
<polygon style="fill:#324A5E;" points="354.8,280.8 356.4,228.4 341.2,228.4 343.2,280.8 "/>
<path style="fill:#FFFFFF;" d="M355.6,300.8c-3.2,10.8-8,19.6-13.6,24.4c5.2-18.4,4.8-34.4-1.6-36.4c-5.2-1.6-12.8,8-18,22.4  c0-5.6,0.8-12.4,2.8-19.2c5.2-18.4,16.4-31.2,24.4-28.8C358.4,265.6,360.8,282.4,355.6,300.8z"/>
<polygon style="fill:#324A5E;" points="153.2,280.8 151.6,228.4 166.8,228.4 164.8,280.8 "/>
<path style="fill:#FFFFFF;" d="M152.4,300.8c3.2,10.8,8,19.6,13.6,24.4c-5.2-18.4-4.8-34.4,1.6-36.4c5.2-1.6,12.8,8,18,22.4  c0-5.6-0.8-12.4-2.8-19.2c-5.2-18.4-16.4-31.2-24.4-28.8C149.6,265.6,147.2,282.4,152.4,300.8z"/>
<g>
	<rect x="296" y="133.6" style="fill:#324A5E;" width="50.4" height="20.8"/>
	<polygon style="fill:#324A5E;" points="342,228.4 338.8,144 360,144 356.8,228.4  "/>
</g>
<g>
	<circle style="fill:#FFFFFF;" cx="349.2" cy="145.6" r="21.6"/>
	<circle style="fill:#FFFFFF;" cx="349.2" cy="228.4" r="12.4"/>
</g>
<g>
	<rect x="161.6" y="133.6" style="fill:#324A5E;" width="50.4" height="20.8"/>
	<polygon style="fill:#324A5E;" points="166,228.4 169.2,144 148,144 151.2,228.4  "/>
</g>
<g>
	<circle style="fill:#FFFFFF;" cx="158.8" cy="145.6" r="21.6"/>
	<circle style="fill:#FFFFFF;" cx="158.8" cy="228.4" r="12.4"/>
	<path style="fill:#FFFFFF;" d="M189.6,145.6L189.6,145.6c0,21.2,2.4,42.4,6.8,63.2l10.4,45.2c2.8,12.4,13.6,21.2,26.4,21.2h42   c12.8,0,23.6-8.8,26.4-21.2l10-45.2c4.4-20.8,6.8-41.6,6.8-62.8l0,0c0-16.4-13.6-30-30-30h-68.8   C203.2,115.6,189.6,128.8,189.6,145.6z"/>
	<path style="fill:#FFFFFF;" d="M291.2,84h-74.4c-3.6,0-6.4-2.8-6.4-6.4v-36c0-3.6,2.8-6.4,6.4-6.4h74.4c3.6,0,6.4,2.8,6.4,6.4v36   C297.6,81.2,294.8,84,291.2,84z"/>
</g>
<path style="fill:#E6E9EE;" d="M223.6,84v8.8c0,2.8,2,4.8,4.8,4.8H280c2.8,0,4.8-2,4.8-4.8V84H223.6z"/>
<rect x="244.8" y="97.6" style="fill:#324A5E;" width="18.8" height="17.6"/>
<path style="fill:#84DBFF;" d="M288,70.4h-68c-2.4,0-4.4-2-4.4-4.4V52.8c0-2.4,2-4.4,4.4-4.4h67.6c2.4,0,4.4,2,4.4,4.4V66  C292,68.8,290.4,70.4,288,70.4z"/>
<g>
	<circle style="fill:#324A5E;" cx="278" cy="59.6" r="6.8"/>
	<circle style="fill:#324A5E;" cx="230" cy="59.6" r="6.8"/>
</g>
<g>
</g>
<g>
</g>
<g>
</g>
<g>
</g>
<g>
</g>
<g>
</g>
<g>
</g>
<g>
</g>
<g>
</g>
<g>
</g>
<g>
</g>
<g>
</g>
<g>
</g>
<g>
</g>
<g>
</g>
</svg>
