<?xml version="1.0" encoding="iso-8859-1"?>
<!-- Generator: Adobe Illustrator 19.0.0, SVG Export Plug-In . SVG Version: 6.00 Build 0)  -->
<svg xmlns="http://www.w3.org/2000/svg" xmlns:xlink="http://www.w3.org/1999/xlink" version="1.1" id="Layer_1" x="0px" y="0px" viewBox="0 0 508 508" style="enable-background:new 0 0 508 508;" xml:space="preserve">
<circle style="fill:#FD8469;" cx="254" cy="254" r="254"/>
<path style="fill:#F1543F;" d="M104.8,459.6C146.8,490,198.4,508,254,508s107.2-18,149.2-48.4H104.8z"/>
<g>
	<rect x="248.4" y="102.4" style="fill:#2B3B4E;" width="10.8" height="30.4"/>
	<path style="fill:#2B3B4E;" d="M350,302c-5.2,0-9.6-2-13.6-5.6s-6-8.8-6-14c0-2.4,2-4.8,4.8-4.8c2.4,0,4.8,2,4.8,4.8   s1.2,5.2,3.2,7.2s4.8,2.8,7.2,2.8c5.2,0,9.6-4.4,9.6-9.6c0-3.2-1.2-6-3.6-8c-6.8-5.6-10.8-14-10.8-22.4v-15.6c0-2.4,2-4.8,4.8-4.8   c2.4,0,4.8,2,4.8,4.8v15.6c0,6,2.8,11.6,7.6,15.2c4.8,4,7.6,9.6,7.2,16c-0.4,10-8.4,18.4-18.4,18.4C350.8,302,350.4,302,350,302z"/>
</g>
<ellipse transform="matrix(-0.2814 -0.9596 0.9596 -0.2814 254.8134 564.4751)" style="fill:#E6E9EE;" cx="338.764" cy="186.827" rx="44.8" ry="14.4"/>
<circle style="fill:#ACB3BA;" cx="318" cy="148.4" r="23.2"/>
<circle style="fill:#ACB3BA;" cx="350" cy="226" r="17.6"/>
<path style="fill:#2B3B4E;" d="M158,302c5.2,0,9.6-2,13.6-5.6s6-8.8,6-14c0-2.4-2-4.8-4.8-4.8c-2.4,0-4.8,2-4.8,4.8  s-1.2,5.2-3.2,7.2s-4.8,2.8-7.2,2.8c-5.2,0-9.6-4.4-9.6-9.6c0-3.2,1.2-6,3.6-8c6.8-5.6,10.8-14,10.8-22.4v-15.6c0-2.4-2-4.8-4.8-4.8  c-2.4,0-4.8,2-4.8,4.8v15.6c0,6-2.8,11.6-7.6,15.2c-4.8,4-7.6,9.6-7.2,16c0.4,10,8.4,18.4,18.4,18.4C157.2,302,157.6,302,158,302z"/>
<ellipse transform="matrix(-0.2814 0.9596 -0.9596 -0.2814 396.0941 77.5635)" style="fill:#E6E9EE;" cx="169.005" cy="187.092" rx="44.8" ry="14.4"/>
<circle style="fill:#ACB3BA;" cx="190" cy="148.4" r="23.2"/>
<circle style="fill:#ACB3BA;" cx="158" cy="226" r="17.6"/>
<g>
	<rect x="285.6" y="336.8" style="fill:#2B3B4E;" width="13.6" height="112.8"/>
	<polygon style="fill:#2B3B4E;" points="254.8,281.6 280.4,314.8 285.6,297.2 273.6,281.6  "/>
</g>
<ellipse transform="matrix(0.9913 -0.1314 0.1314 0.9913 -39.4063 40.8844)" style="fill:#324A5E;" cx="290.083" cy="319.029" rx="17.599" ry="26.399"/>
<g>
	<path style="fill:#E6E9EE;" d="M278.8,308l28.4,37.2c14.4-11.2,16.8-31.6,6-46.4c-2.8-3.6-6.4-6.8-10.4-8.8L278.8,308z"/>
	<path style="fill:#E6E9EE;" d="M292.4,364.4L292.4,364.4c-10.8,0-20,8.8-20,20v22.8c0,10.8,8.8,20,20,20l0,0c10.8,0,20-8.8,20-20   v-22.8C312.4,373.2,303.2,364.4,292.4,364.4z"/>
	<path style="fill:#E6E9EE;" d="M334,460.8h-54.8V444h37.6C326.4,443.6,334,451.2,334,460.8L334,460.8z"/>
</g>
<g>
	<rect x="208.8" y="336.8" style="fill:#2B3B4E;" width="13.6" height="112.8"/>
	<polygon style="fill:#2B3B4E;" points="234.4,281.6 222.4,297.2 227.6,314.8 253.2,281.6  "/>
</g>
<ellipse transform="matrix(0.9913 0.1314 -0.1314 0.9913 43.8433 -25.8521)" style="fill:#324A5E;" cx="217.806" cy="319.28" rx="17.599" ry="26.399"/>
<g>
	<path style="fill:#E6E9EE;" d="M229.2,308l-28.4,37.2c-14.4-11.2-16.8-31.6-6-46.4c2.8-3.6,6.4-6.8,10.4-8.8L229.2,308z"/>
	<path style="fill:#E6E9EE;" d="M215.6,364.4L215.6,364.4c10.8,0,20,8.8,20,20v22.8c0,10.8-8.8,20-20,20l0,0c-10.8,0-20-8.8-20-20   v-22.8C195.6,373.2,204.8,364.4,215.6,364.4z"/>
	<path style="fill:#E6E9EE;" d="M174,460.8h54.4V444h-37.6C181.6,443.6,174,451.2,174,460.8L174,460.8z"/>
</g>
<path style="fill:#ACB3BA;" d="M254,207.2L254,207.2c-5.6,0-10,4.4-10,10v46.4c0,5.6,4.4,10,10,10l0,0c5.6,0,10-4.4,10-10v-46  C264,212,259.6,207.2,254,207.2z"/>
<g>
	<path style="fill:#E6E9EE;" d="M294.4,271.6L294.4,271.6c0-7.6-6.4-14-14-14h-52.8c-7.6,0-14,6.4-14,14l0,0c0,7.6,6.4,14,14,14   h53.2C288.4,285.6,294.4,279.6,294.4,271.6z"/>
	<circle style="fill:#E6E9EE;" cx="254" cy="80" r="32.8"/>
</g>
<ellipse style="fill:#84DBFF;" cx="254" cy="80" rx="33.6" ry="18"/>
<path style="fill:#E6E9EE;" d="M294.8,125.2h-81.6c-14.8,0-25.2,14.8-20.4,28.8l14.4,42v25.6c0,7.2,6,13.2,13.2,13.2h67.2  c7.2,0,13.2-6,13.2-13.2V196l0,0l14.4-42C320,140,309.6,125.2,294.8,125.2z"/>
<g>
</g>
<g>
</g>
<g>
</g>
<g>
</g>
<g>
</g>
<g>
</g>
<g>
</g>
<g>
</g>
<g>
</g>
<g>
</g>
<g>
</g>
<g>
</g>
<g>
</g>
<g>
</g>
<g>
</g>
</svg>
