<?xml version="1.0" encoding="iso-8859-1"?>
<!-- Generator: Adobe Illustrator 19.0.0, SVG Export Plug-In . SVG Version: 6.00 Build 0)  -->
<svg xmlns="http://www.w3.org/2000/svg" xmlns:xlink="http://www.w3.org/1999/xlink" version="1.1" id="Layer_1" x="0px" y="0px" viewBox="0 0 508 508" style="enable-background:new 0 0 508 508;" xml:space="preserve">
<circle style="fill:#FD8469;" cx="254" cy="254" r="254"/>
<path style="fill:#F1543F;" d="M122.4,471.2C160.8,494.4,205.6,508,254,508s93.2-13.2,131.6-36.8H122.4z"/>
<rect x="238.4" y="115.6" style="fill:#324A5E;" width="31.6" height="11.6"/>
<path style="fill:#E6E9EE;" d="M284.4,115.6h-60.8c-4.4,0-8-3.6-8-8V58c0-4.4,3.6-8,8-8h61.2c4.4,0,8,3.6,8,8v49.6  C292.4,112.4,288.8,115.6,284.4,115.6z"/>
<g>
	<path style="fill:#FFFFFF;" d="M311.6,272.8H196.4c-8,0-14.4-6.4-14.4-14.4V142c0-8,6.4-14.4,14.4-14.4h114.8   c8,0,14.4,6.4,14.4,14.4v116.4C326,266.4,319.6,272.8,311.6,272.8z"/>
	<path style="fill:#FFFFFF;" d="M306,69.2c-2.4-0.8-4.8-1.2-7.6-1.2l0,0v30l0,0c2.8,0,5.2-0.4,7.6-1.2c1.6-0.4,2.4-2,2.4-3.6V72.4   C308.4,71.2,307.6,69.6,306,69.2z"/>
</g>
<path style="fill:#CED5E0;" d="M295.6,101.2h-3.2v-36h3.2c1.6,0,2.8,1.2,2.8,2.8v30C298.4,99.6,297.2,101.2,295.6,101.2z"/>
<path style="fill:#FFFFFF;" d="M202,69.2c2.4-0.8,4.8-1.2,7.6-1.2l0,0v30l0,0c-2.8,0-5.2-0.4-7.6-1.2c-1.6-0.4-2.4-2-2.4-3.6V72.4  C199.6,71.2,200.4,69.6,202,69.2z"/>
<path style="fill:#CED5E0;" d="M212.4,101.2h3.2v-36h-3.2c-1.6,0-2.8,1.2-2.8,2.8v30C209.6,99.6,210.8,101.2,212.4,101.2z"/>
<g>
	<path style="fill:#FFFFFF;" d="M275.2,50.4c-3.6-8-11.6-13.6-21.2-13.6s-17.6,5.6-21.2,13.6H275.2z"/>
	<circle style="fill:#FFFFFF;" cx="272.8" cy="73.2" r="9.6"/>
	<circle style="fill:#FFFFFF;" cx="235.2" cy="73.2" r="9.6"/>
</g>
<g>
	<ellipse style="fill:#324A5E;" cx="272.8" cy="73.2" rx="2.4" ry="4.4"/>
	<ellipse style="fill:#324A5E;" cx="235.2" cy="73.2" rx="2.4" ry="4.4"/>
</g>
<g>
	<rect x="356.8" y="212.8" style="fill:#2B3B4E;" width="8.8" height="15.2"/>
	<path style="fill:#2B3B4E;" d="M379.6,289.2c-0.4,1.6-2,2.8-4,2.8h-0.8c-2.4,0-4.4-2.4-4-4.8c0-0.8,0.4-1.6,0.4-2.4   c0-6.4-6-11.6-12.8-10c-4,0.8-6.8,4-7.6,8c-0.4,1.6-0.4,3.2,0,4.4c0.4,2.4-1.2,4.8-3.6,4.8H346c-2,0-3.6-1.2-4-2.8   c0-1.6,0-2.8,0-4.4c0-9.2,6.4-16.4,14.8-18.8v-14.4h8.8V266c7.2,1.6,13.2,8,14.4,15.6C380.4,284.4,380.4,286.8,379.6,289.2z"/>
</g>
<g>
	<path style="fill:#324A5E;" d="M368.4,176.4v36H354V180c0.8,0,1.6,0.4,2,0.4l0,0C360.8,180.4,364.8,178.8,368.4,176.4z"/>
	<rect x="354" y="227.6" style="fill:#324A5E;" width="14.4" height="24"/>
</g>
<path style="fill:#CED5E0;" d="M329.6,177.6H326v-35.2h3.6c4.8,0,8.4,4,8.4,8.4v18.4C338.4,174,334.4,177.6,329.6,177.6z"/>
<path style="fill:#FFFFFF;" d="M361.2,140.4c-1.6-0.4-2.8-0.4-4.4-0.8c-6-0.4-11.2,4.8-11.2,11.2v18.8c0,6,4.8,10.8,10.4,11.2l0,0  c12.4,0,22.4-11.2,20-24C374.8,148.8,368.8,142.4,361.2,140.4z"/>
<g>
	<path style="fill:#2B3B4E;" d="M128,281.6c1.2-7.6,7.2-13.6,14.4-15.6v-61.2h8.8v61.6c8.4,2,14.8,9.6,14.8,18.8   c0,1.6,0,2.8-0.4,4.4s-2,2.8-4,2.8h-1.2c-2.4,0-4.4-2.4-3.6-4.8c0.4-1.6,0.4-2.8,0-4.4c-0.8-4-4-7.2-7.6-8   c-6.8-1.6-12.8,3.6-12.8,10c0,0.8,0,1.6,0.4,2.4c0.8,2.4-1.2,4.8-4,4.8H132c-1.6,0-3.2-1.2-4-2.8   C127.6,286.8,127.6,284.4,128,281.6z"/>
	<rect x="142.4" y="212.8" style="fill:#2B3B4E;" width="8.8" height="15.2"/>
	<path style="fill:#2B3B4E;" d="M166,284.8c0,1.6,0,2.8-0.4,4.4s-2,2.8-4,2.8h-1.2c-2.4,0-4.4-2.4-3.6-4.8c0.4-1.2,0.4-2.8,0-4.4   c-0.8-4-4-6.8-7.6-8c-6.8-1.6-12.8,3.6-12.8,10c0,0.8,0,1.6,0.4,2.4c0.4,2.4-1.2,4.8-4,4.8H132c-1.6,0-3.6-1.2-4-2.8   c-0.4-2.4-0.8-4.8-0.4-7.6c1.2-7.6,7.2-13.6,14.4-15.6v-14.4h8.8V266C159.6,268.4,166,276,166,284.8z"/>
</g>
<path id="SVGCleanerId_0" style="fill:#324A5E;" d="M139.6,176.4v36H154V180c-0.8,0-1.6,0.4-2,0.4l0,0  C147.2,180.4,143.2,178.8,139.6,176.4z"/>
<rect x="139.6" y="227.6" style="fill:#324A5E;" width="14.4" height="24"/>
<g>
	<path id="SVGCleanerId_0_1_" style="fill:#324A5E;" d="M139.6,176.4v36H154V180c-0.8,0-1.6,0.4-2,0.4l0,0   C147.2,180.4,143.2,178.8,139.6,176.4z"/>
</g>
<g>
	<rect x="162.4" y="150.8" style="fill:#324A5E;" width="7.2" height="18.8"/>
	<rect x="338.4" y="150.8" style="fill:#324A5E;" width="7.2" height="18.8"/>
</g>
<path style="fill:#CED5E0;" d="M178.4,177.6h3.6v-35.2h-3.6c-4.8,0-8.4,4-8.4,8.4v18.4C169.6,174,173.6,177.6,178.4,177.6z"/>
<path style="fill:#FFFFFF;" d="M146.8,140.4c1.6-0.4,2.8-0.4,4.4-0.8c6-0.4,11.2,4.8,11.2,11.2v18.8c0,6-4.8,10.8-10.4,11.2l0,0  c-12.4,0-22.4-11.2-20-24C133.2,148.8,139.2,142.4,146.8,140.4z"/>
<g>
	<path style="fill:#324A5E;" d="M305.2,302.4l6.4-29.2H196.4l6.4,29.2c0.4,2.4,2.8,4.4,5.2,4.4h91.6   C302.4,306.4,304.4,304.8,305.2,302.4z"/>
	<path style="fill:#324A5E;" d="M295.6,325.2v50h-25.2v-50c0-2.8,2.4-5.2,5.2-5.2h14.8C293.2,320,295.6,322.4,295.6,325.2z"/>
	<rect x="270.4" y="406.8" style="fill:#324A5E;" width="25.2" height="55.2"/>
</g>
<path style="fill:#FFFFFF;" d="M296.8,406.8h-27.6c-2,0-3.6-1.6-3.6-3.6v-24.4c0-2,1.6-3.6,3.6-3.6h27.6c2,0,3.6,1.6,3.6,3.6v24.4  C300.4,405.2,298.8,406.8,296.8,406.8z"/>
<g>
	<path style="fill:#324A5E;" d="M237.6,325.2v50h-25.2v-50c0-2.8,2.4-5.2,5.2-5.2h14.8C235.2,320,237.6,322.4,237.6,325.2z"/>
	<rect x="212.4" y="406.8" style="fill:#324A5E;" width="25.2" height="55.2"/>
</g>
<path style="fill:#FFFFFF;" d="M238.8,406.8h-27.6c-2,0-3.6-1.6-3.6-3.6v-24.4c0-2,1.6-3.6,3.6-3.6h27.6c2,0,3.6,1.6,3.6,3.6v24.4  C242.4,405.2,240.8,406.8,238.8,406.8z"/>
<path style="fill:#2B3B4E;" d="M304.8,464c-0.4-11.6-10-21.2-21.6-21.2c-12,0-21.6,9.6-21.6,21.2H304.8z"/>
<path style="fill:#FFFFFF;" d="M305.2,464h-44.4c-0.8,0-1.6,0.8-1.6,1.6v3.6c0,0.8,0.8,1.6,1.6,1.6h44.4c0.8,0,1.6-0.8,1.6-1.6V466  C306.8,464.8,306,464,305.2,464z"/>
<path style="fill:#2B3B4E;" d="M246.8,464c-0.4-11.6-10-21.2-21.6-21.2c-12,0-21.6,9.6-21.6,21.2H246.8z"/>
<g>
	<path style="fill:#FFFFFF;" d="M247.2,464h-44.4c-0.8,0-1.6,0.8-1.6,1.6v3.6c0,0.8,0.8,1.6,1.6,1.6h44.4c0.8,0,1.6-0.8,1.6-1.6V466   C248.8,464.8,248,464,247.2,464z"/>
	<path style="fill:#FFFFFF;" d="M287.2,331.2h-8c-1.2,0-2.4-1.2-2.4-2.4v-28c0-1.2,1.2-2.4,2.4-2.4h8c1.2,0,2.4,1.2,2.4,2.4v28   C289.6,330,288.4,331.2,287.2,331.2z"/>
	<path style="fill:#FFFFFF;" d="M229.2,331.2h-8c-1.2,0-2.4-1.2-2.4-2.4v-28c0-1.2,1.2-2.4,2.4-2.4h8c1.2,0,2.4,1.2,2.4,2.4v28   C231.6,330,230.4,331.2,229.2,331.2z"/>
</g>
<g>
</g>
<g>
</g>
<g>
</g>
<g>
</g>
<g>
</g>
<g>
</g>
<g>
</g>
<g>
</g>
<g>
</g>
<g>
</g>
<g>
</g>
<g>
</g>
<g>
</g>
<g>
</g>
<g>
</g>
</svg>
