<?xml version="1.0" encoding="iso-8859-1"?>
<!-- Generator: Adobe Illustrator 19.0.0, SVG Export Plug-In . SVG Version: 6.00 Build 0)  -->
<svg xmlns="http://www.w3.org/2000/svg" xmlns:xlink="http://www.w3.org/1999/xlink" version="1.1" id="Layer_1" x="0px" y="0px" viewBox="0 0 508 508" style="enable-background:new 0 0 508 508;" xml:space="preserve">
<circle style="fill:#90DFAA;" cx="254" cy="254" r="254"/>
<g>
	<rect x="278" y="336.4" style="fill:#324A5E;" width="7.6" height="46.4"/>
	<rect x="222.4" y="336.4" style="fill:#324A5E;" width="7.6" height="46.4"/>
	<polygon style="fill:#324A5E;" points="294,125.2 330.4,71.6 320,71.6 284,125.2  "/>
	<polygon style="fill:#324A5E;" points="224,125.2 188,71.6 177.6,71.6 214,125.2  "/>
	<polygon style="fill:#324A5E;" points="169.2,224.4 136,244 124,227.6 153.2,202.4  "/>
</g>
<path style="fill:#E6E9EE;" d="M172.8,188.4c2.8,0,5.6,0.4,8.4,1.6v43.2c-2.4,0.8-5.2,1.6-8.4,1.6c-12.8,0-23.2-10.4-23.2-23.2  C150,198.8,160,188.4,172.8,188.4z"/>
<polygon style="fill:#324A5E;" points="120.8,301.2 125.2,252.4 109.2,252.4 108.4,301.2 "/>
<circle style="fill:#CED5E0;" cx="114.8" cy="312" r="8"/>
<circle style="fill:#FFFFFF;" cx="119.2" cy="242.4" r="18.8"/>
<polygon style="fill:#324A5E;" points="384,227.6 372.8,244.4 338.8,224.4 354.8,202.4 "/>
<path style="fill:#E6E9EE;" d="M336.4,188.4v46c12.4-0.8,22-10.8,22-23.2C358,199.2,348.4,189.2,336.4,188.4z"/>
<polygon style="fill:#324A5E;" points="383.2,256 387.2,301.2 399.6,301.2 399.2,256 "/>
<circle style="fill:#CED5E0;" cx="393.2" cy="312" r="8"/>
<g>
	<path style="fill:#FFFFFF;" d="M134.4,337.6c-1.2-2.4-2.8-4.4-5.2-6.8c-2.8-2.8-5.6-4.8-8.8-6c5.2-2,8.8-7.2,8.8-13.2   c0-8-6.4-14.4-14.4-14.4s-14.4,6.4-14.4,14.4c0,5.6,3.2,10.4,8,12.8c-0.8,0.4-1.2,0.8-1.6,1.2c-4.8,4.8-2.4,14.8,5.2,22.4   c4.8,4.4,10.4,7.2,14.8,7.6c-0.8-0.8-1.6-1.2-2.4-2c-7.6-7.6-10.8-16.4-7.6-20C120.4,330.4,127.6,332.4,134.4,337.6z"/>
	<path style="fill:#FFFFFF;" d="M399.6,324.8c4.8-2.4,8-7.2,8-12.8c0-8-6.4-14.4-14.4-14.4s-14.4,6.4-14.4,14.4   c0,6,3.6,11.2,8.8,13.2c-2.8,1.2-6,3.2-8.8,6c-2,2-4,4.4-5.2,6.8c6.8-5.2,14-7.2,16.8-4.4c3.6,3.6,0,12.8-7.6,20   c-0.8,0.8-1.6,1.6-2.4,2c4.8-0.4,10.4-2.8,14.8-7.6c7.6-7.6,10-17.6,5.2-22.4C400.8,325.6,400,325.2,399.6,324.8z"/>
	<circle style="fill:#FFFFFF;" cx="388.8" cy="242.4" r="18.8"/>
</g>
<path style="fill:#2C9984;" d="M90.4,448c44.4,37.2,101.2,60,163.6,60s119.6-22.4,163.6-60H90.4z"/>
<g>
	<circle style="fill:#FFFFFF;" cx="330.8" cy="63.2" r="16.8"/>
	<circle style="fill:#FFFFFF;" cx="177.2" cy="63.2" r="16.8"/>
</g>
<g>
	<path style="fill:#324A5E;" d="M308.8,402.8v7.6h-9.2c-0.8,0-2-0.4-2.8-1.2L283.6,396l5.2-5.6l12.4,12.4L308.8,402.8L308.8,402.8z"/>
	<path style="fill:#324A5E;" d="M339.2,448h-8.8c-3.2,0-6-2.8-6-6v-71.2c0-3.2,2.8-6,6-6h8.8c3.2,0,6,2.8,6,6V442   C345.6,445.2,342.8,448,339.2,448z"/>
</g>
<g>
	<path style="fill:#FFFFFF;" d="M345.6,382.8V430l0,0c4,0,7.6-3.2,7.6-7.6v-32C352.8,386.4,349.6,382.8,345.6,382.8L345.6,382.8z"/>
	<path style="fill:#FFFFFF;" d="M320.4,386.8V426c0,2.4,1.6,4,4,4v-47.2C322,382.8,320.4,384.8,320.4,386.8z"/>
</g>
<g>
	<rect x="327.2" y="370" style="fill:#2B3B4E;" width="15.6" height="4.4"/>
	<rect x="327.2" y="381.2" style="fill:#2B3B4E;" width="15.6" height="4.4"/>
	<rect x="327.2" y="392.8" style="fill:#2B3B4E;" width="15.6" height="4.4"/>
	<rect x="327.2" y="404.4" style="fill:#2B3B4E;" width="15.6" height="4.4"/>
	<rect x="327.2" y="416" style="fill:#2B3B4E;" width="15.6" height="4.4"/>
	<rect x="327.2" y="427.6" style="fill:#2B3B4E;" width="15.6" height="4.4"/>
	<rect x="327.2" y="438.8" style="fill:#2B3B4E;" width="15.6" height="4.4"/>
</g>
<path style="fill:#E6E9EE;" d="M320.4,393.6c-7.2,0-12.8,6-12.8,12.8c0,7.2,5.6,12.8,12.8,12.8V393.6z"/>
<circle style="fill:#FFFFFF;" cx="282" cy="388.4" r="9.2"/>
<g>
	<path style="fill:#324A5E;" d="M219.2,390l-12.8,12.8h-7.6v7.6h9.2c0.8,0,2-0.4,2.8-1.2l13.6-13.6   C222.4,393.6,220.8,391.6,219.2,390z"/>
	<path style="fill:#324A5E;" d="M168.8,448h8.8c3.2,0,6-2.8,6-6v-71.2c0-3.2-2.8-6-6-6h-8.8c-3.2,0-6,2.8-6,6V442   C162.4,445.2,165.2,448,168.8,448z"/>
</g>
<g>
	<path style="fill:#FFFFFF;" d="M162.4,382.8V430l0,0c-4,0-7.6-3.2-7.6-7.6v-32C155.2,386.4,158.4,382.8,162.4,382.8L162.4,382.8z"/>
	<path style="fill:#FFFFFF;" d="M187.6,386.8V426c0,2.4-1.6,4-4,4v-47.2C186,382.8,187.6,384.8,187.6,386.8z"/>
</g>
<g>
	<rect x="165.2" y="370" style="fill:#2B3B4E;" width="15.6" height="4.4"/>
	<rect x="165.2" y="381.2" style="fill:#2B3B4E;" width="15.6" height="4.4"/>
	<rect x="165.2" y="392.8" style="fill:#2B3B4E;" width="15.6" height="4.4"/>
	<rect x="165.2" y="404.4" style="fill:#2B3B4E;" width="15.6" height="4.4"/>
	<rect x="165.2" y="416" style="fill:#2B3B4E;" width="15.6" height="4.4"/>
	<rect x="165.2" y="427.6" style="fill:#2B3B4E;" width="15.6" height="4.4"/>
	<rect x="165.2" y="438.8" style="fill:#2B3B4E;" width="15.6" height="4.4"/>
</g>
<path style="fill:#E6E9EE;" d="M187.6,393.6c7.2,0,12.8,6,12.8,12.8c0,7.2-5.6,12.8-12.8,12.8V393.6z"/>
<g>
	<circle style="fill:#FFFFFF;" cx="226" cy="388.4" r="9.2"/>
	<path style="fill:#FFFFFF;" d="M254,109.2c-46.4,0-83.6,37.6-83.6,83.6V294H338V192.8C337.6,146.4,300.4,109.2,254,109.2z"/>
</g>
<path style="fill:#84DBFF;" d="M306.8,173.2H201.2c-8,0-14.4,6.4-14.4,14.4s6.4,14.4,14.4,14.4h106c8,0,14.4-6.4,14.4-14.4  C321.2,179.6,314.8,173.2,306.8,173.2z"/>
<path style="fill:#54C0EB;" d="M304.8,191.6H203.2c-2.4,0-4.4-2-4.4-4.4l0,0c0-2.4,2-4.4,4.4-4.4h101.2c2.4,0,4.4,2,4.4,4.4l0,0  C308.8,189.6,307.2,191.6,304.8,191.6z"/>
<path style="fill:#E6E9EE;" d="M343.2,294H164.8c-4.4,0-8,3.6-8,8v26.8c0,4.4,3.6,8,8,8h178.4c4.4,0,8-3.6,8-8V302  C351.2,297.6,347.6,294,343.2,294z"/>
<g>
</g>
<g>
</g>
<g>
</g>
<g>
</g>
<g>
</g>
<g>
</g>
<g>
</g>
<g>
</g>
<g>
</g>
<g>
</g>
<g>
</g>
<g>
</g>
<g>
</g>
<g>
</g>
<g>
</g>
</svg>
