<?xml version="1.0" encoding="iso-8859-1"?>
<!-- Generator: Adobe Illustrator 19.0.0, SVG Export Plug-In . SVG Version: 6.00 Build 0)  -->
<svg xmlns="http://www.w3.org/2000/svg" xmlns:xlink="http://www.w3.org/1999/xlink" version="1.1" id="Layer_1" x="0px" y="0px" viewBox="0 0 508 508" style="enable-background:new 0 0 508 508;" xml:space="preserve">
<circle style="fill:#84DBFF;" cx="254" cy="254" r="254"/>
<path style="fill:#54C0EB;" d="M90.8,448.4C134.8,485.6,192,508,254,508c62.4,0,119.2-22.4,163.2-59.6H90.8z"/>
<g>
	<path style="fill:#324A5E;" d="M392.4,313.6c0,0,7.2,22,0,39.2c-2,4.4-7.6,5.6-11.2,2.4l0,0c-2-1.6-2.8-4.4-2-6.8l3.6-14.4l-6,4.8   c-2.4,2-5.6,1.6-7.6-0.8l0,0c-1.2-1.6-1.6-3.6-0.8-5.2C370.4,326,377.6,310.8,392.4,313.6z"/>

		<rect x="348.173" y="166.009" transform="matrix(-0.7668 0.6419 -0.6419 -0.7668 755.8086 117.4258)" style="fill:#324A5E;" width="16.8" height="60.001"/>
</g>
<path style="fill:#FFFFFF;" d="M412.4,287.2c3.6,32-10,32.8-26.8,34.8s-30.4,3.6-33.6-28.4c-3.6-32,4.4-85.6,21.2-87.6  C389.6,204.4,408.8,255.2,412.4,287.2z"/>
<g>
	<path style="fill:#324A5E;" d="M115.6,313.6c0,0-7.2,22,0,39.2c2,4.4,7.6,5.6,11.2,2.4l0,0c2-1.6,2.8-4.4,2-6.8l-3.6-14.4l6,4.8   c2.4,2,5.6,1.6,7.6-0.8l0,0c1.2-1.6,1.6-3.6,0.8-5.2C137.6,326,130.4,310.8,115.6,313.6z"/>

		<rect x="143.076" y="165.537" transform="matrix(0.7668 0.6419 -0.6419 0.7668 160.8397 -51.6307)" style="fill:#324A5E;" width="16.8" height="60.001"/>
</g>
<path style="fill:#FFFFFF;" d="M95.6,287.2c-3.6,32,10,32.8,26.8,34.8s30.4,3.6,33.6-28.4c3.6-32-4.4-85.6-21.2-87.6  C118.4,204.4,99.2,255.2,95.6,287.2z"/>
<g>
	<rect x="164.8" y="385.2" style="fill:#2B3B4E;" width="178" height="18.4"/>
	<rect x="211.2" y="323.2" style="fill:#2B3B4E;" width="86" height="10"/>
</g>
<rect x="230.8" y="126.4" style="fill:#324A5E;" width="46.4" height="28"/>
<path style="fill:#E6E9EE;" d="M341.2,196.8H166.8c-4,0-6.8-3.2-6.8-6.8v-21.6c0-4,3.2-6.8,6.8-6.8h174c4,0,6.8,3.2,6.8,6.8V190  C348,193.6,344.8,196.8,341.2,196.8z"/>
<path style="fill:#FFFFFF;" d="M294,126.8c7.2-8.8,11.2-20,11.2-32c0-28.4-22.8-51.2-51.2-51.2s-51.2,22.8-51.2,51.2  c0,12,4.4,23.2,11.2,32H294z"/>
<path style="fill:#324A5E;" d="M304.4,104.4H203.6c-4,0-6.8-3.2-6.8-6.8V82c0-4,3.2-6.8,6.8-6.8h100.8c4,0,6.8,3.2,6.8,6.8v15.2  C311.2,101.2,308.4,104.4,304.4,104.4z"/>
<path style="fill:#FFFFFF;" d="M209.2,307.2h90c17.2-17.2,28.4-44,28.4-74c0-51.6-32.8-93.6-73.6-93.6s-73.6,42-73.6,93.6  C180.4,263.6,191.6,290.4,209.2,307.2z"/>
<circle style="fill:#E6E9EE;" cx="254" cy="214.4" r="23.2"/>
<g>
	<circle style="fill:#FF7058;" cx="278.8" cy="89.6" r="8"/>
	<circle style="fill:#FF7058;" cx="229.2" cy="89.6" r="8"/>
</g>
<g>
	<path style="fill:#324A5E;" d="M303.6,307.2h-99.2c-4.8,0-8.4,3.6-8.4,8.4l0,0c0,4.8,3.6,8.4,8.4,8.4H304c4.8,0,8.4-3.6,8.4-8.4   l0,0C312,311.2,308.4,307.2,303.6,307.2z"/>
	<path style="fill:#324A5E;" d="M303.6,332.4h-99.2c-4.8,0-8.4,3.6-8.4,8.4l0,0c0,4.8,3.6,8.4,8.4,8.4H304c4.8,0,8.4-3.6,8.4-8.4   l0,0C312,336,308.4,332.4,303.6,332.4z"/>
	<path style="fill:#324A5E;" d="M353.6,448.8h-16.8c-3.6,0-6.4-2.8-6.4-6.4v-91.2c0-3.6,2.8-6.4,6.4-6.4h16.8c3.6,0,6.4,2.8,6.4,6.4   v91.2C360,446,357.2,448.8,353.6,448.8z"/>
	<path style="fill:#324A5E;" d="M171.2,448.8h-16.8c-3.6,0-6.4-2.8-6.4-6.4v-91.2c0-3.6,2.8-6.4,6.4-6.4h16.8c3.6,0,6.4,2.8,6.4,6.4   v91.2C177.6,446,174.8,448.8,171.2,448.8z"/>
</g>
<path style="fill:#FFFFFF;" d="M223.2,438l-20.4-35.2c-2.4-4-2.4-8.4,0-12.4l20.4-35.2c2.4-4,6.4-6,10.8-6h40.4  c4.4,0,8.4,2.4,10.8,6l20.4,35.2c2.4,4,2.4,8.4,0,12.4L285.2,438c-2.4,4-6.4,6-10.8,6h-40.8C229.2,444,225.2,441.6,223.2,438z"/>
<g>
</g>
<g>
</g>
<g>
</g>
<g>
</g>
<g>
</g>
<g>
</g>
<g>
</g>
<g>
</g>
<g>
</g>
<g>
</g>
<g>
</g>
<g>
</g>
<g>
</g>
<g>
</g>
<g>
</g>
</svg>
