<?xml version="1.0" encoding="iso-8859-1"?>
<!-- Generator: Adobe Illustrator 19.0.0, SVG Export Plug-In . SVG Version: 6.00 Build 0)  -->
<svg xmlns="http://www.w3.org/2000/svg" xmlns:xlink="http://www.w3.org/1999/xlink" version="1.1" id="Layer_1" x="0px" y="0px" viewBox="0 0 508 508" style="enable-background:new 0 0 508 508;" xml:space="preserve">
<circle style="fill:#90DFAA;" cx="254" cy="254" r="254"/>
<path style="fill:#2C9984;" d="M90.8,448.8c44,36.8,100.8,59.2,163.2,59.2s118.8-22.4,163.2-59.2H90.8z"/>
<g>
	<polygon style="fill:#FF7058;" points="278,331.6 254.8,348.4 280.8,374.8 299.6,362.8  "/>
	<polygon style="fill:#FF7058;" points="282.4,380 284.8,419.2 300.8,419.2 303.2,380  "/>
	<polygon style="fill:#FF7058;" points="208.4,362.8 227.2,374.8 253.2,348.4 230,331.6  "/>
	<polygon style="fill:#FF7058;" points="207.2,419.2 223.2,419.2 225.6,380 204.8,380  "/>
</g>
<circle style="fill:#324A5E;" cx="292.4" cy="372.8" r="13.2"/>
<path style="fill:#FFFFFF;" d="M305.6,440.8h-26.4v-16.4c0-3.6,2.8-6.8,6.8-6.8h13.2c3.6,0,6.8,2.8,6.8,6.8v16.4H305.6z"/>
<g>
	<path style="fill:#324A5E;" d="M305.2,449.2h-25.6c-1.6,0-2.8-1.2-2.8-2.8V440c0-1.6,1.2-2.8,2.8-2.8h25.6c1.6,0,2.8,1.2,2.8,2.8   v6.4C307.6,448,306.8,449.2,305.2,449.2z"/>
	<circle style="fill:#324A5E;" cx="215.6" cy="372.8" r="13.2"/>
</g>
<path style="fill:#FFFFFF;" d="M202.4,440.8h26.4v-16.4c0-3.6-2.8-6.8-6.8-6.8h-13.2c-3.6,0-6.8,2.8-6.8,6.8v16.4H202.4z"/>
<g>
	<path style="fill:#324A5E;" d="M202.8,449.2h25.6c1.6,0,2.8-1.2,2.8-2.8V440c0-1.6-1.2-2.8-2.8-2.8h-25.6c-1.6,0-2.8,1.2-2.8,2.8   v6.4C200.4,448,201.2,449.2,202.8,449.2z"/>
	<path style="fill:#324A5E;" d="M339.2,286v-4h-10.8v4c0,10.4,4.4,20,11.6,26.8c6.8,6.4,0,16-5.2,15.6c-2.8,0-9.2-0.8-10-8.8   c-0.4-2.8-2.4-5.2-5.2-5.2s-5.6,2-5.6,4.8c0,5.6,2.4,11.2,6.4,14.8c6.4,5.6,14.8,5.2,15.6,4.8c9.2-1.2,16.4-8.4,17.6-17.6   c0.8-6.4-1.6-12.4-6.4-16.8C342,300,339.2,293.2,339.2,286z"/>
	<path style="fill:#324A5E;" d="M168.8,286v-4h10.8v4c0,10.4-4.4,20-11.6,26.8c-6.8,6.4,0,16,5.2,15.6c2.8,0,9.2-0.8,10-8.8   c0.4-2.8,2.4-5.2,5.2-5.2s5.2,2.4,5.2,5.2c0,5.6-2.4,11.2-6.4,14.8c-6.4,5.6-14.8,5.2-15.6,4.8c-9.2-1.2-16.4-8.4-17.6-17.6   c-0.8-6.4,1.6-12.4,6.4-16.8C166,300,168.8,293.2,168.8,286z"/>
</g>
<g>
	<path style="fill:#F1543F;" d="M351.2,261.6c0,22.4-8,24.8-17.6,24.8S316,284,316,261.6s8-55.6,17.6-55.6S351.2,239.6,351.2,261.6z   "/>
	<path style="fill:#F1543F;" d="M156.8,261.6c0,22.4,8,24.8,17.6,24.8S192,284,192,261.6s-8-55.6-17.6-55.6S156.8,239.6,156.8,261.6   z"/>
	<rect x="302" y="199.6" style="fill:#F1543F;" width="23.6" height="14.8"/>
</g>
<circle style="fill:#324A5E;" cx="333.6" cy="206.8" r="14"/>
<rect x="182.4" y="199.6" style="fill:#F1543F;" width="22.8" height="14.8"/>
<g>
	<circle style="fill:#324A5E;" cx="174.4" cy="206.8" r="14"/>
	<path style="fill:#324A5E;" d="M226.4,278.8v44c0,15.2,12.4,27.6,27.6,27.6s27.6-12.4,27.6-27.6v-44H226.4z"/>
</g>
<g>
	<path style="fill:#FF7058;" d="M283.6,282.8h-59.2c-7.6,0-14-5.6-14.8-13.2l-9.6-78.4c-1.2-8.8,6-16.8,14.8-16.8h78.4   c9.2,0,16,8,14.8,16.8l-9.6,78.4C297.6,277.2,291.2,282.8,283.6,282.8z"/>
	<path style="fill:#FF7058;" d="M302.8,72.8C296.8,51.6,277.2,36,254,36s-42.8,15.6-48.8,36.8H302.8z"/>
	<path style="fill:#FF7058;" d="M211.6,120.8v18.8c0,7.6,6.4,14,14,14h56.8c7.6,0,14-6.4,14-14v-18.8H211.6z"/>
</g>
<path style="fill:#324A5E;" d="M307.2,122.4H200.8c-5.2,0-9.2-4-9.2-9.2V80.4c0-5.2,4-9.2,9.2-9.2h106.4c5.2,0,9.2,4,9.2,9.2v32.8  C316.4,118.4,312.4,122.4,307.2,122.4z"/>
<circle style="fill:#FFFFFF;" cx="289.2" cy="96.8" r="15.6"/>
<circle style="fill:#84DBFF;" cx="289.2" cy="96.8" r="7.6"/>
<circle style="fill:#FFFFFF;" cx="218.8" cy="96.8" r="15.6"/>
<circle style="fill:#84DBFF;" cx="218.8" cy="96.8" r="7.6"/>
<rect x="225.2" y="130.8" style="fill:#FFD05B;" width="57.2" height="8.8"/>
<path style="fill:#FFFFFF;" d="M282.8,174.4h-57.6V174c0-4.8,4-8.8,8.8-8.8h40C278.8,165.6,282.8,169.6,282.8,174.4L282.8,174.4z"/>
<rect x="238" y="153.2" style="fill:#324A5E;" width="32.4" height="12.4"/>
<rect x="217.2" y="192.8" style="fill:#FFFFFF;" width="74" height="26.4"/>
<path style="fill:#FF7058;" d="M280.8,300.8h-53.6c-6.8,0-12,5.6-12,12c0,6.8,5.6,12,12,12h53.2c6.8,0,12-5.6,12-12  C292.8,306,287.2,300.8,280.8,300.8z"/>
<g>
</g>
<g>
</g>
<g>
</g>
<g>
</g>
<g>
</g>
<g>
</g>
<g>
</g>
<g>
</g>
<g>
</g>
<g>
</g>
<g>
</g>
<g>
</g>
<g>
</g>
<g>
</g>
<g>
</g>
</svg>
