<?xml version="1.0" encoding="iso-8859-1"?>
<!-- Generator: Adobe Illustrator 19.0.0, SVG Export Plug-In . SVG Version: 6.00 Build 0)  -->
<svg xmlns="http://www.w3.org/2000/svg" xmlns:xlink="http://www.w3.org/1999/xlink" version="1.1" id="Layer_1" x="0px" y="0px" viewBox="0 0 508 508" style="enable-background:new 0 0 508 508;" xml:space="preserve">
<circle style="fill:#84DBFF;" cx="254" cy="254" r="254"/>
<path style="fill:#54C0EB;" d="M102.8,458.4C145.2,489.6,197.2,508,254,508s108.8-18.4,151.2-49.6H102.8z"/>
<g>
	<rect x="238.8" y="127.6" style="fill:#324A5E;" width="30.4" height="32.4"/>
	<rect x="210.4" y="245.2" style="fill:#324A5E;" width="86.8" height="44.8"/>
</g>
<path style="fill:#FFFFFF;" d="M290.4,137.6c7.2-8.8,11.6-20.4,11.6-32.8c0-28-21.2-50.8-47.6-50.8s-47.6,22.8-47.6,50.8  c0,12.8,4.4,24,11.6,32.8H290.4z"/>
<path style="fill:#FF7058;" d="M288.4,102.4c0.8-2,1.2-4,1.2-6c0-12.4-16-22.4-35.6-22.4s-35.6,10-35.6,22.4c0,2,0.4,4,1.2,6H288.4z  "/>
<path style="fill:#FFFFFF;" d="M306,261.2H202c-4.4,0-8.4-3.6-8.4-8.4v-92.4c0-4.4,3.6-8.4,8.4-8.4h104c4.4,0,8.4,3.6,8.4,8.4v92.4  C314,257.6,310.4,261.2,306,261.2z"/>
<g>
	<path style="fill:#324A5E;" d="M344.4,260.8V254h-8v6.8c0,7.2,2.8,13.6,8,18c1.6,1.2,2.4,3.2,2.4,4.8c0,3.6-3.2,6.4-6.4,6.4   c-3.6,0-6.4-2.8-6.4-6.4c0-2.4-2-4-4-4c-2.4,0-4,2-4,4c0,8,6.4,14.8,14.8,14.8c8,0,14.8-6.8,14.8-14.8c0-4.4-2-8.4-5.2-11.2   C346.4,270,344.4,265.6,344.4,260.8z"/>
	<polygon style="fill:#324A5E;" points="347.2,238.8 352.4,183.6 328.4,183.6 333.6,238.8  "/>
</g>
<g>
	<circle style="fill:#FFFFFF;" cx="340.4" cy="174" r="18.8"/>
	<circle style="fill:#FFFFFF;" cx="340.4" cy="245.2" r="12.4"/>
</g>
<g>
	<path style="fill:#324A5E;" d="M332,168.4c-4,12-16.8,27.2-25.2,24c-8.8-2.8-10-22.4-6-34.4s11.6-12,20.4-9.2   C329.6,151.6,336,156,332,168.4z"/>
	<path style="fill:#324A5E;" d="M178,280c-2.4,0-4,2-4,4c0,3.6-2.8,6.4-6.4,6.4c-3.6,0-6.4-3.2-6.4-6.4c0-2,0.8-3.6,2.4-4.8   c5.2-4.4,8-10.8,8-18V254h-8v6.8c0,4.8-2,9.2-5.2,11.6c-3.6,2.8-5.2,6.8-5.2,11.2c0,8,6.8,14.8,14.8,14.8s14.8-6.4,14.8-14.8   C182.4,281.6,180.4,280,178,280z"/>
	<polygon style="fill:#324A5E;" points="174.4,238.8 179.6,183.6 155.6,183.6 160.8,238.8  "/>
</g>
<g>
	<circle style="fill:#FFFFFF;" cx="167.6" cy="174" r="18.8"/>
	<circle style="fill:#FFFFFF;" cx="167.6" cy="245.2" r="12.4"/>
</g>
<g>
	<path style="fill:#324A5E;" d="M176,168.4c4,12,16.8,27.2,25.2,24c8.8-2.8,10-22.4,6-34.4s-11.6-12-20.4-9.2   C178.4,151.6,172,156,176,168.4z"/>
	<rect x="270" y="355.2" style="fill:#324A5E;" width="26.4" height="88.8"/>
	<rect x="211.6" y="355.2" style="fill:#324A5E;" width="26.4" height="88.8"/>
</g>
<g>
	<path style="fill:#FFFFFF;" d="M316,345.2v-52.4c0-10.8-8.8-19.2-19.2-19.2h-85.6c-10.8,0-19.2,8.8-19.2,19.2v52.8   c0,6.8,5.2,12,12,12h100C310.8,357.2,316,352,316,345.2z"/>
	<path style="fill:#FFFFFF;" d="M239.2,414.4h-31.6c-2.8,0-4.8-2-4.8-4.8v-20.4c0-2.8,2-4.8,4.8-4.8h31.6c2.8,0,4.8,2,4.8,4.8v20.4   C244,412.4,242,414.4,239.2,414.4z"/>
	<path style="fill:#FFFFFF;" d="M299.2,414.4h-31.6c-2.8,0-4.8-2-4.8-4.8v-20.4c0-2.8,2-4.8,4.8-4.8h31.6c2.8,0,4.8,2,4.8,4.8v20.4   C304,412.4,301.6,414.4,299.2,414.4z"/>
</g>
<g>
	<path style="fill:#E6E9EE;" d="M296.4,440.4H270c-3.2,0-6,2.8-6,6v12h38.4v-12C302.4,442.8,299.6,440.4,296.4,440.4z"/>
	<path style="fill:#E6E9EE;" d="M238,440.4h-26.4c-3.2,0-6,2.8-6,6v12H244v-12C244,442.8,241.2,440.4,238,440.4z"/>
</g>
<g>
</g>
<g>
</g>
<g>
</g>
<g>
</g>
<g>
</g>
<g>
</g>
<g>
</g>
<g>
</g>
<g>
</g>
<g>
</g>
<g>
</g>
<g>
</g>
<g>
</g>
<g>
</g>
<g>
</g>
</svg>
