<?xml version="1.0" encoding="iso-8859-1"?>
<!-- Generator: Adobe Illustrator 19.0.0, SVG Export Plug-In . SVG Version: 6.00 Build 0)  -->
<svg xmlns="http://www.w3.org/2000/svg" xmlns:xlink="http://www.w3.org/1999/xlink" version="1.1" id="Layer_1" x="0px" y="0px" viewBox="0 0 508 508" style="enable-background:new 0 0 508 508;" xml:space="preserve">
<circle style="fill:#324A5E;" cx="254" cy="254" r="254"/>
<path style="fill:#2B3B4E;" d="M127.2,474c37.2,21.6,80.8,34,126.8,34s89.6-12.4,126.8-34H127.2z"/>
<polygon style="fill:#CED5E0;" points="273.6,128.4 234.4,128.4 212.8,194.4 295.2,194.4 "/>
<rect x="341.6" y="206.4" style="fill:#FFFFFF;" width="13.2" height="102.8"/>
<circle style="fill:#84DBFF;" cx="348.4" cy="304.8" r="13.6"/>
<rect x="152.8" y="206.4" style="fill:#FFFFFF;" width="13.2" height="102.8"/>
<circle style="fill:#84DBFF;" cx="159.6" cy="304.8" r="13.6"/>
<g>
	<rect x="250.8" y="44" style="fill:#FFFFFF;" width="6.8" height="38.4"/>
	<path style="fill:#FFFFFF;" d="M317.2,171.2H190.8c-5.2,0-9.6,4.4-9.6,9.6v133.6c0,5.2,4.4,9.6,9.6,9.6h126c5.2,0,9.6-4.4,9.6-9.6   V180.8C326.8,175.6,322.4,171.2,317.2,171.2z"/>
</g>
<path style="fill:#CED5E0;" d="M267.6,87.2c-1.2-6.8-6.8-11.6-13.6-11.6c-6.8,0-12.4,5.2-13.6,11.6H267.6z"/>
<circle style="fill:#FF7058;" cx="254" cy="44" r="11.2"/>
<g>
	<path style="fill:#CED5E0;" d="M348.4,230.4h-21.6v-43.2h21.6c12,0,21.6,9.6,21.6,21.6l0,0C370,220.8,360.4,230.4,348.4,230.4z"/>
	<path style="fill:#CED5E0;" d="M159.6,230.4h21.6v-43.2h-21.6c-12,0-21.6,9.6-21.6,21.6l0,0C138,220.8,147.6,230.4,159.6,230.4z"/>
</g>
<g>
	<rect x="277.6" y="324" style="fill:#ACB3BA;" width="24.4" height="118"/>
	<rect x="206" y="324" style="fill:#ACB3BA;" width="24.4" height="118"/>
</g>
<g>
	<path style="fill:#E6E9EE;" d="M310.8,474c3.2-4.4,4.8-9.2,4.8-14.8c0-14.4-11.6-26-26-26s-26,11.6-26,26c0,5.6,1.6,10.8,4.8,14.8   H310.8z"/>
	<path style="fill:#E6E9EE;" d="M239.6,474c3.2-4.4,4.8-9.2,4.8-14.8c0-14.4-11.6-26-26-26s-26,11.6-26,26c0,5.6,1.6,10.8,4.8,14.8   H239.6z"/>
</g>
<ellipse style="fill:#FFFFFF;" cx="254" cy="119.6" rx="66" ry="38"/>
<g>
	<circle style="fill:#FF7058;" cx="275.6" cy="109.2" r="10.4"/>
	<circle style="fill:#FF7058;" cx="232.4" cy="109.2" r="10.4"/>
</g>
<path style="fill:#ACB3BA;" d="M274.8,145.2h-41.6c-4.8,0-8.4-4-8.4-8.4l0,0c0-4.8,4-8.4,8.4-8.4h42c4.8,0,8.4,4,8.4,8.4l0,0  C283.6,141.6,279.6,145.2,274.8,145.2z"/>
<g>
</g>
<g>
</g>
<g>
</g>
<g>
</g>
<g>
</g>
<g>
</g>
<g>
</g>
<g>
</g>
<g>
</g>
<g>
</g>
<g>
</g>
<g>
</g>
<g>
</g>
<g>
</g>
<g>
</g>
</svg>
