<?xml version="1.0" encoding="iso-8859-1"?>
<!-- Generator: Adobe Illustrator 19.0.0, SVG Export Plug-In . SVG Version: 6.00 Build 0)  -->
<svg xmlns="http://www.w3.org/2000/svg" xmlns:xlink="http://www.w3.org/1999/xlink" version="1.1" id="Layer_1" x="0px" y="0px" viewBox="0 0 508 508" style="enable-background:new 0 0 508 508;" xml:space="preserve">
<circle style="fill:#FD8469;" cx="254" cy="254" r="254"/>
<path style="fill:#F1543F;" d="M107.6,461.6C148.8,490.8,199.2,508,254,508s104.8-17.2,146.4-46.4H107.6z"/>
<polygon style="fill:#2B3B4E;" points="238,109.6 234.4,126.4 273.6,126.4 270,109.6 "/>
<g>
	<ellipse style="fill:#324A5E;" cx="254" cy="78.8" rx="73.2" ry="33.2"/>
	<circle style="fill:#324A5E;" cx="347.6" cy="78.8" r="11.6"/>
	<circle style="fill:#324A5E;" cx="160.4" cy="78.8" r="11.6"/>
</g>
<path style="fill:#FFFFFF;" d="M306.4,92.4H201.6c-2.4,0-4.8-2-4.8-4.8v-18c0-2.4,2-4.8,4.8-4.8h104.8c2.4,0,4.8,2,4.8,4.8v18  C311.2,90.4,308.8,92.4,306.4,92.4z"/>
<g>
	<circle style="fill:#84DBFF;" cx="287.6" cy="78.8" r="7.6"/>
	<circle style="fill:#84DBFF;" cx="220.4" cy="78.8" r="7.6"/>
</g>
<g>
	<path style="fill:#2B3B4E;" d="M285.2,307.6c-1.2-1.2-2-2-3.2-2c-2.4,0-4.4,4-6.4,11.2l-5.6-22.4c3.6-0.4,7.2-0.8,10.4-1.2   L285.2,307.6z"/>
	<path style="fill:#2B3B4E;" d="M238,294.4l-6,22.4c-2-6.8-4-11.2-6.4-11.2c-0.8,0-2,0.8-3.2,2l4.8-14.8   C230.8,293.6,234.4,294,238,294.4z"/>
	<path style="fill:#2B3B4E;" d="M301.2,442.4v12.4h-25.6v-8c2,0.4,4.4,0.4,6.8,0.4C286.8,446.8,294.8,447.6,301.2,442.4z"/>
</g>
<path style="fill:#324A5E;" d="M310,462.4c-0.4-4.4-2.8-7.6-5.6-7.6h-32c-2.8,0-5.2,3.2-5.6,7.6H310z"/>
<path style="fill:#2B3B4E;" d="M232.4,446.8v8h-25.6v-12.4c6.4,5.2,14,4.8,18.8,4.8C228.4,446.8,230.4,447.2,232.4,446.8z"/>
<path style="fill:#324A5E;" d="M241.6,462.4c-0.4-4.4-2.8-7.6-5.6-7.6h-32c-2.8,0-5.2,3.2-5.6,7.6H241.6z"/>
<g>
	<path style="fill:#2B3B4E;" d="M282.4,244.4v28.8h-56.8v-28.8c2.8,0.4,5.6,0.8,8.4,0.8h39.6C276.8,245.2,279.6,244.8,282.4,244.4z"/>
	<path style="fill:#2B3B4E;" d="M333.6,158.4l-12.8,14.4c-2-11.2-13.2-29.2-13.2-29.6l8-8.8L333.6,158.4z"/>
	<path style="fill:#2B3B4E;" d="M364.4,190L364.4,190c-1.6-0.8-3.6-1.2-5.2-1.2c-3.6-0.4-7.6,0.4-10.8,2.4l-0.4-14.4l1.6,2   c3.2,4,9.6,4,12.4-0.4c0.8-1.2,1.2-2,2-3.2l0,0L364.4,190z"/>
	<path style="fill:#2B3B4E;" d="M351.2,294.8l-1.6,5.2c-1.6-1.2-4-2-6-2.4c-1.2,0-2.4,0-3.6,0l2.4-8.8   C344.8,292.4,350.8,294.8,351.2,294.8z"/>
</g>
<g>
	<path style="fill:#324A5E;" d="M349.6,178.8c3.2,4,9.6,4,12.4-0.4c9.2-13.6,9.2-32.4-1.6-46.4c-10.8-14-28.8-18.8-44.4-13.2   c-4.8,1.6-6.8,8-3.6,12L349.6,178.8z"/>
	<path style="fill:#324A5E;" d="M378,231.2c-2.4,29.2-15.6,64.8-28,63.6s-19.6-38-16.8-67.2c2.4-29.2,13.6-40,26-38.8   C371.6,189.6,380.8,202,378,231.2z"/>
</g>
<g>
	<path style="fill:#2B3B4E;" d="M358.8,325.2c0,0-2.8,0.8-3.6,2l-4-5.6c1.2-0.8,2-2,2.8-3.2L358.8,325.2z"/>
	<path style="fill:#2B3B4E;" d="M342,325.2l-2,6c-0.8-0.4-3.6-1.6-4-1.6l1.6-5.2c0.8,0.4,2,0.4,2.8,0.4   C340.8,325.2,341.2,325.2,342,325.2z"/>
	<path style="fill:#2B3B4E;" d="M330.4,318.8l-5.2,3.6c0-1.2-2-3.2-2.4-3.6l5.6-4C329.2,316.4,329.6,317.6,330.4,318.8z"/>
</g>
<g>
	<circle style="fill:#324A5E;" cx="342" cy="311.6" r="13.6"/>
	<path style="fill:#324A5E;" d="M366,335.2c-1.6-8.8-4.4-10.4-7.2-10c-3.2,0.4-5.2,2.8-3.6,12c1.6,8.8,6,20.8,9.2,20.4   C366.8,356.8,367.2,344,366,335.2z"/>
	<path style="fill:#324A5E;" d="M337.2,330c-2.8-0.8-5.6,0-7.2,6s-1.2,14.8,1.6,15.6c2.8,0.8,7.6-6.8,9.2-12.8   C342.4,332.8,340.4,330.8,337.2,330z"/>
	<path style="fill:#324A5E;" d="M316,320.8c-3.6,3.6-7.2,10.4-5.2,12c2,2,8.4-1.6,12-5.6c3.6-3.6,2.8-6,1.2-8   C322,318,319.6,317.2,316,320.8z"/>
</g>
<g>
	<path style="fill:#2B3B4E;" d="M200.4,143.2c-6.4,8-11.2,18-13.2,29.6l-12.8-14.4l18.4-23.6L200.4,143.2z"/>
	<path style="fill:#2B3B4E;" d="M160,176.8l-0.4,14.4c-3.2-2-14.4-2-16-1.2l0.4-14.8C144.4,176.4,160,176.8,160,176.8z"/>
	<path style="fill:#2B3B4E;" d="M168,298c-1.2,0-8,0.8-9.6,2l-1.6-5.2c0.4,0,6.4-2.4,8.8-6L168,298z"/>
</g>
<g>
	<path style="fill:#324A5E;" d="M158.4,178.8c-3.2,4-9.6,4-12.4-0.4c-9.2-13.6-9.2-32.4,1.6-46.4s28.8-18.8,44.4-13.2   c4.8,1.6,6.8,8,3.6,12L158.4,178.8z"/>
	<path style="fill:#324A5E;" d="M130,231.2c2.4,29.2,15.6,64.8,28,63.6s19.6-38,16.8-67.2c-2.4-29.2-13.6-40-26-38.8   C136.4,189.6,127.2,202,130,231.2z"/>
</g>
<g>
	<path style="fill:#2B3B4E;" d="M156.8,321.6l-4,5.6c-0.8-1.2-3.6-2-3.6-2l5.2-6.8C154.8,319.6,155.6,320.8,156.8,321.6z"/>
	<path style="fill:#2B3B4E;" d="M172,329.6c-0.4,0-3.2,0.8-4,1.6l-2-6c0.4,0,3.2-0.4,4-0.8L172,329.6z"/>
	<path style="fill:#2B3B4E;" d="M184.8,319.2c-0.4,0-2.4,2.4-2.4,3.6l-5.2-3.6c0.8-1.2,1.2-2.4,1.6-4L184.8,319.2z"/>
</g>
<g>
	<circle style="fill:#324A5E;" cx="166" cy="311.6" r="13.6"/>
	<path style="fill:#324A5E;" d="M149.6,325.2c-3.2-0.4-6,1.2-7.2,10c-1.6,8.8-1.2,21.6,2,22s7.6-11.6,9.2-20.4   C154.8,328,152.4,325.6,149.6,325.2z"/>
	<path style="fill:#324A5E;" d="M170.8,330c-2.8,0.8-5.2,2.8-3.6,8.8c1.6,6,6,13.6,9.2,12.8c2.8-0.8,3.2-9.6,1.6-15.6   C176.4,330,173.6,329.2,170.8,330z"/>
	<path style="fill:#324A5E;" d="M192,320.8c-3.6-3.6-6-3.2-8-1.2s-2.4,4,1.2,8c3.6,3.6,10,7.2,12,5.6   C199.2,331.2,195.6,324.8,192,320.8z"/>
	<path style="fill:#324A5E;" d="M273.6,126.4H234c-26.8,0-48,26.8-48,59.6l0,0c0,32.8,21.6,59.6,48,59.6h39.6   c26.8,0,48-26.8,48-59.6l0,0C322,152.8,300.4,126.4,273.6,126.4z"/>
</g>
<path id="SVGCleanerId_0" style="fill:#324A5E;" d="M293.2,259.6h-78.4c-16.8,0-20.8,24.4-4.8,29.2c12.8,4,27.6,6,44,6  s31.2-2.4,44-6C314.4,284,310.4,259.6,293.2,259.6z"/>
<g>
	<path id="SVGCleanerId_0_1_" style="fill:#324A5E;" d="M293.2,259.6h-78.4c-16.8,0-20.8,24.4-4.8,29.2c12.8,4,27.6,6,44,6   s31.2-2.4,44-6C314.4,284,310.4,259.6,293.2,259.6z"/>
</g>
<g>
	<path style="fill:#324A5E;" d="M197.6,410.4c0,39.2,19.6,36.4,28.4,36.4c8.8,0,16,2.8,16-36.4s-7.2-104.8-16-104.8   C216.8,305.6,197.6,371.6,197.6,410.4z"/>
	<path style="fill:#324A5E;" d="M310.4,410.4c0,39.2-19.6,36.4-28.4,36.4s-16,2.8-16-36.4s7.2-104.8,16-104.8   C291.2,305.6,310.4,371.6,310.4,410.4z"/>
</g>
<g>
</g>
<g>
</g>
<g>
</g>
<g>
</g>
<g>
</g>
<g>
</g>
<g>
</g>
<g>
</g>
<g>
</g>
<g>
</g>
<g>
</g>
<g>
</g>
<g>
</g>
<g>
</g>
<g>
</g>
</svg>
