<?xml version="1.0" encoding="iso-8859-1"?>
<!-- Generator: Adobe Illustrator 19.0.0, SVG Export Plug-In . SVG Version: 6.00 Build 0)  -->
<svg xmlns="http://www.w3.org/2000/svg" xmlns:xlink="http://www.w3.org/1999/xlink" version="1.1" id="Layer_1" x="0px" y="0px" viewBox="0 0 508 508" style="enable-background:new 0 0 508 508;" xml:space="preserve">
<circle style="fill:#54C0EB;" cx="254" cy="254" r="254"/>
<polygon style="fill:#324A5E;" points="270,154.8 238,154.8 246.8,116 261.2,116 "/>
<g>
	<rect x="273.6" y="322" style="fill:#CED5E0;" width="14.8" height="134.4"/>
	<rect x="219.6" y="322" style="fill:#CED5E0;" width="14.8" height="134.4"/>
</g>
<path style="fill:#324A5E;" d="M293.6,456.8h-25.2c-5.6,0-10,4.4-10,10v9.2h44.8v-9.2C303.6,461.2,299.2,456.8,293.6,456.8z"/>
<path style="fill:#FFFFFF;" d="M301.2,414.8c0,22.8-8.8,25.2-20,25.2s-20-2-20-25.2c0-22.8,8.8-58,20-58  C292,356.4,301.2,391.6,301.2,414.8z"/>
<path style="fill:#324A5E;" d="M239.6,456.8h-25.2c-5.6,0-10,4.4-10,10v9.2h44.8v-9.2C249.2,461.2,244.8,456.8,239.6,456.8z"/>
<path style="fill:#FFFFFF;" d="M246.8,414.8c0,22.8-8.8,25.2-20,25.2s-20-2-20-25.2c0-22.8,8.8-58,20-58S246.8,391.6,246.8,414.8z"/>
<g>
	<path style="fill:#324A5E;" d="M388.8,323.6c-3.6,18.8-16.8,32.4-29.2,30c-1.2-0.4-2-0.4-3.2-0.8c14.4-10,21.6-23.6,16.8-31.6   c-4.4-6.8-17.2-7.2-30.4-1.6c0-1.6,0.4-2.8,0.8-4.4c3.6-18.8,16.8-32.4,29.2-30C385.2,287.2,392.4,304.8,388.8,323.6z"/>
	<polygon style="fill:#324A5E;" points="385.6,254 355.6,260.4 343.2,166 358.8,162.8  "/>
</g>
<path style="fill:#FFFFFF;" d="M395.6,264c-0.8,29.2-12.8,36.4-27.6,36c-14.8-0.4-26.4-8-26-37.2c0-5.6,0.8-12,1.6-18.4  c16.8-6.8,29.2-28,36.4-43.2C390,214,396,242,395.6,264z"/>
<g>
	<path style="fill:#324A5E;" d="M119.2,323.6c3.6,18.8,16.8,32.4,29.2,30c1.2-0.4,2-0.4,3.2-0.8c-14.4-10-21.6-23.6-16.8-31.6   c4.4-6.8,17.2-7.2,30.4-1.6c0-1.6-0.4-2.8-0.8-4.4c-3.6-18.8-16.8-32.4-29.2-30C122.8,287.2,115.6,304.8,119.2,323.6z"/>
	<polygon style="fill:#324A5E;" points="122.4,254 152.4,260.4 164.8,166 149.2,162.8  "/>
</g>
<g>
	<path style="fill:#FFFFFF;" d="M112.4,264c0.8,29.2,12.8,36.4,27.6,36s26.4-8,26-37.2c0-5.6-0.8-12-1.6-18.4   c-16.8-6.8-29.2-28-36.4-43.2C118,214,112,242,112.4,264z"/>
	<path style="fill:#FFFFFF;" d="M132.4,142.8l4,22.4l46,26.8l14.8,114.4c1.2,9.2,9.2,16.4,18.4,16.4h77.2c9.2,0,17.2-6.8,18.4-16.4   L326,192l46-26.8l4-22.4H132.4z"/>
	<path style="fill:#FFFFFF;" d="M294.8,67.6c0,26.8-18.4,61.6-40.8,61.6c-22.8,0-40.8-34.8-40.8-61.6S231.6,32,254,32   C276.8,32,294.8,40.8,294.8,67.6z"/>
</g>
<g>
	<rect x="261.2" y="62" style="fill:#324A5E;" width="18.8" height="8.8"/>
	<rect x="228" y="62" style="fill:#324A5E;" width="18.8" height="8.8"/>
</g>
<g>
</g>
<g>
</g>
<g>
</g>
<g>
</g>
<g>
</g>
<g>
</g>
<g>
</g>
<g>
</g>
<g>
</g>
<g>
</g>
<g>
</g>
<g>
</g>
<g>
</g>
<g>
</g>
<g>
</g>
</svg>
