<?xml version="1.0" encoding="iso-8859-1"?>
<!-- Generator: Adobe Illustrator 19.0.0, SVG Export Plug-In . SVG Version: 6.00 Build 0)  -->
<svg xmlns="http://www.w3.org/2000/svg" xmlns:xlink="http://www.w3.org/1999/xlink" version="1.1" id="Layer_1" x="0px" y="0px" viewBox="0 0 508 508" style="enable-background:new 0 0 508 508;" xml:space="preserve">
<circle style="fill:#324A5E;" cx="254" cy="254" r="254"/>
<path style="fill:#2B3B4E;" d="M92.8,450.4c44,36,100,57.6,161.2,57.6s117.2-21.6,161.2-57.6H92.8z"/>
<polygon style="fill:#CED5E0;" points="408,277.2 392,277.2 392,227.6 348,184 359.6,172.4 408,221.2 "/>
<circle style="fill:#E6E9EE;" cx="339.6" cy="176" r="28.8"/>
<path style="fill:#CED5E0;" d="M388.8,344.8v-17.2c-4-3.2-6.4-8-6.4-13.2c0-9.6,7.6-17.2,17.2-17.2s17.2,7.6,17.2,17.2  c0,5.2-2.4,10-6.4,13.2v17.2h8.8c5.6-12,9.2-27.6,9.2-41.2c0-6.4-0.8-11.6-2-16h-53.2c-1.2,4.4-2,9.6-2,16c0,13.6,3.6,29.2,9.2,41.2  H388.8z"/>
<g>
	<path style="fill:#E6E9EE;" d="M428,287.6h-56.4c-6,0-10.4-4.8-10.4-10.4l0,0c0-6,4.8-10.4,10.4-10.4H428c6,0,10.4,4.8,10.4,10.4   l0,0C438.8,282.8,434,287.6,428,287.6z"/>
	<circle style="fill:#E6E9EE;" cx="399.6" cy="227.6" r="22.8"/>
</g>
<polygon style="fill:#CED5E0;" points="98,277.2 114,277.2 114,227.6 158,184 146.4,172.4 98,221.2 "/>
<circle style="fill:#E6E9EE;" cx="166.4" cy="176" r="28.8"/>
<path style="fill:#CED5E0;" d="M117.2,344.8v-17.2c4-3.2,6.4-8,6.4-13.2c0-9.6-7.6-17.2-17.2-17.2s-17.2,7.6-17.2,17.2  c0,5.2,2.4,10,6.4,13.2v17.2h-8.8c-5.6-12-9.2-27.6-9.2-41.2c0-6.4,0.8-11.6,2-16h53.2c1.2,4.4,2,9.6,2,16c0,13.6-3.6,29.2-9.2,41.2  H117.2z"/>
<g>
	<path style="fill:#E6E9EE;" d="M78,287.6h56.4c6,0,10.4-4.8,10.4-10.4l0,0c0-6-4.8-10.4-10.4-10.4H78c-6,0-10.4,4.8-10.4,10.4l0,0   C67.2,282.8,72,287.6,78,287.6z"/>
	<circle style="fill:#E6E9EE;" cx="106.4" cy="227.6" r="22.8"/>
	<path style="fill:#E6E9EE;" d="M260,325.6v-30.8h-14v30.8c-28.8,3.6-51.6,28-52.4,57.6v7.2h119.2v-7.2   C311.6,353.6,288.8,329.2,260,325.6z M208.4,376.8c4-21.2,22.4-37.2,44.8-37.2c22,0,40.8,16,44.8,37.2H208.4z"/>
</g>
<path style="fill:#54C0EB;" d="M253.2,448.8L253.2,448.8c-11.6,0-21.2-9.6-21.2-21.2v-58.8c0-11.6,9.6-21.2,21.2-21.2l0,0  c11.6,0,21.2,9.6,21.2,21.2v58.8C274,439.2,264.8,448.8,253.2,448.8z"/>
<path style="fill:#FFFFFF;" d="M300,294.8h-94c-18.8,0-34-15.2-34-34v-102C172,114,208.4,78,252.8,78l0,0  c44.8,0,81.2,36.4,81.2,80.8v102C334,279.6,318.8,294.8,300,294.8z"/>
<circle style="fill:#E6E9EE;" cx="253.2" cy="157.2" r="39.2"/>
<circle style="fill:#84DBFF;" cx="253.2" cy="157.2" r="31.2"/>
<circle style="fill:#324A5E;" cx="253.2" cy="157.2" r="15.2"/>
<circle style="fill:#FFFFFF;" cx="243.6" cy="147.6" r="5.6"/>
<g>
</g>
<g>
</g>
<g>
</g>
<g>
</g>
<g>
</g>
<g>
</g>
<g>
</g>
<g>
</g>
<g>
</g>
<g>
</g>
<g>
</g>
<g>
</g>
<g>
</g>
<g>
</g>
<g>
</g>
</svg>
