<?xml version="1.0" encoding="iso-8859-1"?>
<!-- Generator: Adobe Illustrator 19.0.0, SVG Export Plug-In . SVG Version: 6.00 Build 0)  -->
<svg xmlns="http://www.w3.org/2000/svg" xmlns:xlink="http://www.w3.org/1999/xlink" version="1.1" id="Layer_1" x="0px" y="0px" viewBox="0 0 508 508" style="enable-background:new 0 0 508 508;" xml:space="preserve">
<circle style="fill:#90DFAA;" cx="254" cy="254" r="254"/>
<path style="fill:#2C9984;" d="M103.2,458.4c42,31.2,94.4,49.6,150.8,49.6s108.4-18.4,150.8-49.6H103.2z"/>
<path style="fill:#FFFFFF;" d="M282,424.8L282,424.8c-7.6,0-14-6.4-14-14v-64c0-7.6,6.4-14,14-14l0,0c7.6,0,14,6.4,14,14v64  C296,418.8,290,424.8,282,424.8z"/>
<path style="fill:#324A5E;" d="M282,314.4L282,314.4c-3.2,0-6,2.8-6,6v22.8c0,3.2,2.8,6,6,6l0,0c3.2,0,6-2.8,6-6v-22.8  C288,317.2,285.2,314.4,282,314.4z"/>
<path style="fill:#FFFFFF;" d="M231.2,424.8L231.2,424.8c-7.6,0-14-6.4-14-14v-64c0-7.6,6.4-14,14-14l0,0c7.6,0,14,6.4,14,14v64  C245.2,418.8,238.8,424.8,231.2,424.8z"/>
<g>
	<path style="fill:#324A5E;" d="M231.2,314.4L231.2,314.4c-3.2,0-6,2.8-6,6v22.8c0,3.2,2.8,6,6,6l0,0c3.2,0,6-2.8,6-6v-22.8   C237.2,317.2,234.4,314.4,231.2,314.4z"/>
	<path style="fill:#324A5E;" d="M288,438.4V418c0-3.2-2.8-6-6-6s-6,2.8-6,6v20.4H288z"/>
	<path style="fill:#324A5E;" d="M237.2,438.4V418c0-3.2-2.8-6-6-6s-6,2.8-6,6v20.4H237.2z"/>
</g>
<path style="fill:#E6E9EE;" d="M310.4,184.8L310.4,184.8L310.4,184.8L310.4,184.8L310.4,184.8L310.4,184.8  c-16-10.8-35.6-17.2-56.4-17.2s-40.4,6.4-56.4,17.2l0,0l0,0l0,0l0,0l0,0c-8.8,16.4-12.4,36-10.4,55.6c2.4,20,10,68,22.4,82.4h45.2  h44c12-14,20-62.4,22.4-82.4C323.2,220.8,319.2,201.6,310.4,184.8z"/>
<g>
	<path style="fill:#FFFFFF;" d="M320.8,240.8c-2.4,20-10,68-22.4,82.4h-88.8c-12-14-20-62.4-22.4-82.4s1.6-39.2,10.4-55.6l0,0   c8.4-5.6,18-10.4,28.4-13.2c8.8-2.8,18.4-4,28.4-4s19.2,1.6,28.4,4c0.8,0,1.2,0.4,1.6,0.4c9.6,2.8,18.4,7.2,26.4,12.8l0,0   C319.2,201.6,323.2,220.8,320.8,240.8z"/>
	<path style="fill:#FFFFFF;" d="M302.8,458.4c0.4-1.6,0.4-2.8,0.4-4.4c0-11.6-9.6-21.2-21.2-21.2s-21.2,9.6-21.2,21.2   c0,1.6,0,3.2,0.4,4.4H302.8z"/>
	<path style="fill:#FFFFFF;" d="M252,458.4c0.4-1.6,0.4-2.8,0.4-4.4c0-11.6-9.6-21.2-21.2-21.2c-11.6,0-21.2,9.6-21.2,21.2   c0,1.6,0,3.2,0.4,4.4H252z"/>
</g>
<path style="fill:#2B3B4E;" d="M282.4,172.4c0,8.8-12.8,15.6-28.4,15.6s-28.4-7.2-28.4-15.6c0-0.4,0-0.8,0-0.8  c8.8-2.8,18.4-4,28.4-4s19.2,1.6,28.4,4C282.4,172,282.4,172.4,282.4,172.4z"/>
<path style="fill:#324A5E;" d="M264.8,127.2v60c-3.2,0.8-7.2,1.2-10.8,1.2c-4,0-7.6-0.4-10.8-1.2v-60H264.8z"/>
<path style="fill:#2B3B4E;" d="M340,198c0,0,39.2,61.6,10,116.8l-10.8-2.8c0,0,16.4-64-16-102L340,198z"/>
<g>
	<circle style="fill:#324A5E;" cx="326" cy="202.4" r="18"/>
	<path style="fill:#324A5E;" d="M348,358.8L348,358.8c-2.4,0.4-4.8-1.6-5.2-4l-1.6-13.6c-0.4-2.4,1.6-4.8,4-5.2l0,0   c2.4-0.4,4.8,1.6,5.2,4l1.6,13.6C352.4,356.4,350.8,358.8,348,358.8z"/>
	<path style="fill:#324A5E;" d="M328.8,353.2L328.8,353.2c-2.4-0.8-3.6-3.6-2.8-6l4.8-13.2c0.8-2.4,3.6-3.6,6-2.8l0,0   c2.4,0.8,3.6,3.6,2.8,6l-4.8,13.2C334,352.8,331.2,354.4,328.8,353.2z"/>
	<path style="fill:#324A5E;" d="M314.8,314.8L314.8,314.8c-0.8-2.4,0.4-4.8,2.8-6l13.2-4.8c2.4-0.8,4.8,0.4,6,2.8l0,0   c0.8,2.4-0.4,4.8-2.8,6l-13.2,4.8C318.4,318.4,315.6,317.2,314.8,314.8z"/>
	<path style="fill:#324A5E;" d="M311.2,346L311.2,346c1.6,1.6,4.8,1.6,6.4,0l9.6-10c1.6-1.6,1.6-4.8,0-6.4l0,0   c-1.6-1.6-4.8-1.6-6.4,0l-9.6,10C309.6,341.2,309.6,344.4,311.2,346z"/>
</g>
<path style="fill:#FFFFFF;" d="M356,309.6l-20-7.2c-2.8-0.8-5.6,0.4-6.8,3.2l-8.4,23.6c-0.8,2.8,0.4,5.6,3.2,6.8l20,7.2  c2.8,0.8,5.6-0.4,6.8-3.2l8.4-23.6C360.4,313.6,358.8,310.4,356,309.6z"/>
<path style="fill:#2B3B4E;" d="M168,198c0,0-39.2,61.6-10,116.8l10.8-2.8c0,0-16.4-64,16-102L168,198z"/>
<g>
	<circle style="fill:#324A5E;" cx="182" cy="202.4" r="18"/>
	<path style="fill:#324A5E;" d="M160,358.8L160,358.8c2.4,0.4,4.8-1.6,5.2-4l1.6-13.6c0.4-2.4-1.6-4.8-4-5.2l0,0   c-2.4-0.4-4.8,1.6-5.2,4l-1.6,14C155.6,356.4,157.2,358.8,160,358.8z"/>
	<path style="fill:#324A5E;" d="M179.2,353.2L179.2,353.2c2.4-0.8,3.6-3.6,2.8-6l-4.8-13.2c-0.8-2.4-3.6-3.6-6-2.8l0,0   c-2.4,0.8-3.6,3.6-2.8,6l4.8,13.2C174,352.8,176.8,354.4,179.2,353.2z"/>
	<path style="fill:#324A5E;" d="M193.2,314.8L193.2,314.8c0.8-2.4-0.4-4.8-2.8-6l-13.2-4.8c-2.4-0.8-4.8,0.4-6,2.8l0,0   c-0.8,2.4,0.4,4.8,2.8,6l13.2,4.8C189.6,318.4,192.4,317.2,193.2,314.8z"/>
	<path style="fill:#324A5E;" d="M196.8,346L196.8,346c-1.6,1.6-4.8,1.6-6.4,0l-9.6-10c-1.6-1.6-1.6-4.8,0-6.4l0,0   c1.6-1.6,4.8-1.6,6.4,0l9.6,10C198.4,341.2,198.4,344.4,196.8,346z"/>
</g>
<g>
	<path style="fill:#FFFFFF;" d="M152,309.6l20-7.2c2.8-0.8,5.6,0.4,6.8,3.2l8.4,23.6c0.8,2.8-0.4,5.6-3.2,6.8l-20,7.2   c-2.8,0.8-5.6-0.4-6.8-3.2l-8.4-23.6C147.6,313.6,149.2,310.4,152,309.6z"/>
	<path style="fill:#FFFFFF;" d="M340.8,116.4c0,4.8-0.4,9.6-1.2,14c-22.8,10-52.8,16-85.6,16s-62.4-6-85.6-16   c-0.8-4.8-1.2-9.2-1.2-14C167.2,68.8,206,30,254,30S340.8,68.8,340.8,116.4z"/>
</g>
<g>
	<circle style="fill:#84DBFF;" cx="287.6" cy="88.4" r="22"/>
	<circle style="fill:#84DBFF;" cx="220.4" cy="88.4" r="22"/>
</g>
<circle style="fill:#324A5E;" cx="220.4" cy="88.4" r="10.4"/>
<circle style="fill:#FFFFFF;" cx="212.8" cy="94.8" r="3.2"/>
<circle style="fill:#324A5E;" cx="288" cy="88.4" r="10.4"/>
<circle style="fill:#FFFFFF;" cx="280.4" cy="94.8" r="3.2"/>
<path style="fill:#ACB3BA;" d="M304.4,121.2c-4,9.2-24.8,16.4-50.4,16.4c-25.2,0-46.4-7.2-50.4-16.4c13.2,2.4,31.2,4,50.4,4  S290.8,123.6,304.4,121.2z"/>
<g>
</g>
<g>
</g>
<g>
</g>
<g>
</g>
<g>
</g>
<g>
</g>
<g>
</g>
<g>
</g>
<g>
</g>
<g>
</g>
<g>
</g>
<g>
</g>
<g>
</g>
<g>
</g>
<g>
</g>
</svg>
