<?xml version="1.0" encoding="iso-8859-1"?>
<!-- Generator: Adobe Illustrator 19.0.0, SVG Export Plug-In . SVG Version: 6.00 Build 0)  -->
<svg xmlns="http://www.w3.org/2000/svg" xmlns:xlink="http://www.w3.org/1999/xlink" version="1.1" id="Layer_1" x="0px" y="0px" viewBox="0 0 508 508" style="enable-background:new 0 0 508 508;" xml:space="preserve">
<circle style="fill:#FFD05B;" cx="254" cy="254" r="254"/>
<path style="fill:#F9B54C;" d="M78.4,437.6C124,481.2,186,508,254,508s130-26.8,175.6-70.4H78.4z"/>
<rect x="243.6" y="174" style="fill:#324A5E;" width="20.4" height="40"/>
<rect x="348.4" y="109.2" style="fill:#2B3B4E;" width="22.4" height="12"/>
<path style="fill:#324A5E;" d="M343.6,91.6l-14-2.8v52.4l14-2.8c4-0.8,6.8-4,6.8-8.4V99.6C350.4,96,347.6,92.4,343.6,91.6z"/>
<circle style="fill:#E6E9EE;" cx="379.2" cy="115.2" r="12"/>
<rect x="137.6" y="109.2" style="fill:#2B3B4E;" width="22.4" height="12"/>
<path style="fill:#324A5E;" d="M164.4,91.6l14-2.8v52.4l-14-2.8c-4-0.8-6.8-4-6.8-8.4V99.6C157.6,96,160.4,92.4,164.4,91.6z"/>
<g>
	<circle style="fill:#E6E9EE;" cx="128.8" cy="115.2" r="12"/>
	<path style="fill:#E6E9EE;" d="M338.4,115.2c0,16-2.4,31.2-6.8,44.8c-20.4,11.2-47.6,18-77.6,18s-57.2-6.8-77.2-17.6   c-4.4-13.6-6.8-28.8-6.8-44.8s2.4-31.2,6.8-44.8c20-11.2,47.2-17.6,77.2-17.6s57.2,6.8,77.2,17.6C335.6,84,338.4,99.2,338.4,115.2z   "/>
</g>
<circle style="fill:#324A5E;" cx="291.6" cy="100.8" r="26.4"/>
<circle style="fill:#84DBFF;" cx="291.6" cy="100.8" r="20"/>
<path style="fill:#54C0EB;" d="M311.2,100.8c0,2-0.4,4.4-0.8,6c-1.2-6.8-6-12.8-13.2-16.4c-8-4-16.8-3.2-23.2,1.2  c3.2-6.4,10-10.8,17.6-10.8C302.4,80.8,311.2,90,311.2,100.8z"/>
<g>
	<circle style="fill:#FFFFFF;" cx="301.2" cy="92.8" r="5.2"/>
	<circle style="fill:#FFFFFF;" cx="290.8" cy="90.8" r="3.6"/>
</g>
<circle style="fill:#324A5E;" cx="216.4" cy="100.8" r="26.4"/>
<circle style="fill:#84DBFF;" cx="216.4" cy="100.8" r="20"/>
<path style="fill:#54C0EB;" d="M236.4,100.8c0,2-0.4,4.4-0.8,6c-1.6-6.4-6.4-12.8-13.6-16c-8-4-16.8-3.2-23.2,1.2  c3.2-6.4,10-10.8,17.6-10.8C227.6,80.8,236.4,90,236.4,100.8z"/>
<g>
	<circle style="fill:#FFFFFF;" cx="226" cy="92.8" r="5.2"/>
	<circle style="fill:#FFFFFF;" cx="216" cy="90.8" r="3.6"/>
</g>
<g>
	<path style="fill:#CED5E0;" d="M219.6,160.4c-2.8-0.8-5.6-1.6-8-2.4c2-5.6,3.6-10.8,5.6-16.4c2.4,0.8,4.8,1.6,7.2,2   C222.8,149.2,221.2,154.8,219.6,160.4z"/>
	<path style="fill:#CED5E0;" d="M238.8,164c-2.8-0.4-5.6-0.8-8.4-1.2c1.2-5.6,2-11.2,3.2-17.2c2.4,0.4,4.8,0.8,7.2,1.2   C240.4,152.4,239.6,158.4,238.8,164z"/>
	<path style="fill:#CED5E0;" d="M258.4,164.8c-2.8,0-5.6,0-8.4,0c0-5.6,0.4-11.6,0.4-17.2c2.4,0,4.8,0,7.2,0   C258,153.2,258,159.2,258.4,164.8z"/>
	<path style="fill:#CED5E0;" d="M277.6,162.8c-2.8,0.4-5.6,0.8-8.4,1.2c-0.8-5.6-1.2-11.6-2-17.2c2.4-0.4,4.8-0.8,7.2-1.2   C275.6,151.2,276.4,157.2,277.6,162.8z"/>
	<path style="fill:#CED5E0;" d="M296.4,158c-2.8,0.8-5.6,1.6-8,2.4c-1.6-5.6-3.2-11.2-4.4-16.8c2.4-0.8,4.8-1.2,7.2-2   C292.8,146.8,294.4,152.4,296.4,158z"/>
</g>
<g>
	<path style="fill:#324A5E;" d="M168.4,298.4c20.4-55.6,49.2-79.6,49.6-80l-7.6-9.2c-1.2,1.2-31.6,26-53.6,84.8L168.4,298.4z"/>
	<path style="fill:#324A5E;" d="M173.2,307.6c-2.4,3.2-7.6,4.4-11.2,2c0,0-0.4,0-0.4-0.4c-0.4,0-1.6-0.8-2-0.8   c-1.2-0.4-2.8-0.8-4-1.2c-4-0.8-6-4.4-6.4-8c-7.6,5.2-19.2,15.6-18.8,29.2c0,0,3.6,5.2,8.4,4c-0.4,2.8-0.4,6,0.4,9.2   c0,0,7.2,6.4,12.4-0.8v0.4c0,0,8,6.4,11.2-4.8c0,0-2.8-14.4,5.2-24c4,8,4,16,4,16c4.8,10.8,11.2,5.2,11.2,5.2   C184.8,324.4,178,313.6,173.2,307.6z"/>
</g>
<ellipse transform="matrix(-0.3035 0.9528 -0.9528 -0.3035 495.359 236.1997)" style="fill:#E6E9EE;" cx="161.352" cy="299.147" rx="13.6" ry="16"/>
<g>
	<path style="fill:#324A5E;" d="M339.6,298.4c-20.4-55.6-49.2-79.6-49.6-80l7.6-9.2c1.2,1.2,31.6,26,53.6,84.8L339.6,298.4z"/>
	<path style="fill:#324A5E;" d="M334.8,307.6c2.4,3.2,7.6,4.4,11.2,2c0,0,0.4,0,0.4-0.4c0.4,0,1.6-0.8,2-0.8c1.2-0.4,2.8-0.8,4-1.2   c4-0.8,6-4.4,6.4-8c7.6,5.2,19.2,15.6,18.8,29.2c0,0-3.6,5.2-8.4,4c0.4,2.8,0.4,6-0.4,9.2c0,0-7.2,6.4-12.4-0.8v0.4   c0,0-8,6.4-11.2-4.8c0,0,2.8-14.4-5.2-24c-4,8-4,16-4,16c-4.8,10.8-11.2,5.2-11.2,5.2C323.2,324.4,330,313.6,334.8,307.6z"/>
</g>
<ellipse transform="matrix(-0.3035 -0.9528 0.9528 -0.3035 167.2827 719.8418)" style="fill:#E6E9EE;" cx="346.733" cy="298.781" rx="13.6" ry="16"/>
<g>
	<circle style="fill:#FFFFFF;" cx="291.6" cy="214" r="11.2"/>
	<circle style="fill:#FFFFFF;" cx="216.4" cy="214" r="11.2"/>
</g>
<g>
	<polygon style="fill:#324A5E;" points="302.4,352 304,410.4 265.2,431.6 280.8,352  "/>
	<polygon style="fill:#324A5E;" points="260,286.8 283.2,356 302.8,345.2 294.4,286.8  "/>
</g>
<g>
	<path style="fill:#FFFFFF;" d="M358,438.8c-1.2-24.8-21.6-44.8-46.8-44.8c-25.2,0-45.6,20-46.8,44.8H358z"/>
	<circle style="fill:#FFFFFF;" cx="292.4" cy="352" r="15.6"/>
</g>
<g>
	<polygon style="fill:#324A5E;" points="205.6,352 204,410.4 242.8,431.6 227.2,352  "/>
	<polygon style="fill:#324A5E;" points="248,286.8 224.8,356 205.2,345.2 213.6,286.8  "/>
</g>
<g>
	<path style="fill:#FFFFFF;" d="M150,438.8c1.2-24.8,21.6-44.8,46.8-44.8s45.6,20,46.8,44.8H150z"/>
	<circle style="fill:#FFFFFF;" cx="215.6" cy="352" r="15.6"/>
	<path style="fill:#FFFFFF;" d="M305.6,245.2c6.4,18,10,39.2,10.4,61.6c-18,6-38.8,9.6-62,9.6c-22.8,0-44-3.6-62-9.6   c0-22.4,4-43.6,10.4-61.6c6-17.6,14.4-30.4,22.8-38.4c9.2-1.6,18.8-2.4,28.8-2.4s19.6,0.8,28.8,2.4   C291.2,214.8,299.6,227.6,305.6,245.2z"/>
</g>
<g>
</g>
<g>
</g>
<g>
</g>
<g>
</g>
<g>
</g>
<g>
</g>
<g>
</g>
<g>
</g>
<g>
</g>
<g>
</g>
<g>
</g>
<g>
</g>
<g>
</g>
<g>
</g>
<g>
</g>
</svg>
