<?xml version="1.0" encoding="iso-8859-1"?>
<!-- Generator: Adobe Illustrator 19.0.0, SVG Export Plug-In . SVG Version: 6.00 Build 0)  -->
<svg xmlns="http://www.w3.org/2000/svg" xmlns:xlink="http://www.w3.org/1999/xlink" version="1.1" id="Layer_1" x="0px" y="0px" viewBox="0 0 508 508" style="enable-background:new 0 0 508 508;" xml:space="preserve">
<circle style="fill:#FFD05B;" cx="254" cy="254" r="254"/>
<path style="fill:#F9B54C;" d="M85.2,441.6c44.8,40,104,64.4,168.8,64.4s124-24.4,168.8-64.4H85.2z"/>
<rect x="249.2" y="46" style="fill:#324A5E;" width="9.6" height="66"/>
<circle style="fill:#FF7058;" cx="254" cy="46" r="16"/>
<g>
	<polygon style="fill:#324A5E;" points="292.8,367.6 286,321.2 258.8,321.2 276,373.2 262.8,436 293.6,419.6  "/>
	<polygon style="fill:#324A5E;" points="222,321.2 215.6,373.2 214.4,419.6 245.2,436 232.4,373.2 249.2,321.2  "/>
</g>
<g>
	<path style="fill:#FFFFFF;" d="M336.4,442c-0.8-19.6-17.2-35.6-37.2-35.6S262.8,422,262,442H336.4z"/>
	<circle style="fill:#FFFFFF;" cx="284.4" cy="373.2" r="12.4"/>
	<path style="fill:#FFFFFF;" d="M171.6,442c0.8-19.6,17.2-35.6,37.2-35.6S245.2,422,246,442H171.6z"/>
	<circle style="fill:#FFFFFF;" cx="223.6" cy="373.2" r="12.4"/>
</g>
<polygon style="fill:#324A5E;" points="355.6,220.8 342.4,251.2 367.6,283.6 367.2,283.6 371.2,354 387.2,354 391.2,283.6 "/>
<g>
	<path style="fill:#E6E9EE;" d="M342.4,198.4V254c13.2-2.4,23.6-14,23.6-28C366,212.4,356,200.8,342.4,198.4z"/>
	<circle style="fill:#E6E9EE;" cx="379.2" cy="284.8" r="20.4"/>
	<path style="fill:#E6E9EE;" d="M400,383.2c-5.2,0-9.2-4-9.2-9.2c0-6.4-5.2-11.2-11.2-11.2s-11.2,5.2-11.2,11.2c0,5.2-4,9.2-9.2,9.2   s-9.2-4-9.2-9.2c0-16.4,13.6-30,30-30s30,13.6,30,30C409.2,378.8,405.2,383.2,400,383.2z"/>
</g>
<polygon style="fill:#324A5E;" points="152.4,220.8 165.6,251.2 140.4,283.6 140.8,283.6 136.8,354 120.8,354 116.8,283.6 "/>
<g>
	<path style="fill:#E6E9EE;" d="M165.6,198.4V254c-13.2-2.4-23.6-14-23.6-28C142,212.4,152,200.8,165.6,198.4z"/>
	<circle style="fill:#E6E9EE;" cx="128.8" cy="284.8" r="20.4"/>
	<path style="fill:#E6E9EE;" d="M108,383.2c5.2,0,9.2-4,9.2-9.2c0-6.4,5.2-11.2,11.2-11.2c6.4,0,11.2,5.2,11.2,11.2   c0,5.2,4,9.2,9.2,9.2s9.2-4,9.2-9.2c0-16.4-13.6-30-30-30s-30,13.6-30,30C98.8,378.8,102.8,383.2,108,383.2z"/>
</g>
<path style="fill:#FFFFFF;" d="M254,102.8L254,102.8c-48.8,0-88.4,39.6-88.4,88.4v119.6c0,10.8,8.8,19.6,19.6,19.6h137.6  c10.8,0,19.6-8.8,19.6-19.6V191.2C342.4,142.4,302.8,102.8,254,102.8z"/>
<path style="fill:#324A5E;" d="M292.4,194h-76.8c-12.8,0-22.8-10.4-22.8-22.8l0,0c0-12.8,10.4-22.8,22.8-22.8h77.2  c12.8,0,22.8,10.4,22.8,22.8l0,0C315.6,183.6,305.2,194,292.4,194z"/>
<g>
	<path style="fill:#84DBFF;" d="M211.2,183.2h-0.4c-2.4,0-4.8-2-4.8-4.8v-15.2c0-2.4,2-4.8,4.8-4.8h0.4c2.4,0,4.8,2,4.8,4.8v15.2   C216,181.2,214,183.2,211.2,183.2z"/>
	<path style="fill:#84DBFF;" d="M228.4,183.2H228c-2.4,0-4.8-2-4.8-4.8v-15.2c0-2.4,2-4.8,4.8-4.8h0.4c2.4,0,4.8,2,4.8,4.8v15.2   C233.2,181.2,231.2,183.2,228.4,183.2z"/>
	<path style="fill:#84DBFF;" d="M245.6,183.2h-0.4c-2.4,0-4.8-2-4.8-4.8v-15.2c0-2.4,2-4.8,4.8-4.8h0.4c2.4,0,4.8,2,4.8,4.8v15.2   C250.4,181.2,248.4,183.2,245.6,183.2z"/>
	<path style="fill:#84DBFF;" d="M262.8,183.2h-0.4c-2.4,0-4.8-2-4.8-4.8v-15.2c0-2.4,2-4.8,4.8-4.8h0.4c2.4,0,4.8,2,4.8,4.8v15.2   C267.6,181.2,265.6,183.2,262.8,183.2z"/>
	<path style="fill:#84DBFF;" d="M280,183.2h-0.4c-2.4,0-4.8-2-4.8-4.8v-15.2c0-2.4,2-4.8,4.8-4.8h0.4c2.4,0,4.8,2,4.8,4.8v15.2   C284.8,181.2,282.8,183.2,280,183.2z"/>
	<path style="fill:#84DBFF;" d="M297.2,183.2h-0.4c-2.4,0-4.8-2-4.8-4.8v-15.2c0-2.4,2-4.8,4.8-4.8h0.4c2.4,0,4.8,2,4.8,4.8v15.2   C302,181.2,299.6,183.2,297.2,183.2z"/>
</g>
<g>
</g>
<g>
</g>
<g>
</g>
<g>
</g>
<g>
</g>
<g>
</g>
<g>
</g>
<g>
</g>
<g>
</g>
<g>
</g>
<g>
</g>
<g>
</g>
<g>
</g>
<g>
</g>
<g>
</g>
</svg>
