<?xml version="1.0" encoding="iso-8859-1"?>
<!-- Generator: Adobe Illustrator 19.0.0, SVG Export Plug-In . SVG Version: 6.00 Build 0)  -->
<svg xmlns="http://www.w3.org/2000/svg" xmlns:xlink="http://www.w3.org/1999/xlink" version="1.1" id="Layer_1" x="0px" y="0px" viewBox="0 0 508 508" style="enable-background:new 0 0 508 508;" xml:space="preserve">
<circle style="fill:#324A5E;" cx="254" cy="254" r="254"/>
<path style="fill:#2B3B4E;" d="M92,449.6C136,486,192.4,508,254,508s118-22,162-58.4H92z"/>
<g>
	<rect x="327.2" y="195.2" style="fill:#FFFFFF;" width="12.8" height="36"/>
	<path style="fill:#FFFFFF;" d="M361.2,327.2v-88.4h-16v88.8c-7.6,3.2-13.2,10.8-13.2,19.6c0,3.2,0.8,6,1.6,8.4h8.8   c-2-2.4-2.8-5.2-2.8-8.4c0-7.6,6-13.6,13.6-13.6s13.6,6,13.6,13.6c0,3.2-1.2,6-2.8,8.4h8.8c1.2-2.8,1.6-5.6,1.6-8.4   C374.4,338,369.2,330.4,361.2,327.2z"/>
	<path style="fill:#FFFFFF;" d="M162.8,327.2v-88.4h-16v88.8c-7.6,3.2-13.2,10.8-13.2,19.6c0,3.2,0.8,6,1.6,8.4h8.8   c-2-2.4-2.8-5.2-2.8-8.4c0-7.6,6-13.6,13.6-13.6s13.6,6,13.6,13.6c0,3.2-1.2,6-2.8,8.4h8.4c1.2-2.8,1.6-5.6,1.6-8.4   C176,338,170.4,330.4,162.8,327.2z"/>
	<rect x="168" y="195.2" style="fill:#FFFFFF;" width="12.8" height="36"/>
</g>
<path style="fill:#54C0EB;" d="M278.4,155.2h-48.8c-3.2,8.8-7.6,17.6-10,22H288C286,172.8,281.2,164,278.4,155.2z"/>
<g>
	<path style="fill:#84DBFF;" d="M362.8,238.8h-23.2v-51.2h23.2c4,0,7.6,3.2,7.6,7.6v36C370.4,235.2,366.8,238.8,362.8,238.8z"/>
	<path style="fill:#84DBFF;" d="M145.2,238.8h23.2v-51.2h-23.2c-4,0-7.6,3.2-7.6,7.6v36C137.6,235.2,141.2,238.8,145.2,238.8z"/>
</g>
<rect x="315.2" y="51.2" style="fill:#E6E9EE;" width="2.8" height="54.8"/>
<circle style="fill:#FF7058;" cx="316.4" cy="51.2" r="6.8"/>
<rect x="190" y="51.2" style="fill:#E6E9EE;" width="2.8" height="54.8"/>
<circle style="fill:#FF7058;" cx="191.6" cy="51.2" r="6.8"/>
<g>
	<path style="fill:#54C0EB;" d="M291.6,120h17.6c7.6,0,13.6-6,13.6-13.6l0,0c0-7.6-6-13.6-13.6-13.6h-17.6V120z"/>
	<path style="fill:#54C0EB;" d="M216.4,120h-17.6c-7.6,0-13.6-6-13.6-13.6l0,0c0-7.6,6-13.6,13.6-13.6h17.6V120z"/>
</g>
<path style="fill:#84DBFF;" d="M290.8,155.2h-73.6c-3.6,0-6.8-2.8-6.8-6.8v-70c0-3.6,2.8-6.8,6.8-6.8h73.6c3.6,0,6.8,2.8,6.8,6.8v70  C297.2,152,294.4,155.2,290.8,155.2z"/>
<path style="fill:#324A5E;" d="M268.8,140.8h-29.6c-4.4,0-7.6-3.6-7.6-7.6l0,0c0-4.4,3.6-7.6,7.6-7.6h29.6c4.4,0,7.6,3.6,7.6,7.6  l0,0C276.4,137.2,272.8,140.8,268.8,140.8z"/>
<g>
	<circle style="fill:#FFFFFF;" cx="274" cy="99.6" r="11.6"/>
	<circle style="fill:#FFFFFF;" cx="234" cy="99.6" r="11.6"/>
</g>
<path style="fill:#84DBFF;" d="M316.8,312.8H191.2c-5.6,0-10-4.4-10-10V187.2c0-5.6,4.4-10,10-10h126c5.6,0,10,4.4,10,10v115.6  C327.2,308,322.4,312.8,316.8,312.8z"/>
<path style="fill:#54C0EB;" d="M302,206h-12.8c-5.6,0-10.4-4.8-10.4-10.4v-18.8h-14.4v18.8c0,5.6-4.8,10.4-10.4,10.4l0,0  c-5.6,0-10.4-4.8-10.4-10.4v-18.8h-14.4v18.8c0,5.6-4.8,10.4-10.4,10.4H206c-5.6,0-10,4.4-10,10v59.6c0,5.6,4.4,10,10,10h12.8  c5.6,0,10.4,4.8,10.4,10.4v16.8h14.4V296c0-5.6,4.8-10.4,10.4-10.4l0,0c5.6,0,10.4,4.8,10.4,10.4v16.8h14.4V296  c0-5.6,4.8-10.4,10.4-10.4H302c5.6,0,10-4.4,10-10V216C312,210.4,307.6,206,302,206z"/>
<path style="fill:#84DBFF;" d="M312.8,421.2h-40v-80.8c0-2.4,2-4.4,4.4-4.4h31.2c2.4,0,4.4,2,4.4,4.4V421.2z"/>
<path style="fill:#324A5E;" d="M284.4,343.6v10c0,4.4,3.6,8.4,8.4,8.4c4.4,0,8.4-3.6,8.4-8.4v-10H284.4z"/>
<path style="fill:#54C0EB;" d="M284.4,421.2h16.4v-40.8c0-4.4-3.6-8.4-8.4-8.4l0,0c-4.4,0-8.4,3.6-8.4,8.4v40.8H284.4z"/>
<path style="fill:#FFFFFF;" d="M324.4,448.8v-16c0-6.8-4.4-12-10-12h-43.2c-5.6,0-10,5.2-10,12v16H324.4z"/>
<rect x="284.4" y="312.8" style="fill:#54C0EB;" width="16.4" height="34.4"/>
<path style="fill:#84DBFF;" d="M235.2,421.2h-40v-80.8c0-2.4,2-4.4,4.4-4.4h31.2c2.4,0,4.4,2,4.4,4.4L235.2,421.2L235.2,421.2z"/>
<path style="fill:#324A5E;" d="M206.8,343.6v10c0,4.4,3.6,8.4,8.4,8.4c4.4,0,8.4-3.6,8.4-8.4v-10H206.8z"/>
<path style="fill:#54C0EB;" d="M206.8,421.2h16.4v-40.8c0-4.4-3.6-8.4-8.4-8.4l0,0c-4.4,0-8.4,3.6-8.4,8.4v40.8H206.8z"/>
<path style="fill:#FFFFFF;" d="M246.8,448.8v-16c0-6.8-4.4-12-10-12h-43.2c-5.6,0-10,5.2-10,12v16H246.8z"/>
<rect x="206.8" y="312.8" style="fill:#54C0EB;" width="16.4" height="34.4"/>
<g>
</g>
<g>
</g>
<g>
</g>
<g>
</g>
<g>
</g>
<g>
</g>
<g>
</g>
<g>
</g>
<g>
</g>
<g>
</g>
<g>
</g>
<g>
</g>
<g>
</g>
<g>
</g>
<g>
</g>
</svg>
