<?xml version="1.0" encoding="iso-8859-1"?>
<!-- Generator: Adobe Illustrator 19.0.0, SVG Export Plug-In . SVG Version: 6.00 Build 0)  -->
<svg xmlns="http://www.w3.org/2000/svg" xmlns:xlink="http://www.w3.org/1999/xlink" version="1.1" id="Layer_1" x="0px" y="0px" viewBox="0 0 508 508" style="enable-background:new 0 0 508 508;" xml:space="preserve">
<circle style="fill:#FD8469;" cx="254" cy="254" r="254"/>
<path style="fill:#F1543F;" d="M94.4,451.6C138,486.8,193.6,508,254,508s116-21.2,159.6-56.4H94.4z"/>
<g>
	<rect x="234" y="163.2" style="fill:#324A5E;" width="40" height="20"/>
	<rect x="285.6" y="330.8" style="fill:#324A5E;" width="17.2" height="90.8"/>
</g>
<g>
	<circle style="fill:#E6E9EE;" cx="294" cy="369.6" r="21.2"/>
	<path style="fill:#E6E9EE;" d="M322.8,450c2.4-4.4,4-9.6,4-15.2c0-17.2-14-31.6-31.6-31.6c-17.2,0-31.6,14-31.6,31.6   c0,5.6,1.2,10.8,4,15.2H322.8z"/>
</g>
<rect x="203.2" y="330.8" style="fill:#324A5E;" width="17.2" height="90.8"/>
<g>
	<circle style="fill:#E6E9EE;" cx="211.6" cy="369.6" r="21.2"/>
	<path style="fill:#E6E9EE;" d="M240.4,450c2.4-4.4,4-9.6,4-15.2c0-17.2-14-31.6-31.6-31.6s-31.6,14-31.6,31.6   c0,5.6,1.2,10.8,4,15.2H240.4z"/>
</g>
<g>
	<path style="fill:#324A5E;" d="M364.8,355.2c0,4.4,1.6,8.8,4,12h6.4v-18.4h23.2v18.4h6.4c2.4-3.6,4-7.6,4-12c0-9.2-6-17.2-14-20   V308h-15.2v27.2C370.4,338,364.8,346,364.8,355.2z"/>
	<polygon style="fill:#324A5E;" points="372,243.6 389.6,288.8 373.6,295.2 358,248.8  "/>
	<path style="fill:#324A5E;" d="M336,264.4h-10.8v-62.8H336c5.6,0,10.4,4.8,10.4,10.4v42C346.4,259.6,341.6,264.4,336,264.4z"/>
</g>
<g>
	<path style="fill:#E6E9EE;" d="M359.2,206c-4.8,0-9.2,1.2-12.8,3.2v47.6c4,2,8.4,3.2,12.8,3.2c14.8,0,27.2-12,27.2-27.2   C386.4,218,374,206,359.2,206z"/>
	<circle style="fill:#E6E9EE;" cx="386.4" cy="301.2" r="22.4"/>
</g>
<g>
	<path style="fill:#324A5E;" d="M143.2,355.2c0,4.4-1.6,8.8-4,12h-6.4v-18.4H110v18.4h-6.4c-2.4-3.6-4-7.6-4-12c0-9.2,6-17.2,14-20   V308h15.2v27.2C137.6,338,143.2,346,143.2,355.2z"/>
	<polygon style="fill:#324A5E;" points="136,243.6 118.4,288.8 134.4,295.2 150,248.8  "/>
	<path style="fill:#324A5E;" d="M172,264.4h10.8v-62.8H172c-5.6,0-10.4,4.8-10.4,10.4v42C161.6,259.6,166.4,264.4,172,264.4z"/>
</g>
<g>
	<path style="fill:#E6E9EE;" d="M148.8,206c4.8,0,9.2,1.2,12.8,3.2v47.6c-4,2-8.4,3.2-12.8,3.2c-14.8,0-27.2-12-27.2-27.2   C121.6,218,134,206,148.8,206z"/>
	<circle style="fill:#E6E9EE;" cx="121.6" cy="301.2" r="22.4"/>
	<path style="fill:#E6E9EE;" d="M303.2,165.2h-98.4c-8.4,0-15.2-6.8-15.2-15.2V76.4c0-8.4,6.8-15.2,15.2-15.2h98   c8.4,0,15.2,6.8,15.2,15.2V150C318,158.4,311.2,165.2,303.2,165.2z"/>
	<path style="fill:#E6E9EE;" d="M317.2,337.6H190.8c-9.6,0-17.2-7.6-17.2-17.2v-120c0-9.6,7.6-17.2,17.2-17.2h126   c9.6,0,17.2,7.6,17.2,17.2v120C334,329.6,326.4,337.6,317.2,337.6z"/>
</g>
<circle style="fill:#FFFFFF;" cx="282.4" cy="101.2" r="18.4"/>
<circle style="fill:#84DBFF;" cx="282.4" cy="101.2" r="13.6"/>
<g>

		<ellipse transform="matrix(-0.7071 -0.7071 0.7071 -0.7071 405.1107 359.7893)" style="fill:#FFFFFF;" cx="277.07" cy="95.993" rx="2.4" ry="5.2"/>
	<circle style="fill:#FFFFFF;" cx="225.6" cy="101.2" r="18.4"/>
</g>
<circle style="fill:#84DBFF;" cx="225.6" cy="101.2" r="13.6"/>
<g>

		<ellipse transform="matrix(-0.7071 -0.7071 0.7071 -0.7071 308.8191 319.9129)" style="fill:#FFFFFF;" cx="220.666" cy="95.998" rx="2.4" ry="5.2"/>
	<circle style="fill:#FFFFFF;" cx="254" cy="260.4" r="46.8"/>
</g>
<g>
</g>
<g>
</g>
<g>
</g>
<g>
</g>
<g>
</g>
<g>
</g>
<g>
</g>
<g>
</g>
<g>
</g>
<g>
</g>
<g>
</g>
<g>
</g>
<g>
</g>
<g>
</g>
<g>
</g>
</svg>
