<?xml version="1.0" encoding="iso-8859-1"?>
<!-- Generator: Adobe Illustrator 19.0.0, SVG Export Plug-In . SVG Version: 6.00 Build 0)  -->
<svg xmlns="http://www.w3.org/2000/svg" xmlns:xlink="http://www.w3.org/1999/xlink" version="1.1" id="Layer_1" x="0px" y="0px" viewBox="0 0 508 508" style="enable-background:new 0 0 508 508;" xml:space="preserve">
<circle style="fill:#54C0EB;" cx="254" cy="254" r="254"/>
<path style="fill:#84DBFF;" d="M97.2,453.6c43.2,34,97.6,54.4,156.8,54.4s113.6-20.4,156.8-54.4H97.2z"/>
<g>
	<path style="fill:#2B3B4E;" d="M374.8,266.8c0.4,2.4-1.2,4.4-3.6,4.4c-2.4,0.4-4.4-1.2-4.4-3.6l-1.2-10.4c2.4-0.8,5.2-2.4,7.6-5.2   L374.8,266.8z"/>
	<path style="fill:#2B3B4E;" d="M384.4,259.6c-1.6,0.8-3.6,0-4.4-1.6l-4.4-9.2c1.2-2,2.4-4.8,3.2-7.6l6.8,14   C386.8,256.8,386,258.8,384.4,259.6z"/>
	<path style="fill:#2B3B4E;" d="M133.2,266.8c-0.4,2.4,1.2,4.4,3.6,4.4c2.4,0.4,4.4-1.2,4.4-3.6l1.2-10.4c-2.4-0.8-5.2-2.4-7.6-5.2   L133.2,266.8z"/>
	<path style="fill:#2B3B4E;" d="M123.6,259.6c1.6,0.8,3.6,0,4.4-1.6l4.4-9.2c-1.2-2-2.4-4.8-3.2-7.6l-7.2,14   C121.2,256.8,122,258.8,123.6,259.6z"/>
</g>
<g>
	<rect x="240.4" y="108.8" style="fill:#324A5E;" width="27.6" height="41.6"/>
	<path style="fill:#324A5E;" d="M267.6,122.4v14c-4.8,2-9.2,4.8-13.6,7.6c-4.4-3.2-9.2-5.6-13.6-7.6v-14   C240.4,122.4,267.6,122.4,267.6,122.4z"/>
</g>
<path style="fill:#E6E9EE;" d="M254,294.8L254,294.8c-12.8,0-22.8-10.4-22.8-22.8v-29.2h45.6V272C276.8,284.4,266.8,294.8,254,294.8  z"/>
<g>
	<path style="fill:#FFFFFF;" d="M204.8,210.8v19.6c0,6.4,5.2,12,12,12h74.4c6.4,0,12-5.2,12-12v-19.6c25.2-21.2,35.2-51.6,21.6-68.8   c-13.2-17.2-44-16-70.8,2c-26.8-18-57.6-19.2-70.8-2S179.6,189.6,204.8,210.8z"/>
	<path style="fill:#FFFFFF;" d="M284.8,122.4c1.2-5.2,1.6-10.8,1.6-16.4c0-28.4-14.4-51.2-32.4-51.2s-32.4,22.8-32.4,51.2   c0,5.6,0.8,11.2,1.6,16.4H284.8z"/>
</g>
<polygon style="fill:#FF7058;" points="240.4,79.2 240.4,79.6 254,109.2 267.6,79.6 267.6,79.2 "/>
<path style="fill:#2B3B4E;" d="M362.4,258l-2,18.4c-0.4,2.4-2.4,4-4.4,3.6c-2.4-0.4-4-2.4-3.6-4.4l2-20.4  C356.4,257.6,359.2,258.4,362.4,258z"/>
<g>
	<path style="fill:#324A5E;" d="M364,257.6c-9.6,2-13.6-4.8-18-23.2c-0.8-4-2-8.4-3.6-12.4c5.2-0.8,11.2-3.2,16.4-7.2   c4.4-3.2,7.6-7.2,9.6-11.2c5.2,5.2,8.8,11.6,10.4,18.8C384,244.8,372.4,256.4,364,257.6z"/>
	<path style="fill:#324A5E;" d="M357.2,183.2c-5.2,0.4-11.2,3.2-16.8,7.2c-4.4,3.6-8,7.6-10,12l-8-14c8.4-14,10.8-28.4,6.4-39.6   L357.2,183.2z"/>
</g>
<ellipse transform="matrix(0.7907 -0.6122 0.6122 0.7907 -50.7112 256.5083)" style="fill:#FFFFFF;" cx="349.79" cy="202.42" rx="24.8" ry="15.2"/>
<path style="fill:#2B3B4E;" d="M145.6,258l2,18.4c0.4,2.4,2.4,4,4.4,3.6c2.4-0.4,4-2.4,3.6-4.4l-2.4-20.4  C151.6,257.6,148.8,258.4,145.6,258z"/>
<g>
	<path style="fill:#324A5E;" d="M144,257.6c9.6,2,13.6-4.8,18-23.2c0.8-4,2-8.4,3.6-12.4c-5.2-0.8-11.2-3.2-16.4-7.2   c-4.4-3.2-7.6-7.2-9.6-11.2c-5.2,5.2-8.8,11.6-10.4,18.8C124,244.8,135.6,256.4,144,257.6z"/>
	<path style="fill:#324A5E;" d="M185.6,188.4l-8,14c-2-4-5.6-8.4-10-12c-5.6-4.4-11.6-6.8-16.8-7.2l28.4-34.8   C174.8,160,177.6,174.4,185.6,188.4z"/>
</g>
<ellipse transform="matrix(0.7907 0.6122 -0.6122 0.7907 157.2806 -54.5799)" style="fill:#FFFFFF;" cx="158.464" cy="202.735" rx="24.8" ry="15.2"/>
<g>
	<polygon style="fill:#324A5E;" points="310.4,359.6 276.8,359.6 276.8,267.6 293.6,267.6  "/>
	<path style="fill:#324A5E;" d="M328,453.2h-51.2v-78.4H312c0.4,0,0.8,0,1.2,0L328,453.2z"/>
</g>
<path style="fill:#FFFFFF;" d="M312,374.8h-36.8c-4.4,0-7.6-3.6-7.6-7.6l0,0c0-4.4,3.6-7.6,7.6-7.6H312c4.4,0,7.6,3.6,7.6,7.6l0,0  C320,371.6,316.4,374.8,312,374.8z"/>
<g>
	<polygon style="fill:#324A5E;" points="231.6,267.6 231.6,359.6 198,359.6 214.8,267.6  "/>
	<path style="fill:#324A5E;" d="M196.4,374.8h35.2v78.4h-51.2l14.4-78.8C195.6,374.8,196,374.8,196.4,374.8z"/>
</g>
<path style="fill:#FFFFFF;" d="M196,374.8h36.8c4.4,0,7.6-3.6,7.6-7.6l0,0c0-4.4-3.6-7.6-7.6-7.6H196c-4.4,0-7.6,3.6-7.6,7.6l0,0  C188.4,371.6,192,374.8,196,374.8z"/>
<circle style="fill:#E6E9EE;" cx="254" cy="187.2" r="26"/>
<g>
</g>
<g>
</g>
<g>
</g>
<g>
</g>
<g>
</g>
<g>
</g>
<g>
</g>
<g>
</g>
<g>
</g>
<g>
</g>
<g>
</g>
<g>
</g>
<g>
</g>
<g>
</g>
<g>
</g>
</svg>
