<?xml version="1.0" encoding="iso-8859-1"?>
<!-- Generator: Adobe Illustrator 19.0.0, SVG Export Plug-In . SVG Version: 6.00 Build 0)  -->
<svg xmlns="http://www.w3.org/2000/svg" xmlns:xlink="http://www.w3.org/1999/xlink" version="1.1" id="Layer_1" x="0px" y="0px" viewBox="0 0 508 508" style="enable-background:new 0 0 508 508;" xml:space="preserve">
<circle style="fill:#FD8469;" cx="254" cy="254" r="254"/>
<path style="fill:#F1543F;" d="M113.2,465.2C153.6,492,202,508,254,508s100.4-15.6,140.8-42.8H113.2z"/>
<g>
	<rect x="315.2" y="347.6" style="fill:#2B3B4E;" width="12.8" height="106.4"/>
	<polygon style="fill:#2B3B4E;" points="315.2,310.4 305.2,296.8 294,305.6 310.4,327.2  "/>
</g>
<ellipse transform="matrix(0.9913 -0.1314 0.1314 0.9913 -40.7324 44.867)" style="fill:#324A5E;" cx="319.597" cy="331.069" rx="16.4" ry="25.199"/>
<g>
	<path style="fill:#FFD05B;" d="M308.8,320.8l26.8,35.2c13.6-10.4,16-30,5.6-43.6c-2.8-3.6-6-6.4-9.6-8.4L308.8,320.8z"/>
	<path style="fill:#FFD05B;" d="M322,374L322,374c-10.4,0-18.8,8.4-18.8,18.8v21.6c0,10.4,8.4,18.8,18.8,18.8l0,0   c10.4,0,18.8-8.4,18.8-18.8v-21.6C340.4,382.4,332,374,322,374z"/>
	<path style="fill:#FFD05B;" d="M361.2,464.8h-51.6v-16h35.6C354,448.8,361.2,456,361.2,464.8L361.2,464.8z"/>
</g>
<g>
	<rect x="179.6" y="347.6" style="fill:#2B3B4E;" width="12.8" height="106.4"/>
	<polygon style="fill:#2B3B4E;" points="192.8,310.4 202.8,296.8 214,305.6 197.6,327.2  "/>
</g>
<ellipse transform="matrix(0.9913 0.1314 -0.1314 0.9913 45.1537 -21.8689)" style="fill:#324A5E;" cx="188.28" cy="331.201" rx="16.4" ry="25.199"/>
<g>
	<path style="fill:#FFD05B;" d="M199.2,320.8L172.4,356c-13.6-10.4-16-30-5.6-43.6c2.8-3.6,6-6.4,9.6-8.4L199.2,320.8z"/>
	<path style="fill:#FFD05B;" d="M186,374L186,374c10.4,0,18.8,8.4,18.8,18.8v21.6c0,10.4-8.4,18.8-18.8,18.8l0,0   c-10.4,0-18.8-8.4-18.8-18.8v-21.6C167.6,382.4,176,374,186,374z"/>
	<path style="fill:#FFD05B;" d="M146.8,464.8h51.6v-16h-35.6C154,448.8,146.8,456,146.8,464.8L146.8,464.8z"/>
</g>
<rect x="216" y="262.8" style="fill:#324A5E;" width="75.6" height="23.6"/>
<g>

		<rect x="370.441" y="250.242" transform="matrix(-0.8202 -0.572 0.572 -0.8202 550.9066 679.6102)" style="fill:#2B3B4E;" width="23.599" height="6"/>

		<rect x="364.001" y="261.745" transform="matrix(-0.6888 -0.7249 0.7249 -0.6888 442.7406 719.5356)" style="fill:#2B3B4E;" width="23.599" height="6"/>
	<polygon style="fill:#2B3B4E;" points="364.4,281.2 357.2,256.8 362.8,255.2 370,279.6  "/>
	<polygon style="fill:#2B3B4E;" points="309.2,176.8 298,176.8 298,186.4 316,186.4  "/>

		<rect x="325.482" y="195.28" transform="matrix(-0.7135 -0.7007 0.7007 -0.7135 444.883 579.2827)" style="fill:#2B3B4E;" width="30.801" height="6.8"/>
	<polygon style="fill:#2B3B4E;" points="338.4,224 320.8,190.4 325.6,188 343.2,222  "/>
</g>
<ellipse transform="matrix(0.4961 -0.8683 0.8683 0.4961 3.5995 371.7187)" style="fill:#324A5E;" cx="322.046" cy="182.758" rx="11.2" ry="16.8"/>
<g>
	<path style="fill:#FFD05B;" d="M312.4,184.4H342c0-11.6-9.6-20.8-21.2-20.8c-3.2,0-6,0.8-8.4,1.6V184.4z"/>
	<path style="fill:#FFD05B;" d="M323.6,227.6c1.6,5.2,4,10.4,8,15.6c11.6,16,29.6,22.8,40,15.2c10.4-7.6,9.2-26.8-2.4-42.8   c-3.6-5.2-8-9.2-12.4-12L323.6,227.6z"/>

		<ellipse transform="matrix(-0.8262 -0.5634 0.5634 -0.8262 576.1906 703.4194)" style="fill:#FFD05B;" cx="396.6" cy="262.83" rx="12.8" ry="6"/>
	<path style="fill:#FFD05B;" d="M390.4,274.4c4,6,4.8,12.4,1.6,14.4c-2.8,2-8.4-1.6-12-7.6c-4-6-4.8-12.4-1.6-14.4   C381.2,264.8,386.8,268,390.4,274.4z"/>
	<path style="fill:#FFD05B;" d="M373.6,283.2c1.2,7.2-0.4,13.2-3.6,14s-7.2-4.4-8.4-11.6c-1.2-7.2,0.4-13.2,3.6-14   C368.4,270.8,372.4,276,373.6,283.2z"/>
</g>
<g>

		<rect x="113.858" y="250.354" transform="matrix(0.8202 -0.572 0.572 0.8202 -122.336 117.4232)" style="fill:#2B3B4E;" width="23.599" height="6"/>

		<rect x="120.131" y="261.722" transform="matrix(0.6888 -0.7249 0.7249 0.6888 -150.8508 178.0145)" style="fill:#2B3B4E;" width="23.599" height="6"/>
	<polygon style="fill:#2B3B4E;" points="143.6,281.2 150.8,256.8 145.2,255.2 138,279.6  "/>
	<polygon style="fill:#2B3B4E;" points="198.8,176.8 210,176.8 210,186.4 192,186.4  "/>

		<rect x="151.778" y="194.89" transform="matrix(0.7135 -0.7007 0.7007 0.7135 -91.0373 173.9526)" style="fill:#2B3B4E;" width="30.801" height="6.8"/>
	<polygon style="fill:#2B3B4E;" points="169.6,224 187.2,190.4 182.4,188 164.8,222  "/>
</g>
<ellipse transform="matrix(0.4961 0.8683 -0.8683 0.4961 252.4364 -69.1122)" style="fill:#324A5E;" cx="185.76" cy="182.925" rx="11.2" ry="16.801"/>
<g>
	<path style="fill:#FFD05B;" d="M195.6,184.4H166c0-11.6,9.6-20.8,21.2-20.8c3.2,0,6,0.8,8.4,1.6L195.6,184.4L195.6,184.4z"/>
	<path style="fill:#FFD05B;" d="M184.4,227.6c-1.6,5.2-4,10.4-8,15.6c-11.6,16-29.6,22.8-40,15.2s-9.2-26.8,2.4-42.8   c3.6-5.2,8-9.2,12.4-12L184.4,227.6z"/>

		<ellipse transform="matrix(-0.8262 0.5634 -0.5634 -0.8262 351.5099 416.4274)" style="fill:#FFD05B;" cx="111.52" cy="262.435" rx="12.8" ry="6"/>
	<path style="fill:#FFD05B;" d="M117.6,274.4c-4,6-4.8,12.4-1.6,14.4s8.4-1.6,12-7.6c4-6,4.8-12.4,1.6-14.4   C126.8,264.8,121.2,268,117.6,274.4z"/>
	<path style="fill:#FFD05B;" d="M134.4,283.2c-1.2,7.2,0.4,13.2,3.6,14c3.2,0.8,7.2-4.4,8.4-11.6s-0.4-13.2-3.6-14   C139.6,270.8,135.6,276,134.4,283.2z"/>
</g>
<rect x="248.4" y="152.4" style="fill:#2B3B4E;" width="11.6" height="11.2"/>
<path style="fill:#324A5E;" d="M268.8,167.2v-4c0-1.6-1.6-3.2-3.2-3.2h-23.2c-1.6,0-3.2,1.6-3.2,3.2v4H268.8z"/>
<path style="fill:#FFD05B;" d="M292,266.4h-76c-10.4,0-18-8.8-17.2-18.8l6.8-65.6c0.8-8.8,8.4-15.6,17.2-15.6h62.8  c8.8,0,16,6.8,17.2,15.6l6.8,65.6C310.4,257.6,302.4,266.4,292,266.4z"/>
<path style="fill:#FFFFFF;" d="M214.4,233.2l4-37.6c0.8-8.8,8.4-15.2,17.2-15.2h37.6c8.8,0,16,6.8,17.2,15.2l4,37.6  c1.2,10-6.8,18.8-17.2,18.8h-46C221.2,252.4,213.2,243.6,214.4,233.2z"/>
<path style="fill:#FFD05B;" d="M221.6,235.6l4.4-40.4c0.4-4,4-7.2,8-7.2h40c4,0,7.6,3.2,8,7.2l4.4,40.4c0.4,4.8-3.2,8.8-8,8.8h-48.8  C224.8,244.8,221.2,240.4,221.6,235.6z"/>
<g>
	<path style="fill:#FFFFFF;" d="M270,205.2h-32c-2.4,0-4.4-2-4.4-4.4l0,0c0-2.4,2-4.4,4.4-4.4h32c2.4,0,4.4,2,4.4,4.4l0,0   C274.4,203.2,272.4,205.2,270,205.2z"/>
	<path style="fill:#FFFFFF;" d="M272.8,220.8h-37.6c-2.4,0-4.4-2-4.4-4.4l0,0c0-2.4,2-4.4,4.4-4.4h37.6c2.4,0,4.4,2,4.4,4.4l0,0   C277.2,218.8,275.2,220.8,272.8,220.8z"/>
	<path style="fill:#FFFFFF;" d="M276,236.4h-44c-2.4,0-4.4-2-4.4-4.4l0,0c0-2.4,2-4.4,4.4-4.4h44c2.4,0,4.4,2,4.4,4.4l0,0   C280.4,234.4,278.4,236.4,276,236.4z"/>
</g>
<g>
	<path style="fill:#FFD05B;" d="M194.4,277.2c-2,2.8-2.8,5.6-2.8,8.8c0,16.4,28,29.6,62.4,29.6s62.4-13.2,62.4-29.6   c0-3.2-0.8-6-2.8-8.8H194.4z"/>
	<ellipse style="fill:#FFD05B;" cx="254" cy="94" rx="67.2" ry="62"/>
</g>
<g>
	<path style="fill:#F9B54C;" d="M307.6,56.8c-1.6-2-3.6-4-5.6-6v86.4c2-2,4-4,5.6-6V56.8z"/>
	<path style="fill:#F9B54C;" d="M200.4,56.8c1.6-2,3.6-4,5.6-6v86.4c-2-2-4-4-5.6-6V56.8z"/>
</g>
<circle style="fill:#FFFFFF;" cx="282.4" cy="93.2" r="10.8"/>
<circle style="fill:#84DBFF;" cx="282.4" cy="93.2" r="7.6"/>
<circle style="fill:#FFFFFF;" cx="225.6" cy="93.2" r="10.8"/>
<circle style="fill:#84DBFF;" cx="225.6" cy="93.2" r="7.6"/>
<g>
	<ellipse style="fill:#FFFFFF;" cx="281.6" cy="90" rx="2.4" ry="1.6"/>
	<ellipse style="fill:#FFFFFF;" cx="224" cy="90" rx="2.4" ry="1.6"/>
</g>
<path style="fill:#324A5E;" d="M279.2,132.4h-50.4c-3.6,0-6.8-2.8-6.8-6.8l0,0c0-3.6,2.8-6.8,6.8-6.8h50.4c3.6,0,6.8,2.8,6.8,6.8  l0,0C286,129.2,282.8,132.4,279.2,132.4z"/>
<g>
	<path style="fill:#F9B54C;" d="M270.4,68h-32.8c-1.6,0-2.8-1.2-2.8-2.8l0,0c0-1.6,1.2-2.8,2.8-2.8h32.8c1.6,0,2.8,1.2,2.8,2.8l0,0   C273.2,66.8,272,68,270.4,68z"/>
	<path style="fill:#F9B54C;" d="M270.4,59.2h-32.8c-1.6,0-2.8-1.2-2.8-2.8l0,0c0-1.6,1.2-2.8,2.8-2.8h32.8c1.6,0,2.8,1.2,2.8,2.8   l0,0C273.2,58,272,59.2,270.4,59.2z"/>
	<path style="fill:#F9B54C;" d="M270.4,50.4h-32.8c-1.6,0-2.8-1.2-2.8-2.8l0,0c0-1.6,1.2-2.8,2.8-2.8h32.8c1.6,0,2.8,1.2,2.8,2.8   l0,0C273.2,49.2,272,50.4,270.4,50.4z"/>
</g>
<g>
</g>
<g>
</g>
<g>
</g>
<g>
</g>
<g>
</g>
<g>
</g>
<g>
</g>
<g>
</g>
<g>
</g>
<g>
</g>
<g>
</g>
<g>
</g>
<g>
</g>
<g>
</g>
<g>
</g>
</svg>
