<?xml version="1.0" encoding="iso-8859-1"?>
<!-- Generator: Adobe Illustrator 19.0.0, SVG Export Plug-In . SVG Version: 6.00 Build 0)  -->
<svg xmlns="http://www.w3.org/2000/svg" xmlns:xlink="http://www.w3.org/1999/xlink" version="1.1" id="Layer_1" x="0px" y="0px" viewBox="0 0 508 508" style="enable-background:new 0 0 508 508;" xml:space="preserve">
<circle style="fill:#324A5E;" cx="254" cy="254" r="254"/>
<path style="fill:#54C0EB;" d="M362.8,344.4v-63.2h-10.4v63.2c-9.6,2.4-16.8,11.2-16.8,21.6c0,2.8,2,4.8,4.8,4.8s4.8-2,4.8-4.8  c0-6.8,5.6-12.4,12.4-12.4S370,359.2,370,366c0,2.8,2,4.8,4.8,4.8s4.8-2,4.8-4.8C379.6,355.6,372.4,346.8,362.8,344.4z"/>
<path style="fill:#2B3B4E;" d="M97.2,453.6c43.2,34,97.6,54.4,156.8,54.4s113.6-20.4,156.8-54.4H97.2z"/>
<rect x="232.8" y="162.4" style="fill:#54C0EB;" width="42.8" height="35.6"/>
<rect x="284.4" y="299.6" style="fill:#E6E9EE;" width="21.2" height="127.2"/>
<g>
	<path style="fill:#FFFFFF;" d="M304.4,374.8h-19.2c-4.4,0-8-3.6-8-8v-43.6c0-4.4,3.6-8,8-8h19.2c4.4,0,8,3.6,8,8v43.6   C312.4,371.2,308.8,374.8,304.4,374.8z"/>
	<path style="fill:#FFFFFF;" d="M312.8,406.8h-35.6c-4,0-7.2-3.2-7.2-7.2v-8c0-4,3.2-7.2,7.2-7.2h35.6c4,0,7.2,3.2,7.2,7.2v8   C320,403.6,316.8,406.8,312.8,406.8z"/>
	<path style="fill:#FFFFFF;" d="M321.2,454.4c1.2-2.8,2-5.6,2-8.4c0-12.8-12.8-23.6-28.4-23.6s-28.4,10.4-28.4,23.6   c0,2.8,0.8,5.6,2,8.4H321.2z"/>
</g>
<rect x="202.4" y="299.6" style="fill:#E6E9EE;" width="21.2" height="127.2"/>
<g>
	<path style="fill:#FFFFFF;" d="M222.8,374.8h-19.2c-4.4,0-8-3.6-8-8v-43.6c0-4.4,3.6-8,8-8h19.2c4.4,0,8,3.6,8,8v43.6   C230.4,371.2,227.2,374.8,222.8,374.8z"/>
	<path style="fill:#FFFFFF;" d="M231.2,406.8h-35.6c-4,0-7.2-3.2-7.2-7.2v-8c0-4,3.2-7.2,7.2-7.2h35.6c4,0,7.2,3.2,7.2,7.2v8   C238.4,403.6,234.8,406.8,231.2,406.8z"/>
	<path style="fill:#FFFFFF;" d="M239.6,454.4c1.2-2.8,2-5.6,2-8.4c0-12.8-12.8-23.6-28.4-23.6s-28.4,10.4-28.4,23.6   c0,2.8,0.8,5.6,2,8.4H239.6z"/>
</g>
<polygon style="fill:#E6E9EE;" points="152.4,131.2 194.4,135.2 194.4,119.6 152.4,123.2 "/>
<circle style="fill:#FF7058;" cx="145.6" cy="127.2" r="12.4"/>
<g>
	<polygon style="fill:#E6E9EE;" points="354,131.2 312.4,135.2 312.4,119.6 354,123.2  "/>
	<rect x="325.6" y="216" style="fill:#E6E9EE;" width="7.6" height="27.6"/>
</g>
<path style="fill:#FFFFFF;" d="M361.6,339.6h-8c-2.4,0-4-2-4-4v-29.2c0-2.4,2-4,4-4h8c2.4,0,4,2,4,4v29.2  C365.6,338,364,339.6,361.6,339.6z"/>
<path style="fill:#E6E9EE;" d="M349.2,255.6v25.6c0,2,1.6,4,4,4h8.8c2,0,4-1.6,4-4v-25.6H349.2z"/>
<path style="fill:#FFFFFF;" d="M381.2,233.2c0,16.4-13.2,29.6-29.6,29.6c-6.8,0-13.2-2.4-18.4-6.4v-46.8c5.2-4,11.2-6.4,18.4-6.4  C368,203.2,381.2,216.8,381.2,233.2z"/>
<rect x="174.8" y="216" style="fill:#E6E9EE;" width="7.6" height="27.6"/>
<path style="fill:#54C0EB;" d="M155.6,344.4v-63.2h-10.4v63.2c-9.6,2.4-16.8,11.2-16.8,21.6c0,2.8,2,4.8,4.8,4.8s4.8-2,4.8-4.8  c0-6.8,5.6-12.4,12.4-12.4c6.8,0,12.4,5.6,12.4,12.4c0,2.8,2,4.8,4.8,4.8s4.8-2,4.8-4.8C172.8,355.6,165.2,346.8,155.6,344.4z"/>
<path style="fill:#FFFFFF;" d="M146.4,339.6h8c2.4,0,4-2,4-4v-29.2c0-2.4-2-4-4-4h-8c-2.4,0-4,2-4,4v29.2  C142.4,338,144,339.6,146.4,339.6z"/>
<path style="fill:#E6E9EE;" d="M142.4,255.6v25.6c0,2,1.6,4,4,4h8.8c2,0,4-1.6,4-4v-25.6H142.4z"/>
<g>
	<path style="fill:#FFFFFF;" d="M126.8,233.2c0,16.4,13.2,29.6,29.6,29.6c6.8,0,13.2-2.4,18.4-6.4v-46.8c-5.2-4-11.2-6.4-18.4-6.4   C140,203.2,126.8,216.8,126.8,233.2z"/>
	<path style="fill:#FFFFFF;" d="M295.2,167.6h-82.4c-5.2,0-9.6-4.4-9.6-9.6V96.8c0-5.2,4.4-9.6,9.6-9.6h82.4c5.2,0,9.6,4.4,9.6,9.6   V158C304.4,163.2,300.4,167.6,295.2,167.6z"/>
	<path style="fill:#FFFFFF;" d="M312,302.4H196c-7.2,0-13.2-6-13.2-13.2v-86.8c0-7.2,6-13.2,13.2-13.2h116.4c7.2,0,13.2,6,13.2,13.2   v86.8C325.6,296.4,319.6,302.4,312,302.4z"/>
</g>
<path style="fill:#FFD05B;" d="M281.6,87.2h-55.2l4-10.4c1.2-3.6,4.8-5.6,8.4-5.6h30.4c3.6,0,7.2,2.4,8.4,5.6L281.6,87.2z"/>
<g>
	<path style="fill:#54C0EB;" d="M304.4,106v42.8c8.8-3.2,15.2-11.6,15.2-21.2C320,117.6,313.6,109.2,304.4,106z"/>
	<path style="fill:#54C0EB;" d="M203.6,106v42.8c-8.8-3.2-15.2-11.6-15.2-21.2C188,117.6,194.4,109.2,203.6,106z"/>
</g>
<circle style="fill:#FF7058;" cx="360.8" cy="127.2" r="12.4"/>
<rect x="217.6" y="100.8" style="fill:#54C0EB;" width="72.8" height="20.4"/>
<path style="fill:#E6E9EE;" d="M276,154.4h-44c-4,0-7.2-3.2-7.2-7.2l0,0c0-4,3.2-7.2,7.2-7.2h43.6c4,0,7.2,3.2,7.2,7.2l0,0  C283.2,151.2,280,154.4,276,154.4z"/>
<g>
</g>
<g>
</g>
<g>
</g>
<g>
</g>
<g>
</g>
<g>
</g>
<g>
</g>
<g>
</g>
<g>
</g>
<g>
</g>
<g>
</g>
<g>
</g>
<g>
</g>
<g>
</g>
<g>
</g>
</svg>
