<?xml version="1.0" encoding="iso-8859-1"?>
<!-- Generator: Adobe Illustrator 19.0.0, SVG Export Plug-In . SVG Version: 6.00 Build 0)  -->
<svg xmlns="http://www.w3.org/2000/svg" xmlns:xlink="http://www.w3.org/1999/xlink" version="1.1" id="Layer_1" x="0px" y="0px" viewBox="0 0 508 508" style="enable-background:new 0 0 508 508;" xml:space="preserve">
<circle style="fill:#FD8469;" cx="254" cy="254" r="254"/>
<path style="fill:#F1543F;" d="M107.2,461.2c41.6,29.2,92,46.8,146.8,46.8s105.2-17.2,146.8-46.8H107.2z"/>
<g>
	<path style="fill:#324A5E;" d="M328,176.8c4.4,9.6,10.8,20.4,18.8,31.2c20.8,28,45.2,45.2,54.4,38.4c9.2-6.8-0.4-34.8-21.2-62.8   c-8-10.8-16.4-20-24.4-26.8L328,176.8z"/>
	<path style="fill:#324A5E;" d="M416,319.6c-0.8,7.6-2.8,16.8-6.4,27.2c-1.2,2.8-4,4.4-6.8,4.4c-4,0-6.8-3.2-6.8-7.2   c0-0.4,0-1.2,0-1.6c1.6-6.4,3.2-16,2.4-24c-0.8-8-10.4-10.8-15.2-4.4c-1.6,2.4-3.2,5.2-4,9.2c-0.8,3.6-4.8,5.6-8.4,4.8   c-3.2-0.8-5.2-3.6-5.2-6.8c0-0.8,0-1.2,0.4-2c2-6.4,6-16.4,12.8-23.6C390.4,299.2,404.8,306,416,319.6z"/>
</g>
<path style="fill:#E6E9EE;" d="M427.6,301.6c0.8,12.4-1.6,21.2-6,26.8c-13.6-23.2-37.6-32-51.2-35.2c0.8-11.6,3.2-23.2,6.8-32.8  c-2.8-4.4-4.8-9.6-6-15.6C392.8,232,402,220,406,211.6c4.4,6,7.6,14.4,8,24c0.4,6.8-0.4,12.8-2,18.4  C420.4,265.6,426.8,285.2,427.6,301.6z"/>
<g>
	<path style="fill:#324A5E;" d="M180,176.8c-4.4,9.6-10.8,20.4-18.8,31.2c-20.8,28-45.2,45.2-54.4,38.4s0.4-34.8,21.2-62.8   c8-10.8,16.4-20,24.4-26.8L180,176.8z"/>
	<path style="fill:#324A5E;" d="M95.2,290.4c0,0-10,22,3.2,56.4c1.2,2.8,4,4.4,6.8,4.4l0,0c4.4,0,7.6-4.4,6.8-8.8   c-1.6-6.4-3.2-16-2.4-24c0.8-8,10.4-10.8,15.2-4.4c1.6,2.4,3.2,5.2,4,9.2c0.8,3.6,4.8,5.6,8.4,4.8l0,0c4-0.8,6-4.8,4.8-8.8   C137.6,305.2,124.8,276.8,95.2,290.4z"/>
	<path style="fill:#324A5E;" d="M142.4,320.8c0,3.2-2,6-5.2,6.8c-3.6,0.8-7.2-1.2-8.4-4.8c-0.8-4-2.4-6.8-4-9.2   c-4.8-6.4-14.4-3.2-15.2,4.4c-0.8,8.4,0.8,17.6,2.4,24c0,0.4,0,1.2,0,1.6c0,3.6-2.8,6.8-6.8,7.2c-2.8,0-5.6-1.6-6.8-4.4   c-4-10-6-19.2-6.8-27.2c11.2-13.6,25.6-20.4,37.2-24.4c6.8,7.2,10.8,16.8,12.8,23.6C142,319.6,142.4,320.4,142.4,320.8z"/>
</g>
<path style="fill:#E6E9EE;" d="M80.4,301.6c-0.8,12.4,1.6,21.2,6,26.8c13.6-23.2,37.6-32,51.2-35.2c-0.8-11.6-3.2-23.2-6.8-32.8  c2.8-4.4,4.8-9.6,6-15.6C115.2,232,106,220,102,211.6c-4.4,6-7.6,14.4-8,24c-0.4,6.8,0.4,12.8,2,18.4  C87.6,265.6,81.2,285.2,80.4,301.6z"/>
<rect x="236.4" y="114" style="fill:#324A5E;" width="35.2" height="56"/>
<g>
	<circle style="fill:#E6E9EE;" cx="335.2" cy="174.4" r="32.4"/>
	<circle style="fill:#E6E9EE;" cx="172.8" cy="174.4" r="32.4"/>
</g>
<polygon style="fill:#324A5E;" points="317.2,314.8 315.6,275.2 286.8,275.2 285.2,314.8 "/>
<path style="fill:#E6E9EE;" d="M324.4,366.8l-2-46.8c-0.4-5.2-4.4-9.2-9.6-9.2h-23.2c-5.2,0-9.2,4-9.6,9.2l-2,46.8H324.4z"/>
<path style="fill:#FFFFFF;" d="M326.8,461.2h-51.2c-6.4,0-11.6-5.6-10.8-12l7.2-78.8c0.4-5.6,5.2-10,10.8-10h37.6  c5.6,0,10.4,4.4,10.8,10l7.2,78.8C338.4,455.6,333.2,461.2,326.8,461.2z"/>
<polygon style="fill:#324A5E;" points="222.8,314.8 221.2,275.2 192.4,275.2 190.8,314.8 "/>
<path style="fill:#E6E9EE;" d="M230,366.8l-2-46.8c-0.4-5.2-4.4-9.2-9.6-9.2h-23.2c-5.2,0-9.2,4-9.6,9.2l-2,46.8H230z"/>
<path style="fill:#FFFFFF;" d="M232.4,461.2h-51.2c-6.4,0-11.6-5.6-10.8-12l7.2-78.8c0.4-5.6,5.2-10,10.8-10H226  c5.6,0,10.4,4.4,10.8,10l7.2,78.8C244,455.6,238.8,461.2,232.4,461.2z"/>
<g>
	<path style="fill:#E6E9EE;" d="M301.6,64.8c-0.8,0-2,0-2.8,0v48.8c0.8,0,1.6,0,2.8,0c13.6,0,24.4-10.8,24.4-24.4   S315.2,64.8,301.6,64.8z"/>
	<path style="fill:#E6E9EE;" d="M206.4,64.8c0.8,0,2,0,2.8,0v48.8c-0.8,0-1.6,0-2.8,0c-13.6,0-24.4-10.8-24.4-24.4   S192.8,64.8,206.4,64.8z"/>
</g>
<g>
	<path style="fill:#FFFFFF;" d="M304.8,119.2c-12.8,8-31.2,12.8-51.2,12.8s-38-4.8-50.8-12.8c-2.4-9.2-2.4-50.4,0-59.6   c12.8-8,30.8-12.8,50.8-12.8s38,4.8,51.2,12.8C307.6,68.8,307.6,110,304.8,119.2z"/>
	<path style="fill:#FFFFFF;" d="M303.6,280.8h-99.2c-11.2,0-20.8-8.4-22.4-19.6l-9.2-76.4c-2-17.6,11.6-33.6,29.6-33.6h103.2   c18,0,31.6,15.6,29.6,33.6l-9.2,76.4C324.4,272.4,315.2,280.8,303.6,280.8z"/>
</g>
<g>
	<circle style="fill:#84DBFF;" cx="278" cy="98" r="8.4"/>
	<circle style="fill:#84DBFF;" cx="230" cy="98" r="8.4"/>
	<circle style="fill:#84DBFF;" cx="254" cy="217.2" r="30.8"/>
</g>
<g>
</g>
<g>
</g>
<g>
</g>
<g>
</g>
<g>
</g>
<g>
</g>
<g>
</g>
<g>
</g>
<g>
</g>
<g>
</g>
<g>
</g>
<g>
</g>
<g>
</g>
<g>
</g>
<g>
</g>
</svg>
