<?xml version="1.0" encoding="iso-8859-1"?>
<!-- Generator: Adobe Illustrator 19.0.0, SVG Export Plug-In . SVG Version: 6.00 Build 0)  -->
<svg xmlns="http://www.w3.org/2000/svg" xmlns:xlink="http://www.w3.org/1999/xlink" version="1.1" id="Layer_1" x="0px" y="0px" viewBox="0 0 508 508" style="enable-background:new 0 0 508 508;" xml:space="preserve">
<circle style="fill:#FD8469;" cx="254" cy="254" r="254"/>
<path style="fill:#324A5E;" d="M272.4,142.8c-6-1.2-12-1.6-18.4-1.6s-12.8,0.4-18.4,1.6c2.8-6,4-12,4.8-16.4H268  C268.4,130.8,270,136.8,272.4,142.8z"/>
<path style="fill:#F1543F;" d="M97.6,454c43.2,34,97.6,54,156.4,54s113.2-20.4,156.4-54H97.6z"/>
<g>
	<path style="fill:#2B3B4E;" d="M368.4,318.4c-0.4,3.6-2,12.4-10.8,21.6c-0.8,0.8-2.4,1.2-3.6,0.8c-1.2-0.4-2-1.6-2-3.2   c0-0.8,0-1.2,0.4-2c1.6-2.4,4-6.4,5.2-10s-2.8-6.4-5.6-4.4c-1.2,0.8-2.4,1.6-3.2,3.2c-0.8,1.2-2.8,1.6-4.4,0.8   c-0.8-0.8-1.2-1.6-1.2-2.8c0-0.8,0.4-1.2,0.8-2c0.8-0.8,1.6-1.6,2.4-2.8c3.2,1.2,7.2,1.6,11.2,1.6   C361.2,320.4,365.2,320,368.4,318.4z"/>

		<rect x="326.492" y="169.683" transform="matrix(-0.3032 0.9529 -0.9529 -0.3032 609.4658 -74.2855)" style="fill:#2B3B4E;" width="10.8" height="31.999"/>
	<polygon style="fill:#2B3B4E;" points="342.4,202.4 344,254.4 368.8,254.4 356,197.2  "/>
</g>
<circle style="fill:#FFFFFF;" cx="347.6" cy="194.4" r="15.6"/>
<path style="fill:#E6E9EE;" d="M337.6,300.4c0,18,8.8,19.6,19.6,19.6c10.8,0,19.6-2,19.6-20s-8.4-45.2-19.2-45.2  C346.8,255.2,337.6,282.4,337.6,300.4z"/>
<ellipse style="fill:#FFFFFF;" cx="356" cy="259.6" rx="15.6" ry="13.2"/>
<path style="fill:#E6E9EE;" d="M326,179.2c0,7.6-8.4,14-19.2,14.4v-29.2C317.2,165.6,326,171.6,326,179.2z"/>
<g>
	<path style="fill:#2B3B4E;" d="M164,326c-1.2,0.8-3.2,0.8-4.4-0.8c-1.2-1.6-2.4-2.4-3.2-3.2c-3.2-2-6.8,0.8-6,4.4   c1.2,3.6,3.2,7.6,5.2,10c0.4,0.4,1.2,4-1.6,4.8c-1.2,0.4-2.8,0-3.6-0.8c-8.4-9.6-10.4-18-10.8-21.6c3.2,1.2,7.2,1.6,11.2,1.6   s8,0,11.2-1.6c0.8,0.8,1.6,2,2.4,2.8C166.4,323.2,164.8,325.2,164,326z"/>

		<rect x="170.718" y="169.473" transform="matrix(0.3032 0.9529 -0.9529 0.3032 299.4592 -38.5909)" style="fill:#2B3B4E;" width="10.8" height="31.999"/>
	<polygon style="fill:#2B3B4E;" points="165.6,202.4 164,254.4 139.2,254.4 152,197.2  "/>
</g>
<circle style="fill:#FFFFFF;" cx="160.4" cy="194.4" r="15.6"/>
<path style="fill:#E6E9EE;" d="M170.4,300.4c0,18-8.8,19.6-19.6,19.6s-19.6-2-19.6-20s8.4-45.2,19.2-45.2  C161.2,255.2,170.4,282.4,170.4,300.4z"/>
<ellipse style="fill:#FFFFFF;" cx="152" cy="259.6" rx="15.6" ry="13.2"/>
<path style="fill:#E6E9EE;" d="M201.2,164.8V194c-10.8-0.4-19.2-6.8-19.2-14.4C182,171.6,190.8,165.6,201.2,164.8z"/>
<path style="fill:#FFFFFF;" d="M283.2,81.2c-0.4-1.6-0.8-3.2-1.2-4.8c-3.2-12.8-15.2-21.6-28.4-21.6l0,0c-13.2,0-24.8,8.8-28.4,21.6  c-0.4,1.6-0.8,3.2-1.2,4.8c-0.8,5.2-4,9.6-7.6,13.2s-5.6,8.8-5.2,14.8c0.8,10,9.6,17.2,19.6,17.2h44.4c10,0,18.8-7.2,19.6-17.2  c0.4-5.6-1.6-10.8-5.2-14.8C287.2,90.8,284.4,86,283.2,81.2z"/>
<g>
	<circle style="fill:#84DBFF;" cx="266.8" cy="86.8" r="8"/>
	<circle style="fill:#84DBFF;" cx="241.2" cy="86.8" r="8"/>
</g>
<path style="fill:#2B3B4E;" d="M310.8,387.6v42.8h-27.6v-42c3.6,2.8,8,4.8,13.6,4.8C302.4,393.2,307.6,391.2,310.8,387.6z"/>
<path style="fill:#FFFFFF;" d="M314.8,453.2h-35.6c-7.2,0-12-6-9.6-11.6l2.8-5.6c1.6-3.2,5.2-5.2,9.6-5.2h30.4c4,0,8,2,9.6,5.2  l2.8,5.6C326.8,447.2,322,453.2,314.8,453.2z"/>
<path style="fill:#2B3B4E;" d="M311.2,366.8c-3.6-3.6-8.8-5.6-14.8-5.6s-11.2,2.4-14.8,6l-1.6-50.8c6.4,2.4,14,0.8,18.8-3.6  L311.2,366.8z"/>
<path style="fill:#E6E9EE;" d="M305.6,298.4c0,10.4-8.4,18.8-19.2,18.8c-8.4,0-15.6-5.6-18-13.2c10-4.4,17.6-13.6,20.4-24.8  C298.4,280.4,305.6,288.4,305.6,298.4z"/>
<ellipse style="fill:#FFFFFF;" cx="296.8" cy="377.2" rx="19.2" ry="16"/>
<g>
	<rect x="197.2" y="387.6" style="fill:#2B3B4E;" width="27.6" height="42.8"/>
	<path style="fill:#2B3B4E;" d="M224.8,388.4v42.4h-27.6v-43.2l0,0c3.6,3.2,8.4,5.2,14,5.2C216.4,393.2,221.2,391.2,224.8,388.4z"/>
</g>
<path style="fill:#FFFFFF;" d="M193.2,453.2h35.6c7.2,0,12-6,9.6-11.6l-2.8-5.6c-1.6-3.2-5.2-5.2-9.6-5.2h-30.4c-4,0-8,2-9.6,5.2  l-2.8,5.6C181.2,447.2,186,453.2,193.2,453.2z"/>
<path style="fill:#2B3B4E;" d="M227.6,316l-1.6,50.8c-3.6-3.6-8.8-6-14.8-6s-11.2,2.4-14.4,5.6l12-54.4  C214,317.2,221.2,318.4,227.6,316z"/>
<path style="fill:#E6E9EE;" d="M239.2,304.4c-2.4,7.6-9.6,13.2-18,13.2c-10.4,0-18.8-8.4-18.8-18.8c0-9.6,7.2-17.6,16.8-18.8  C221.6,290.4,229.2,299.6,239.2,304.4z"/>
<g>
	<ellipse style="fill:#FFFFFF;" cx="211.2" cy="377.2" rx="19.2" ry="16"/>
	<path style="fill:#FFFFFF;" d="M254,141.2c-22,0-41.6,7.2-52.8,18v40.4c0.8,0.8,20,9.2,27.6,46.8c-6.4,6.4-10.4,15.6-10.4,25.2   c0,19.6,16,35.6,35.6,35.6s35.6-16,35.6-35.6c0-10-4-18.8-10.4-25.2c7.6-37.6,26.8-46,27.6-46.8v-40.4   C295.6,148.4,276,141.2,254,141.2z"/>
	<path style="fill:#FFFFFF;" d="M254,141.2c-22,0-41.6,7.2-52.8,18v40.4c0.8,0.8,20,9.2,27.6,46.8c-7.2,7.2-11.2,17.2-10.4,28.4   c1.6,16.8,14.8,30.4,31.6,32c21.6,2.4,39.6-14.4,39.6-35.6c0-10-4-18.8-10.4-25.2c7.6-37.6,26.8-46,27.6-46.8v-40   C295.6,148.4,276,141.2,254,141.2z"/>
</g>
<g>
</g>
<g>
</g>
<g>
</g>
<g>
</g>
<g>
</g>
<g>
</g>
<g>
</g>
<g>
</g>
<g>
</g>
<g>
</g>
<g>
</g>
<g>
</g>
<g>
</g>
<g>
</g>
<g>
</g>
</svg>
