<?xml version="1.0" encoding="iso-8859-1"?>
<!-- Generator: Adobe Illustrator 19.0.0, SVG Export Plug-In . SVG Version: 6.00 Build 0)  -->
<svg xmlns="http://www.w3.org/2000/svg" xmlns:xlink="http://www.w3.org/1999/xlink" version="1.1" id="Layer_1" x="0px" y="0px" viewBox="0 0 508 508" style="enable-background:new 0 0 508 508;" xml:space="preserve">
<circle style="fill:#90DFAA;" cx="254" cy="254" r="254"/>
<path style="fill:#2C9984;" d="M104.4,459.2C146.4,490,198,508,254,508s107.6-18,149.6-48.8H104.4z"/>
<g>
	<path style="fill:#324A5E;" d="M276.8,140.8c-14.8,4.4-30.4,4.4-45.2,0c4.4-8.4,6.4-20,7.2-28c4.8,2,10,3.2,15.6,3.2   s10.8-1.2,15.6-3.2C270.4,120.8,272,132.4,276.8,140.8z"/>
	<ellipse style="fill:#324A5E;" cx="279.2" cy="443.6" rx="15.2" ry="15.6"/>
	<path style="fill:#324A5E;" d="M287.6,361.6v11.6c-0.8,0-1.6-0.4-2.4-0.4h-12.4c-0.8,0-1.6,0-2.4,0.4v-11.6H287.6z"/>
</g>
<g>
	<path style="fill:#FFFFFF;" d="M300,346.8c-0.4,8.4-5.2,15.2-11.2,15.2H270c-6,0-10.8-6.4-11.2-15.2c-0.8-18,0-36,2.4-51.2   c1.2-7.2,2.4-13.2,4-18.4c1.6-5.2,3.6-8.8,5.6-10.8c1.2,2,2.4,3.2,2.4,3.6c0,14.8,3.2,26.4,7.2,26.4s7.2-12,7.2-26.4c0-0.8,0-2,0-4   c2.4,2,4.8,6,6.4,11.6c1.6,5.2,2.8,11.2,4,18.4C299.6,310.8,300.4,328.8,300,346.8z"/>
	<path style="fill:#FFFFFF;" d="M272.8,373.2c-6,0-10.8,6.8-10.8,15.2c0,13.2,5.2,45.6,6,48.8c2,5.6,4.8,8.8,8,8.8h6.4   c2.8,0,6-3.2,8-8.8c1.2-3.6,6.4-35.6,6-48.8c0-8.4-5.2-15.2-10.8-15.2H272.8z"/>
</g>
<g>
	<ellipse style="fill:#324A5E;" cx="228.8" cy="443.6" rx="15.2" ry="15.6"/>
	<path style="fill:#324A5E;" d="M237.2,361.6v11.6c-0.8,0-1.6-0.4-2.4-0.4h-12.4c-0.8,0-1.6,0-2,0.4v-11.6H237.2z"/>
</g>
<g>
	<path style="fill:#FFFFFF;" d="M219.2,361.6c-6,0-10.8-6.4-11.2-14.8c-0.8-18,0-36,2.4-51.2c1.2-7.2,2.4-13.2,4-18.4   c2.4-8,6-12.8,10-12.8h8.4c4,0,7.6,4.8,10,12.8c1.6,5.2,2.8,11.2,4,18.4c2.4,15.2,3.2,33.2,2.4,51.2c-0.4,8.4-5.2,14.8-11.2,14.8   H219.2z"/>
	<path style="fill:#FFFFFF;" d="M249.2,346.8c-0.4,8.4-5.2,15.2-11.2,15.2h-18.8c-6,0-10.8-6.4-11.2-15.2c-0.8-18,0-36,2.4-51.2   c1.2-7.2,2.4-13.2,4-18.4c1.6-5.6,4-9.6,6.4-11.6c0,2,0,3.6,0,4.4c0,14.8,3.2,26.4,7.2,26.4s7.2-12,7.2-26.4c0-0.4,0.8-1.6,2.4-3.6   c2.4,2,4.4,6,5.6,10.8c1.6,5.2,2.8,11.2,4,18.4C249.2,310.8,250,328.8,249.2,346.8z"/>
	<path style="fill:#FFFFFF;" d="M235.2,373.2c6,0,10.8,6.8,10.8,15.2c0,13.2-5.2,45.6-6,48.8c-2,5.6-4.8,8.8-8,8.8h-6.4   c-2.8,0-6-3.2-8-8.8c-1.2-3.6-6.4-35.6-6-48.8c0-8.4,5.2-15.2,10.8-15.2H235.2z"/>
</g>
<path style="fill:#324A5E;" d="M287.2,270c0,14.8-3.2,26.4-7.2,26.4s-7.2-12-7.2-26.4c0-0.4-2-3.2-4-6.4c-4.4,2-9.2,3.2-14.8,3.2  c-5.6,0-10.8-1.2-14.8-3.2c-2.4,3.2-4,6-4,6.4c0,14.8-3.2,26.4-7.2,26.4s-7.2-12-7.2-26.4c0-3.2,0.8-24,4.4-32.4  c7.2,6.4,16.4,12,28.8,14.4c12-2.4,21.6-8,28.8-14.4C286.4,246.4,287.2,266.8,287.2,270z"/>
<g>
	<path style="fill:#FFFFFF;" d="M180.4,174c-1.2,1.6-2,3.6-3.2,5.2c-9.6,14.8-20,26.8-29.6,34.4c-11.2-6.4-18.8-12.4-23.6-18   c3.2-11.2,9.6-24.8,18.8-38.4c6-9.2,12-17.2,18.4-23.6C164,151.6,171.2,170,180.4,174z"/>
	<path style="fill:#FFFFFF;" d="M160.4,300c-3.6,1.2-7.6-0.8-8.4-4c-1.2-4-2.8-6.8-4.8-8.8c-5.2-6-14.8-2.4-14.8,5.6   c0,8.4,2,17.6,4,24c0.4,0.8,0.8,8-6,9.2c-2.8,0.4-5.6-1.2-6.8-4c-4.8-10-7.2-18.8-8.4-26.8c10-14,24-22,35.6-26.4   c7.2,6.8,12,16,14.4,22.8C164.8,291.6,166,298,160.4,300z"/>
	<path style="fill:#FFFFFF;" d="M298.8,76.8v10.4c0,5.2-3.2,10-8,12c-3.2,1.2-6,2.8-8.8,5.2c-7.2,6.8-17.2,10.8-28,10.8   s-20.8-4-28-10.8c-2.4-2.4-5.6-4-8.8-5.2c-4.8-2-8-6.8-8-12V76.8c0-5.2,3.2-10,8-12c3.2-1.2,6-2.8,8.8-5.2   c7.2-6.8,17.2-10.8,28-10.8c10.8,0,20.8,4,28,10.8c2.4,2.4,5.6,4,8.8,5.2C295.6,66.8,298.8,71.6,298.8,76.8z"/>
</g>
<g>
	<circle style="fill:#84DBFF;" cx="272" cy="82" r="6"/>
	<circle style="fill:#84DBFF;" cx="236" cy="82" r="6"/>
</g>
<path style="fill:#FFFFFF;" d="M319.2,173.2c-6.8,10-14.8,23.6-16.4,34.4c0,0-11.6,37.6-48.8,45.2c-37.6-7.6-49.2-45.2-49.2-45.2  c-1.2-10.8-9.2-24.4-16.4-34.4c8.8-5.6,16-25.2,18.4-44c27.6,20,65.6,20,93.6,0C303.2,148,310.4,167.6,319.2,173.2z"/>
<path style="fill:#324A5E;" d="M208,121.6c-1.6,24.4-12,53.2-24.4,53.2s-22.8-28.8-24.4-53.2c7.2-2.8,15.6-4.4,24.4-4.4  C192.4,116.8,200.8,118.8,208,121.6z"/>
<g>
	<path style="fill:#FFFFFF;" d="M384,195.2c-4.8,5.6-12.4,12-23.6,18c-9.2-7.6-20-19.6-29.6-34.4c-1.2-1.6-2.4-3.6-3.2-5.2   c8.8-4,16.4-22,19.6-40.8c6,6.4,12.4,14.8,18.4,23.6C374.4,170.4,380.8,184,384,195.2z"/>
	<path style="fill:#FFFFFF;" d="M347.6,300c3.6,1.2,7.6-0.8,8.4-4c1.2-4,2.8-6.8,4.8-8.8c5.2-6,14.8-2.4,14.8,5.6c0,8.4-2,17.6-4,24   c-0.4,0.8-0.8,8,6,9.2c2.8,0.4,5.6-1.2,6.8-4c4.8-10,7.2-18.8,8.4-26.8c-10-14-24-22-35.6-26.4c-7.2,6.8-12,16-14.4,22.8   C343.2,291.6,341.6,298,347.6,300z"/>
</g>
<g>
	<path style="fill:#324A5E;" d="M154.4,217.2C132,206,122,194.4,117.6,186c-4,6.4-6.4,14.8-6.4,24.4c0,6.8,1.2,12.8,3.2,18   c-7.6,12.8-12.4,32.4-12.4,48.8c0,12.4,2.8,20.8,7.6,26c12-24,35.6-34.4,48.8-38.4c-1.2-11.2-4.8-23.2-9.2-32.4   C152,228.8,153.6,223.2,154.4,217.2z"/>
	<path style="fill:#324A5E;" d="M393.6,228.8c2-5.2,3.2-11.6,3.2-18c0-9.6-2.4-18.4-6.4-24.4c-4.4,8.4-14.4,20-36.8,31.2   c0.8,6,2.4,11.6,5.2,16c-4.4,9.2-7.6,20.8-9.2,32.4c13.6,4,36.8,14,48.8,38.4c4.8-5.2,7.6-13.6,7.6-26   C406,261.2,401.2,241.2,393.6,228.8z"/>
	<path style="fill:#324A5E;" d="M300,121.6c1.6,24.4,12,53.2,24.4,53.2s22.8-28.8,24.4-53.2c-7.2-2.8-15.6-4.4-24.4-4.4   S307.2,118.8,300,121.6z"/>
</g>
<g>
</g>
<g>
</g>
<g>
</g>
<g>
</g>
<g>
</g>
<g>
</g>
<g>
</g>
<g>
</g>
<g>
</g>
<g>
</g>
<g>
</g>
<g>
</g>
<g>
</g>
<g>
</g>
<g>
</g>
</svg>
