<?xml version="1.0" encoding="iso-8859-1"?>
<!-- Generator: Adobe Illustrator 19.0.0, SVG Export Plug-In . SVG Version: 6.00 Build 0)  -->
<svg xmlns="http://www.w3.org/2000/svg" xmlns:xlink="http://www.w3.org/1999/xlink" version="1.1" id="Layer_1" x="0px" y="0px" viewBox="0 0 508 508" style="enable-background:new 0 0 508 508;" xml:space="preserve">
<circle style="fill:#324A5E;" cx="254" cy="254" r="254"/>
<g>
	<path style="fill:#E6E9EE;" d="M322.4,156.8c-2.8,2.4-5.2,5.6-5.6,9.2l-5.6-1.6l1.2-4.8c0.4-2,0.4-4.4-0.4-6L322.4,156.8z"/>
	<path style="fill:#E6E9EE;" d="M352.4,226c-2.8-2.8-7.2-4.8-12-4.8s-9.2,2-12,4.8l-1.6-42c1.6,0.8,3.6,0.8,5.2,0.8   c4,0,7.6-1.6,10.4-4L352.4,226z"/>
</g>
<path style="fill:#2B3B4E;" d="M122.4,471.2C160.8,494.4,206,508,254,508s93.2-13.6,131.6-36.8H122.4z"/>
<g>
	<path style="fill:#FFFFFF;" d="M352.8,293.6c-0.4,4-2,12.4-10.8,21.6c-0.8,1.2-2.4,1.2-3.6,0.8c-1.2-0.4-2-1.6-2-3.2   c0-0.8,0-1.2,0.4-2c1.6-2.4,4-6.4,5.2-10c0.8-3.6-2.8-6.4-6-4.4c-1.2,0.8-2.4,1.6-3.2,3.2c-0.8,1.2-2.8,1.6-4.4,0.8   c-0.8-0.4-2.4-2.8-0.8-4.4c0.8-0.8,1.6-1.6,2.4-2.8c3.2,1.2,6.8,1.6,11.2,1.6C345.6,295.2,349.6,294.8,352.8,293.6z"/>
	<path style="fill:#FFFFFF;" d="M179.6,300.8c-1.2,0.8-3.2,0.8-4.4-0.8c-1.2-1.6-2.4-2.8-3.2-3.2c-3.2-2-6.8,0.8-6,4.4   c1.2,3.6,3.2,7.2,5.2,10c1.6,2.8,0,4.4-1.6,4.8c-1.2,0.4-2.8,0.4-3.6-0.8c-8.4-9.6-10.4-18-10.8-21.6c3.2,1.2,7.2,1.6,11.2,1.6   s8-0.4,11.2-1.6c0.8,0.8,1.6,2,2.4,2.8C181.6,298,180.4,300.4,179.6,300.8z"/>
</g>
<g>
	<path style="fill:#E6E9EE;" d="M273.2,146.4h-38.4l3.6-13.2c5.2,1.2,10.4,2,15.6,2c5.6,0,10.8-0.8,16-2L273.2,146.4z"/>
	<path style="fill:#E6E9EE;" d="M196.8,164.4l-5.6,1.6c-0.8-3.6-2.8-7.2-5.6-9.2l10.8-3.6c-0.8,2-0.8,4-0.4,6L196.8,164.4z"/>
	<path style="fill:#E6E9EE;" d="M306.4,284.4c0,5.2-1.6,10-4.4,14.4c-3.2-8.8-6.8-14.4-10.8-14.4c-5.6,0-10.8,10.8-14.8,25.6   c-5.6-0.8-10.8-3.6-14.8-8c0.4-7.2,4.8-16.4,12-24.4c7.2-7.6,16-12.4,23.2-13.2C302.8,269.2,306.4,276.4,306.4,284.4z"/>
	<path style="fill:#E6E9EE;" d="M246,302c-3.6,4-8.4,6.8-14,7.6c-3.6-14.4-8.4-25.6-14.4-25.2c-4.4,0-8,6-11.6,15.2   c-3.2-4.4-5.2-9.6-5.2-15.2c0-8,3.6-15.2,9.2-20c7.2,0.8,16,5.6,23.2,13.2C241.6,285.6,245.6,294.8,246,302z"/>
	<path style="fill:#E6E9EE;" d="M294.4,243.6c-10,5.2-24.4,8.4-40.4,8.4s-30-3.2-40.4-8.8c0.4-5.6,2.8-10.8,6-15.6H288   C291.6,232.8,294,238,294.4,243.6z"/>
</g>
<ellipse style="fill:#FFFFFF;" cx="254" cy="85.2" rx="58.8" ry="49.6"/>
<path style="fill:#84DBFF;" d="M294,72v27.2c-11.2,2-25.2,2.8-40,2.8s-28.8-1.2-40-2.8V72c11.2-2,25.2-2.8,40-2.8  C268.8,69.2,282.8,70,294,72z"/>
<g>
	<circle style="fill:#FFFFFF;" cx="276.8" cy="85.2" r="7.6"/>
	<circle style="fill:#FFFFFF;" cx="231.2" cy="85.2" r="7.6"/>
	<path style="fill:#FFFFFF;" d="M288.4,228h-68.8c-5.2,0-9.6-3.6-10.8-8.8l-13.2-60c-1.6-6.8,3.6-13.2,10.8-13.2h94.8   c7.2,0,12.4,6.4,10.8,13.2l-13.2,60C298,224.4,293.6,228,288.4,228z"/>
</g>
<path style="fill:#E6E9EE;" d="M181.2,184l-1.6,42c-2.8-2.8-7.2-4.8-12-4.8s-9.2,2-12,4.8l10-44.8C170,184.8,176,186,181.2,184z"/>
<circle style="fill:#FFFFFF;" cx="176" cy="169.2" r="15.6"/>
<path style="fill:#E6E9EE;" d="M186,275.6c0,18-8.8,20-19.6,19.6c-10.8,0-19.6-2-19.6-20c0-10.4,2.8-24,7.6-33.6  c2.8,3.6,7.6,6,13.2,6c4.4,0,8.8-1.6,11.6-4.4C183.2,252.8,186,265.6,186,275.6z"/>
<g>
	<ellipse style="fill:#FFFFFF;" cx="167.6" cy="234.4" rx="15.6" ry="13.2"/>
	<circle style="fill:#FFFFFF;" cx="332" cy="169.2" r="15.6"/>
</g>
<path style="fill:#E6E9EE;" d="M361.2,275.2c0,18-8.8,20-19.6,20c-10.8,0-19.6-1.6-19.6-19.6c0-10,2.8-22.8,6.8-32  c2.8,2.4,6.8,4.4,11.6,4.4c5.6,0,10.4-2.4,13.2-6C358.4,251.2,361.2,264.8,361.2,275.2z"/>
<g>
	<path style="fill:#FFFFFF;" d="M311.2,356.4c0,9.6-1.2,16.4-3.2,21.2c-3.6-4.8-10-8-17.2-8c-7.6,0-14.4,3.6-17.6,8.4   c-1.6-4.8-2.8-11.2-2.8-20.8c0.4-28.8,10-72.4,21.2-72.4C302.8,284.4,311.2,327.6,311.2,356.4z"/>
	<path style="fill:#FFFFFF;" d="M237.6,356.4c0,9.6-1.2,16.4-3.2,21.2c-3.6-4.8-10-8-17.2-8c-7.6,0-14.4,3.6-17.6,8.4   c-1.6-4.8-2.8-11.2-2.8-20.8c0.4-28.8,10-72.4,21.2-72.4C229.2,284.4,238,327.6,237.6,356.4z"/>
	<path style="fill:#FFFFFF;" d="M311.2,430.8c0,10.4-1.6,17.6-3.6,22.4c-4.8-3.2-10.4-5.2-16.8-5.2s-12.4,2-17.2,5.2   c-2-4.8-3.2-11.6-3.2-22c0-13.6,2.4-24.4,6-32c3.6,3.2,8.8,4.8,14.4,4.8c6,0,11.6-2,15.2-5.6C309.2,406,311.2,416.8,311.2,430.8z"/>
	<path style="fill:#FFFFFF;" d="M237.6,430.8c0,10.4-1.6,17.6-3.6,22.4c-4.8-3.2-10.4-5.2-16.8-5.2c-6.4,0-12.4,2-17.2,5.2   c-2-4.8-3.2-11.6-3.2-22c0-13.6,2.4-24.4,6-32c3.6,3.2,8.8,4.8,14.4,4.8c6,0,11.6-2,15.2-5.6C236,406,238,416.8,237.6,430.8z"/>
	<ellipse style="fill:#FFFFFF;" cx="340.4" cy="234.4" rx="15.6" ry="13.2"/>
</g>
<g>
	<ellipse style="fill:#E6E9EE;" cx="290.8" cy="386.8" rx="20.8" ry="17.6"/>
	<path style="fill:#E6E9EE;" d="M305.2,472.4c8,0,12.4-10,6.8-15.6c-5.2-5.2-12.8-8.4-21.2-8.4c-8.4,0-16,3.2-21.2,8.4   c-5.6,5.6-1.2,15.6,6.8,15.6H305.2z"/>
	<path style="fill:#E6E9EE;" d="M231.6,472.4c8,0,12.4-10,6.8-15.6c-5.2-5.2-12.8-8.4-21.2-8.4s-16,3.2-21.2,8.4   c-5.6,5.6-1.2,15.6,6.8,15.6H231.6z"/>
	<ellipse style="fill:#E6E9EE;" cx="217.2" cy="386.8" rx="20.8" ry="17.6"/>
</g>
<path style="fill:#FFFFFF;" d="M297.6,259.6c0,1.6,0,3.2-0.4,5.2c-7.2,0.8-16,5.6-23.2,13.2c-7.6,8-12,17.2-12,24.8  c-2.4,0.4-5.2,0.8-8,0.8c-2.8,0-5.2-0.4-8-0.8c0-7.6-4.4-16.8-12-24.8c-7.2-7.6-16-12.4-23.2-13.2c0-1.6-0.4-3.2-0.4-5.2  c0-5.6,1.2-11.2,3.2-16c10,5.2,24.4,8.8,40.4,8.8s30.4-3.2,40.4-8.8C296.4,248.4,297.6,254,297.6,259.6z"/>
<g>
</g>
<g>
</g>
<g>
</g>
<g>
</g>
<g>
</g>
<g>
</g>
<g>
</g>
<g>
</g>
<g>
</g>
<g>
</g>
<g>
</g>
<g>
</g>
<g>
</g>
<g>
</g>
<g>
</g>
</svg>
