<?xml version="1.0" encoding="iso-8859-1"?>
<!-- Generator: Adobe Illustrator 19.0.0, SVG Export Plug-In . SVG Version: 6.00 Build 0)  -->
<svg xmlns="http://www.w3.org/2000/svg" xmlns:xlink="http://www.w3.org/1999/xlink" version="1.1" id="Layer_1" x="0px" y="0px" viewBox="0 0 508 508" style="enable-background:new 0 0 508 508;" xml:space="preserve">
<circle style="fill:#324A5E;" cx="254" cy="254" r="254"/>
<path style="fill:#2B3B4E;" d="M95.2,452c43.6,34.8,98.8,56,158.8,56s115.6-20.8,158.8-56H95.2z"/>
<g>
	<polygon style="fill:#CED5E0;" points="269.2,319.6 269.2,432.4 313.6,432.4 299.6,319.6  "/>
	<polygon style="fill:#CED5E0;" points="238.8,319.6 238.8,432.4 194.4,432.4 208.4,319.6  "/>
</g>
<path style="fill:#E6E9EE;" d="M356,344.4l20-56.8l-6-2.4l6-2.8l-26.8-60l-11.6,5.2l26,57.6l-19.2,53.6c-12.4-2.4-25.2,4.8-30,16.8  c-1.2,3.6,0.4,7.2,4,8.8c3.6,1.2,7.2-0.4,8.8-4c2.8-7.2,10.8-10.4,17.6-8c7.2,2.8,10.4,10.8,8,17.6c-1.2,3.6,0.4,7.2,4,8.8  c3.6,1.2,7.2-0.4,8.8-4C369.2,364,365.2,351.2,356,344.4z"/>
<path style="fill:#FFFFFF;" d="M296.8,183.2h-85.6c-4,0-7.2-3.2-7.2-7.2v-68c0-4,3.2-7.2,7.2-7.2h85.6c4,0,7.2,3.2,7.2,7.2v68  C304.4,180,300.8,183.2,296.8,183.2z"/>
<path style="fill:#CED5E0;" d="M304.4,168.4h2.8c2.4,0,4.4-2,4.4-4.4v-20.8c0-2.4-2-4.4-4.4-4.4h-2.8V168.4z"/>
<path style="fill:#54C0EB;" d="M311.6,143.6v19.6c4.4-0.8,8-5.2,8-10C319.6,148.4,316,144.4,311.6,143.6z"/>
<path style="fill:#CED5E0;" d="M203.6,168.4h-2.8c-2.4,0-4.4-2-4.4-4.4v-20.8c0-2.4,2-4.4,4.4-4.4h2.8V168.4z"/>
<g>
	<path style="fill:#54C0EB;" d="M196.4,143.6v19.6c-4.4-0.8-8-5.2-8-10C188.4,148.4,192,144.4,196.4,143.6z"/>
	<circle style="fill:#54C0EB;" cx="275.6" cy="132.4" r="14"/>
</g>
<circle style="fill:#84DBFF;" cx="275.6" cy="132.4" r="7.2"/>
<circle style="fill:#324A5E;" cx="275.6" cy="132.4" r="4.4"/>
<ellipse transform="matrix(0.7316 -0.6817 0.6817 0.7316 -14.9851 220.4847)" style="fill:#FFFFFF;" cx="272.533" cy="129.274" rx="2.4" ry="1.2"/>
<circle style="fill:#54C0EB;" cx="232.4" cy="132.4" r="14"/>
<circle style="fill:#84DBFF;" cx="232.4" cy="132.4" r="7.2"/>
<circle style="fill:#324A5E;" cx="232.4" cy="132.4" r="4.4"/>
<ellipse transform="matrix(0.7316 -0.6817 0.6817 0.7316 -26.525 191.2993)" style="fill:#FFFFFF;" cx="229.696" cy="129.338" rx="2.4" ry="1.2"/>
<rect x="225.2" y="183.2" style="fill:#324A5E;" width="57.2" height="10.8"/>
<path style="fill:#FFFFFF;" d="M319.2,194H188.8c-4.4,0-7.6,3.6-7.6,7.6v110c0,4.4,3.6,7.6,7.6,7.6h130.4c4.4,0,7.6-3.6,7.6-7.6  v-110C326.8,197.6,323.6,194,319.2,194z"/>
<path style="fill:#CED5E0;" d="M326.8,238.8h16.4c4,0,7.2-3.2,7.2-7.2v-22.4c0-4-3.2-7.2-7.2-7.2h-16.4V238.8z"/>
<circle style="fill:#FFFFFF;" cx="369.2" cy="284.8" r="15.2"/>
<path style="fill:#E6E9EE;" d="M191.2,356c-4.4-11.6-16-18.4-27.6-17.2l-18.8-53.2l26-57.6l-11.6-5.2l-26.8,60l6,2.8l-6,2l19.6,55.2  c-10.8,6.8-15.6,20.4-10.8,32.8c1.2,3.6,5.2,5.2,8.8,4s5.2-5.2,4-8.8c-2.8-7.2,0.8-15.2,8-17.6c7.2-2.8,15.2,0.8,17.6,8  c1.2,3.6,5.2,5.2,8.8,4C191.2,363.2,192.8,359.2,191.2,356z"/>
<path style="fill:#CED5E0;" d="M181.2,238.8h-16.4c-4,0-7.2-3.2-7.2-7.2v-22.4c0-4,3.2-7.2,7.2-7.2h16.4V238.8z"/>
<g>
	<circle style="fill:#FFFFFF;" cx="138.8" cy="284.8" r="15.2"/>
	<path style="fill:#FFFFFF;" d="M260.8,413.2v32.4c0,3.6,2.8,6.4,6.4,6.4h65.6c3.6,0,6.4-2.8,6.4-6.4v-14.4c0-2.8-2-5.6-4.8-6.4   l-65.6-18C264.8,406,260.8,409.2,260.8,413.2z"/>
	<path style="fill:#FFFFFF;" d="M247.2,413.2v32.4c0,3.6-2.8,6.4-6.4,6.4h-66c-3.6,0-6.4-2.8-6.4-6.4v-14.4c0-2.8,2-5.6,4.8-6.4   l65.6-18C243.2,406,247.2,409.2,247.2,413.2z"/>
</g>
<path style="fill:#CED5E0;" d="M278.4,100.8h-48.8v-5.6c0-2.8,2-4.8,4.8-4.8h38.8c2.8,0,4.8,2,4.8,4.8v5.6H278.4z"/>
<path style="fill:#FF7058;" d="M271.6,90.4H236V73.2c0-10,8-17.6,17.6-17.6l0,0c10,0,17.6,8,17.6,17.6v17.2H271.6z"/>
<ellipse transform="matrix(-0.7071 -0.7071 0.7071 -0.7071 373.3841 284.2214)" style="fill:#FFFFFF;" cx="245.556" cy="64.78" rx="2.8" ry="6"/>
<rect x="193.2" y="209.6" style="fill:#84DBFF;" width="121.6" height="78.4"/>
<polygon style="fill:#54C0EB;" points="210.4,277.2 200.8,254.8 193.2,254.8 193.2,250.8 203.2,250.8 210.4,266.8 219.2,246   224.4,246 232.4,227.2 249.2,266 260.4,239.6 269.6,260.8 287.2,220.4 299.2,248 314.8,248 314.8,252 296.4,252 287.2,230.4   269.6,271.2 260.4,249.6 249.2,276 232.4,237.6 226.8,250 222,250 "/>
<g>
</g>
<g>
</g>
<g>
</g>
<g>
</g>
<g>
</g>
<g>
</g>
<g>
</g>
<g>
</g>
<g>
</g>
<g>
</g>
<g>
</g>
<g>
</g>
<g>
</g>
<g>
</g>
<g>
</g>
</svg>
