<?xml version="1.0" encoding="iso-8859-1"?>
<!-- Generator: Adobe Illustrator 19.0.0, SVG Export Plug-In . SVG Version: 6.00 Build 0)  -->
<svg xmlns="http://www.w3.org/2000/svg" xmlns:xlink="http://www.w3.org/1999/xlink" version="1.1" id="Layer_1" x="0px" y="0px" viewBox="0 0 508 508" style="enable-background:new 0 0 508 508;" xml:space="preserve">
<circle style="fill:#324A5E;" cx="254" cy="254" r="254"/>
<path style="fill:#2B3B4E;" d="M94.8,451.6C138.4,486.8,193.6,508,254,508s115.6-21.2,159.2-56.4H94.8z"/>
<path style="fill:#FFFFFF;" d="M288,156.8h-68c-5.6,0-10-4.4-10-10V95.6c0-5.6,4.4-10,10-10h67.6c5.6,0,10,4.4,10,10v50.8  C298,152,293.6,156.8,288,156.8z"/>
<circle style="fill:#84DBFF;" cx="275.6" cy="109.2" r="12"/>
<circle style="fill:#54C0EB;" cx="275.6" cy="109.2" r="8"/>
<circle style="fill:#84DBFF;" cx="232.4" cy="109.2" r="12"/>
<circle style="fill:#54C0EB;" cx="232.4" cy="109.2" r="8"/>
<g>
	<path style="fill:#CED5E0;" d="M254,152.4L254,152.4c-1.2,0-2.4-1.2-2.4-2.4v-13.6c0-1.2,1.2-2.4,2.4-2.4l0,0   c1.2,0,2.4,1.2,2.4,2.4V150C256.4,151.6,255.2,152.4,254,152.4z"/>
	<path style="fill:#CED5E0;" d="M259.6,150.4L259.6,150.4c-1.2,0-2.4-1.2-2.4-2.4v-9.6c0-1.2,1.2-2.4,2.4-2.4l0,0   c1.2,0,2.4,1.2,2.4,2.4v9.6C262,149.2,261.2,150.4,259.6,150.4z"/>
	<path style="fill:#CED5E0;" d="M265.6,148.4L265.6,148.4c-1.2,0-2.4-1.2-2.4-2.4v-5.2c0-1.2,1.2-2.4,2.4-2.4l0,0   c1.2,0,2.4,1.2,2.4,2.4v5.2C268,147.2,266.8,148.4,265.6,148.4z"/>
	<path style="fill:#CED5E0;" d="M248.4,150.4L248.4,150.4c1.2,0,2.4-1.2,2.4-2.4v-9.6c0-1.2-1.2-2.4-2.4-2.4l0,0   c-1.2,0-2.4,1.2-2.4,2.4v9.6C246,149.2,246.8,150.4,248.4,150.4z"/>
	<path style="fill:#CED5E0;" d="M242.4,148.4L242.4,148.4c1.2,0,2.4-1.2,2.4-2.4v-5.2c0-1.2-1.2-2.4-2.4-2.4l0,0   c-1.2,0-2.4,1.2-2.4,2.4v5.2C240,147.2,241.2,148.4,242.4,148.4z"/>
</g>
<path style="fill:#ACB3BA;" d="M298,135.6h10.4c2,0,3.6-1.6,3.6-3.6v-21.6c0-2-1.6-3.6-3.6-3.6H298V135.6z"/>
<polygon style="fill:#CED5E0;" points="308,106.8 302,106.8 303.6,60.8 306.4,60.8 "/>
<g>
	<circle style="fill:#ACB3BA;" cx="304.8" cy="60" r="4.4"/>
	<path style="fill:#ACB3BA;" d="M210,135.6h-10.4c-2,0-3.6-1.6-3.6-3.6v-21.6c0-2,1.6-3.6,3.6-3.6H210V135.6z"/>
</g>
<polygon style="fill:#CED5E0;" points="200,106.8 206,106.8 204.4,60.8 201.6,60.8 "/>
<circle style="fill:#ACB3BA;" cx="203.2" cy="60" r="4.4"/>
<rect x="229.6" y="156.8" style="fill:#324A5E;" width="48.8" height="7.6"/>
<path style="fill:#FFFFFF;" d="M304.8,164.4H203.2c-4.8,0-8.4,4-8.4,8.4v108c0,4.8,4,8.4,8.4,8.4h101.6c4.8,0,8.4-4,8.4-8.4v-108  C313.2,168.4,309.6,164.4,304.8,164.4z"/>
<g>
	<rect x="329.2" y="210.4" style="fill:#4CDBC4;" width="10.4" height="76.4"/>
	<rect x="313.2" y="177.2" style="fill:#4CDBC4;" width="6.4" height="28"/>
</g>
<g>
	<path style="fill:#FFFFFF;" d="M320,210.4h24.4c2.4,0,4.4-2,4.4-4.4v-30c0-2.4-2-4.4-4.4-4.4H320V210.4z"/>
	<circle style="fill:#FFFFFF;" cx="334.4" cy="284" r="9.2"/>
	<path style="fill:#FFFFFF;" d="M348.8,310.4c0,12.4-6.4,22.4-14.8,22.4c-0.4,0-1.2,0-1.6,0c0.4-0.8,0.8-1.6,1.6-2.4   c6.8-13.2,4.4-21.2,0-23.6c-4-2-7.2,0-13.6,10.8c-0.4-2.4-0.8-4.8-0.8-7.2c0-12.4,6.4-22.4,14.8-22.4   C342.4,287.6,348.8,298,348.8,310.4z"/>
</g>
<g>
	<rect x="168.8" y="210.4" style="fill:#4CDBC4;" width="10.4" height="76.4"/>
	<rect x="188" y="177.2" style="fill:#4CDBC4;" width="6.4" height="28"/>
</g>
<g>
	<path style="fill:#FFFFFF;" d="M188,210.4h-24.4c-2.4,0-4.4-2-4.4-4.4v-30c0-2.4,2-4.4,4.4-4.4H188V210.4z"/>
	<circle style="fill:#FFFFFF;" cx="173.6" cy="284" r="9.2"/>
	<path style="fill:#FFFFFF;" d="M159.2,310.4c0,12.4,6.4,22.4,14.8,22.4c0.4,0,1.2,0,1.6,0c-0.4-0.8-0.8-1.6-1.6-2.4   c-6.8-13.2-4.4-21.2,0-23.6c4-2,7.2,0,13.6,10.8c0.4-2.4,0.8-4.8,0.8-7.2c0-12.4-6.4-22.4-14.8-22.4   C165.6,287.6,159.2,298,159.2,310.4z"/>
</g>
<rect x="205.6" y="289.6" style="fill:#4CDBC4;" width="96.8" height="12"/>
<path style="fill:#FFFFFF;" d="M298.8,336.4h-89.6c-6.4,0-11.6-5.2-11.6-11.6V302h113.2v22.8C310.4,331.2,305.2,336.4,298.8,336.4z"/>
<rect x="268.4" y="336.4" style="fill:#4CDBC4;" width="26.4" height="94"/>
<g>
	<path style="fill:#FFFFFF;" d="M296.8,430.4H268c-4.4,0-8,3.6-8,8v14h44.8v-14C304.8,434,301.2,430.4,296.8,430.4z"/>
	<path style="fill:#FFFFFF;" d="M296,396.4h-28.8c-2.4,0-4-2-4-4v-17.6c0-2.4,2-4,4-4H296c2.4,0,4,2,4,4v17.6   C300,394.4,298,396.4,296,396.4z"/>
</g>
<rect x="212" y="336.4" style="fill:#4CDBC4;" width="26.4" height="94"/>
<g>
	<path style="fill:#FFFFFF;" d="M240.4,430.4h-28.8c-4.4,0-8,3.6-8,8v14h44.8v-14C248,434,244.4,430.4,240.4,430.4z"/>
	<path style="fill:#FFFFFF;" d="M239.2,396.4h-28.8c-2.4,0-4-2-4-4v-17.6c0-2.4,2-4,4-4h28.8c2.4,0,4,2,4,4v17.6   C243.6,394.4,241.6,396.4,239.2,396.4z"/>
</g>
<g>
</g>
<g>
</g>
<g>
</g>
<g>
</g>
<g>
</g>
<g>
</g>
<g>
</g>
<g>
</g>
<g>
</g>
<g>
</g>
<g>
</g>
<g>
</g>
<g>
</g>
<g>
</g>
<g>
</g>
</svg>
