<?xml version="1.0" encoding="iso-8859-1"?>
<!-- Generator: Adobe Illustrator 19.0.0, SVG Export Plug-In . SVG Version: 6.00 Build 0)  -->
<svg xmlns="http://www.w3.org/2000/svg" xmlns:xlink="http://www.w3.org/1999/xlink" version="1.1" id="Layer_1" x="0px" y="0px" viewBox="0 0 508 508" style="enable-background:new 0 0 508 508;" xml:space="preserve">
<circle style="fill:#FFD05B;" cx="254" cy="254" r="254"/>
<path style="fill:#F9B54C;" d="M96.8,453.2C140,487.6,194.8,508,254,508s114-20.4,157.2-54.8H96.8z"/>
<polygon style="fill:#324A5E;" points="407.2,274.8 397.2,289.2 356.4,265.6 371.6,244 "/>
<path style="fill:#E6E9EE;" d="M352.8,230.8c-2.8,0-5.6,0.4-8,1.6V274c2.4,0.8,5.2,1.6,8,1.6c12.4,0,22.4-10,22.4-22.4  C375.2,240.8,365.2,230.8,352.8,230.8z"/>
<polygon style="fill:#324A5E;" points="415.2,356.8 404.4,356.8 397.6,282.8 414,282.8 "/>
<circle style="fill:#FFFFFF;" cx="408.8" cy="349.6" r="14"/>
<circle style="fill:#E6E9EE;" cx="408.8" cy="349.6" r="8"/>
<g>
	<path style="fill:#FFFFFF;" d="M411.2,384.4c-4.4,4.4-10,6.8-14.4,7.2c0.8-0.8,1.6-1.2,2.4-2c7.2-7.2,10.4-16,7.2-19.2   c-2.8-2.8-9.6-1.2-16.4,4c1.2-2.4,2.8-4.4,4.8-6.4c7.2-7.2,16.8-9.2,21.6-4.8C420.8,367.6,418.4,377.2,411.2,384.4z"/>
	<circle style="fill:#FFFFFF;" cx="404.4" cy="282.8" r="18"/>
</g>
<polygon style="fill:#324A5E;" points="100.8,274.8 110.8,289.2 151.6,265.6 136.4,244 "/>
<path style="fill:#E6E9EE;" d="M155.2,230.8c2.8,0,5.6,0.4,8,1.6V274c-2.4,0.8-5.2,1.6-8,1.6c-12.4,0-22.4-10-22.4-22.4  C132.8,240.8,142.8,230.8,155.2,230.8z"/>
<polygon style="fill:#324A5E;" points="92.8,356.8 103.6,356.8 110.4,282.8 94,282.8 "/>
<circle style="fill:#FFFFFF;" cx="99.2" cy="349.6" r="14"/>
<circle style="fill:#E6E9EE;" cx="99.2" cy="349.6" r="8"/>
<g>
	<path style="fill:#FFFFFF;" d="M96.8,384.4c4.4,4.4,10,6.8,14.4,7.2c-0.8-0.8-1.6-1.2-2.4-2c-7.2-7.2-10.4-16-7.2-19.2   c2.8-2.8,9.6-1.2,16.4,4c-1.2-2.4-2.8-4.4-4.8-6.4c-7.2-7.2-16.8-9.2-21.6-4.8C87.2,367.6,89.6,377.2,96.8,384.4z"/>
	<circle style="fill:#FFFFFF;" cx="103.6" cy="282.8" r="18"/>
</g>
<rect x="237.6" y="144.4" style="fill:#2B3B4E;" width="32.8" height="79.2"/>
<path style="fill:#E6E9EE;" d="M345.6,99.6c-2.4-22.8-21.2-41.6-44-44c-3.6-0.4-27.2,2-49.6,2.8c-22.4-0.8-46-3.2-49.6-2.8  c-22.8,2.4-41.6,21.2-44,44c-3.2,30.4,20.4,56,50,56c2.4,0,23.2-2.4,43.6-3.2c20.8,0.8,41.2,3.2,43.6,3.2  C325.2,155.6,348.8,130,345.6,99.6z"/>
<circle style="fill:#FFFFFF;" cx="296.4" cy="105.6" r="32.4"/>
<circle style="fill:#84DBFF;" cx="296.4" cy="105.6" r="16.4"/>
<circle style="fill:#324A5E;" cx="296.4" cy="105.6" r="9.6"/>
<g>

		<ellipse transform="matrix(0.7071 -0.7071 0.7071 0.7071 14.9455 234.7163)" style="fill:#FFFFFF;" cx="290.8" cy="99.317" rx="4" ry="2.8"/>
	<circle style="fill:#FFFFFF;" cx="208" cy="105.6" r="32.4"/>
</g>
<circle style="fill:#84DBFF;" cx="208" cy="105.6" r="16.4"/>
<circle style="fill:#324A5E;" cx="208" cy="105.6" r="9.6"/>
<ellipse transform="matrix(0.7071 -0.7071 0.7071 0.7071 -10.8703 171.9227)" style="fill:#FFFFFF;" cx="202.094" cy="99.083" rx="4" ry="2.8"/>
<g>
	<path style="fill:#324A5E;" d="M272.8,174h-37.2c-2,0-3.6-1.6-3.6-3.6v-9.2c0-2,1.6-3.6,3.6-3.6h37.2c2,0,3.6,1.6,3.6,3.6v9.2   C276.4,172.4,274.8,174,272.8,174z"/>
	<path style="fill:#324A5E;" d="M272.8,194.8h-37.2c-2,0-3.6-1.6-3.6-3.6V182c0-2,1.6-3.6,3.6-3.6h37.2c2,0,3.6,1.6,3.6,3.6v9.2   C276.4,193.2,274.8,194.8,272.8,194.8z"/>
	<path style="fill:#324A5E;" d="M272.8,215.6h-37.2c-2,0-3.6-1.6-3.6-3.6v-9.2c0-2,1.6-3.6,3.6-3.6h37.2c2,0,3.6,1.6,3.6,3.6v9.2   C276.4,214,274.8,215.6,272.8,215.6z"/>
</g>
<rect x="286.4" y="332" style="fill:#2B3B4E;" width="20.8" height="104.4"/>
<g>
	<path style="fill:#324A5E;" d="M307.2,365.2H286c-2,0-3.6-1.6-3.6-3.6v-17.2c0-2,1.6-3.6,3.6-3.6h21.2c2,0,3.6,1.6,3.6,3.6V362   C310.8,364,309.2,365.2,307.2,365.2z"/>
	<path style="fill:#324A5E;" d="M307.2,396H286c-2,0-3.6-1.6-3.6-3.6v-17.2c0-2,1.6-3.6,3.6-3.6h21.2c2,0,3.6,1.6,3.6,3.6v17.2   C310.8,394.4,309.2,396,307.2,396z"/>
	<path style="fill:#324A5E;" d="M307.2,426.4H286c-2,0-3.6-1.6-3.6-3.6v-17.2c0-2,1.6-3.6,3.6-3.6h21.2c2,0,3.6,1.6,3.6,3.6v17.2   C310.8,424.8,309.2,426.4,307.2,426.4z"/>
</g>
<rect x="201.2" y="332" style="fill:#2B3B4E;" width="20.8" height="104.4"/>
<g>
	<path style="fill:#324A5E;" d="M222,365.2h-21.2c-2,0-3.6-1.6-3.6-3.6v-17.2c0-2,1.6-3.6,3.6-3.6H222c2,0,3.6,1.6,3.6,3.6V362   C225.6,364,224,365.2,222,365.2z"/>
	<path style="fill:#324A5E;" d="M222,396h-21.2c-2,0-3.6-1.6-3.6-3.6v-17.2c0-2,1.6-3.6,3.6-3.6H222c2,0,3.6,1.6,3.6,3.6v17.2   C225.6,394.4,224,396,222,396z"/>
	<path style="fill:#324A5E;" d="M222,426.4h-21.2c-2,0-3.6-1.6-3.6-3.6v-17.2c0-2,1.6-3.6,3.6-3.6H222c2,0,3.6,1.6,3.6,3.6v17.2   C225.6,424.8,224,426.4,222,426.4z"/>
</g>
<path style="fill:#FFFFFF;" d="M329.6,223.6H178.4c-14.4,0-25.2,12.4-24,26.4l6,61.2c1.2,12.4,11.6,21.6,24,21.6h139.2  c12.4,0,22.8-9.2,24-21.6l6-61.2C355.2,235.6,344,223.6,329.6,223.6z"/>
<g>
	<path style="fill:#CED5E0;" d="M326,258.8H182c-4.8,0-9.2-4-9.2-9.2l0,0c0-4.8,4-9.2,9.2-9.2h144c4.8,0,9.2,4,9.2,9.2l0,0   C334.8,254.8,330.8,258.8,326,258.8z"/>
	<path style="fill:#CED5E0;" d="M326,287.2H182c-4.8,0-9.2-4-9.2-9.2l0,0c0-4.8,4-9.2,9.2-9.2h144c4.8,0,9.2,4,9.2,9.2l0,0   C334.8,283.2,330.8,287.2,326,287.2z"/>
	<path style="fill:#CED5E0;" d="M326,315.6H182c-4.8,0-9.2-4-9.2-9.2l0,0c0-4.8,4-9.2,9.2-9.2h144c4.8,0,9.2,4,9.2,9.2l0,0   C334.8,311.6,330.8,315.6,326,315.6z"/>
</g>
<g>
	<path style="fill:#FFFFFF;" d="M307.6,436.8h-22c-2.8,0-5.2,2.4-5.2,5.2v10.8h32.4V442C312.8,438.8,310.4,436.8,307.6,436.8z"/>
	<path style="fill:#FFFFFF;" d="M222.4,436.8h-22c-2.8,0-5.2,2.4-5.2,5.2v10.4h32.4V442C227.6,438.8,225.2,436.8,222.4,436.8z"/>
</g>
<g>
</g>
<g>
</g>
<g>
</g>
<g>
</g>
<g>
</g>
<g>
</g>
<g>
</g>
<g>
</g>
<g>
</g>
<g>
</g>
<g>
</g>
<g>
</g>
<g>
</g>
<g>
</g>
<g>
</g>
</svg>
