<?xml version="1.0" encoding="iso-8859-1"?>
<!-- Generator: Adobe Illustrator 19.0.0, SVG Export Plug-In . SVG Version: 6.00 Build 0)  -->
<svg xmlns="http://www.w3.org/2000/svg" xmlns:xlink="http://www.w3.org/1999/xlink" version="1.1" id="Layer_1" x="0px" y="0px" viewBox="0 0 508 508" style="enable-background:new 0 0 508 508;" xml:space="preserve">
<circle style="fill:#4CDBC4;" cx="254" cy="254" r="254"/>
<path style="fill:#2C9984;" d="M104.4,459.2C146.4,490,198,508,254,508s107.6-18,149.6-48.8H104.4z"/>
<g>
	<path style="fill:#FFFFFF;" d="M314.8,449.2L292,426.4c-2.4-2.4-6-2.4-8,0l-22.8,22.8c-3.6,3.6-1.2,10,4,10h45.6   C316,459.2,318.4,452.8,314.8,449.2z"/>
	<path style="fill:#FFFFFF;" d="M246.8,449.2L224,426.4c-2.4-2.4-6-2.4-8,0l-22.8,22.8c-3.6,3.6-1.2,10,4,10h45.6   C248,459.2,250.4,452.8,246.8,449.2z"/>
	<ellipse style="fill:#FFFFFF;" cx="288" cy="346" rx="24" ry="68.4"/>
	<ellipse style="fill:#FFFFFF;" cx="220" cy="346" rx="24" ry="68.4"/>
</g>
<rect x="240.8" y="156" style="fill:#CED5E0;" width="26.4" height="40.8"/>
<g>
	<circle style="fill:#324A5E;" cx="288" cy="275.6" r="17.6"/>
	<circle style="fill:#324A5E;" cx="220" cy="275.6" r="17.6"/>
	<circle style="fill:#324A5E;" cx="288" cy="419.2" r="17.6"/>
	<circle style="fill:#324A5E;" cx="220" cy="419.2" r="17.6"/>
	<polygon style="fill:#324A5E;" points="382,236 371.2,251.6 328,226 344,203.2  "/>
	<polygon style="fill:#324A5E;" points="390.4,323.6 378.8,323.6 372,244.4 389.2,244.4  "/>
</g>
<circle style="fill:#FFFFFF;" cx="383.6" cy="315.6" r="14.8"/>
<circle style="fill:#E6E9EE;" cx="383.6" cy="315.6" r="8.4"/>
<g>
	<path style="fill:#FFFFFF;" d="M386,352.8c-4.8,4.8-10.4,7.2-15.2,7.6c0.8-0.8,1.6-1.2,2.4-2c8-7.6,11.2-16.8,7.6-20.4   c-3.2-3.2-10.4-1.2-17.2,4.4c1.2-2.4,3.2-4.8,5.2-6.8c8-7.6,18-10,22.8-5.2C396.4,334.8,394,345.2,386,352.8z"/>
	<circle style="fill:#FFFFFF;" cx="378.8" cy="244.4" r="19.2"/>
</g>
<g>
	<polygon style="fill:#324A5E;" points="126,236 136.8,251.6 180,226 164,203.2  "/>
	<polygon style="fill:#324A5E;" points="117.6,323.6 129.2,323.6 136,244.4 118.8,244.4  "/>
</g>
<circle style="fill:#FFFFFF;" cx="124.4" cy="315.6" r="14.8"/>
<circle style="fill:#E6E9EE;" cx="124.4" cy="315.6" r="8.4"/>
<g>
	<path style="fill:#FFFFFF;" d="M121.6,352.8c4.8,4.8,10.4,7.2,15.2,7.6c-0.8-0.8-1.6-1.2-2.4-2c-8-7.6-11.2-16.8-7.6-20.4   c3.2-3.2,10.4-1.2,17.2,4.4c-1.2-2.4-3.2-4.8-5.2-6.8c-8-7.6-18-10-22.8-5.2C111.6,334.8,114,345.2,121.6,352.8z"/>
	<circle style="fill:#FFFFFF;" cx="129.2" cy="244.4" r="19.2"/>
	<path style="fill:#FFFFFF;" d="M325.2,189.2c-0.8,0-141.2,0-142,0c-12.4,0.4-22.8,10.8-22.8,23.6c0,13.2,10.4,23.6,23.6,23.6   c2.4,0,4.4-0.4,6.8-1.2l51.2,51.2c6.8,6.8,17.6,6.8,24.4,0l51.2-51.2c2,0.8,4.4,1.2,6.8,1.2c13.2,0,23.6-10.4,23.6-23.6   C347.6,200,337.6,189.6,325.2,189.2z"/>
</g>
<circle style="fill:#E6E9EE;" cx="254" cy="106.8" r="60.8"/>
<path style="fill:#FFFFFF;" d="M314.8,106.8c0,9.2-2,18-5.6,26c-9.6,20.8-30.8,35.2-55.2,35.2s-45.6-14.4-55.2-35.2  c-3.6-8-5.6-16.8-5.6-26c0-8.4,1.6-16.8,4.8-24c9.2-21.6,30.8-36.8,56-36.8s46.8,15.2,56,36.8C313.2,90.4,314.8,98.4,314.8,106.8z"/>
<path style="fill:#324A5E;" d="M314.8,106.8c0,9.2-2,18-5.6,26c-6.4,6-14.8,9.6-24.4,9.6c-13.6,0-25.2-7.6-30.8-18.4  c-6,11.2-17.6,18.4-30.8,18.4c-9.6,0-18-3.6-24.4-9.6c-3.6-8-5.6-16.8-5.6-26c0-8.4,1.6-16.8,4.8-24c6.4-6.4,15.2-10.4,25.2-10.4  c13.6,0,25.2,7.6,30.8,18.4c6-11.2,17.6-18.4,30.8-18.4c10,0,18.8,4,25.2,10.4C313.2,90.4,314.8,98.4,314.8,106.8z"/>
<circle style="fill:#84DBFF;" cx="287.6" cy="107.6" r="16.8"/>
<path style="fill:#54C0EB;" d="M304.8,107.6c0,9.2-7.6,16.8-16.8,16.8c-4,0-7.6-1.2-10.4-3.6c6.4,2,14,0.4,19.2-4.8  c5.2-5.2,6.8-12.8,4.8-19.2C303.2,100,304.8,103.6,304.8,107.6z"/>
<ellipse transform="matrix(0.7072 -0.707 0.707 0.7072 10.268 228.95)" style="fill:#FFFFFF;" cx="281.556" cy="102.078" rx="4.8" ry="2.8"/>
<circle style="fill:#84DBFF;" cx="220.4" cy="107.6" r="16.8"/>
<path style="fill:#54C0EB;" d="M237.2,107.6c0,9.2-7.6,16.8-16.8,16.8c-4,0-7.6-1.2-10.4-3.6c6.4,2,14,0.4,19.2-4.8  c5.2-5.2,6.8-12.8,4.8-19.2C236,100,237.2,103.6,237.2,107.6z"/>
<ellipse transform="matrix(0.7072 -0.707 0.707 0.7072 -9.4187 181.1512)" style="fill:#FFFFFF;" cx="214.003" cy="101.947" rx="4.8" ry="2.8"/>
<g>
</g>
<g>
</g>
<g>
</g>
<g>
</g>
<g>
</g>
<g>
</g>
<g>
</g>
<g>
</g>
<g>
</g>
<g>
</g>
<g>
</g>
<g>
</g>
<g>
</g>
<g>
</g>
<g>
</g>
</svg>
