<?xml version="1.0" encoding="iso-8859-1"?>
<!-- Generator: Adobe Illustrator 19.0.0, SVG Export Plug-In . SVG Version: 6.00 Build 0)  -->
<svg xmlns="http://www.w3.org/2000/svg" xmlns:xlink="http://www.w3.org/1999/xlink" version="1.1" id="Layer_1" x="0px" y="0px" viewBox="0 0 508 508" style="enable-background:new 0 0 508 508;" xml:space="preserve">
<circle style="fill:#324A5E;" cx="254" cy="254" r="254"/>
<rect x="242.4" y="158" style="fill:#CED5E0;" width="22.8" height="20"/>
<circle style="fill:#FFFFFF;" cx="254" cy="108.8" r="53.2"/>
<path style="fill:#2B3B4E;" d="M96.4,453.2c43.2,34.4,98,54.8,157.6,54.8s114.4-20.4,157.6-54.8H96.4z"/>
<g>
	<path style="fill:#FFFFFF;" d="M307.2,444l-20-20c-2-2-5.2-2-7.2,0l-20,20c-3.2,3.2-0.8,8.8,3.6,8.8h40   C308,452.4,310.4,447.2,307.2,444z"/>
	<path style="fill:#FFFFFF;" d="M247.6,444l-20-20c-2-2-5.2-2-7.2,0l-20,20c-3.2,3.2-0.8,8.8,3.6,8.8h40   C248.8,452.4,250.8,447.2,247.6,444z"/>
	<ellipse style="fill:#FFFFFF;" cx="283.6" cy="353.6" rx="21.2" ry="59.6"/>
	<ellipse style="fill:#FFFFFF;" cx="224.4" cy="353.6" rx="21.2" ry="59.6"/>
</g>
<g>
	<circle style="fill:#E6E9EE;" cx="283.6" cy="292" r="15.2"/>
	<circle style="fill:#E6E9EE;" cx="224.4" cy="292" r="15.2"/>
	<circle style="fill:#E6E9EE;" cx="283.6" cy="417.6" r="15.2"/>
	<circle style="fill:#E6E9EE;" cx="224.4" cy="417.6" r="15.2"/>
</g>
<polygon style="fill:#CED5E0;" points="366,216 356.4,229.2 318.4,207.2 332.8,187.2 "/>
<path style="fill:#E6E9EE;" d="M315.2,175.2c-2.8,0-5.2,0.4-7.2,1.2v38.4c2.4,0.8,4.8,1.2,7.2,1.2c11.6,0,20.8-9.2,20.8-20.8  C336,184.4,326.8,175.2,315.2,175.2z"/>
<polygon style="fill:#CED5E0;" points="373.2,292.4 363.2,292.4 357.2,223.2 372.4,223.2 "/>
<circle style="fill:#FFFFFF;" cx="367.2" cy="285.6" r="12.8"/>
<circle style="fill:#324A5E;" cx="367.2" cy="285.6" r="7.2"/>
<g>
	<path style="fill:#FFFFFF;" d="M369.6,318c-4,4-9.2,6.4-13.2,6.8c0.8-0.4,1.2-1.2,2-2c6.8-6.8,10-14.8,6.8-18   c-2.8-2.8-9.2-1.2-15.2,3.6c1.2-2,2.8-4,4.4-6c6.8-6.8,16-8.8,20-4.4C378.4,302.4,376.4,311.2,369.6,318z"/>
	<circle style="fill:#FFFFFF;" cx="363.2" cy="223.2" r="16.8"/>
</g>
<polygon style="fill:#CED5E0;" points="142,216 151.6,229.2 189.6,207.2 175.2,187.2 "/>
<path style="fill:#E6E9EE;" d="M192.8,175.2c2.8,0,5.2,0.4,7.2,1.2v38.4c-2.4,0.8-4.8,1.2-7.2,1.2c-11.6,0-20.8-9.2-20.8-20.8  C172,184.4,181.2,175.2,192.8,175.2z"/>
<polygon style="fill:#CED5E0;" points="134.8,292.4 144.8,292.4 150.8,223.2 135.6,223.2 "/>
<circle style="fill:#FFFFFF;" cx="140.8" cy="285.6" r="12.8"/>
<circle style="fill:#324A5E;" cx="140.8" cy="285.6" r="7.2"/>
<g>
	<path style="fill:#FFFFFF;" d="M138.4,318c4,4,9.2,6.4,13.2,6.8c-0.8-0.4-1.2-1.2-2-2c-6.8-6.8-10-14.8-6.8-18   c2.8-2.8,9.2-1.2,15.2,3.6c-1.2-2-2.8-4-4.4-6c-6.8-6.8-16-8.8-20-4.4C129.6,302.4,131.6,311.2,138.4,318z"/>
	<circle style="fill:#FFFFFF;" cx="144.8" cy="223.2" r="16.8"/>
	<path style="fill:#FFFFFF;" d="M298,251.6c12.8-18,20.8-40.8,20.8-58.4c0-33.6-28.8-18.8-64.4-18.8S190,159.2,190,193.2   c0,17.6,8,40.8,20.8,58.4c-5.6,3.2-9.6,10-9.6,18c0,11.2,7.6,20,16.8,20h72.8c9.2,0,16.8-8.8,16.8-20   C307.2,261.6,303.6,254.8,298,251.6z"/>
</g>
<g>
	<path style="fill:#E6E9EE;" d="M224.8,208.4h58.4c3.6,0,6.4-2.8,6.4-6.4c0-3.6-2.8-6.4-6.4-6.4h-58.4c-3.6,0-6.4,2.8-6.4,6.4   C218.4,205.6,221.2,208.4,224.8,208.4z"/>
	<path style="fill:#E6E9EE;" d="M283.2,216.8h-58.4c-3.6,0-6.4,2.8-6.4,6.4c0,3.6,2.8,6.4,6.4,6.4h58.4c3.6,0,6.4-2.8,6.4-6.4   C289.6,220,286.8,216.8,283.2,216.8z"/>
	<path style="fill:#E6E9EE;" d="M283.2,238.4h-58.4c-3.6,0-6.4,2.8-6.4,6.4c0,3.6,2.8,6.4,6.4,6.4h58.4c3.6,0,6.4-2.8,6.4-6.4   S286.8,238.4,283.2,238.4z"/>
</g>
<ellipse style="fill:#84DBFF;" cx="254" cy="108.8" rx="43.6" ry="23.2"/>
<path style="fill:#54C0EB;" d="M297.6,108.8c0,12.8-19.6,23.2-43.6,23.2c-12,0-22.8-2.4-30.4-6.8c4.8,0.8,10.4,1.6,16,1.6  c26,0,47.2-11.2,47.2-25.2c0-4-1.6-7.6-4.8-11.2C291.2,94.8,297.6,101.6,297.6,108.8z"/>
<g>
</g>
<g>
</g>
<g>
</g>
<g>
</g>
<g>
</g>
<g>
</g>
<g>
</g>
<g>
</g>
<g>
</g>
<g>
</g>
<g>
</g>
<g>
</g>
<g>
</g>
<g>
</g>
<g>
</g>
</svg>
