<?xml version="1.0" encoding="iso-8859-1"?>
<!-- Generator: Adobe Illustrator 19.0.0, SVG Export Plug-In . SVG Version: 6.00 Build 0)  -->
<svg xmlns="http://www.w3.org/2000/svg" xmlns:xlink="http://www.w3.org/1999/xlink" version="1.1" id="Layer_1" x="0px" y="0px" viewBox="0 0 508 508" style="enable-background:new 0 0 508 508;" xml:space="preserve">
<circle style="fill:#324A5E;" cx="254" cy="254" r="254"/>
<path style="fill:#2B3B4E;" d="M94.4,451.6C138,486.8,193.6,508,254,508s116-21.2,159.6-56.4H94.4z"/>
<g>
	<polygon style="fill:#CED5E0;" points="402.4,210.8 386,233.6 321.2,195.6 345.6,161.6  "/>
	<polygon style="fill:#CED5E0;" points="415.2,341.6 398,341.6 387.6,223.2 413.6,223.2  "/>
</g>
<circle style="fill:#FFFFFF;" cx="404.8" cy="330" r="22"/>
<circle style="fill:#CED5E0;" cx="404.8" cy="330" r="12.4"/>
<g>
	<path style="fill:#FFFFFF;" d="M408.8,385.6c-7.2,7.2-15.6,11.2-22.8,11.6c1.2-1.2,2.4-2,3.6-3.2c11.6-11.6,16.8-25.2,11.6-30.8   c-4.8-4.8-15.6-1.6-26,6.4c2-3.6,4.4-7.2,8-10.4c11.6-11.6,27.2-14.8,34.4-7.6C424.4,358.8,420.8,374.4,408.8,385.6z"/>
	<circle style="fill:#FFFFFF;" cx="398" cy="223.2" r="28.8"/>
</g>
<g>
	<polygon style="fill:#CED5E0;" points="105.6,210.8 122,233.6 186.8,195.6 162.4,161.6  "/>
	<polygon style="fill:#CED5E0;" points="92.8,341.6 110,341.6 120.4,223.2 94.4,223.2  "/>
</g>
<circle style="fill:#FFFFFF;" cx="103.2" cy="330" r="22"/>
<circle style="fill:#CED5E0;" cx="103.2" cy="330" r="12.4"/>
<g>
	<path style="fill:#FFFFFF;" d="M99.2,385.6c7.2,7.2,15.6,11.2,22.8,11.6c-1.2-1.2-2.4-2-3.6-3.2c-11.6-11.6-16.8-25.2-11.6-30.8   c4.8-4.8,15.6-1.6,26,6.4c-2-3.6-4.4-7.2-8-10.4c-11.6-11.6-27.2-14.8-34.4-7.6C83.6,358.8,87.2,374.4,99.2,385.6z"/>
	<circle style="fill:#FFFFFF;" cx="110" cy="223.2" r="28.8"/>
	<path style="fill:#FFFFFF;" d="M351.2,176c0-19.6-16-35.6-35.6-35.6c-0.8,0-122.8,0-123.2,0c-19.6,0-35.6,16-35.6,35.6   c0,15.2,10,28.4,23.6,33.2l15.2,90c2,11.2,11.6,19.2,22.8,19.2h70.8c11.2,0,20.8-8,22.8-19.2l15.2-90   C341.2,204.4,351.2,191.2,351.2,176z"/>
</g>
<path style="fill:#84DBFF;" d="M296.8,140.4h-85.6v-42c0-23.6,19.2-42.8,42.8-42.8l0,0c23.6,0,42.8,19.2,42.8,42.8V140.4z"/>
<rect x="272.4" y="326" style="fill:#FFFFFF;" width="15.6" height="108.8"/>
<circle style="fill:#E6E9EE;" cx="280" cy="314.4" r="21.6"/>
<circle style="fill:#CED5E0;" cx="280" cy="314.4" r="12"/>
<rect x="220" y="326" style="fill:#FFFFFF;" width="15.6" height="108.8"/>
<circle style="fill:#E6E9EE;" cx="228" cy="314.4" r="21.6"/>
<circle style="fill:#CED5E0;" cx="228" cy="314.4" r="12"/>
<g>
	<path style="fill:#84DBFF;" d="M341.2,452.4c-2-20-18.8-35.2-39.2-35.2c-20.4,0-37.2,15.6-39.2,35.2H341.2z"/>
	<path style="fill:#84DBFF;" d="M244.8,452.4c-2-20-18.8-35.2-39.2-35.2s-37.2,15.6-39.2,35.2H244.8z"/>
</g>
<path style="fill:#FFFFFF;" d="M271.6,76c-3.2-0.8-6-0.4-8.8,0.4c-6,1.6-12,1.6-18,0c-2.8-0.8-5.6-0.8-8.8-0.4  c-6.4,1.2-11.6,6.4-12.8,12.8c-2.4,11.2,6,21.2,16.8,21.2c2,0,4.4-0.4,6-1.2c5.2-2,10.4-2,15.6,0c2,0.8,4,1.2,6,1.2  c10.8,0,19.2-10,16.8-21.2C283.2,82.4,278,77.2,271.6,76z"/>
<g>
	<circle style="fill:#FF7058;" cx="269.2" cy="92.4" r="9.6"/>
	<circle style="fill:#FF7058;" cx="238.8" cy="92.4" r="9.6"/>
</g>
<g>
</g>
<g>
</g>
<g>
</g>
<g>
</g>
<g>
</g>
<g>
</g>
<g>
</g>
<g>
</g>
<g>
</g>
<g>
</g>
<g>
</g>
<g>
</g>
<g>
</g>
<g>
</g>
<g>
</g>
</svg>
