<?xml version="1.0" encoding="iso-8859-1"?>
<!-- Generator: Adobe Illustrator 19.0.0, SVG Export Plug-In . SVG Version: 6.00 Build 0)  -->
<svg xmlns="http://www.w3.org/2000/svg" xmlns:xlink="http://www.w3.org/1999/xlink" version="1.1" id="Layer_1" x="0px" y="0px" viewBox="0 0 508 508" style="enable-background:new 0 0 508 508;" xml:space="preserve">
<circle style="fill:#90DFAA;" cx="254" cy="254" r="254"/>
<path style="fill:#2C9984;" d="M98,454.4C141.2,488,195.2,508,254,508s112.8-20,156-53.6H98z"/>
<path style="fill:#324A5E;" d="M390.8,286.4L319.6,248v22.4l46.4,25.2l-16.8,42.8c-12.8-1.2-26,5.6-31.2,18c-2,4.4,0,9.6,4.4,11.6  s9.6,0,11.6-4.4c2.8-6.4,10.4-9.6,17.2-6.8c6.4,2.8,9.6,10.4,6.8,17.2c-2,4.4,0,9.6,4.4,11.6s9.6,0,11.6-4.4c5.2-12,2-25.6-6.8-34.4  L390.8,286.4z"/>
<circle style="fill:#FFFFFF;" cx="378.4" cy="291.2" r="20.4"/>
<path style="fill:#324A5E;" d="M117.2,286.4l71.2-38.4v22.4L142,295.6l16.8,42.8c12.8-1.2,26,5.6,31.2,18c2,4.4,0,9.6-4.4,11.6  s-9.6,0-11.6-4.4c-2.8-6.4-10.4-9.6-17.2-6.8c-6.8,2.8-9.6,10.4-6.8,17.2c2,4.4,0,9.6-4.4,11.6s-9.6,0-11.6-4.4  c-5.2-12-2-25.6,6.8-34.4L117.2,286.4z"/>
<g>
	<circle style="fill:#FFFFFF;" cx="129.6" cy="291.2" r="20.4"/>
	<path style="fill:#FFFFFF;" d="M324.8,185.2H183.2c-8.8,0-16-7.2-16-16v-96c0-8.8,7.2-16,16-16h142c8.8,0,16,7.2,16,16v96   C340.8,178.4,333.6,185.2,324.8,185.2z"/>
	<path style="fill:#FFFFFF;" d="M304,233.2v165.2c0,7.2-5.6,12.8-12.8,12.8h-2c-3.2-16.4-17.6-28.8-35.2-28.8   c-17.2,0-32,12.4-35.2,28.8h-2c-7.2,0-12.8-5.6-12.8-12.8V233.2c0-7.2,5.6-12.8,12.8-12.8h74.4C298.4,220.4,304,226,304,233.2z"/>
</g>
<path style="fill:#324A5E;" d="M340.8,82v59.2c10.4,2.4,20.4-5.6,20.4-16V98.4C361.2,87.6,351.2,79.6,340.8,82z"/>
<path style="fill:#2B3B4E;" d="M361.2,98.4v26.4c6.4-0.8,11.6-6.4,11.6-13.2C372.8,104.8,367.6,99.2,361.2,98.4z"/>
<path style="fill:#324A5E;" d="M167.2,82v59.2c-10.4,2.4-20.4-5.6-20.4-16V98.4C146.8,87.6,156.8,79.6,167.2,82z"/>
<path style="fill:#2B3B4E;" d="M146.8,98.4v26.4c-6.4-0.8-11.6-6.4-11.6-13.2C135.2,104.8,140.4,99.2,146.8,98.4z"/>
<circle style="fill:#324A5E;" cx="254" cy="418.4" r="36"/>
<g>
	<circle style="fill:#E6E9EE;" cx="254" cy="418.4" r="13.6"/>
	<path style="fill:#E6E9EE;" d="M304,234.8v48.4c8.4,2,16.4-4.4,16.4-13.2v-22C320.8,239.6,312.8,233.2,304,234.8z"/>
	<path style="fill:#E6E9EE;" d="M204,234.8v48.4c-8.4,2-16.4-4.4-16.4-13.2v-22C187.2,239.6,195.2,233.2,204,234.8z"/>
</g>
<rect x="219.6" y="185.2" style="fill:#324A5E;" width="69.2" height="35.2"/>
<circle style="fill:#E6E9EE;" cx="294.8" cy="104.4" r="28"/>
<circle style="fill:#54C0EB;" cx="294.8" cy="104.4" r="17.2"/>
<ellipse transform="matrix(-0.7337 -0.6794 0.6794 -0.7337 433.2701 366.6448)" style="fill:#FFFFFF;" cx="288.477" cy="98.425" rx="3.2" ry="8.4"/>
<circle style="fill:#E6E9EE;" cx="213.2" cy="104.4" r="28"/>
<circle style="fill:#54C0EB;" cx="213.2" cy="104.4" r="17.2"/>
<ellipse transform="matrix(-0.7337 -0.6794 0.6794 -0.7337 291.8057 311.1861)" style="fill:#FFFFFF;" cx="206.878" cy="98.415" rx="3.2" ry="8.4"/>
<g>
</g>
<g>
</g>
<g>
</g>
<g>
</g>
<g>
</g>
<g>
</g>
<g>
</g>
<g>
</g>
<g>
</g>
<g>
</g>
<g>
</g>
<g>
</g>
<g>
</g>
<g>
</g>
<g>
</g>
</svg>
