<?xml version="1.0" encoding="iso-8859-1"?>
<!-- Generator: Adobe Illustrator 19.0.0, SVG Export Plug-In . SVG Version: 6.00 Build 0)  -->
<svg xmlns="http://www.w3.org/2000/svg" xmlns:xlink="http://www.w3.org/1999/xlink" version="1.1" id="Layer_1" x="0px" y="0px" viewBox="0 0 508 508" style="enable-background:new 0 0 508 508;" xml:space="preserve">
<circle style="fill:#54C0EB;" cx="254" cy="254" r="254"/>
<path style="fill:#84DBFF;" d="M94.4,451.6C138,486.8,193.6,508,254,508s116-21.2,159.6-56.4H94.4z"/>
<g>
	<rect x="292" y="366.4" style="fill:#324A5E;" width="7.2" height="62.8"/>
	<rect x="278.8" y="366.4" style="fill:#324A5E;" width="7.2" height="62.8"/>
</g>
<path style="fill:#E6E9EE;" d="M316,351.6h-53.6c2.4,12.4,13.6,22,26.8,22S313.6,364,316,351.6z"/>
<path style="fill:#FFFFFF;" d="M262.4,452.4h82c-3.6-19.2-20.8-33.6-40.8-33.6C282.8,418.8,266,433.2,262.4,452.4z"/>
<g>
	<rect x="222" y="366.4" style="fill:#324A5E;" width="7.2" height="62.8"/>
	<rect x="208.8" y="366.4" style="fill:#324A5E;" width="7.2" height="62.8"/>
</g>
<path style="fill:#E6E9EE;" d="M192.4,351.6H246c-2.4,12.4-13.6,22-26.8,22C205.6,373.6,194.8,364,192.4,351.6z"/>
<path style="fill:#FFFFFF;" d="M246,452.4h-82c3.6-19.2,20.8-33.6,40.8-33.6S242,433.2,246,452.4z"/>
<g>
	<path style="fill:#E6E9EE;" d="M328.8,111.2c-4.4,0-8.8,1.2-12.4,2.8v50.8c3.6,2,8,2.8,12.4,2.8c15.6,0,28.4-12.8,28.4-28.4   C357.2,123.6,344.4,111.2,328.8,111.2z"/>
	<path style="fill:#E6E9EE;" d="M179.2,111.2c4.4,0,8.8,1.2,12.4,2.8v50.8c-3.6,2-8,2.8-12.4,2.8c-15.6,0-28.4-12.8-28.4-28.4   C150.8,123.6,163.6,111.2,179.2,111.2z"/>
</g>
<rect x="273.264" y="84.405" transform="matrix(-0.492 0.8706 -0.8706 -0.492 520.8047 -129.0853)" style="fill:#324A5E;" width="49.6" height="6"/>
<circle style="fill:#E6E9EE;" cx="310.4" cy="66" r="10.4"/>
<rect x="185.356" y="84.408" transform="matrix(0.492 0.8706 -0.8706 0.492 182.8566 -138.5573)" style="fill:#324A5E;" width="49.6" height="6"/>
<circle style="fill:#E6E9EE;" cx="197.6" cy="66" r="10.4"/>
<g>
	<path style="fill:#FFFFFF;" d="M324.4,353.6H183.6c-6,0-10.8-4.8-10.8-10.8V213.2c0-6,4.8-10.8,10.8-10.8H324   c6,0,10.8,4.8,10.8,10.8v129.6C335.2,348.8,330.4,353.6,324.4,353.6z"/>
	<ellipse style="fill:#FFFFFF;" cx="254" cy="139.2" rx="72.4" ry="49.6"/>
</g>
<g>
	<circle style="fill:#84DBFF;" cx="284" cy="127.6" r="12"/>
	<circle style="fill:#84DBFF;" cx="224" cy="127.6" r="12"/>
</g>
<g>
	<path style="fill:#324A5E;" d="M382,355.2c-0.8,0-2-0.4-2.4-1.2l-12.4-12.4c-1.6-1.6-1.6-3.6,0-5.2l24.4-24.4   c1.6-1.6,3.6-1.6,5.2,0l24.4,24.4c1.6,1.6,1.6,3.6,0,5.2L408.8,354c-1.6,1.6-3.6,1.6-5.2,0s-1.6-3.6,0-5.2l9.6-9.6L394,320   l-19.2,19.2l9.6,9.6c1.6,1.6,1.6,3.6,0,5.2C384,354.8,382.8,355.2,382,355.2z"/>
	<rect x="352.4" y="231.2" style="fill:#324A5E;" width="31.6" height="7.2"/>
	<rect x="352.4" y="244" style="fill:#324A5E;" width="31.6" height="7.2"/>
	<rect x="384" y="251.2" style="fill:#324A5E;" width="7.2" height="53.2"/>
	<rect x="396.8" y="251.2" style="fill:#324A5E;" width="7.2" height="53.2"/>
</g>
<path style="fill:#E6E9EE;" d="M335.2,214.4V268c12.4-2.4,22-13.6,22-26.8S347.6,216.8,335.2,214.4z"/>
<g>
	<circle style="fill:#FFFFFF;" cx="394" cy="241.2" r="16"/>
	<circle style="fill:#FFFFFF;" cx="394" cy="314.8" r="16"/>
</g>
<g>
	<path style="fill:#324A5E;" d="M126,355.2c-0.8,0-2-0.4-2.4-1.2c-1.6-1.6-1.6-3.6,0-5.2l9.6-9.6L114,320l-19.2,19.2l9.6,9.6   c1.6,1.6,1.6,3.6,0,5.2s-3.6,1.6-5.2,0l-12.4-12.4c-1.6-1.6-1.6-3.6,0-5.2l24.4-24.4c1.6-1.6,3.6-1.6,5.2,0l24.4,24.4   c1.6,1.6,1.6,3.6,0,5.2l-12,12.4C128,354.8,126.8,355.2,126,355.2z"/>
	<rect x="122.8" y="231.2" style="fill:#324A5E;" width="33.6" height="7.2"/>
	<rect x="122.8" y="244" style="fill:#324A5E;" width="33.6" height="7.2"/>
	<rect x="116.8" y="251.2" style="fill:#324A5E;" width="7.2" height="53.2"/>
	<rect x="103.6" y="251.2" style="fill:#324A5E;" width="7.2" height="53.2"/>
</g>
<path style="fill:#E6E9EE;" d="M172.8,214.4V268c-12.4-2.4-22-13.6-22-26.8S160.4,216.8,172.8,214.4z"/>
<g>
	<circle style="fill:#FFFFFF;" cx="114" cy="241.2" r="16"/>
	<circle style="fill:#FFFFFF;" cx="114" cy="314.8" r="16"/>
</g>
<path style="fill:#FFD05B;" d="M308,271.6c-3.2-26.8-26-48-54-48s-50.8,20.8-54,48H308z"/>
<g>
</g>
<g>
</g>
<g>
</g>
<g>
</g>
<g>
</g>
<g>
</g>
<g>
</g>
<g>
</g>
<g>
</g>
<g>
</g>
<g>
</g>
<g>
</g>
<g>
</g>
<g>
</g>
<g>
</g>
</svg>
