<?xml version="1.0" encoding="iso-8859-1"?>
<!-- Generator: Adobe Illustrator 19.0.0, SVG Export Plug-In . SVG Version: 6.00 Build 0)  -->
<svg xmlns="http://www.w3.org/2000/svg" xmlns:xlink="http://www.w3.org/1999/xlink" version="1.1" id="Layer_1" x="0px" y="0px" viewBox="0 0 508 508" style="enable-background:new 0 0 508 508;" xml:space="preserve">
<circle style="fill:#FD8469;" cx="254" cy="254" r="254"/>
<g>
	<rect x="274.4" y="326.8" style="fill:#2B3B4E;" width="18.4" height="62.8"/>
	<rect x="215.2" y="326.8" style="fill:#2B3B4E;" width="18.4" height="62.8"/>
	<path style="fill:#2B3B4E;" d="M391.2,264.4c-3.2-36.4-12.4-57.6-20.8-69.6h-10.8v18.4c5.2,10.4,10.4,26.4,12.8,51.2H391.2z"/>
	<path style="fill:#2B3B4E;" d="M135.6,264.4c2-23.6,7.2-39.2,12-49.6v-20h-10c-8.4,12-17.6,33.2-20.8,69.6H135.6z"/>
</g>
<path style="fill:#F1543F;" d="M94.8,452c43.6,35.2,98.8,56,159.2,56s115.6-21.2,159.2-56H94.8z"/>
<path style="fill:#E6E9EE;" d="M314.4,416c-0.8,30.4-12.8,31.2-27.6,30.8c-14.8-0.4-26.8-2-25.6-32.4c0.4-8.4,1.6-18.4,3.6-28  c18.4-9.2,30-24.8,36.8-39.2C309.6,362.8,314.8,394,314.4,416z"/>
<path style="fill:#324A5E;" d="M332.8,452.4c-3.6-16.8-18.4-29.6-36-29.6c-18,0-32.8,12.8-36,29.6H332.8z"/>
<path style="fill:#E6E9EE;" d="M193.6,416c0.8,30.4,12.8,31.2,27.6,30.8c14.8-0.4,26.8-2,25.6-32.4c-0.4-8.4-1.6-18.4-3.6-28  c-18.4-9.2-30-24.8-36.8-39.2C198.4,362.8,193.2,394,193.6,416z"/>
<g>
	<path style="fill:#324A5E;" d="M175.2,452.4c3.6-16.8,18.4-29.6,36-29.6c18,0,32.8,12.8,36,29.6H175.2z"/>
	<path style="fill:#324A5E;" d="M395.2,329.2c0,0,9.6,24.4-9.2,42.8c-6.8,6.8-18.8,2.8-19.6-6.8c-0.4-4.4-0.4-8.8,0.4-12.4   c0,0-0.8,2-2,4.4c-4,8.4-16.8,4.4-15.2-4.8c1.6-8.8,6-19.6,16.4-29.2L395.2,329.2z"/>
</g>
<path style="fill:#E6E9EE;" d="M410,299.6c0,35.2-12.4,36.4-27.2,36.4c-15.2,0-27.2-1.6-27.2-36.4c0-9.6,0.8-21.2,2.8-32.4  c18.4-11.2,29.6-29.6,36.4-46.4C403.6,238.8,410,274.4,410,299.6z"/>
<path style="fill:#324A5E;" d="M112.8,329.2c0,0-9.6,24.4,9.2,42.8c6.8,6.8,18.8,2.8,19.6-6.8c0.4-4.4,0.4-8.8-0.4-12.4  c0,0,0.8,2,2,4.4c4,8.4,16.8,4.4,15.2-4.8c-1.6-8.8-6-19.6-16.4-29.2L112.8,329.2z"/>
<g>
	<path style="fill:#E6E9EE;" d="M98,299.6c0,35.2,12.4,36.4,27.2,36.4c15.2,0,27.2-1.6,27.2-36.4c0-9.6-0.8-21.2-2.8-32.4   c-18.4-11.2-29.6-29.6-36.4-46.4C104.4,238.8,98,274.4,98,299.6z"/>
	<path style="fill:#E6E9EE;" d="M358,157.6c-8.8-3.2-18.8-0.8-26.8,5.6l0,0c-20.8,12.4-47.6,20-77.2,20c-29.2,0-56.4-7.6-77.2-20   l0,0c-8-6.4-18-9.2-26.8-5.6c-14.8,5.6-21.2,26-13.6,45.2c6.8,17.6,22.4,28.4,36.4,25.6C177.6,297.2,212,350,254,350   s76.4-52.8,81.6-121.6c14,2.4,29.6-8,36.4-25.6C379.2,183.6,372.8,163.2,358,157.6z"/>
	<circle style="fill:#E6E9EE;" cx="254" cy="106.8" r="62.4"/>
</g>
<path style="fill:#FFFFFF;" d="M316.4,106.8c0,34.4-28,62-62.4,62s-62.4-28-62.4-62c0-1.6,0-3.6,0.4-5.2c2.8-32,29.2-56.8,62-56.8  c32.4,0,59.2,25.2,62,56.8C316,103.6,316.4,105.2,316.4,106.8z"/>
<g>
	<path style="fill:#E6E9EE;" d="M316,101.6L302.4,88c-8.8-8.8-23.2-8.8-32.4,0l0,0c-8.8,8.8-23.2,8.8-32.4,0l0,0   c-8.8-8.8-23.2-8.8-32,0L192,101.6c2.8-32,29.2-56.8,62-56.8C286.4,44.8,313.2,69.6,316,101.6z"/>
	<path style="fill:#E6E9EE;" d="M290,157.6c-10,7.2-22.8,11.6-36,11.6c-13.6,0-26-4.4-36-11.6C240,144.8,267.6,144.8,290,157.6z"/>
</g>
<g>
	<circle style="fill:#84DBFF;" cx="284" cy="113.2" r="11.2"/>
	<circle style="fill:#84DBFF;" cx="224" cy="113.2" r="11.2"/>
</g>
<g>
</g>
<g>
</g>
<g>
</g>
<g>
</g>
<g>
</g>
<g>
</g>
<g>
</g>
<g>
</g>
<g>
</g>
<g>
</g>
<g>
</g>
<g>
</g>
<g>
</g>
<g>
</g>
<g>
</g>
</svg>
