<?xml version="1.0" encoding="iso-8859-1"?>
<!-- Generator: Adobe Illustrator 19.0.0, SVG Export Plug-In . SVG Version: 6.00 Build 0)  -->
<svg xmlns="http://www.w3.org/2000/svg" xmlns:xlink="http://www.w3.org/1999/xlink" version="1.1" id="Layer_1" x="0px" y="0px" viewBox="0 0 508 508" style="enable-background:new 0 0 508 508;" xml:space="preserve">
<circle style="fill:#84DBFF;" cx="254" cy="254" r="254"/>
<g>
	<rect x="280.8" y="334" style="fill:#2B3B4E;" width="22" height="87.6"/>
	<rect x="204.8" y="334" style="fill:#2B3B4E;" width="22" height="87.6"/>
	<path style="fill:#2B3B4E;" d="M406.8,318.8l5.2-65.6L340,230l-7.2,22.8l54.4,17.6l-3.6,45.2c-18,2.8-32.8,16.4-36,35.2   c-1.2,6.4,3.2,12.8,10,13.6c6.4,1.2,12.8-3.2,13.6-10c1.6-10.4,11.6-17.2,21.6-15.6c10.4,1.6,17.2,11.6,15.6,21.6   c-1.2,6.4,3.2,12.8,10,13.6c0.8,0,1.2,0,2,0c5.6,0,10.8-4,11.6-10C434.8,345.2,424,326.8,406.8,318.8z"/>
	<path style="fill:#2B3B4E;" d="M175.6,252.8L168,230l-72.4,23.2l5.2,65.6c-6.8,3.2-12.8,8-17.2,14c-6.8,9.2-9.2,20.4-7.6,32   c0.8,6,6,10,11.6,10c0.8,0,1.2,0,2,0c6.4-1.2,10.8-7.2,10-13.6c-0.8-4.8,0.4-10,3.2-14c2.8-4,7.2-6.8,12.4-7.6   c10.4-1.6,20,5.2,21.6,15.6c1.2,6.4,7.2,10.8,13.6,10c6.4-1.2,10.8-7.2,10-13.6c-3.2-18.8-18-32.8-36-35.2l-3.6-45.2L175.6,252.8z"/>
</g>
<g>
	<circle style="fill:#FFFFFF;" cx="399.6" cy="262" r="16.4"/>
	<circle style="fill:#FFFFFF;" cx="108.4" cy="262" r="16.4"/>
	<path style="fill:#FFFFFF;" d="M278.4,190.4h-48.8c-38,0-68.8-30.8-68.8-68.8l0,0c0-38,30.8-68.8,68.8-68.8h49.2   c38,0,68.8,30.8,68.8,68.8l0,0C347.2,159.6,316.4,190.4,278.4,190.4z"/>
</g>
<g>
	<circle style="fill:#FF7058;" cx="290.4" cy="110.4" r="15.6"/>
	<circle style="fill:#FF7058;" cx="217.6" cy="110.4" r="15.6"/>
</g>
<path style="fill:#FFFFFF;" d="M325.6,215.6H182.4c-12.8,0-23.2,10.4-23.2,23.2V326c0,12.8,10.4,23.2,23.2,23.2h143.2  c12.8,0,23.2-10.4,23.2-23.2v-87.6C348.8,226,338.4,215.6,325.6,215.6z"/>
<rect x="237.6" y="190.4" style="fill:#324A5E;" width="32.4" height="25.2"/>
<g>
	<path style="fill:#FFFFFF;" d="M313.6,444.8c3.6-4.4,5.6-10.4,5.6-16.4c0-14.8-12-27.2-27.2-27.2c-14.8,0-27.2,12-27.2,27.2   c0,6,2,12,5.6,16.4H313.6z"/>
	<path style="fill:#FFFFFF;" d="M238,444.8c3.6-4.4,5.6-10.4,5.6-16.4c0-14.8-12-27.2-27.2-27.2c-14.8,0-27.2,12-27.2,27.2   c0,6,2,12,5.6,16.4H238z"/>
</g>
<g>
</g>
<g>
</g>
<g>
</g>
<g>
</g>
<g>
</g>
<g>
</g>
<g>
</g>
<g>
</g>
<g>
</g>
<g>
</g>
<g>
</g>
<g>
</g>
<g>
</g>
<g>
</g>
<g>
</g>
</svg>
