<?xml version="1.0" encoding="iso-8859-1"?>
<!-- Generator: Adobe Illustrator 19.0.0, SVG Export Plug-In . SVG Version: 6.00 Build 0)  -->
<svg xmlns="http://www.w3.org/2000/svg" xmlns:xlink="http://www.w3.org/1999/xlink" version="1.1" id="Layer_1" x="0px" y="0px" viewBox="0 0 508 508" style="enable-background:new 0 0 508 508;" xml:space="preserve">
<circle style="fill:#90DFAA;" cx="254" cy="254" r="254"/>
<path style="fill:#2C9984;" d="M106,460.4c41.6,30,92.8,47.6,148,47.6s106.4-17.6,148-47.6H106z"/>
<ellipse transform="matrix(-0.4511 -0.8925 0.8925 -0.4511 273.8162 651.5598)" style="fill:#324A5E;" cx="337.276" cy="241.576" rx="45.601" ry="14.8"/>
<circle style="fill:#E6E9EE;" cx="309.2" cy="206.8" r="23.6"/>
<g>
	<circle style="fill:#FFFFFF;" cx="355.6" cy="278.4" r="17.6"/>
</g>
<g>
	<path style="fill:#324A5E;" d="M387.6,315.2c3.6,20-5.6,38.4-21.2,42c5.2-25.2,2.8-46.8-6.4-49.2c-8-2-18.8,10.8-26.4,30.4   c-2-3.6-3.2-8-4-12.4c-3.6-20.4,6.4-39.2,22.4-42.4S384,294.8,387.6,315.2z"/>

		<ellipse transform="matrix(-0.4511 0.8925 -0.8925 -0.4511 463.4252 197.6085)" style="fill:#324A5E;" cx="170.944" cy="241.317" rx="45.601" ry="14.8"/>
</g>
<circle style="fill:#E6E9EE;" cx="198.8" cy="206.8" r="23.6"/>
<g>
	<circle style="fill:#FFFFFF;" cx="152.4" cy="278.4" r="17.6"/>
</g>
<g>
	<path style="fill:#324A5E;" d="M120.4,315.2c-3.6,20,5.6,38.4,21.2,42c-5.2-25.2-2.8-46.8,6.4-49.2c8-2,18.8,10.8,26.4,30.4   c2-3.6,3.2-8,4-12.4c3.6-20.4-6.4-39.2-22.4-42.4S124,294.8,120.4,315.2z"/>
	<rect x="241.2" y="152.8" style="fill:#324A5E;" width="26" height="50"/>
</g>
<g>
	<rect x="279.6" y="360" style="fill:#2B3B4E;" width="11.2" height="91.6"/>
	<polygon style="fill:#2B3B4E;" points="254.4,315.2 275.2,342 279.6,327.6 270,315.2  "/>
</g>
<ellipse transform="matrix(0.9913 -0.1314 0.1314 0.9913 -42.9685 40.2311)" style="fill:#324A5E;" cx="283.352" cy="345.694" rx="14" ry="21.599"/>
<g>
	<path style="fill:#FFFFFF;" d="M274,336.4l22.8,30c11.6-9.2,13.6-26,4.8-37.6c-2.4-3.2-5.2-5.6-8.4-7.2L274,336.4z"/>
	<path style="fill:#FFFFFF;" d="M285.2,382.4L285.2,382.4c-8.8,0-16,7.2-16,16v18.8c0,8.8,7.2,16,16,16l0,0c8.8,0,16-7.2,16-16   v-18.8C301.6,389.6,294,382.4,285.2,382.4z"/>
	<path style="fill:#FFFFFF;" d="M319.2,460.8h-44.4v-13.6h30.8C312.8,446.8,319.2,453.2,319.2,460.8L319.2,460.8z"/>
</g>
<g>
	<rect x="217.2" y="360" style="fill:#2B3B4E;" width="11.2" height="91.6"/>
	<polygon style="fill:#2B3B4E;" points="238,315.2 228.4,327.6 232.8,342 253.6,315.2  "/>
</g>
<ellipse transform="matrix(0.9913 0.1314 -0.1314 0.9913 47.3173 -26.5082)" style="fill:#324A5E;" cx="224.515" cy="345.276" rx="14" ry="21.599"/>
<g>
	<path style="fill:#FFFFFF;" d="M233.6,336.4l-22.8,30c-11.6-9.2-13.6-26-4.8-37.6c2.4-3.2,5.2-5.6,8.4-7.2L233.6,336.4z"/>
	<path style="fill:#FFFFFF;" d="M222.8,382.4L222.8,382.4c8.8,0,16,7.2,16,16v18.8c0,8.8-7.2,16-16,16l0,0c-8.8,0-16-7.2-16-16   v-18.8C206.4,389.6,214,382.4,222.8,382.4z"/>
	<path style="fill:#FFFFFF;" d="M188.8,460.8h44.4v-13.6h-30.8C195.2,446.8,188.8,453.2,188.8,460.8L188.8,460.8z"/>
</g>
<path style="fill:#ACB3BA;" d="M254,254.4L254,254.4c-4.4,0-8.4,3.6-8.4,8.4v37.6c0,4.4,3.6,8.4,8.4,8.4l0,0c4.4,0,8.4-3.6,8.4-8.4  v-37.6C262.4,258,258.4,254.4,254,254.4z"/>
<g>
	<path style="fill:#FFFFFF;" d="M286.8,306.8L286.8,306.8c0-6.4-5.2-11.2-11.2-11.2h-43.2c-6.4,0-11.2,5.2-11.2,11.2l0,0   c0,6.4,5.2,11.2,11.2,11.2h43.2C282,318.4,286.8,313.2,286.8,306.8z"/>
	<path style="fill:#FFFFFF;" d="M287.2,187.6h-66.4c-12,0-20.4,12-16.8,23.2l11.6,34V266c0,6,4.8,10.8,10.8,10.8h54.8   c6,0,10.8-4.8,10.8-10.8v-20.8l0,0l11.6-34C307.6,199.6,299.2,187.6,287.2,187.6z"/>
	<ellipse style="fill:#FFFFFF;" cx="254" cy="109.2" rx="56.4" ry="62.8"/>
</g>
<path style="fill:#324A5E;" d="M268.4,95.6h-29.2L232,49.2c-1.2-6.8,4-12.8,10.8-12.8h21.6c6.8,0,12,6,10.8,12.8L268.4,95.6z"/>
<path style="fill:#84DBFF;" d="M276,84h-43.2c-12.4,0-23.2,9.2-24,21.6c-0.8,13.6,9.6,24.8,23.2,24.8c3.6,0,6.8-0.8,9.6-2  c7.6-3.6,16.8-4,24.4,0c4.4,2,9.2,2.8,14.4,2c9.2-1.6,16.4-8.8,18-18C301.6,97.2,290.4,84,276,84z"/>
<g>
</g>
<g>
</g>
<g>
</g>
<g>
</g>
<g>
</g>
<g>
</g>
<g>
</g>
<g>
</g>
<g>
</g>
<g>
</g>
<g>
</g>
<g>
</g>
<g>
</g>
<g>
</g>
<g>
</g>
</svg>
