<?xml version="1.0" encoding="iso-8859-1"?>
<!-- Generator: Adobe Illustrator 19.0.0, SVG Export Plug-In . SVG Version: 6.00 Build 0)  -->
<svg xmlns="http://www.w3.org/2000/svg" xmlns:xlink="http://www.w3.org/1999/xlink" version="1.1" id="Layer_1" x="0px" y="0px" viewBox="0 0 508 508" style="enable-background:new 0 0 508 508;" xml:space="preserve">
<circle style="fill:#324A5E;" cx="254" cy="254" r="254"/>
<path style="fill:#2B3B4E;" d="M120.8,470.4c38.8,24,84.4,37.6,133.2,37.6s94.4-14,133.2-37.6H120.8z"/>
<g>
	<rect x="243.6" y="162.4" style="fill:#54C0EB;" width="20.8" height="35.6"/>
	<rect x="284.4" y="294.8" style="fill:#54C0EB;" width="21.2" height="141.6"/>
</g>
<g>
	<path style="fill:#FFFFFF;" d="M304.4,374.8h-19.2c-4.4,0-8-3.6-8-8v-43.6c0-4.4,3.6-8,8-8h19.2c4.4,0,8,3.6,8,8v43.6   C312.4,371.2,308.8,374.8,304.4,374.8z"/>
	<path style="fill:#FFFFFF;" d="M312.8,406.8h-35.6c-4,0-7.2-3.2-7.2-7.2v-8c0-4,3.2-7.2,7.2-7.2h35.6c4,0,7.2,3.2,7.2,7.2v8   C320,403.6,316.8,406.8,312.8,406.8z"/>
	<path style="fill:#FFFFFF;" d="M321.2,454.4c1.2-2.8,2-5.6,2-8.4c0-12.8-12.8-23.6-28.4-23.6s-28.4,10.4-28.4,23.6   c0,2.8,0.8,5.6,2,8.4H321.2z"/>
</g>
<rect x="202.4" y="294.8" style="fill:#54C0EB;" width="21.2" height="141.6"/>
<g>
	<path style="fill:#FFFFFF;" d="M222.8,374.8h-19.2c-4.4,0-8-3.6-8-8v-43.6c0-4.4,3.6-8,8-8h19.2c4.4,0,8,3.6,8,8v43.6   C230.4,371.2,227.2,374.8,222.8,374.8z"/>
	<path style="fill:#FFFFFF;" d="M231.2,406.8h-35.6c-4,0-7.2-3.2-7.2-7.2v-8c0-4,3.2-7.2,7.2-7.2h35.6c4,0,7.2,3.2,7.2,7.2v8   C238.4,403.6,234.8,406.8,231.2,406.8z"/>
	<path style="fill:#FFFFFF;" d="M239.6,454.4c1.2-2.8,2-5.6,2-8.4c0-12.8-12.8-23.6-28.4-23.6s-28.4,10.4-28.4,23.6   c0,2.8,0.8,5.6,2,8.4H239.6z"/>
</g>
<rect x="325.6" y="216" style="fill:#324A5E;" width="7.6" height="27.6"/>
<rect x="352" y="282" style="fill:#54C0EB;" width="10.4" height="33.6"/>
<g>
	<path style="fill:#E6E9EE;" d="M361.6,339.6h-8c-2.4,0-4-2-4-4v-29.2c0-2.4,2-4,4-4h8c2.4,0,4,2,4,4v29.2   C365.6,338,364,339.6,361.6,339.6z"/>
	<path style="fill:#E6E9EE;" d="M349.2,249.6v31.6c0,2,1.6,4,4,4h8.8c2,0,4-1.6,4-4v-31.6H349.2z"/>
</g>
<path style="fill:#FFFFFF;" d="M381.2,233.2c0,16.4-13.2,29.6-29.6,29.6c-6.8,0-13.2-2.4-18.4-6.4v-46.8c5.2-4,11.2-6.4,18.4-6.4  C368,203.2,381.2,216.8,381.2,233.2z"/>
<rect x="174.8" y="216" style="fill:#324A5E;" width="7.6" height="27.6"/>
<rect x="145.6" y="282" style="fill:#54C0EB;" width="10.4" height="33.6"/>
<g>
	<path style="fill:#E6E9EE;" d="M146.4,339.6h8c2.4,0,4-2,4-4v-29.2c0-2.4-2-4-4-4h-8c-2.4,0-4,2-4,4v29.2   C142.4,338,144,339.6,146.4,339.6z"/>
	<path style="fill:#E6E9EE;" d="M158.8,249.6v31.6c0,2-1.6,4-4,4H146c-2,0-4-1.6-4-4v-31.6H158.8z"/>
</g>
<g>
	<path style="fill:#FFFFFF;" d="M126.8,233.2c0,16.4,13.2,29.6,29.6,29.6c6.8,0,13.2-2.4,18.4-6.4v-46.8c-5.2-4-11.2-6.4-18.4-6.4   C140,203.2,126.8,216.8,126.8,233.2z"/>
	<path style="fill:#FFFFFF;" d="M312,302.4H196c-7.2,0-13.2-6-13.2-13.2v-86.8c0-7.2,6-13.2,13.2-13.2h116.4c7.2,0,13.2,6,13.2,13.2   v86.8C325.6,296.4,319.6,302.4,312,302.4z"/>
	<path style="fill:#FFFFFF;" d="M299.2,106.4c0,28.8-20.4,62.8-45.2,62.8c-25.2,0-45.2-34-45.2-62.8s20-41.6,45.2-41.6   C278.8,64.8,299.2,77.6,299.2,106.4z"/>
	<path style="fill:#FFFFFF;" d="M380.4,361.2c0,21.6-10,39.6-22.4,40c10.8-26,12.8-48.4,4-53.2c-6.4-3.2-16.8,3.6-27.6,16.4   c0-1.2,0-2.4,0-3.6c0-22,10.4-40,23.2-40C370,321.2,380.4,339.2,380.4,361.2z"/>
	<path style="fill:#FFFFFF;" d="M127.2,361.2c0,21.6,10,39.6,22.4,40c-10.8-26-12.8-48.4-4-53.2c6.4-3.2,16.8,3.6,27.6,16.4   c0-1.2,0-2.4,0-3.6c0-22-10.4-40-23.2-40C137.6,321.2,127.2,339.2,127.2,361.2z"/>
</g>
<path style="fill:#84DBFF;" d="M299.2,106.4c0,11.2-3.2,23.2-8.4,33.6c-10-2.4-23.2-4-37.2-4c-14,0-27.2,1.6-37.2,4  c-5.2-10.4-8.4-22.4-8.4-33.6c0-3.6,0.4-6.8,0.8-9.6c10.8-7.6,26.8-12,44.4-12c18,0,34,4.8,44.4,12.4  C298.8,99.6,299.2,102.8,299.2,106.4z"/>
<g>
</g>
<g>
</g>
<g>
</g>
<g>
</g>
<g>
</g>
<g>
</g>
<g>
</g>
<g>
</g>
<g>
</g>
<g>
</g>
<g>
</g>
<g>
</g>
<g>
</g>
<g>
</g>
<g>
</g>
</svg>
