<?xml version="1.0" encoding="iso-8859-1"?>
<!-- Generator: Adobe Illustrator 19.0.0, SVG Export Plug-In . SVG Version: 6.00 Build 0)  -->
<svg xmlns="http://www.w3.org/2000/svg" xmlns:xlink="http://www.w3.org/1999/xlink" version="1.1" id="Layer_1" x="0px" y="0px" viewBox="0 0 508 508" style="enable-background:new 0 0 508 508;" xml:space="preserve">
<circle style="fill:#FD8469;" cx="254" cy="254" r="254"/>
<path style="fill:#2B3B4E;" d="M307.2,284.8L307.2,284.8c0.4-2.8,0.8-6,0.8-8.8c0-13.2-4.8-25.2-12.8-34.8l5.6-52h-93.6l5.6,52  c-8,9.2-12.8,21.6-12.8,34.8c0,3.2,0.4,6,0.8,9.2l0,0c0,0-12,31.6-7.6,70.8l28,17.2c0,0,7.6-27.6,25.2-44H262  c17.6,16.4,25.2,44,25.2,44l28-17.2C319.2,316.4,307.2,284.8,307.2,284.8z"/>
<path style="fill:#F1543F;" d="M115.2,466.8c40,26,87.6,41.2,138.8,41.2s98.8-15.2,138.8-41.2H115.2z"/>
<polygon style="fill:#324A5E;" points="284,144.8 224,144.8 241.6,102 266.4,102 "/>
<polygon style="fill:#2B3B4E;" points="310.8,462.4 292,462.4 286.8,428 315.6,428 "/>
<path style="fill:#FFFFFF;" d="M321.6,466.8c-1.6-8.8-10-15.2-20.4-15.2s-18.8,6.8-20.4,15.2H321.6z"/>
<polygon style="fill:#2B3B4E;" points="218.8,462.4 200.4,462.4 195.2,428 224,428 "/>
<g>
	<path style="fill:#FFFFFF;" d="M230,466.8c-1.6-8.8-10-15.2-20.4-15.2s-18.8,6.8-20.4,15.2H230z"/>
	<path style="fill:#FFFFFF;" d="M311.2,89.2c0,26.4-25.6,29.6-57.2,29.6s-57.2-3.6-57.2-29.6s25.6-48,57.2-48S311.2,62.8,311.2,89.2   z"/>
</g>
<path style="fill:#84DBFF;" d="M305.2,90c0,21.2-22.8,24-51.2,24c-28.4,0-51.2-2.8-51.2-24s22.8-38,51.2-38S305.2,68.8,305.2,90z"/>
<g>
	<circle style="fill:#324A5E;" cx="278" cy="83.6" r="10.4"/>
	<circle style="fill:#324A5E;" cx="230" cy="83.6" r="10.4"/>
</g>
<path style="fill:#E6E9EE;" d="M309.2,173.6c0,11.6-2.4,22.8-7.2,32.4c-12.4,8-29.6,13.2-48.4,13.2s-36-4.8-48.4-13.2  c-4.4-9.6-7.2-20.4-7.2-32.4c0-11.6,2.4-22.8,7.2-32.4c12.4-8,29.6-13.2,48.4-13.2s36,5.2,48.4,13.2  C306.8,150.8,309.2,162,309.2,173.6z"/>
<g>
	<rect x="294" y="152.4" style="fill:#324A5E;" width="41.6" height="24.4"/>
	<rect x="172.4" y="152.4" style="fill:#324A5E;" width="41.6" height="24.4"/>
</g>
<g>
	<path style="fill:#FFFFFF;" d="M326,400.4c-3.2,37.6-14.8,38.8-28.8,37.6c-14-1.2-25.2-4.4-21.6-42c0.8-9.2,2.4-20,4.8-30.4   c19.2-18,31.2-43.2,36.4-57.2C325.2,324.8,328.8,370,326,400.4z"/>
	<path style="fill:#FFFFFF;" d="M182,400.4c3.2,37.6,14.8,38.8,28.8,37.6c14-1.2,25.2-4.4,21.6-42c-0.8-9.2-2.4-20-4.8-30.4   c-19.2-18-31.2-43.2-36.4-57.2C182.4,324.8,179.2,370,182,400.4z"/>
	<path style="fill:#FFFFFF;" d="M311.6,276c0,2.8-0.4,5.6-0.4,8.4c-8.8,1.2-18.8,5.6-28,12.8c-14.4,11.2-22.4,25.6-21.6,36   c-2.4,0.4-4.8,0.4-7.6,0.4c-2.4,0-5.2,0-7.6-0.4c0.8-10.8-7.2-25.2-21.6-36c-9.2-7.2-19.6-11.6-28-12.8c-0.4-2.8-0.4-5.6-0.4-8.4   c0-6.8,1.2-13.2,3.2-19.6c15.2,4,34,6.4,54.4,6.4s38.8-2.4,54.4-6.4C310.4,262.4,311.6,268.8,311.6,276z"/>
	<path style="fill:#FFFFFF;" d="M318.4,190.8c-2.8,12.8-7.6,24-14,33.2c-14,7.2-31.6,11.6-50.4,11.6s-36.4-4.4-50.4-11.6   c-6.4-9.2-11.6-20.4-14-33.2c-2.8-14-2.4-28.4,0.8-42c14.8-12.4,37.2-20.4,63.6-20.4s48.8,8,63.6,20.4   C320.8,162.4,321.2,176.8,318.4,190.8z"/>
</g>
<circle style="fill:#FFD05B;" cx="254" cy="163.6" r="13.2"/>
<polygon style="fill:#324A5E;" points="410.4,196 397.6,214 346,184 365.2,156.8 "/>
<path style="fill:#FFFFFF;" d="M341.6,140c-3.6,0-6.8,0.8-10,2v52.4c3.2,1.2,6.4,2,10,2c15.6,0,28-12.8,28-28  C369.6,152.4,357.2,140,341.6,140z"/>
<polygon style="fill:#324A5E;" points="420.8,300 406.8,300 398.4,206 419.2,206 "/>
<circle style="fill:#FFFFFF;" cx="412.4" cy="290.4" r="17.6"/>
<circle style="fill:#324A5E;" cx="412.4" cy="290.4" r="10"/>
<g>
	<path style="fill:#FFFFFF;" d="M415.6,334.8c-5.6,5.6-12.4,8.8-18.4,9.2c0.8-0.8,2-1.6,2.8-2.4c9.2-9.2,13.2-20,9.2-24.4   c-3.6-3.6-12.4-1.6-20.8,5.2c1.6-2.8,3.6-5.6,6.4-8c9.2-9.2,21.6-12,27.2-6C427.6,313.6,424.8,325.6,415.6,334.8z"/>
	<circle style="fill:#FFFFFF;" cx="406.8" cy="206" r="22.8"/>
</g>
<polygon style="fill:#2B3B4E;" points="97.6,196 110.4,214 162,184 142.8,156.8 "/>
<path style="fill:#FFFFFF;" d="M166.4,140c3.6,0,6.8,0.8,10,2v52.4c-3.2,1.2-6.4,2-10,2c-15.6,0-28-12.8-28-28  C138.4,152.4,150.8,140,166.4,140z"/>
<polygon style="fill:#2B3B4E;" points="87.2,300 101.2,300 109.6,206 88.8,206 "/>
<circle style="fill:#FFFFFF;" cx="95.6" cy="290.4" r="17.6"/>
<circle style="fill:#CED5E0;" cx="95.6" cy="290.4" r="10"/>
<g>
	<path style="fill:#FFFFFF;" d="M92.4,334.8c5.6,5.6,12.4,8.8,18.4,9.2c-0.8-0.8-2-1.6-2.8-2.4c-9.2-9.2-13.2-20-9.2-24.4   c3.6-3.6,12.4-1.6,20.8,5.2c-1.6-2.8-3.6-5.6-6.4-8c-9.2-9.2-21.6-12-27.2-6C80.4,313.6,83.2,325.6,92.4,334.8z"/>
	<circle style="fill:#FFFFFF;" cx="101.2" cy="206" r="22.8"/>
</g>
<g>
</g>
<g>
</g>
<g>
</g>
<g>
</g>
<g>
</g>
<g>
</g>
<g>
</g>
<g>
</g>
<g>
</g>
<g>
</g>
<g>
</g>
<g>
</g>
<g>
</g>
<g>
</g>
<g>
</g>
</svg>
