<?xml version="1.0" encoding="iso-8859-1"?>
<!-- Generator: Adobe Illustrator 19.0.0, SVG Export Plug-In . SVG Version: 6.00 Build 0)  -->
<svg xmlns="http://www.w3.org/2000/svg" xmlns:xlink="http://www.w3.org/1999/xlink" version="1.1" id="Layer_1" x="0px" y="0px" viewBox="0 0 508 508" style="enable-background:new 0 0 508 508;" xml:space="preserve">
<circle style="fill:#54C0EB;" cx="254" cy="254" r="254"/>
<g>
	<polygon style="fill:#324A5E;" points="296.8,90.8 304.4,59.2 294.8,59.2 278.4,90.8  "/>
	<polygon style="fill:#324A5E;" points="229.6,90.8 213.2,59.2 203.6,59.2 211.2,90.8  "/>
</g>
<path style="fill:#84DBFF;" d="M101.6,457.2C144,489.2,196.8,508,254,508s110-18.8,152.4-50.8H101.6z"/>
<g>
	<circle style="fill:#E6E9EE;" cx="302.4" cy="53.6" r="12.4"/>
	<circle style="fill:#E6E9EE;" cx="205.6" cy="53.6" r="12.4"/>
</g>
<path style="fill:#FFFFFF;" d="M314,310.8H194c-6.4,0-11.2-5.2-11.2-11.2v-118c0-6.4,5.2-11.2,11.2-11.2h120  c6.4,0,11.2,5.2,11.2,11.2v117.6C325.2,305.6,320.4,310.8,314,310.8z"/>
<g>
	<rect x="221.6" y="157.6" style="fill:#324A5E;" width="64.8" height="12.8"/>
	<rect x="268.4" y="310.8" style="fill:#324A5E;" width="34.4" height="121.6"/>
</g>
<path style="fill:#FFFFFF;" d="M307.6,394h-44c-1.2,0-2.4-1.2-2.4-2.4v-26.4c0-1.2,1.2-2.4,2.4-2.4h44c1.2,0,2.4,1.2,2.4,2.4v26.4  C310,392.8,308.8,394,307.6,394z"/>
<rect x="205.6" y="310.8" style="fill:#324A5E;" width="34.4" height="121.6"/>
<g>
	<path style="fill:#FFFFFF;" d="M244.8,394h-44c-1.2,0-2.4-1.2-2.4-2.4v-26.4c0-1.2,1.2-2.4,2.4-2.4h44c1.2,0,2.4,1.2,2.4,2.4v26.4   C247.2,392.8,246,394,244.8,394z"/>
	<path style="fill:#FFFFFF;" d="M308.4,457.2c0.4-2.4,0.8-4.8,0.8-7.2c0-16.4-10.8-29.6-24-29.6s-24,13.2-24,29.6   c0,2.4,0.4,4.8,0.8,7.2H308.4z"/>
	<path style="fill:#FFFFFF;" d="M245.6,457.2c0.4-2.4,0.8-4.8,0.8-7.2c0-16.4-10.8-29.6-24-29.6s-24,13.2-24,29.6   c0,2.4,0.4,4.8,0.8,7.2H245.6z"/>
</g>
<g>
	<rect x="342.4" y="203.6" style="fill:#324A5E;" width="28" height="114.4"/>
	<rect x="325.2" y="187.2" style="fill:#324A5E;" width="28.8" height="22"/>
</g>
<g>
	<path style="fill:#FFFFFF;" d="M353.6,182.8h-18.4v30h41.6V206C377.2,193.2,366.8,182.8,353.6,182.8z"/>
	<path style="fill:#FFFFFF;" d="M371.2,272.8H342c-2,0-3.6-1.6-3.6-3.6V248c0-2,1.6-3.6,3.6-3.6h29.2c2,0,3.6,1.6,3.6,3.6v21.2   C374.4,271.2,372.8,272.8,371.2,272.8z"/>
</g>
<g>
	<rect x="137.6" y="203.6" style="fill:#324A5E;" width="28" height="114.4"/>
	<rect x="154" y="187.2" style="fill:#324A5E;" width="28.8" height="22"/>
</g>
<g>
	<path style="fill:#FFFFFF;" d="M154.4,182.8h18.4v30h-42V206C130.8,193.2,141.2,182.8,154.4,182.8z"/>
	<path style="fill:#FFFFFF;" d="M136.8,272.8H166c2,0,3.6-1.6,3.6-3.6V248c0-2-1.6-3.6-3.6-3.6h-29.2c-2,0-3.6,1.6-3.6,3.6v21.2   C133.6,271.2,135.2,272.8,136.8,272.8z"/>
	<ellipse style="fill:#FFFFFF;" cx="254" cy="120" rx="63.2" ry="44"/>
</g>
<g>
	<circle style="fill:#FF7058;" cx="278" cy="108" r="12"/>
	<circle style="fill:#FF7058;" cx="230" cy="108" r="12"/>
</g>
<g>
	<ellipse style="fill:#FFFFFF;" cx="356.4" cy="323.2" rx="24" ry="12.4"/>
	<ellipse style="fill:#FFFFFF;" cx="151.6" cy="323.2" rx="24" ry="12.4"/>
</g>
<g>
</g>
<g>
</g>
<g>
</g>
<g>
</g>
<g>
</g>
<g>
</g>
<g>
</g>
<g>
</g>
<g>
</g>
<g>
</g>
<g>
</g>
<g>
</g>
<g>
</g>
<g>
</g>
<g>
</g>
</svg>
