<?xml version="1.0" encoding="iso-8859-1"?>
<!-- Generator: Adobe Illustrator 19.0.0, SVG Export Plug-In . SVG Version: 6.00 Build 0)  -->
<svg xmlns="http://www.w3.org/2000/svg" xmlns:xlink="http://www.w3.org/1999/xlink" version="1.1" id="Layer_1" x="0px" y="0px" viewBox="0 0 508 508" style="enable-background:new 0 0 508 508;" xml:space="preserve">
<circle style="fill:#FFD05B;" cx="254" cy="254" r="254"/>
<path style="fill:#F9B54C;" d="M101.6,457.2C144,489.2,196.8,508,254,508s110-18.8,152.4-50.8H101.6z"/>
<g>
	<rect x="246.8" y="67.2" style="fill:#324A5E;" width="14.4" height="27.2"/>
	<rect x="277.2" y="369.6" style="fill:#324A5E;" width="16.4" height="45.2"/>
</g>
<rect x="272.4" y="314.4" style="fill:#E6E9EE;" width="25.6" height="58.4"/>
<path style="fill:#FFFFFF;" d="M308,444.4c-1.2-18.8-10.8-33.6-22.8-33.6s-22,14.8-22.8,33.6H308z"/>
<g>
	<path style="fill:#324A5E;" d="M307.6,444.4h-44.4c-3.6,0-6.4,2.8-6.4,6.4l0,0c0,3.6,2.8,6.4,6.4,6.4h44.4c3.6,0,6.4-2.8,6.4-6.4   l0,0C313.6,447.2,310.8,444.4,307.6,444.4z"/>
	<rect x="214.8" y="369.6" style="fill:#324A5E;" width="16.4" height="45.2"/>
</g>
<rect x="210" y="314.4" style="fill:#E6E9EE;" width="25.6" height="58.4"/>
<path style="fill:#FFFFFF;" d="M245.6,444.4c-1.2-18.8-10.8-33.6-22.8-33.6s-22,14.8-22.8,33.6H245.6z"/>
<path style="fill:#324A5E;" d="M244.8,444.4h-44.4c-3.6,0-6.4,2.8-6.4,6.4l0,0c0,3.6,2.8,6.4,6.4,6.4h44.4c3.6,0,6.4-2.8,6.4-6.4  l0,0C251.2,447.2,248.4,444.4,244.8,444.4z"/>
<path style="fill:#FFFFFF;" d="M254,333.6L254,333.6c-33.6,0-61.2-27.2-61.2-61.2v-55.2c0-6.8,5.6-12,12-12h98c6.8,0,12,5.6,12,12  v55.6C315.2,306.4,287.6,333.6,254,333.6z"/>
<rect x="216.8" y="190.4" style="fill:#324A5E;" width="74" height="14.4"/>
<g>
	<circle style="fill:#84DBFF;" cx="290.4" cy="232" r="10"/>
	<circle style="fill:#84DBFF;" cx="254" cy="232" r="10"/>
	<circle style="fill:#84DBFF;" cx="217.6" cy="232" r="10"/>
</g>
<path style="fill:#E6E9EE;" d="M340.8,266v-30.8c0-9.2-7.6-16.4-16.4-16.4h-9.2V266H340.8z"/>
<path style="fill:#324A5E;" d="M337.2,319.6V266h-18.8v69.2c0,8.8,7.2,16.4,16.4,16.4l0,0c8.8,0,16.4-7.2,16.4-16.4  C351.2,327.2,345.2,320.4,337.2,319.6z"/>
<path style="fill:#FFFFFF;" d="M342.4,343.2c2-2,3.2-4.8,3.2-8c0-6-5.2-10.4-10.8-10.4c-6,0-10.4,5.2-10.4,10.8  c0,2.4,0.8,4.8,2.4,6.4c-4.8,2.4-9.6,6.4-13.2,11.6c-2.4,3.6-4.4,7.2-5.2,10.8c6.8-7.2,14-10.4,18.4-7.6c5.2,3.6,2.8,15.6-5.2,27.2  c-0.4,0.4-0.4,0.8-0.8,1.2c6.4-0.8,14-5.6,19.6-13.6C347.6,361.2,348.4,348.8,342.4,343.2z"/>
<path style="fill:#E6E9EE;" d="M167.2,266v-30.8c0-9.2,7.6-16.4,16.4-16.4h9.2V266H167.2z"/>
<path style="fill:#324A5E;" d="M170.8,266v53.6c-8,1.2-14,8-14,16c0,8.8,7.2,16.4,16.4,16.4l0,0c8.8,0,16.4-7.2,16.4-16.4V266H170.8  z"/>
<path style="fill:#FFFFFF;" d="M165.6,343.2c-2-2-3.2-4.8-3.2-8c0-6,5.2-10.4,10.8-10.4c6,0,10.4,5.2,10.4,10.8  c0,2.4-0.8,4.8-2.4,6.4c4.8,2.4,9.6,6.4,13.2,11.6c2.4,3.6,4.4,7.2,5.2,10.8c-6.8-7.2-14-10.4-18.4-7.6c-5.2,3.6-2.8,15.6,5.2,27.2  c0.4,0.4,0.4,0.8,0.8,1.2c-6.4-0.8-14-5.6-19.6-13.6C160.4,361.2,159.6,348.8,165.6,343.2z"/>
<path style="fill:#E6E9EE;" d="M305.6,190.4H202.4c-6,0-11.2-4.8-11.2-11.2v-74.8c0-6,4.8-11.2,11.2-11.2h102.8  c6,0,11.2,4.8,11.2,11.2v75.2C316.4,185.6,311.6,190.4,305.6,190.4z"/>
<g>
	<path style="fill:#324A5E;" d="M316.4,172.4h9.2c4.8,0,8.8-4,8.8-8.8v-26.8c0-4.8-4-8.8-8.8-8.8h-9.2V172.4z"/>
	<path style="fill:#324A5E;" d="M191.2,172.4H182c-4.8,0-8.8-4-8.8-8.8v-26.8c0-4.8,4-8.8,8.8-8.8h9.2V172.4z"/>
</g>
<circle style="fill:#FF7058;" cx="254" cy="58.4" r="19.2"/>
<g>

		<ellipse transform="matrix(0.5752 0.818 -0.818 0.5752 145.0847 -179.7623)" style="fill:#FFFFFF;" cx="245.623" cy="49.811" rx="3.2" ry="4"/>
	<circle style="fill:#FFFFFF;" cx="285.2" cy="129.6" r="17.6"/>
</g>
<circle style="fill:#84DBFF;" cx="285.2" cy="129.6" r="11.6"/>
<circle style="fill:#FFFFFF;" cx="222.8" cy="129.6" r="17.6"/>
<circle style="fill:#84DBFF;" cx="222.8" cy="129.6" r="11.6"/>
<g>
	<circle style="fill:#FFFFFF;" cx="280.4" cy="123.6" r="6"/>
	<circle style="fill:#FFFFFF;" cx="218" cy="123.6" r="6"/>
</g>
<g>
</g>
<g>
</g>
<g>
</g>
<g>
</g>
<g>
</g>
<g>
</g>
<g>
</g>
<g>
</g>
<g>
</g>
<g>
</g>
<g>
</g>
<g>
</g>
<g>
</g>
<g>
</g>
<g>
</g>
</svg>
