<?xml version="1.0" encoding="iso-8859-1"?>
<!-- Generator: Adobe Illustrator 19.0.0, SVG Export Plug-In . SVG Version: 6.00 Build 0)  -->
<svg xmlns="http://www.w3.org/2000/svg" xmlns:xlink="http://www.w3.org/1999/xlink" version="1.1" id="Layer_1" x="0px" y="0px" viewBox="0 0 508 508" style="enable-background:new 0 0 508 508;" xml:space="preserve">
<circle style="fill:#84DBFF;" cx="254" cy="254" r="254"/>
<path style="fill:#54C0EB;" d="M104,458.8c42,30.8,94,49.2,150,49.2s108-18.4,150-49.2H104z"/>
<rect x="282" y="354.4" style="fill:#2B3B4E;" width="20" height="74.4"/>
<path style="fill:#FFFFFF;" d="M348,459.2h-78.4v-32h61.6c9.2,0,16.8,7.6,16.8,16.8V459.2z"/>
<rect x="206" y="354.4" style="fill:#2B3B4E;" width="20" height="74.4"/>
<path style="fill:#FFFFFF;" d="M160,459.2h78.4v-32h-61.6c-9.2,0-16.8,7.6-16.8,16.8V459.2z"/>
<path style="fill:#2B3B4E;" d="M354,266.4h-8.8v-31.6c0-9.2-7.2-16.4-16.4-16.4h-16.4v-8.8h16.4c14,0,25.2,11.2,25.2,25.2L354,266.4  L354,266.4z"/>
<path style="fill:#FFFFFF;" d="M363.2,279.2v-23.6c0-2.8-2-4.8-4.8-4.8h-17.6c-2.8,0-4.8,2-4.8,4.8v23.6c0,2.8,2,4.8,4.8,4.8h17.6  C360.8,284.4,363.2,282,363.2,279.2z"/>
<circle style="fill:#324A5E;" cx="315.2" cy="214" r="12.8"/>
<path style="fill:#2B3B4E;" d="M154,266.4h8.8v-31.6c0-9.2,7.2-16.4,16.4-16.4h16.4v-8.8h-16.4c-14,0-25.2,11.2-25.2,25.2V266.4z"/>
<path style="fill:#FFFFFF;" d="M144.8,279.2v-23.6c0-2.8,2-4.8,4.8-4.8h17.6c2.8,0,4.8,2,4.8,4.8v23.6c0,2.8-2,4.8-4.8,4.8h-17.6  C147.2,284.4,144.8,282,144.8,279.2z"/>
<g>
	<circle style="fill:#324A5E;" cx="192.8" cy="214" r="12.8"/>
	<rect x="250" y="75.2" style="fill:#324A5E;" width="8.4" height="21.6"/>
</g>
<path style="fill:#FFFFFF;" d="M290.8,172.4h-73.6c-4,0-7.2-3.2-7.2-7.2v-62.8c0-4,3.2-7.2,7.2-7.2h73.2c4,0,7.2,3.2,7.2,7.2v62.8  C297.6,169.2,294.4,172.4,290.8,172.4z"/>
<g>
	<path style="fill:#2B3B4E;" d="M297.6,152h9.2c2.8,0,4.8-2,4.8-4.8v-13.6c0-2.8-2-4.8-4.8-4.8h-9.2V152z"/>
	<path style="fill:#2B3B4E;" d="M210.4,152h-9.2c-2.8,0-4.8-2-4.8-4.8v-13.6c0-2.8,2-4.8,4.8-4.8h9.2V152z"/>
</g>
<path style="fill:#FFFFFF;" d="M304.8,191.6H203.2c-6.4,0-11.6,5.2-11.6,11.6V310h124.8V203.2C316.4,196.8,311.2,191.6,304.8,191.6z  "/>
<path style="fill:#E6E9EE;" d="M315.6,310H192.4c-6.4,0-11.2,5.2-11.2,11.2V340c0,8.4,6.8,15.2,15.2,15.2H312  c8.4,0,15.2-6.8,15.2-15.2v-18.8C326.8,315.2,322,310,315.6,310z"/>
<g>
	<circle style="fill:#54C0EB;" cx="278.8" cy="117.2" r="10"/>
	<circle style="fill:#54C0EB;" cx="229.2" cy="117.2" r="10"/>
</g>
<circle style="fill:#FF7058;" cx="254" cy="63.2" r="14.4"/>
<rect x="234" y="172.4" style="fill:#324A5E;" width="39.6" height="18.8"/>
<g>
	<rect x="222.8" y="145.6" style="fill:#E6E9EE;" width="62.4" height="18.8"/>
	<path style="fill:#E6E9EE;" d="M301.6,245.6C298.4,222,278.4,204,254,204s-44.4,18-47.6,41.6H301.6z"/>
</g>
<g>
</g>
<g>
</g>
<g>
</g>
<g>
</g>
<g>
</g>
<g>
</g>
<g>
</g>
<g>
</g>
<g>
</g>
<g>
</g>
<g>
</g>
<g>
</g>
<g>
</g>
<g>
</g>
<g>
</g>
</svg>
