<?xml version="1.0" encoding="iso-8859-1"?>
<!-- Generator: Adobe Illustrator 19.0.0, SVG Export Plug-In . SVG Version: 6.00 Build 0)  -->
<svg xmlns="http://www.w3.org/2000/svg" xmlns:xlink="http://www.w3.org/1999/xlink" version="1.1" id="Layer_1" x="0px" y="0px" viewBox="0 0 508 508" style="enable-background:new 0 0 508 508;" xml:space="preserve">
<circle style="fill:#FFD05B;" cx="254" cy="254" r="254"/>
<path style="fill:#F9B54C;" d="M96,452.8c43.2,34.4,98.4,55.2,158,55.2s114.8-20.8,158-55.2H96z"/>
<g>
	<polygon style="fill:#324A5E;" points="284,130.8 224,130.8 241.6,88.4 266.4,88.4  "/>
	<polygon style="fill:#324A5E;" points="311.6,442.4 315.2,417.2 287.2,417.2 291.2,442.4  "/>
</g>
<path style="fill:#FFFFFF;" d="M321.6,452.8c-1.6-8.8-10-15.2-20.4-15.2s-18.8,6.8-20.4,15.2H321.6z"/>
<polygon style="fill:#324A5E;" points="219.6,442.4 223.6,417.2 195.6,417.2 199.2,442.4 "/>
<path style="fill:#FFFFFF;" d="M230,452.8c-1.6-8.8-10-15.2-20.4-15.2s-18.8,6.8-20.4,15.2H230z"/>
<g>
	<circle style="fill:#2B3B4E;" cx="254" cy="262" r="54"/>
	<polygon style="fill:#2B3B4E;" points="294.4,237.6 213.6,237.6 207.2,175.6 300.8,175.6  "/>
</g>
<path style="fill:#FFFFFF;" d="M311.2,75.2c0,26.4-25.6,29.6-57.2,29.6s-57.2-3.6-57.2-29.6c0-26.4,25.6-47.6,57.2-47.6  S311.2,48.8,311.2,75.2z"/>
<path style="fill:#84DBFF;" d="M305.2,76.4c0,21.2-22.8,24-51.2,24c-28.4,0-51.2-2.8-51.2-24S225.6,38,254,38S305.2,55.2,305.2,76.4  z"/>
<g>
	<circle style="fill:#FFFFFF;" cx="278" cy="70" r="10.4"/>
	<circle style="fill:#FFFFFF;" cx="230" cy="70" r="10.4"/>
</g>
<path style="fill:#E6E9EE;" d="M309.2,160c0,11.6-2.4,22.8-7.2,32.4c-12.4,8-29.6,13.2-48.4,13.2s-36-4.8-48.4-13.2  c-4.4-9.6-7.2-20.4-7.2-32.4c0-11.6,2.4-22.8,7.2-32.4c12.4-8,29.6-13.2,48.4-13.2s36,5.2,48.4,13.2  C306.8,137.2,309.2,148,309.2,160z"/>
<path style="fill:#2B3B4E;" d="M352.4,248l-16.8-7.6c19.6-42.4,0.4-81.2,0-81.6l16.4-8.4C353.2,152.4,375.6,197.6,352.4,248z"/>
<rect x="294" y="138.8" style="fill:#324A5E;" width="41.6" height="24.4"/>
<path style="fill:#2B3B4E;" d="M346.8,260.4c0,0,2.4,17.6-5.2,29.2c-2,3.2-6.4,3.2-8.8,0.4l0,0c-1.2-1.6-1.6-3.6-0.8-5.6l4.4-10.4  l-5.2,2.8c-2,1.2-4.4,0.4-5.6-1.6l0,0c-0.8-1.2-0.8-2.8,0-4C328.4,266.4,336,256,346.8,260.4z"/>
<g>
	<path style="fill:#FFFFFF;" d="M362,170c3.2-4.4,5.2-9.6,5.2-15.6c0-14.4-11.6-26-26-26c-4,0-7.6,0.8-11.2,2.4V170H362z"/>
	<path style="fill:#FFFFFF;" d="M367.6,256c-5.6,17.6-15.2,15.6-26,12c-11.2-3.6-19.6-7.6-14-24.8c1.6-4.4,3.6-9.2,6.4-13.6   c16.8-4.4,28.4-14,33.6-19.6C373.2,219.6,372.4,242,367.6,256z"/>
</g>
<path style="fill:#2B3B4E;" d="M155.6,248l16.8-7.6c-19.6-42.4-0.4-81.2,0-81.6l-16.4-8.4C154.8,152.4,132.4,197.6,155.6,248z"/>
<rect x="172.4" y="138.8" style="fill:#324A5E;" width="41.6" height="24.4"/>
<path style="fill:#2B3B4E;" d="M161.2,260.4c0,0-2.4,17.6,5.2,29.2c2,3.2,6.4,3.2,8.8,0.4l0,0c1.2-1.6,1.6-3.6,0.8-5.6l-4.8-10.4  l5.2,2.8c2,1.2,4.4,0.4,5.6-1.6l0,0c0.8-1.2,0.8-2.8,0-4C179.6,266.4,172,256,161.2,260.4z"/>
<g>
	<path style="fill:#FFFFFF;" d="M146,170c-3.2-4.4-5.2-9.6-5.2-15.6c0-14.4,11.6-26,26-26c4,0,7.6,0.8,11.2,2.4V170H146z"/>
	<path style="fill:#FFFFFF;" d="M140.4,256c5.6,17.6,15.2,15.6,26,12c11.2-3.6,19.6-7.6,14-24.8c-1.6-4.4-3.6-9.2-6.4-13.6   c-16.8-4.4-28.4-14-33.6-19.6C134.8,219.6,135.6,242,140.4,256z"/>
</g>
<path style="fill:#2B3B4E;" d="M307.2,270.8c0,0,12,31.6,7.6,70.8l-28,17.2c0,0-7.6-28-25.2-44L307.2,270.8z"/>
<path style="fill:#FFFFFF;" d="M326,386.4c-3.2,37.6-14.8,38.8-28.8,37.6c-14-1.2-25.2-4.4-21.6-42c0.8-9.2,2.4-20,4.8-30.4  c19.2-18,31.2-43.2,36.4-57.2C325.2,311.2,328.8,356,326,386.4z"/>
<path style="fill:#2B3B4E;" d="M200.8,270.8c0,0-12,31.6-7.6,70.8l28,17.2c0,0,7.6-28,25.2-44L200.8,270.8z"/>
<g>
	<path style="fill:#FFFFFF;" d="M182,386.4c3.2,37.6,14.8,38.8,28.8,37.6c14-1.2,25.2-4.4,21.6-42c-0.8-9.2-2.4-20-4.8-30.4   c-19.2-18-31.2-43.2-36.4-57.2C182.4,311.2,179.2,356,182,386.4z"/>
	<path style="fill:#FFFFFF;" d="M311.6,262c0,2.8-0.4,5.6-0.4,8.4c-8.8,1.2-18.8,5.6-28,12.8c-14.4,11.2-22.4,25.6-21.6,36   c-2.4,0.4-4.8,0.4-7.6,0.4c-2.4,0-5.2,0-7.6-0.4c0.8-10.8-7.2-25.2-21.6-36c-9.2-7.2-19.6-11.6-28-12.8c-0.4-2.8-0.4-5.6-0.4-8.4   c0-6.8,1.2-13.2,3.2-19.6c15.2,4,34,6.4,54.4,6.4s38.8-2.4,54.4-6.4C310.4,248.4,311.6,255.2,311.6,262z"/>
	<path style="fill:#FFFFFF;" d="M318.4,176.8c-2.8,12.8-7.6,24-14,33.2c-14,7.2-31.6,11.6-50.4,11.6s-36.4-4.4-50.4-11.6   c-6.4-9.2-11.6-20.4-14-33.2c-2.8-14-2.4-28.4,0.8-42c14.8-12.4,37.2-20.4,63.6-20.4s48.8,8,63.6,20.4   C320.8,148.4,321.2,162.8,318.4,176.8z"/>
</g>
<circle style="fill:#FF7058;" cx="254" cy="150" r="13.2"/>
<g>
</g>
<g>
</g>
<g>
</g>
<g>
</g>
<g>
</g>
<g>
</g>
<g>
</g>
<g>
</g>
<g>
</g>
<g>
</g>
<g>
</g>
<g>
</g>
<g>
</g>
<g>
</g>
<g>
</g>
</svg>
