<?xml version="1.0" encoding="iso-8859-1"?>
<!-- Generator: Adobe Illustrator 19.0.0, SVG Export Plug-In . SVG Version: 6.00 Build 0)  -->
<svg xmlns="http://www.w3.org/2000/svg" xmlns:xlink="http://www.w3.org/1999/xlink" version="1.1" id="Layer_1" x="0px" y="0px" viewBox="0 0 508 508" style="enable-background:new 0 0 508 508;" xml:space="preserve">
<circle style="fill:#FD8469;" cx="254" cy="254" r="254"/>
<g>
	<path style="fill:#2B3B4E;" d="M261.2,303.2c9.6,18,21.6,47.6,23.2,82h22c-1.6-33.2-11.2-61.6-20.8-82H261.2z"/>
	<path style="fill:#2B3B4E;" d="M222.4,303.2c-9.6,20.4-19.2,48.8-20.8,82h22c2-34.4,14-63.6,23.2-82H222.4z"/>
</g>
<path style="fill:#F1543F;" d="M104,459.2c42,30.4,94,48.8,150,48.8s108-18.4,150-48.8H104z"/>
<path style="fill:#FFFFFF;" d="M322.8,386.4c0,14-1.6,26.8-4,37.6h-39.6c-2-9.2-3.6-20-4-32c20-24,27.6-55.6,30.4-71.6  C315.6,328.8,322.8,355.2,322.8,386.4z"/>
<path style="fill:#2B3B4E;" d="M319.2,424h-40l-2.8,10.8c-2.4,10,1.6,21.2,8,21.2H314c6.4,0,10.4-11.2,8-21.2L319.2,424z"/>
<path style="fill:#FFFFFF;" d="M185.2,386.4c0,14,1.6,26.8,4,37.6h39.6c2-9.2,3.6-20,4-32c-20-24-27.6-55.6-30.4-71.6  C192.4,328.8,185.2,355.2,185.2,386.4z"/>
<path style="fill:#2B3B4E;" d="M188.8,424h40l2.8,10.8c2.4,10-1.6,21.2-8,21.2H194c-6.4,0-10.4-11.2-8-21.2L188.8,424z"/>
<g>
	<path style="fill:#324A5E;" d="M298.8,68.4L290,70l6,34.8l8.8-1.6c2.4-0.4,4-2.8,3.6-4.8L303.6,72C303.2,69.2,301.2,68,298.8,68.4z   "/>
	<path style="fill:#324A5E;" d="M209.2,68.4L218,70l-6,34.8l-8.8-1.6c-2.4-0.4-4-2.8-3.6-4.8l4.8-26.4   C204.8,69.2,206.8,68,209.2,68.4z"/>
</g>
<path style="fill:#FFFFFF;" d="M300.4,128.4L288,48.8c-0.8-5.6-5.6-9.6-11.2-9.6h-45.2c-5.6,0-10.4,4-11.2,9.6L208,128.4H300.4z"/>
<rect x="225.6" y="76.8" style="fill:#84DBFF;" width="56.8" height="14.4"/>
<path style="fill:#FFFFFF;" d="M293.6,296h-79.2l-35.2-141.2c-1.6-7.2,3.6-14,10.8-14h128c7.2,0,12.8,6.8,10.8,14L293.6,296z"/>
<rect x="229.2" y="128.4" style="fill:#324A5E;" width="49.2" height="12.8"/>
<g>
	<path style="fill:#2B3B4E;" d="M334.4,162.8c4.8,14.4,14,48.4,5.6,84.8h17.6c7.2-35.2,0.4-67.2-5.2-84.8H334.4z"/>
	<path style="fill:#2B3B4E;" d="M350.8,289.6c0,0,4.4,28-7.6,46.8c-3.2,5.2-10.4,5.2-14,0.8l0,0c-2-2.4-2.4-5.6-1.2-8.8l7.2-16.8   l-8,4.8c-3.2,2-7.2,0.8-8.8-2.4l0,0c-1.2-2-1.2-4.4,0-6.4C322.4,300,333.6,283.2,350.8,289.6z"/>
</g>
<circle style="fill:#CED5E0;" cx="339.6" cy="155.2" r="26.4"/>
<g>
	<circle style="fill:#FFFFFF;" cx="339.6" cy="155.2" r="15.2"/>
	<path style="fill:#FFFFFF;" d="M372.8,269.2c-8.4,30.8-20.8,30.4-35.6,26.4c-14.4-4-25.2-10-16.8-40.8c1.2-4.8,2.8-9.6,4.8-14.8   c25.6-6,42.4-27.6,51.6-43.2C381.2,214.8,378.8,247.2,372.8,269.2z"/>
</g>
<g>
	<path style="fill:#2B3B4E;" d="M173.6,162.8c-4.8,14.4-14,48.4-5.6,84.8h-17.6c-7.2-35.2-0.4-67.2,5.2-84.8H173.6z"/>
	<path style="fill:#2B3B4E;" d="M157.2,289.6c0,0-4.4,28,7.6,46.8c3.2,5.2,10.4,5.2,14,0.8l0,0c2-2.4,2.4-5.6,1.2-8.8l-7.2-16.8   l8,4.8c3.2,2,7.2,0.8,8.8-2.4l0,0c1.2-2,1.2-4.4,0-6.4C185.6,300,174.4,283.2,157.2,289.6z"/>
</g>
<circle style="fill:#CED5E0;" cx="168.4" cy="155.2" r="26.4"/>
<g>
	<circle style="fill:#FFFFFF;" cx="168.4" cy="155.2" r="15.2"/>
	<path style="fill:#FFFFFF;" d="M135.2,269.2c8.4,30.8,20.8,30.4,35.6,26.4c14.4-4,25.2-10,16.8-40.8c-1.2-4.8-2.8-9.6-4.8-14.8   c-25.6-6-42.4-27.6-51.6-43.2C126.8,214.8,129.2,247.2,135.2,269.2z"/>
</g>
<rect x="214.4" y="296" style="fill:#CED5E0;" width="78.8" height="11.6"/>
<g>
</g>
<g>
</g>
<g>
</g>
<g>
</g>
<g>
</g>
<g>
</g>
<g>
</g>
<g>
</g>
<g>
</g>
<g>
</g>
<g>
</g>
<g>
</g>
<g>
</g>
<g>
</g>
<g>
</g>
</svg>
