<?xml version="1.0" encoding="iso-8859-1"?>
<!-- Generator: Adobe Illustrator 19.0.0, SVG Export Plug-In . SVG Version: 6.00 Build 0)  -->
<svg xmlns="http://www.w3.org/2000/svg" xmlns:xlink="http://www.w3.org/1999/xlink" version="1.1" id="Layer_1" x="0px" y="0px" viewBox="0 0 508 508" style="enable-background:new 0 0 508 508;" xml:space="preserve">
<circle style="fill:#FFD05B;" cx="254" cy="254" r="254"/>
<path style="fill:#F9B54C;" d="M84,442.8c45.2,40.8,104.8,65.2,170,65.2s125.2-24.8,170-65.2H84z"/>
<g>
	<rect x="246" y="134" style="fill:#324A5E;" width="15.6" height="39.2"/>
	<polygon style="fill:#324A5E;" points="331.6,414.8 287.2,299.6 260,310 300.4,414.8  "/>
</g>
<circle style="fill:#FFFFFF;" cx="296" cy="365.6" r="23.6"/>
<circle style="fill:#E6E9EE;" cx="296" cy="365.6" r="12.8"/>
<path style="fill:#FFFFFF;" d="M364.8,442h-71.6v-28h43.6C352.4,413.6,364.8,426.4,364.8,442L364.8,442z"/>
<polygon style="fill:#324A5E;" points="207.6,414.8 248,310 220.8,299.6 176.4,414.8 "/>
<circle style="fill:#FFFFFF;" cx="212" cy="365.6" r="23.6"/>
<circle style="fill:#E6E9EE;" cx="212" cy="365.6" r="12.8"/>
<path style="fill:#FFFFFF;" d="M143.2,442h71.6v-28h-43.6C155.6,413.6,143.2,426.4,143.2,442L143.2,442z"/>
<g>
	<path style="fill:#E6E9EE;" d="M350.4,180c0.8-2.8,1.6-5.6,1.6-8.8c0-14.8-12-26.4-26.4-26.4c-14.8,0-26.4,12-26.4,26.4   c0,3.2,0.4,6,1.6,8.8H350.4z"/>
	<path style="fill:#E6E9EE;" d="M207.6,180c0.8-2.8,1.6-5.6,1.6-8.8c0-14.8-12-26.4-26.4-26.4c-14.8,0-26.4,12-26.4,26.4   c0,3.2,0.4,6,1.6,8.8H207.6z"/>
</g>
<polygon style="fill:#FFFFFF;" points="303.2,84.4 295.6,84.4 298.4,48.8 300.8,48.8 "/>
<circle style="fill:#FF7058;" cx="299.6" cy="49.6" r="4"/>
<polygon style="fill:#FFFFFF;" points="212.4,84.4 204.8,84.4 207.2,48.8 209.6,48.8 "/>
<circle style="fill:#FF7058;" cx="208.4" cy="49.6" r="4"/>
<g>
	<path style="fill:#324A5E;" d="M288,106h13.2c2.4,0,4.4-2,4.4-4.4V84.8c0-2.4-2-4.4-4.4-4.4H288V106z"/>
	<path style="fill:#324A5E;" d="M217.2,106h-10.4c-2.4,0-4.4-2-4.4-4.4V84.8c0-2.4,2-4.4,4.4-4.4h10.4V106z"/>
</g>
<path style="fill:#FF7058;" d="M295.6,93.2c0,27.6-18.8,55.2-41.6,55.2s-41.6-27.6-41.6-55.2S231.2,48,254,48S295.6,65.6,295.6,93.2  z"/>
<ellipse style="fill:#FFFFFF;" cx="254" cy="92" rx="34" ry="18.4"/>
<g>
	<circle style="fill:#84DBFF;" cx="271.6" cy="92" r="8"/>
	<circle style="fill:#84DBFF;" cx="236.4" cy="92" r="8"/>
</g>
<path style="fill:#FFFFFF;" d="M208.8,292.8h90l16-117.6c1.2-8.8-5.6-16.8-14.4-16.8h-92.8c-8.8,0-15.6,8-14.4,16.8L208.8,292.8z"/>
<path style="fill:#E6E9EE;" d="M298.8,292.8v18.4c-4-1.2-8-1.6-12-1.6c-13.2,0-24.8,6-32.8,15.6c-8-9.2-19.6-15.6-32.8-15.6  c-4.4,0-8.4,0.8-12,1.6v-18.4H298.8z"/>
<polygon style="fill:#324A5E;" points="346.4,278.8 332,278.8 323.2,180 345.2,180 "/>
<circle style="fill:#FFFFFF;" cx="337.6" cy="268.8" r="18.4"/>
<circle style="fill:#CED5E0;" cx="337.6" cy="268.8" r="10.4"/>
<path style="fill:#FFFFFF;" d="M341.2,315.6c-6,6-13.2,9.2-19.2,9.6c1.2-0.8,2-1.6,2.8-2.8c10-9.6,14-21.2,9.6-26  c-4-4-13.2-1.6-21.6,5.2c1.6-2.8,4-6,6.4-8.4c10-9.6,22.8-12.4,28.8-6.4C354,293.2,350.8,306,341.2,315.6z"/>
<polygon style="fill:#324A5E;" points="161.6,278.8 176,278.8 184.8,180 162.8,180 "/>
<circle style="fill:#FFFFFF;" cx="170.4" cy="268.8" r="18.4"/>
<circle style="fill:#CED5E0;" cx="170.4" cy="268.8" r="10.4"/>
<path style="fill:#FFFFFF;" d="M166.8,315.6c6,6,13.2,9.2,19.2,9.6c-1.2-0.8-2-1.6-2.8-2.8c-10-9.6-14-21.2-9.6-26  c4-4,13.2-1.6,21.6,5.2c-1.6-2.8-4-6-6.4-8.4c-10-9.6-22.8-12.4-28.8-6.4C154,293.2,157.2,306,166.8,315.6z"/>
<g>
</g>
<g>
</g>
<g>
</g>
<g>
</g>
<g>
</g>
<g>
</g>
<g>
</g>
<g>
</g>
<g>
</g>
<g>
</g>
<g>
</g>
<g>
</g>
<g>
</g>
<g>
</g>
<g>
</g>
</svg>
