<?xml version="1.0" encoding="iso-8859-1"?>
<!-- Generator: Adobe Illustrator 19.0.0, SVG Export Plug-In . SVG Version: 6.00 Build 0)  -->
<svg xmlns="http://www.w3.org/2000/svg" xmlns:xlink="http://www.w3.org/1999/xlink" version="1.1" id="Layer_1" x="0px" y="0px" viewBox="0 0 508 508" style="enable-background:new 0 0 508 508;" xml:space="preserve">
<circle style="fill:#FFD05B;" cx="254" cy="254" r="254"/>
<path style="fill:#F9B54C;" d="M74.8,433.6c46,46,109.2,74.4,179.2,74.4s133.2-28.4,179.2-74.4H74.8z"/>
<g>
	<path style="fill:#324A5E;" d="M226,320v83.2c-5.2-2.8-11.2-4.8-17.6-4.8c-5.2,0-10,1.2-14.8,3.2l6-82H226V320z"/>
	<path style="fill:#324A5E;" d="M314.4,402c-4.4-2-9.6-3.2-14.8-3.2c-6.4,0-12.4,1.6-17.6,4.8V320h26.4L314.4,402z"/>
	<path style="fill:#324A5E;" d="M412.8,243.2l-10.4,22.4l-4.8-6.4l9.2-20C408.4,241.2,410.4,242.4,412.8,243.2z"/>
	<path style="fill:#324A5E;" d="M422.8,244l-11.2,33.6l-5.2-6.8l8.8-26.8C418,244.8,420.4,244.8,422.8,244z"/>
	<path style="fill:#324A5E;" d="M403.2,193.2c-5.6,4-8.8,11.6-8.4,20.4l-52.8-26v-32.4L403.2,193.2z"/>
</g>
<g>

		<ellipse transform="matrix(-0.2957 -0.9553 0.9553 -0.2957 330.6524 678.9407)" style="fill:#FFFFFF;" cx="415.609" cy="217.58" rx="27.601" ry="20"/>
	<path style="fill:#FFFFFF;" d="M416,283.2l-19.2-24.4c-3.6-4.8-10.4-5.6-15.2-1.6l-16,12.8c-2.8,2-4.8,4.4-6.4,7.2   c-0.8-0.8-2-1.6-3.2-2.4c-5.2-2-10.8,0.4-12.8,5.6s0.4,10.8,5.6,12.8c2.4,0.8,4.8,0.8,6.8,0c0,1.6,0.4,3.2,0.8,4.8   c-3.6,0.4-6.8,2.8-8,6c-2,5.2,0.4,10.8,5.6,12.8c4.8,2,10.4-0.4,12.4-5.2c1.6,1.2,3.2,2,4.8,2.8c-1.6,1.2-2.8,2.4-3.6,4.4   c-2,5.2,0.4,10.8,5.6,12.8s10.8-0.4,12.8-5.6c1.2-3.2,0.8-7.2-1.6-9.6c4.8-0.4,9.6-2.4,13.6-5.6l16.4-12.8   C418.8,294.8,420,288,416,283.2z"/>
</g>
<g>
	<path style="fill:#324A5E;" d="M110.8,259.2l-4.8,6.4l-10.4-22.4c2-0.8,4-2,6-3.6L110.8,259.2z"/>
	<path style="fill:#324A5E;" d="M101.6,270.8l-5.2,6.8L85.2,244c2.4,0.8,4.8,0.4,7.6,0L101.6,270.8z"/>
	<path style="fill:#324A5E;" d="M166.4,155.6V188l-53.2,26c0.4-8.8-2.8-16.4-8.4-20.4L166.4,155.6z"/>
</g>
<g>

		<ellipse transform="matrix(-0.2957 0.9553 -0.9553 -0.2957 327.7551 193.5186)" style="fill:#FFFFFF;" cx="92.539" cy="217.582" rx="27.601" ry="20"/>
	<path style="fill:#FFFFFF;" d="M92,283.2l19.2-24.4c3.6-4.8,10.4-5.6,15.2-1.6l16.4,12.8c2.8,2,4.8,4.4,6.4,7.2   c0.8-0.8,2-1.6,3.2-2.4c5.2-2,10.8,0.4,12.8,5.6s-0.4,10.8-5.6,12.8c-2.4,0.8-4.8,0.8-6.8,0c0,1.6-0.4,3.2-0.8,4.8   c3.6,0.4,6.8,2.8,8,6c2,5.2-0.4,10.8-5.6,12.8c-4.8,2-10.4-0.4-12.4-5.2c-1.6,1.2-3.2,2-4.8,2.8c1.6,1.2,2.8,2.4,3.6,4.4   c2,5.2-0.4,10.8-5.6,12.8c-5.2,2-10.8-0.4-12.8-5.6c-1.2-3.2-0.8-7.2,1.6-9.6c-4.8-0.4-9.6-2.4-13.6-5.6L94,298   C89.2,294.8,88,288,92,283.2z"/>
</g>
<g>
	<path style="fill:#FF7058;" d="M331.6,78c0,2-0.8,4-2.4,5.6l-8.4,8.4c-1.6-2-3.2-3.6-4.8-5.2c-2-2-4.4-4-6.8-6l8.4-8.4   c3.2-3.2,8.4-3.2,11.2,0C330.8,73.6,331.6,76,331.6,78z"/>
	<path style="fill:#FF7058;" d="M198.8,80.8c-4,3.2-8,7.2-11.6,11.2l-8.4-8.4c-1.6-1.6-2.4-3.6-2.4-5.6s0.8-4,2.4-5.6   c3.2-3.2,8.4-3.2,11.6,0L198.8,80.8z"/>
</g>
<g>
	<path style="fill:#FFFFFF;" d="M172.4,433.6c0.8-19.2,16.4-34.8,36-34.8s35.2,15.6,36,34.8H172.4z"/>
	<path style="fill:#FFFFFF;" d="M335.6,433.6c-0.8-19.2-16.4-34.8-36-34.8s-35.2,15.6-36,34.8H335.6z"/>
	<path style="fill:#FFFFFF;" d="M326.8,320H181.2c-8.4,0-14.8-6.8-14.8-14.8V148.8c0-48.4,39.2-87.6,87.6-87.6l0,0   c48.4,0,87.6,39.2,87.6,87.6v156.4C341.6,313.2,334.8,320,326.8,320z"/>
</g>
<rect x="166.4" y="162" style="fill:#E6E9EE;" width="175.2" height="13.2"/>
<circle style="fill:#FFFFFF;" cx="282.4" cy="126.4" r="19.2"/>
<circle style="fill:#84DBFF;" cx="282.4" cy="126.4" r="13.2"/>
<circle style="fill:#54C0EB;" cx="282.4" cy="126.4" r="7.6"/>
<g>
	<circle style="fill:#FFFFFF;" cx="277.6" cy="121.6" r="3.6"/>
	<circle style="fill:#FFFFFF;" cx="225.6" cy="126.4" r="19.2"/>
</g>
<circle style="fill:#84DBFF;" cx="225.6" cy="126.4" r="13.2"/>
<circle style="fill:#54C0EB;" cx="225.6" cy="126.4" r="7.6"/>
<circle style="fill:#FFFFFF;" cx="221.2" cy="121.6" r="3.6"/>
<g>
</g>
<g>
</g>
<g>
</g>
<g>
</g>
<g>
</g>
<g>
</g>
<g>
</g>
<g>
</g>
<g>
</g>
<g>
</g>
<g>
</g>
<g>
</g>
<g>
</g>
<g>
</g>
<g>
</g>
</svg>
