<?xml version="1.0" encoding="iso-8859-1"?>
<!-- Generator: Adobe Illustrator 19.0.0, SVG Export Plug-In . SVG Version: 6.00 Build 0)  -->
<svg xmlns="http://www.w3.org/2000/svg" xmlns:xlink="http://www.w3.org/1999/xlink" version="1.1" id="Layer_1" x="0px" y="0px" viewBox="0 0 508 508" style="enable-background:new 0 0 508 508;" xml:space="preserve">
<circle style="fill:#84DBFF;" cx="254" cy="254" r="254"/>
<path style="fill:#54C0EB;" d="M109.6,463.2C150.4,491.6,200.4,508,254,508s103.2-16.8,144.4-44.8H109.6z"/>
<g>
	<path style="fill:#FFFFFF;" d="M318.4,110.4h-6V73.2c0-8.4-6.8-15.2-15.2-15.2h-20.8v-6h20.8c11.6,0,21.2,9.6,21.2,21.2V110.4z"/>
	<path style="fill:#FFFFFF;" d="M299.6,144.8h-91.2c-4.8,0-8.8-4-8.8-8.8V84.4c0-4.8,4-8.8,8.8-8.8h91.2c4.8,0,8.8,4,8.8,8.8V136   C308.4,140.8,304.4,144.8,299.6,144.8z"/>
	<path style="fill:#FFFFFF;" d="M317.6,307.2H190.4c-6.8,0-12-5.6-12-12V170c0-6.8,5.6-12,12-12H318c6.8,0,12,5.6,12,12v125.2   C329.6,302,324.4,307.2,317.6,307.2z"/>
</g>
<g>
	<rect x="219.6" y="144.8" style="fill:#324A5E;" width="68.8" height="13.6"/>
	<rect x="269.2" y="307.2" style="fill:#324A5E;" width="36.4" height="142.8"/>
</g>
<path style="fill:#FFFFFF;" d="M310.8,396H264c-1.6,0-2.8-1.2-2.8-2.8v-28c0-1.6,1.2-2.8,2.8-2.8h46.8c1.6,0,2.8,1.2,2.8,2.8v28  C313.6,394.8,312.4,396,310.8,396z"/>
<rect x="202.4" y="307.2" style="fill:#324A5E;" width="36.4" height="142.8"/>
<g>
	<path style="fill:#FFFFFF;" d="M244,396h-46.8c-1.6,0-2.8-1.2-2.8-2.8v-28c0-1.6,1.2-2.8,2.8-2.8H244c1.6,0,2.8,1.2,2.8,2.8v28   C246.8,394.8,245.6,396,244,396z"/>
	<path style="fill:#FFFFFF;" d="M312,462.8c0.4-2.4,0.8-5.2,0.8-7.6c0-17.2-11.2-31.2-25.6-31.2c-14,0-25.6,14-25.6,31.2   c0,2.8,0.4,5.2,0.8,7.6H312z"/>
	<path style="fill:#FFFFFF;" d="M245.2,462.8c0.4-2.4,0.8-5.2,0.8-7.6c0-17.2-11.2-31.2-25.6-31.2c-14,0-25.6,14-25.6,31.2   c0,2.8,0.4,5.2,0.8,7.6H245.2z"/>
</g>
<g>
	<rect x="268" y="90.4" style="fill:#54C0EB;" width="23.2" height="9.6"/>
	<rect x="216.8" y="90.4" style="fill:#54C0EB;" width="23.2" height="9.6"/>
</g>
<g>
	<path style="fill:#324A5E;" d="M319.2,123.2H308v-26h11.2c1.6,0,3.2,1.6,3.2,3.2v20C322.4,122,321.2,123.2,319.2,123.2z"/>
	<path style="fill:#324A5E;" d="M188.8,123.2H200v-26h-11.2c-1.6,0-3.2,1.6-3.2,3.2v20C185.6,122,186.8,123.2,188.8,123.2z"/>
</g>
<circle style="fill:#FF7058;" cx="276.8" cy="54.8" r="11.6"/>
<g>
	<rect x="348" y="193.6" style="fill:#324A5E;" width="30" height="121.6"/>
	<rect x="329.6" y="176" style="fill:#324A5E;" width="30.4" height="23.2"/>
</g>
<g>
	<path style="fill:#FFFFFF;" d="M360,171.6h-19.2v32h44v-7.2C384.8,182.8,373.6,171.6,360,171.6z"/>
	<path style="fill:#FFFFFF;" d="M378.4,266.8h-31.2c-2,0-3.6-1.6-3.6-3.6v-22.4c0-2,1.6-3.6,3.6-3.6h31.2c2,0,3.6,1.6,3.6,3.6v22.4   C382,265.2,380.4,266.8,378.4,266.8z"/>
	<path style="fill:#FFFFFF;" d="M376,303.2c-2.4,0-4.4,2-4.4,4.4c0-2.4-2-4.4-4.4-4.4l0,0c-2.4,0-4.4,2-4.4,4.4c0-2.4-2-4.4-4.4-4.4   s-4.4,2-4.4,4.4c0-2.4-2-4.4-4.4-4.4s-4.4,2-4.4,4.4v16.8c0,2.4,2,4.4,4.4,4.4s4.4-2,4.4-4.4c0,2.4,2,4.4,4.4,4.4s4.4-2,4.4-4.4   c0,2.4,2,4.4,4.4,4.4l0,0c2.4,0,4.4-2,4.4-4.4c0,2.4,2,4.4,4.4,4.4s4.4-2,4.4-4.4v-16.8C380.8,305.2,378.8,303.2,376,303.2z"/>
</g>
<g>
	<rect x="130.4" y="193.6" style="fill:#324A5E;" width="30" height="121.6"/>
	<rect x="147.6" y="176" style="fill:#324A5E;" width="30.4" height="23.2"/>
</g>
<g>
	<path style="fill:#FFFFFF;" d="M148,171.6h19.2v32h-44v-7.2C123.2,182.8,134.4,171.6,148,171.6z"/>
	<path style="fill:#FFFFFF;" d="M129.6,266.8h31.2c2,0,3.6-1.6,3.6-3.6v-22.4c0-2-1.6-3.6-3.6-3.6h-31.2c-2,0-3.6,1.6-3.6,3.6v22.4   C126,265.2,127.6,266.8,129.6,266.8z"/>
	<path style="fill:#FFFFFF;" d="M132,303.2c2.4,0,4.4,2,4.4,4.4c0-2.4,2-4.4,4.4-4.4l0,0c2.4,0,4.4,2,4.4,4.4c0-2.4,2-4.4,4.4-4.4   s4.4,2,4.4,4.4c0-2.4,2-4.4,4.4-4.4s4.4,2,4.4,4.4v16.8c0,2.4-2,4.4-4.4,4.4s-4.4-2-4.4-4.4c0,2.4-2,4.4-4.4,4.4s-4.4-2-4.4-4.4   c0,2.4-2,4.4-4.4,4.4l0,0c-2.4,0-4.4-2-4.4-4.4c0,2.4-2,4.4-4.4,4.4s-4.4-2-4.4-4.4v-16.8C127.2,305.2,129.2,303.2,132,303.2z"/>
</g>
<g>
</g>
<g>
</g>
<g>
</g>
<g>
</g>
<g>
</g>
<g>
</g>
<g>
</g>
<g>
</g>
<g>
</g>
<g>
</g>
<g>
</g>
<g>
</g>
<g>
</g>
<g>
</g>
<g>
</g>
</svg>
