<?xml version="1.0" encoding="iso-8859-1"?>
<!-- Generator: Adobe Illustrator 19.0.0, SVG Export Plug-In . SVG Version: 6.00 Build 0)  -->
<svg xmlns="http://www.w3.org/2000/svg" xmlns:xlink="http://www.w3.org/1999/xlink" version="1.1" id="Layer_1" x="0px" y="0px" viewBox="0 0 508 508" style="enable-background:new 0 0 508 508;" xml:space="preserve">
<circle style="fill:#FD8469;" cx="254" cy="254" r="254"/>
<g>
	<rect x="352.4" y="209.2" style="fill:#324A5E;" width="46" height="23.2"/>
	<rect x="395.2" y="212.8" style="fill:#324A5E;" width="14.8" height="100.4"/>
</g>
<g>
	<circle style="fill:#FFFFFF;" cx="402.8" cy="220.8" r="22.4"/>
	<path style="fill:#FFFFFF;" d="M415.2,322.8c2.8-2.8,4.8-6.8,4.4-10.8c-0.4-8-7.2-14.4-15.2-14.4c-8,0.4-14.4,7.2-14.4,15.2   c0,3.2,1.2,6.4,3.2,8.8c-6.8,3.2-13.2,8.8-18.4,16.4c-3.6,4.8-6,10-7.2,15.2c9.6-10,19.6-14.4,25.2-10.8c7.2,4.8,4,22-7.2,38   c-0.4,0.4-0.8,1.2-1.2,1.6c9.2-1.2,19.6-8,27.2-18.8C422.4,348,423.6,330.8,415.2,322.8z"/>
</g>
<g>
	<rect x="109.6" y="209.2" style="fill:#324A5E;" width="46" height="23.2"/>
	<rect x="98" y="212.8" style="fill:#324A5E;" width="14.8" height="100.4"/>
</g>
<g>
	<circle style="fill:#FFFFFF;" cx="105.2" cy="220.8" r="22.4"/>
	<path style="fill:#FFFFFF;" d="M92.8,322.8C90,320,88,316,88.4,312c0.4-8,7.2-14.4,15.2-14.4c8,0.4,14.4,7.2,14.4,15.2   c0,3.2-1.2,6.4-3.2,8.8c6.8,3.2,13.2,8.8,18.4,16.4c3.6,4.8,6,10,7.2,15.2c-9.6-10-19.6-14.4-25.2-10.8c-7.2,4.8-4,22,7.2,38   c0.4,0.4,0.8,1.2,1.2,1.6c-9.2-1.2-19.6-8-27.2-18.8C85.6,348,84.4,330.8,92.8,322.8z"/>
</g>
<path style="fill:#F1543F;" d="M85.2,443.6c44.8,40,104,64.4,168.8,64.4s124-24.4,168.8-64.4H85.2z"/>
<path style="fill:#324A5E;" d="M254,324.8L254,324.8c-15.2,0-27.6,12.4-27.6,27.6v64c0,15.2,12.4,27.6,27.6,27.6l0,0  c15.2,0,27.6-12.4,27.6-27.6v-64C281.6,337.2,269.2,324.8,254,324.8z"/>
<path style="fill:#FFFFFF;" d="M309.6,163.6H198.4c-4.4,0-8.4-3.6-8.4-8.4V62.4c0-4.4,4-8.4,8.4-8.4h111.2c4.4,0,8.4,4,8.4,8.4v92.8  C318,160,314,163.6,309.6,163.6z"/>
<g>
	<path style="fill:#324A5E;" d="M318,78.8v60.4l0,0c8.8,0,15.6-7.2,15.6-15.6V94.8C333.6,86,326.4,78.8,318,78.8L318,78.8z"/>
	<path style="fill:#324A5E;" d="M190,78.8v60.4l0,0c-8.8,0-15.6-7.2-15.6-15.6V94.8C174.4,86,181.6,78.8,190,78.8L190,78.8z"/>
</g>
<g>
	<circle style="fill:#84DBFF;" cx="284" cy="90" r="14.4"/>
	<circle style="fill:#84DBFF;" cx="224" cy="90" r="14.4"/>
</g>
<path style="fill:#FFFFFF;" d="M342.4,181.6H165.6c-10.4,0-18.8,8.4-18.8,18.8v154.8c0,10.4,8.4,18.8,18.8,18.8h176.8  c10.4,0,18.8-8.4,18.8-18.8V200C361.2,190,352.8,181.6,342.4,181.6z"/>
<g>
	<path style="fill:#E6E9EE;" d="M326.4,228H181.6c-6,0-10.8-4.8-10.8-10.8l0,0c0-6,4.8-10.8,10.8-10.8h144.8c6,0,10.8,4.8,10.8,10.8   l0,0C337.2,223.2,332.4,228,326.4,228z"/>
	<path style="fill:#E6E9EE;" d="M326.4,268H181.6c-6,0-10.8-4.8-10.8-10.8l0,0c0-6,4.8-10.8,10.8-10.8h144.8c6,0,10.8,4.8,10.8,10.8   l0,0C337.2,263.2,332.4,268,326.4,268z"/>
	<path style="fill:#E6E9EE;" d="M326.4,308.4H181.6c-6,0-10.8-4.8-10.8-10.8l0,0c0-6,4.8-10.8,10.8-10.8h144.8   c6,0,10.8,4.8,10.8,10.8l0,0C337.2,303.6,332.4,308.4,326.4,308.4z"/>
	<path style="fill:#E6E9EE;" d="M326.4,348.4H181.6c-6,0-10.8-4.8-10.8-10.8l0,0c0-6,4.8-10.8,10.8-10.8h144.8   c6,0,10.8,4.8,10.8,10.8l0,0C337.2,343.6,332.4,348.4,326.4,348.4z"/>
</g>
<g>
</g>
<g>
</g>
<g>
</g>
<g>
</g>
<g>
</g>
<g>
</g>
<g>
</g>
<g>
</g>
<g>
</g>
<g>
</g>
<g>
</g>
<g>
</g>
<g>
</g>
<g>
</g>
<g>
</g>
</svg>
