<?xml version="1.0" encoding="iso-8859-1"?>
<!-- Generator: Adobe Illustrator 19.0.0, SVG Export Plug-In . SVG Version: 6.00 Build 0)  -->
<svg xmlns="http://www.w3.org/2000/svg" xmlns:xlink="http://www.w3.org/1999/xlink" version="1.1" id="Layer_1" x="0px" y="0px" viewBox="0 0 508 508" style="enable-background:new 0 0 508 508;" xml:space="preserve">
<circle style="fill:#90DFAA;" cx="254" cy="254" r="254"/>
<g>
	<path style="fill:#2B3B4E;" d="M419.2,320c-6.4-4.8-10-12.8-10-21.6V284l-24.8-101.2c-1.2-4.4-5.2-6.8-9.6-6   c-0.8,0-1.6,0.4-2.4,0.8H135.2c-0.8-0.4-1.6-0.8-2.4-0.8c-4.4-1.2-8.4,1.6-9.6,6L98.4,284v14.4c0,8.8-3.6,16.8-10,21.6   c-8.8,6.8-13.2,18-10.8,29.6c2.4,11.2,11.2,20,22.4,22.4c2,0.4,4,0.8,6,0.8c6.8,0,13.2-2.4,18.4-6.4c6.8-5.6,10.8-14,10.8-22.8   c0-4.4-3.6-8-8-8c-4.4,0-8,3.6-8,8c0,4-2,8-4.8,10.4c-3.2,2.8-7.2,3.6-11.6,2.8c-5.2-1.2-9.2-5.2-10-10c-1.2-5.2,0.8-10.4,4.8-13.6   c10-7.6,16-20.4,16-34.4V286l21.6-88.8h235.2l22.8,88.8v12.4c0,13.6,6,26.4,16,34.4c4,3.2,6,8.4,4.8,13.6s-5.2,9.2-10,10   c-4,0.8-8.4,0-11.6-2.8c-3.2-2.4-4.8-6.4-4.8-10.4c0-4.4-3.6-8-8-8s-8,3.6-8,8c0,8.8,4,17.2,10.8,22.8c5.2,4.4,11.6,6.4,18.4,6.4   c2,0,4-0.4,6-0.8c11.2-2.4,20-11.2,22.4-22.4C432,338.4,428,327.2,419.2,320z"/>
	<rect x="274" y="271.2" style="fill:#2B3B4E;" width="27.2" height="164"/>
</g>
<circle style="fill:#324A5E;" cx="287.6" cy="335.2" r="25.6"/>
<g>
	<circle style="fill:#2B3B4E;" cx="287.6" cy="335.2" r="13.6"/>
	<rect x="201.2" y="271.2" style="fill:#2B3B4E;" width="27.2" height="164"/>
</g>
<circle style="fill:#324A5E;" cx="214.8" cy="335.2" r="25.6"/>
<circle style="fill:#2B3B4E;" cx="214.8" cy="335.2" r="13.6"/>
<path style="fill:#2C9984;" d="M85.2,443.6c44.8,40,104,64.4,168.8,64.4s124-24.4,168.8-64.4H85.2z"/>
<g>
	<path style="fill:#324A5E;" d="M269.2,443.6h88c0-18.8-15.2-34-34-34h-54V443.6z"/>
	<path style="fill:#324A5E;" d="M238.8,443.6h-88c0-18.8,15.2-34,34-34h54V443.6z"/>
	<path style="fill:#324A5E;" d="M308,138.4H200c-4,0-7.2-3.2-7.2-7.2V72.8c0-4,3.2-7.2,7.2-7.2h108.4c4,0,7.2,3.2,7.2,7.2v58.4   C315.2,135.2,312,138.4,308,138.4z"/>
</g>
<circle style="fill:#FFFFFF;" cx="288.8" cy="88" r="15.2"/>
<circle style="fill:#FF7058;" cx="288.8" cy="88" r="8.4"/>
<circle style="fill:#FFFFFF;" cx="219.2" cy="88" r="15.2"/>
<circle style="fill:#FF7058;" cx="219.2" cy="88" r="8.4"/>
<rect x="240" y="138.4" style="fill:#2B3B4E;" width="28" height="20"/>
<path style="fill:#324A5E;" d="M320,158.8H188c-6.4,0-12,5.2-12,12V272c0,6.4,5.2,12,12,12h132c6.4,0,12-5.2,12-12V170.8  C332,164,326.4,158.8,320,158.8z"/>
<g>
	<rect x="223.6" y="111.2" style="fill:#2B3B4E;" width="14.8" height="14.8"/>
	<rect x="246.4" y="111.2" style="fill:#2B3B4E;" width="14.8" height="14.8"/>
	<rect x="269.6" y="111.2" style="fill:#2B3B4E;" width="14.8" height="14.8"/>
	<path style="fill:#2B3B4E;" d="M315.2,124.8h11.2c2.8,0,5.6-2.4,5.6-5.6V84.8c0-2.8-2.4-5.6-5.6-5.6h-11.2V124.8z"/>
	<path style="fill:#2B3B4E;" d="M192.8,124.8h-11.2c-2.8,0-5.6-2.4-5.6-5.6V84.8c0-2.8,2.4-5.6,5.6-5.6h11.2V124.8z"/>
	<circle style="fill:#2B3B4E;" cx="376.8" cy="184.8" r="24.4"/>
</g>
<circle style="fill:#324A5E;" cx="376.8" cy="184.8" r="12.8"/>
<circle style="fill:#2B3B4E;" cx="401.2" cy="285.2" r="16.8"/>
<circle style="fill:#324A5E;" cx="401.2" cy="285.2" r="8.8"/>
<circle style="fill:#2B3B4E;" cx="131.2" cy="184.8" r="24.4"/>
<circle style="fill:#324A5E;" cx="131.2" cy="184.8" r="12.8"/>
<circle style="fill:#2B3B4E;" cx="106.8" cy="285.2" r="16.8"/>
<circle style="fill:#324A5E;" cx="106.8" cy="285.2" r="8.8"/>
<g>
</g>
<g>
</g>
<g>
</g>
<g>
</g>
<g>
</g>
<g>
</g>
<g>
</g>
<g>
</g>
<g>
</g>
<g>
</g>
<g>
</g>
<g>
</g>
<g>
</g>
<g>
</g>
<g>
</g>
</svg>
