<?xml version="1.0" encoding="iso-8859-1"?>
<!-- Generator: Adobe Illustrator 19.0.0, SVG Export Plug-In . SVG Version: 6.00 Build 0)  -->
<svg xmlns="http://www.w3.org/2000/svg" xmlns:xlink="http://www.w3.org/1999/xlink" version="1.1" id="Layer_1" x="0px" y="0px" viewBox="0 0 508 508" style="enable-background:new 0 0 508 508;" xml:space="preserve">
<circle style="fill:#54C0EB;" cx="254" cy="254" r="254"/>
<path style="fill:#84DBFF;" d="M84,442.8c45.2,40.8,104.8,65.2,170,65.2s125.2-24.8,170-65.2H84z"/>
<g>
	<rect x="243.6" y="98.4" style="fill:#324A5E;" width="20.8" height="28.4"/>
	<rect x="274.8" y="233.6" style="fill:#324A5E;" width="17.2" height="62"/>
	<path style="fill:#324A5E;" d="M320.8,388.4c4.8,42.4-5.6,55.2-20.4,55.2s-28-12.8-32.8-55.2s0.8-92.8,15.6-92.8   S316,346,320.8,388.4z"/>
</g>
<g>
	<circle style="fill:#FFFFFF;" cx="283.2" cy="295.6" r="24"/>
	<path style="fill:#FFFFFF;" d="M364,443.6c-2-15.6-5.2-27.6-21.2-27.6s-39.2,12-41.2,27.6H364z"/>
</g>
<g>
	<rect x="216" y="233.6" style="fill:#324A5E;" width="17.2" height="62"/>
	<path style="fill:#324A5E;" d="M187.2,388.4c-4.8,42.4,5.6,55.2,20.4,55.2c14.8,0,28-12.8,32.8-55.2s-0.8-92.8-15.6-92.8   S192,346,187.2,388.4z"/>
</g>
<g>
	<circle style="fill:#FFFFFF;" cx="224.8" cy="295.6" r="24"/>
	<path style="fill:#FFFFFF;" d="M144,443.6c2-15.6,5.2-27.6,21.2-27.6s39.2,12,41.2,27.6H144z"/>
</g>
<g>
	<path style="fill:#324A5E;" d="M402,282c7.2,24.4-2,24.4-13.2,24.4s-20.4,0-27.6-24.4s-9.6-64,1.6-64S394.8,257.6,402,282z"/>
	<rect x="353.6" y="185.2" style="fill:#324A5E;" width="20.8" height="26"/>
</g>
<g>
	<circle style="fill:#FFFFFF;" cx="364" cy="220.4" r="17.2"/>
	<path style="fill:#FFFFFF;" d="M375.6,286c-14.4,7.6-16.8,30.4-6,51.6c5.6-16.8,17.2-27.6,27.6-25.6c12,2.4,18,21.2,13.6,42   c-0.8,4-2,8-3.6,11.2c3.6,0,6.8-0.8,10-2.4c14.4-8,16.8-31.2,5.6-52.4S390,278.4,375.6,286z"/>
</g>
<g>
	<path style="fill:#324A5E;" d="M106,282c-7.2,24,2,24,13.2,24s20.4,0,27.6-24.4c7.2-24.4,9.6-64-1.6-64   C134,218,113.2,257.6,106,282z"/>
	<rect x="134" y="185.2" style="fill:#324A5E;" width="20.8" height="26"/>
</g>
<g>
	<circle style="fill:#FFFFFF;" cx="144" cy="220.4" r="17.2"/>
	<path style="fill:#FFFFFF;" d="M132.4,286c14.4,7.6,16.8,30.4,6,51.6c-5.6-16.8-17.2-27.6-27.6-25.6c-12,2.4-18,21.2-13.6,42   c0.8,4,2,8,3.6,11.2c-3.6,0-6.8-0.8-10-2.4c-14.4-8-16.8-31.2-5.6-52.4S118,278.4,132.4,286z"/>
</g>
<rect x="322" y="153.6" style="fill:#324A5E;" width="41.2" height="20.8"/>
<path style="fill:#FFFFFF;" d="M372.8,138.4h-25.6v50.4h25.6c4.8,0,8.4-3.6,8.4-8.4v-33.6C381.6,142.4,377.6,138.4,372.8,138.4z"/>
<rect x="144.8" y="153.6" style="fill:#324A5E;" width="41.2" height="20.8"/>
<g>
	<path style="fill:#FFFFFF;" d="M135.2,138.4h25.6v50.4h-25.6c-4.8,0-8.4-3.6-8.4-8.4v-33.6C126.4,142.4,130.4,138.4,135.2,138.4z"/>
	<path style="fill:#FFFFFF;" d="M203.6,247.6H304c0.4-19.2,6.4-38.4,18-53.6c5.6-7.6,8.8-16,8.8-25.2c0-30-34.4-54-77.2-54   s-77.2,24.4-77.2,54c0,9.2,3.2,17.6,8.8,25.2C197.6,209.2,203.2,228,203.6,247.6z"/>
	<path style="fill:#FFFFFF;" d="M290.8,101.2h-73.6V64.8c0-6,4.8-11.2,11.2-11.2h51.2c6,0,11.2,4.8,11.2,11.2L290.8,101.2   L290.8,101.2z"/>
</g>
<rect x="224" y="66.8" style="fill:#84DBFF;" width="60" height="21.6"/>
<polygon style="fill:#54C0EB;" points="254.8,66.8 234.4,88.4 284,88.4 284,66.8 "/>
<g>
</g>
<g>
</g>
<g>
</g>
<g>
</g>
<g>
</g>
<g>
</g>
<g>
</g>
<g>
</g>
<g>
</g>
<g>
</g>
<g>
</g>
<g>
</g>
<g>
</g>
<g>
</g>
<g>
</g>
</svg>
