<?xml version="1.0" encoding="iso-8859-1"?>
<!-- Generator: Adobe Illustrator 19.0.0, SVG Export Plug-In . SVG Version: 6.00 Build 0)  -->
<svg xmlns="http://www.w3.org/2000/svg" xmlns:xlink="http://www.w3.org/1999/xlink" version="1.1" id="Layer_1" x="0px" y="0px" viewBox="0 0 508 508" style="enable-background:new 0 0 508 508;" xml:space="preserve">
<circle style="fill:#324A5E;" cx="254" cy="254" r="254"/>
<path style="fill:#2B3B4E;" d="M85.2,443.6c44.8,40,104,64.4,168.8,64.4s124-24.4,168.8-64.4H85.2z"/>
<g>
	<path style="fill:#54C0EB;" d="M396.4,309.6c0,0,6.4,19.2,0,34c-1.6,4-6.8,4.8-10,2l0,0c-1.6-1.6-2.4-4-1.6-6l3.2-12.8l-5.2,4.4   c-2,1.6-4.8,1.2-6.8-0.8l0,0c-1.2-1.2-1.2-3.2-0.8-4.4C377.6,320.4,383.6,307.2,396.4,309.6z"/>

		<rect x="357.959" y="180.627" transform="matrix(-0.7668 0.6419 -0.6419 -0.7668 778.2757 130.8987)" style="fill:#54C0EB;" width="14.8" height="52.4"/>
</g>
<path style="fill:#FFFFFF;" d="M413.6,286.8c2.8,28-8.8,28.8-23.6,30.4c-14.4,1.6-26.4,3.2-29.2-24.8c-2.8-28,4-74.8,18.4-76.4  C394,214.4,410.8,258.8,413.6,286.8z"/>
<path style="fill:#84DBFF;" d="M351.6,171.6h-33.2v41.6h33.2c3.2,0,6-3.6,6-8V180C357.6,175.2,355.2,171.6,351.6,171.6z"/>
<g>
	<path style="fill:#54C0EB;" d="M111.6,309.6c0,0-6.4,19.2,0,34c1.6,4,6.8,4.8,10,2l0,0c1.6-1.6,2.4-4,1.6-6l-3.2-12.8l5.2,4.4   c2,1.6,4.8,1.2,6.8-0.8l0,0c1.2-1.2,1.2-3.2,0.8-4.4C130.4,320.4,124.4,307.2,111.6,309.6z"/>

		<rect x="135.311" y="180.623" transform="matrix(0.7668 0.6419 -0.6419 0.7668 166.0399 -43.3728)" style="fill:#54C0EB;" width="14.8" height="52.4"/>
</g>
<path style="fill:#FFFFFF;" d="M94.4,286.8c-2.8,28,8.8,28.8,23.6,30.4c14.4,1.6,26.4,3.2,29.2-24.8s-4-74.8-18.4-76.4  C114,214.4,97.2,258.8,94.4,286.8z"/>
<path style="fill:#84DBFF;" d="M156.4,171.6h33.2v41.6h-33.2c-3.2,0-6-3.6-6-8V180C150.4,175.2,152.8,171.6,156.4,171.6z"/>
<polygon style="fill:#54C0EB;" points="291.2,428.4 277.2,425.2 296.4,342.4 268.4,252.8 282,248.8 311.2,342 "/>
<g>
	<circle style="fill:#E6E9EE;" cx="303.6" cy="342.4" r="17.6"/>
	<path style="fill:#E6E9EE;" d="M269.2,443.6h88c0-18.8-15.2-34-34-34h-54V443.6z"/>
</g>
<polygon style="fill:#54C0EB;" points="216.8,428.4 230.8,425.2 211.6,342.4 239.6,252.8 226,248.8 196.8,342 "/>
<g>
	<circle style="fill:#E6E9EE;" cx="204.4" cy="342.4" r="17.6"/>
	<path style="fill:#E6E9EE;" d="M238.8,443.6h-88c0-18.8,15.2-34,34-34h54V443.6z"/>
</g>
<path style="fill:#FFFFFF;" d="M308,138.4H200c-4,0-7.2-3.2-7.2-7.2V72.8c0-4,3.2-7.2,7.2-7.2h108.4c4,0,7.2,3.2,7.2,7.2v58.4  C315.2,135.2,312,138.4,308,138.4z"/>
<circle style="fill:#54C0EB;" cx="288.8" cy="88" r="15.2"/>
<circle style="fill:#84DBFF;" cx="288.8" cy="88" r="8.4"/>
<circle style="fill:#54C0EB;" cx="219.2" cy="88" r="15.2"/>
<circle style="fill:#84DBFF;" cx="219.2" cy="88" r="8.4"/>
<rect x="240" y="138.4" style="fill:#54C0EB;" width="28" height="20"/>
<path style="fill:#FFFFFF;" d="M320,158.8H188c-6.4,0-12,5.2-12,12V272c0,6.4,5.2,12,12,12h132c6.4,0,12-5.2,12-12V170.8  C332,164,326.4,158.8,320,158.8z"/>
<g>
</g>
<g>
</g>
<g>
</g>
<g>
</g>
<g>
</g>
<g>
</g>
<g>
</g>
<g>
</g>
<g>
</g>
<g>
</g>
<g>
</g>
<g>
</g>
<g>
</g>
<g>
</g>
<g>
</g>
</svg>
