<?xml version="1.0" encoding="iso-8859-1"?>
<!-- Generator: Adobe Illustrator 19.0.0, SVG Export Plug-In . SVG Version: 6.00 Build 0)  -->
<svg xmlns="http://www.w3.org/2000/svg" xmlns:xlink="http://www.w3.org/1999/xlink" version="1.1" id="Layer_1" x="0px" y="0px" viewBox="0 0 508 508" style="enable-background:new 0 0 508 508;" xml:space="preserve">
<circle style="fill:#90DFAA;" cx="254" cy="254" r="254"/>
<path style="fill:#2C9984;" d="M102.8,458c42.4,31.2,94.4,50,151.2,50s108.8-18.4,151.2-50H102.8z"/>
<g>
	<path style="fill:#324A5E;" d="M306.8,447.6h-45.2c-2.8,0-5.2,2.4-5.2,5.2l0,0c0,2.8,2.4,5.2,5.2,5.2h44.8c2.8,0,5.2-2.4,5.2-5.2   l0,0C312,450,309.6,447.6,306.8,447.6z"/>
	<path style="fill:#324A5E;" d="M246.4,447.6h-45.2c-2.8,0-5.2,2.4-5.2,5.2l0,0c0,2.8,2.4,5.2,5.2,5.2H246c2.8,0,5.2-2.4,5.2-5.2   l0,0C251.2,450,249.2,447.6,246.4,447.6z"/>
	<polygon style="fill:#324A5E;" points="383.6,206.4 364.8,213.6 328.8,144.4 364.8,130.8  "/>
	<polygon style="fill:#324A5E;" points="362.8,207.2 383.2,208.4 376.4,273.6 360.8,272.8  "/>
</g>
<circle style="fill:#E6E9EE;" cx="346" cy="138.4" r="22.8"/>
<g>
	<circle style="fill:#FFFFFF;" cx="372.4" cy="207.6" r="15.6"/>
	<path style="fill:#FFFFFF;" d="M356.8,334c2-2.8,3.6-5.6,5.2-8.8c10.4-20,10.8-40,1.2-44.8c-9.6-4.8-25.6,7.2-36,26.8l-0.4,0.4   c0.8-6.4,2.8-13.6,6.4-20.4c10.4-20,28.8-30.4,41.6-24c12.8,6.4,14.4,28,4.4,47.6C373.2,322,365.2,330,356.8,334z"/>
</g>
<g>
	<polygon style="fill:#324A5E;" points="124.4,206.4 143.2,213.6 179.2,144.4 143.2,130.8  "/>
	<polygon style="fill:#324A5E;" points="145.2,207.2 124.8,208.4 131.6,273.6 147.2,272.8  "/>
</g>
<circle style="fill:#E6E9EE;" cx="162" cy="138.4" r="22.8"/>
<g>
	<circle style="fill:#FFFFFF;" cx="135.6" cy="207.6" r="15.6"/>
	<path style="fill:#FFFFFF;" d="M151.2,334c-2-2.8-3.6-5.6-5.2-8.8c-10.4-20-10.8-40-1.2-44.8s25.6,7.2,36,26.8l0.4,0.4   c-0.8-6.4-2.8-13.6-6.4-20.4c-10.4-20-28.8-30.4-41.6-24c-12.8,6.4-14.4,28-4.4,47.6C134.8,322,142.8,330,151.2,334z"/>
</g>
<rect x="279.6" y="234.8" style="fill:#324A5E;" width="9.6" height="184"/>
<path style="fill:#FFFFFF;" d="M305.2,354.4c0,20.4-9.6,7.6-21.2,7.6s-21.2,12.8-21.2-7.6S272.4,288,284,288  C296,288,305.2,334,305.2,354.4z"/>
<path style="fill:#E6E9EE;" d="M306.4,447.6c1.2-2.8,2-6,2-9.6c0-13.2-10.8-24-24-24s-24,10.8-24,24c0,3.6,0.8,6.8,2,9.6H306.4z"/>
<rect x="218.8" y="234.8" style="fill:#324A5E;" width="9.6" height="184"/>
<path style="fill:#FFFFFF;" d="M244.8,354.4c0,20.4-9.6,7.6-21.2,7.6c-11.6,0-21.2,12.8-21.2-7.6S212,288,223.6,288  S244.8,334,244.8,354.4z"/>
<g>
	<path style="fill:#E6E9EE;" d="M245.6,447.6c1.2-2.8,2-6,2-9.6c0-13.2-10.8-24-24-24s-24,10.8-24,24c0,3.6,0.8,6.8,2,9.6H245.6z"/>
	<circle style="fill:#E6E9EE;" cx="254" cy="207.6" r="51.6"/>
</g>
<circle style="fill:#FFFFFF;" cx="254" cy="131.2" r="84.8"/>
<circle style="fill:#84DBFF;" cx="254" cy="118" r="51.6"/>
<circle style="fill:#324A5E;" cx="254" cy="118" r="51.6"/>
<path style="fill:#E6E9EE;" d="M254,183.2c-36,0-65.2-29.2-65.2-65.2S218,52.8,254,52.8S319.2,82,319.2,118S290,183.2,254,183.2z   M254,56.4c-34,0-61.6,27.6-61.6,61.6s27.6,61.6,61.6,61.6s61.6-27.6,61.6-61.6S288,56.4,254,56.4z"/>
<circle style="fill:#54C0EB;" cx="240.8" cy="101.2" r="16.4"/>
<g>
</g>
<g>
</g>
<g>
</g>
<g>
</g>
<g>
</g>
<g>
</g>
<g>
</g>
<g>
</g>
<g>
</g>
<g>
</g>
<g>
</g>
<g>
</g>
<g>
</g>
<g>
</g>
<g>
</g>
</svg>
