<?xml version="1.0" encoding="iso-8859-1"?>
<!-- Generator: Adobe Illustrator 19.0.0, SVG Export Plug-In . SVG Version: 6.00 Build 0)  -->
<svg xmlns="http://www.w3.org/2000/svg" xmlns:xlink="http://www.w3.org/1999/xlink" version="1.1" id="Layer_1" x="0px" y="0px" viewBox="0 0 508 508" style="enable-background:new 0 0 508 508;" xml:space="preserve">
<circle style="fill:#FD8469;" cx="254" cy="254" r="254"/>
<path style="fill:#F1543F;" d="M98.4,454.8C141.2,488,195.2,508,254,508c58.4,0,112.4-20,155.6-53.2H98.4z"/>
<path style="fill:#E6E9EE;" d="M308,152.4H200c-8.8,0-15.6-7.2-15.6-15.6V70c0-8.8,7.2-15.6,15.6-15.6h108.4  c8.8,0,15.6,7.2,15.6,15.6v66.4C324,145.2,316.8,152.4,308,152.4z"/>
<path style="fill:#CED5E0;" d="M324,124L324,124c7.6,0,13.6-6,13.6-13.6V93.2c0-7.6-6-13.6-13.6-13.6l0,0V124z"/>
<polygon style="fill:#2B3B4E;" points="364.8,97.6 337.6,92.8 337.6,111.2 364.8,106 "/>
<circle style="fill:#324A5E;" cx="365.6" cy="102" r="8.8"/>
<path style="fill:#CED5E0;" d="M184,124L184,124c-7.6,0-13.6-6-13.6-13.6V93.2c0-7.6,6-13.6,13.6-13.6l0,0V124z"/>
<polygon style="fill:#2B3B4E;" points="143.2,97.6 170.4,92.8 170.4,111.2 143.2,106 "/>
<circle style="fill:#324A5E;" cx="142.4" cy="102" r="8.8"/>
<path style="fill:#FFFFFF;" d="M286,129.6L286,129.6c-10.8,0-19.6-8.8-19.6-19.6l0,0c0-10.8,8.8-19.6,19.6-19.6l0,0  c10.8,0,19.6,8.8,19.6,19.6l0,0C305.6,120.4,296.8,129.6,286,129.6z"/>
<path style="fill:#84DBFF;" d="M286,124L286,124c-8,0-14.4-6.4-14.4-14.4l0,0c0-8,6.4-14.4,14.4-14.4l0,0c8,0,14.4,6.4,14.4,14.4  l0,0C300,117.6,293.6,124,286,124z"/>
<path style="fill:#54C0EB;" d="M286,118.4L286,118.4c-4.8,0-8.8-4-8.8-8.8l0,0c0-4.8,4-8.8,8.8-8.8l0,0c4.8,0,8.8,4,8.8,8.8l0,0  C294.4,114.4,290.8,118.4,286,118.4z"/>
<g>

		<ellipse transform="matrix(-0.7065 -0.7077 0.7077 -0.7065 396.8909 395.6948)" style="fill:#FFFFFF;" cx="280.495" cy="115.55" rx="3.6" ry="2.4"/>
	<path style="fill:#FFFFFF;" d="M222,129.6L222,129.6c-10.8,0-19.6-8.8-19.6-19.6l0,0c0-10.8,8.8-19.6,19.6-19.6l0,0   c10.8,0,19.6,8.8,19.6,19.6l0,0C242,120.4,233.2,129.6,222,129.6z"/>
</g>
<path style="fill:#84DBFF;" d="M222,124L222,124c-8,0-14.4-6.4-14.4-14.4l0,0c0-8,6.4-14.4,14.4-14.4l0,0c8,0,14.4,6.4,14.4,14.4  l0,0C236.4,117.6,230,124,222,124z"/>
<path style="fill:#54C0EB;" d="M222,118.4L222,118.4c-4.8,0-8.8-4-8.8-8.8l0,0c0-4.8,4-8.8,8.8-8.8l0,0c4.8,0,8.8,4,8.8,8.8l0,0  C230.8,114.4,227.2,118.4,222,118.4z"/>
<ellipse transform="matrix(-0.7065 -0.7077 0.7077 -0.7065 288.3661 350.6352)" style="fill:#FFFFFF;" cx="216.889" cy="115.523" rx="3.6" ry="2.4"/>
<path style="fill:#2B3B4E;" d="M287.2,185.6c-16.8-7.6-19.2-30.4-19.2-33.2h-27.6c-0.4,2.8-2.8,25.6-19.2,33.2H287.2z"/>
<rect x="279.6" y="305.6" style="fill:#324A5E;" width="9.6" height="109.2"/>
<g>
	<path style="fill:#E6E9EE;" d="M305.2,391.2c0,20.4-9.6,7.6-21.2,7.6s-21.2,12.8-21.2-7.6s9.6-66.4,21.2-66.4   C296,324.8,305.2,370.8,305.2,391.2z"/>
	<path style="fill:#E6E9EE;" d="M306.4,443.6c1.2-2.8,2-6,2-9.6c0-13.2-10.8-24-24-24s-24,10.8-24,24c0,3.6,0.8,6.8,2,9.6H306.4z"/>
</g>
<g>
	<path style="fill:#324A5E;" d="M306.8,443.6h-45.2c-2.8,0-5.2,2.4-5.2,5.2l0,0c0,2.8,2.4,5.2,5.2,5.2h44.8c2.8,0,5.2-2.4,5.2-5.2   l0,0C312,446,309.6,443.6,306.8,443.6z"/>
	<rect x="218.8" y="305.6" style="fill:#324A5E;" width="9.6" height="109.2"/>
</g>
<g>
	<path style="fill:#E6E9EE;" d="M244.8,391.2c0,20.4-9.6,7.6-21.2,7.6s-21.2,12.8-21.2-7.6s9.6-66.4,21.2-66.4   S244.8,370.8,244.8,391.2z"/>
	<path style="fill:#E6E9EE;" d="M245.6,443.6c1.2-2.8,2-6,2-9.6c0-13.2-10.8-24-24-24s-24,10.8-24,24c0,3.6,0.8,6.8,2,9.6H245.6z"/>
</g>
<g>
	<path style="fill:#324A5E;" d="M246.4,443.6h-45.2c-2.8,0-5.2,2.4-5.2,5.2l0,0c0,2.8,2.4,5.2,5.2,5.2H246c2.8,0,5.2-2.4,5.2-5.2   l0,0C251.2,446,249.2,443.6,246.4,443.6z"/>
	<polygon style="fill:#324A5E;" points="365.6,217.2 356.4,235.6 309.6,222 322,193.2  "/>
	<polygon style="fill:#324A5E;" points="359.6,278 372.8,238.4 356,235.2 345.6,276.4  "/>
</g>
<g>
	<circle style="fill:#E6E9EE;" cx="366.4" cy="228.8" r="13.6"/>
	<path style="fill:#E6E9EE;" d="M351.2,335.2c0.8-2.8,2-5.6,2.4-8.4c4.4-18.8,0.8-36-8.4-38.4c-9.2-2.4-20.4,11.2-24.8,30.4v0.4   c-0.8-5.6-0.4-12,1.2-18.8c4.4-18.8,18-32,30-29.2s18,20.8,13.6,39.6C362.8,321.6,357.6,330,351.2,335.2z"/>
</g>
<g>
	<polygon style="fill:#324A5E;" points="134,222 140.8,238.4 206.4,220 193.6,188.8  "/>
	<polygon style="fill:#324A5E;" points="162.8,278 150,226.4 132.8,231.6 148.4,278  "/>
</g>
<g>
	<circle style="fill:#E6E9EE;" cx="141.6" cy="228.8" r="13.6"/>
	<path style="fill:#E6E9EE;" d="M156.8,335.2c-0.8-2.8-2-5.6-2.4-8.4c-4.4-18.8-0.8-36,8.4-38.4s20.4,11.2,24.8,30.4v0.4   c0.8-5.6,0.4-12-1.2-18.8c-4.4-18.8-18-32-30-29.2s-18,20.8-13.6,39.6C145.2,321.6,150.4,330,156.8,335.2z"/>
	<path style="fill:#E6E9EE;" d="M328,205.2c0-11.2-8.8-20-20-20l0,0l0,0H200l0,0c-9.6,0-18,6.8-19.6,16.4   c-2,10.8,5.2,21.2,15.6,23.2v70c0,6,4.8,10.8,10.8,10.8h94.4c6,0,10.8-4.8,10.8-10.8v-70C321.2,223.2,328,215.2,328,205.2z"/>
</g>
<g>
</g>
<g>
</g>
<g>
</g>
<g>
</g>
<g>
</g>
<g>
</g>
<g>
</g>
<g>
</g>
<g>
</g>
<g>
</g>
<g>
</g>
<g>
</g>
<g>
</g>
<g>
</g>
<g>
</g>
</svg>
