<?xml version="1.0" encoding="iso-8859-1"?>
<!-- Generator: Adobe Illustrator 19.0.0, SVG Export Plug-In . SVG Version: 6.00 Build 0)  -->
<svg xmlns="http://www.w3.org/2000/svg" xmlns:xlink="http://www.w3.org/1999/xlink" version="1.1" id="Layer_1" x="0px" y="0px" viewBox="0 0 508 508" style="enable-background:new 0 0 508 508;" xml:space="preserve">
<circle style="fill:#324A5E;" cx="254" cy="254" r="254"/>
<path style="fill:#2B3B4E;" d="M76,435.2c46,45.2,108.8,72.8,178,72.8s132-27.6,178-72.8H76z"/>
<g>
	<rect x="274" y="261.2" style="fill:#CED5E0;" width="22" height="55.6"/>
	<rect x="212" y="261.2" style="fill:#CED5E0;" width="22" height="55.6"/>
	<rect x="149.2" y="161.6" style="fill:#CED5E0;" width="206.4" height="23.6"/>
</g>
<g>
	<circle style="fill:#324A5E;" cx="299.2" cy="94.8" r="16"/>
	<circle style="fill:#324A5E;" cx="208.8" cy="94.8" r="16"/>
</g>
<path style="fill:#E6E9EE;" d="M228.4,135.2H280c14.4-8.8,24-24.4,24-42.4c0-27.6-22.4-49.6-49.6-49.6c-27.6,0-49.6,22.4-49.6,49.6  C204.4,110.8,214,126.4,228.4,135.2z"/>
<path style="fill:#FFFFFF;" d="M283.2,117.2h-58.4c-2.8,0-5.2-2.4-5.2-5.2V79.6c0-2.8,2.4-5.2,5.2-5.2h58c2.8,0,5.2,2.4,5.2,5.2V112  C288.4,114.8,286,117.2,283.2,117.2z"/>
<g>
	<circle style="fill:#84DBFF;" cx="272" cy="96" r="8.8"/>
	<circle style="fill:#84DBFF;" cx="236" cy="96" r="8.8"/>
</g>
<path style="fill:#E6E9EE;" d="M314.8,268.4H193.2c-7.6,0-13.6-6.8-12.4-14.4l14-96c0.8-6.4,6.4-10.8,12.4-10.8h93.6  c6.4,0,11.6,4.8,12.4,10.8l14,96C328.4,261.6,322.4,268.4,314.8,268.4z"/>
<g>
	<rect x="237.2" y="135.2" style="fill:#CED5E0;" width="33.6" height="11.6"/>
	<path style="fill:#CED5E0;" d="M297.2,212.4h-86.4c-4,0-7.2-3.2-7.2-7.2v-40.8c0-4,3.2-7.2,7.2-7.2h86.4c4,0,7.2,3.2,7.2,7.2v40.4   C304.4,209.2,301.2,212.4,297.2,212.4z"/>
</g>
<path style="fill:#E6E9EE;" d="M319.2,398.4h-52V297.6H294c14,0,25.2,11.2,25.2,25.2V398.4z"/>
<path style="fill:#CED5E0;" d="M337.6,398.4h-70.4v18.4v18.4H350v-18.4v-6C350,404,344.4,398.4,337.6,398.4z"/>
<path style="fill:#E6E9EE;" d="M188.8,398.4h52V297.6H214c-14,0-25.2,11.2-25.2,25.2V398.4z"/>
<path style="fill:#CED5E0;" d="M170.4,398.4c-6.8,0-12.4,5.6-12.4,12.4v6v18.4h82.8v-18.4v-18.4H170.4z"/>
<path style="fill:#324A5E;" d="M365.2,304.8c0,0,1.2,20.4-9.2,33.2c-2.8,3.2-8,3.2-10-0.8l0,0c-1.2-2-1.2-4.4,0-6.4l6.4-11.6  L346,322c-2.4,1.2-5.2,0-6.4-2.4l0,0c-0.8-1.6-0.4-3.2,0.4-4.8C343.6,310,353.2,298.8,365.2,304.8z"/>
<rect x="343.6" y="173.2" style="fill:#CED5E0;" width="27.2" height="110.8"/>
<g>
	<path style="fill:#E6E9EE;" d="M357.2,199.2L357.2,199.2c-14.4,0-26-11.6-26-26l0,0c0-14.4,11.6-26,26-26l0,0c14.4,0,26,11.6,26,26   l0,0C383.2,187.6,371.6,199.2,357.2,199.2z"/>
	<path style="fill:#E6E9EE;" d="M381.2,286c0,20-10.8,21.6-24,21.6s-24-1.6-24-21.6s10.8-50.8,24-50.8S381.2,266,381.2,286z"/>
</g>
<path style="fill:#324A5E;" d="M142.8,304.8c0,0-1.2,20.4,9.2,33.2c2.8,3.2,8,3.2,10-0.8l0,0c1.2-2,1.2-4.4,0-6.4l-6.4-11.6l6.4,2.8  c2.4,1.2,5.2,0,6.4-2.4l0,0c0.8-1.6,0.4-3.2-0.4-4.8C164.4,310,154.8,298.8,142.8,304.8z"/>
<rect x="137.2" y="173.2" style="fill:#CED5E0;" width="27.2" height="110.8"/>
<g>
	<path style="fill:#E6E9EE;" d="M150.8,199.2L150.8,199.2c14.4,0,26-11.6,26-26l0,0c0-14.4-11.6-26-26-26l0,0c-14.4,0-26,11.6-26,26   l0,0C124.8,187.6,136.4,199.2,150.8,199.2z"/>
	<path style="fill:#E6E9EE;" d="M126.8,286c0,20,10.8,21.6,24,21.6s24-1.6,24-21.6s-10.8-50.8-24-50.8S126.8,266,126.8,286z"/>
</g>
<g>
</g>
<g>
</g>
<g>
</g>
<g>
</g>
<g>
</g>
<g>
</g>
<g>
</g>
<g>
</g>
<g>
</g>
<g>
</g>
<g>
</g>
<g>
</g>
<g>
</g>
<g>
</g>
<g>
</g>
</svg>
