<?xml version="1.0" encoding="iso-8859-1"?>
<!-- Generator: Adobe Illustrator 19.0.0, SVG Export Plug-In . SVG Version: 6.00 Build 0)  -->
<svg xmlns="http://www.w3.org/2000/svg" xmlns:xlink="http://www.w3.org/1999/xlink" version="1.1" id="Layer_1" x="0px" y="0px" viewBox="0 0 508 508" style="enable-background:new 0 0 508 508;" xml:space="preserve">
<circle style="fill:#324A5E;" cx="254" cy="254" r="254"/>
<path style="fill:#2B3B4E;" d="M104.8,459.6C146.8,490,198.4,508,254,508s107.2-18,149.2-48.4H104.8z"/>
<g>
	<path style="fill:#E6E9EE;" d="M382.4,326c-2.8,0-5.6-0.4-8.4-1.6c-6-2.4-10.4-7.6-12-13.6c-1.2-4.4,1.2-8.8,5.6-10s8,1.6,10,5.6   c1.6,3.6,4.8,3.2,7.2,2.8c2-0.4,5.2-6.8-1.2-8.8c-7.6-2.4-13.6-8.4-16-16.4l-3.6-12.8l15.6-4.4l3.6,12.8c0.8,2.8,2.4,4.8,4.8,5.2   c8.4,2.4,14.4,10,15.2,18.8c0.8,8-4,16-11.2,20C389.2,325.2,385.6,326,382.4,326z"/>
	<path style="fill:#E6E9EE;" d="M125.6,326c2.8,0,5.6-0.4,8.4-1.6c6-2.4,10.4-7.6,12-13.6c1.2-4.4-1.2-8.8-5.6-10   c-4.4-1.2-8,1.6-10,5.6c-1.6,3.6-4.8,3.2-7.2,2.8c-2-0.4-5.2-6.8,1.2-8.8c7.6-2.4,13.6-8.4,16-16.4l3.6-12.8l-15.6-4.4l-3.6,12.8   c-0.8,2.8-2.4,4.8-4.8,5.2c-8.4,2.4-14.4,10-15.2,18.8c-0.8,8,4,16,11.2,20C118.8,325.2,122.4,326,125.6,326z"/>

		<rect x="329.376" y="166.038" transform="matrix(-0.7087 0.7056 -0.7056 -0.7087 708.6347 87.862)" style="fill:#E6E9EE;" width="13.601" height="48.403"/>

		<rect x="165.102" y="165.612" transform="matrix(0.7087 0.7056 -0.7056 0.7087 184.0068 -65.9855)" style="fill:#E6E9EE;" width="13.601" height="48.403"/>
</g>
<g>
	<rect x="278" y="286.4" style="fill:#ACB3BA;" width="11.2" height="62"/>
	<rect x="218.8" y="286.4" style="fill:#ACB3BA;" width="11.2" height="62"/>
</g>
<rect x="310" y="46" style="fill:#E6E9EE;" width="6" height="50.8"/>
<path style="fill:#4CDBC4;" d="M316,118.4h-20.4V89.6H316c8,0,14.4,6.4,14.4,14.4l0,0C330.4,112,324,118.4,316,118.4z"/>
<circle style="fill:#FF7058;" cx="312.8" cy="46" r="10.4"/>
<rect x="192" y="46" style="fill:#E6E9EE;" width="6" height="50.8"/>
<path style="fill:#4CDBC4;" d="M192,118.4h20.4V89.6H192c-8,0-14.4,6.4-14.4,14.4l0,0C177.6,112,184,118.4,192,118.4z"/>
<circle style="fill:#FF7058;" cx="195.2" cy="46" r="10.4"/>
<rect x="245.6" y="133.6" style="fill:#E6E9EE;" width="16.4" height="32.8"/>
<path style="fill:#FFFFFF;" d="M290,140c8.4-8.8,13.6-20.8,13.6-34c0-27.2-22-49.6-49.6-49.6c-27.2,0-49.6,22-49.6,49.6  c0,13.2,5.2,25.2,13.6,34H290z"/>
<path style="fill:#ACB3BA;" d="M212,259.6c4.4,19.2,21.6,33.6,42,33.6s37.6-14.4,42-33.6H212z"/>
<path style="fill:#FFFFFF;" d="M273.2,79.6c-3.2,0-6,0.8-8.8,2c-6.8,3.2-14.4,3.2-21.2,0c-2.8-1.2-5.6-2-8.8-2  c-11.6,0-21.6,9.6-22,21.2c-0.4,12.4,9.6,22.4,21.6,22.4h39.2c12.4,0,22-10,21.6-22.4C294.8,88.8,285.2,79.2,273.2,79.6z"/>
<g>
	<circle style="fill:#84DBFF;" cx="274.4" cy="101.2" r="15.2"/>
	<circle style="fill:#84DBFF;" cx="234" cy="101.2" r="15.2"/>
</g>
<rect x="278" y="397.6" style="fill:#ACB3BA;" width="11.6" height="41.6"/>
<path style="fill:#FFFFFF;" d="M288.4,412.8c4.8,0,8.8-4.8,10-11.2c0.4-4,0.8-8.4,0.8-13.2c0-21.6-6.8-56.8-15.6-56.8  c-8.4,0-15.6,35.2-15.6,56.8c0,4.4,0.4,8.8,0.8,13.2c0.8,6.4,5.2,11.2,10,11.2H288.4z"/>
<circle style="fill:#E6E9EE;" cx="283.6" cy="282" r="14.8"/>
<path style="fill:#FFFFFF;" d="M303.6,454c1.6-3.6,2.4-7.6,1.6-12c-1.2-9.6-9.2-17.6-19.2-18.8c-13.2-1.6-24.4,8.8-24.4,21.6  c0,3.2,0.8,6,1.6,8.8c1.6,4,6,6.8,10.4,6.8h19.2C297.6,460.4,301.6,458,303.6,454z"/>
<rect x="218.4" y="397.6" style="fill:#ACB3BA;" width="11.6" height="41.6"/>
<path style="fill:#FFFFFF;" d="M229.2,412.8c4.8,0,8.8-4.8,10-11.2c0.4-4,0.8-8.4,0.8-13.2c0-21.6-6.8-56.8-15.6-56.8  c-8.4,0-15.6,35.2-15.6,56.8c0,4.4,0.4,8.8,0.8,13.2c0.8,6.4,5.2,11.2,10,11.2H229.2z"/>
<circle style="fill:#E6E9EE;" cx="224.4" cy="282" r="14.8"/>
<g>
	<path style="fill:#FFFFFF;" d="M244,454c1.6-3.6,2.4-7.6,1.6-12c-1.2-9.6-9.2-17.6-19.2-18.8c-13.2-1.6-24.4,8.8-24.4,21.6   c0,3.2,0.8,6,1.6,8.8c1.6,4,6,6.8,10.4,6.8h20C238.4,460.4,242.4,458,244,454z"/>
	<path style="fill:#FFFFFF;" d="M334.8,160.8c-9.2-9.2-24.4-9.2-33.6,0c-2.4,2.4-4,4.8-5.2,7.6c-11.2-9.6-26-15.6-42-15.6   s-30.8,6-42,15.6c-1.2-2.8-2.8-5.2-5.2-7.6c-9.2-9.2-24.4-9.2-33.6,0s-9.2,24.4,0,33.6c4.8,4.8,11.6,7.2,18,6.8   c-1.2,5.2-2,10.8-2,16.4c0,16,6,30.8,15.6,42h98.4c9.6-11.2,15.6-26,15.6-42c0-5.6-0.8-11.2-2-16.4c6.4,0.4,13.2-2,18-6.8   C344,184.8,344,170,334.8,160.8z"/>
	<path style="fill:#FFFFFF;" d="M384.4,245.2c5.6,21.6-2.4,25.2-12.8,28c-10.4,2.8-19.2,3.2-24.8-18.4c-5.6-21.6-6-57.2,4.4-60   C361.6,192.8,378.8,223.6,384.4,245.2z"/>
	<path style="fill:#FFFFFF;" d="M123.6,245.2c-5.6,21.6,2.4,25.2,12.8,28c10.4,2.8,19.2,3.2,24.8-18.4s6-57.2-4.4-60   C146.4,192.8,129.2,223.6,123.6,245.2z"/>
</g>
<path style="fill:#E6E9EE;" d="M254,229.2L254,229.2c-12,0-21.6-9.6-21.6-21.6l0,0c0-12,9.6-21.6,21.6-21.6l0,0  c12,0,21.6,9.6,21.6,21.6l0,0C275.6,219.6,266,229.2,254,229.2z"/>
<g>
</g>
<g>
</g>
<g>
</g>
<g>
</g>
<g>
</g>
<g>
</g>
<g>
</g>
<g>
</g>
<g>
</g>
<g>
</g>
<g>
</g>
<g>
</g>
<g>
</g>
<g>
</g>
<g>
</g>
</svg>
