<?xml version="1.0" encoding="iso-8859-1"?>
<!-- Generator: Adobe Illustrator 19.0.0, SVG Export Plug-In . SVG Version: 6.00 Build 0)  -->
<svg xmlns="http://www.w3.org/2000/svg" xmlns:xlink="http://www.w3.org/1999/xlink" version="1.1" id="Layer_1" x="0px" y="0px" viewBox="0 0 508 508" style="enable-background:new 0 0 508 508;" xml:space="preserve">
<circle style="fill:#90DFAA;" cx="254" cy="254" r="254"/>
<path style="fill:#2C9984;" d="M61.2,419.2C107.6,473.6,176.8,508,254,508s146-34.4,192.8-88.8H61.2z"/>
<rect x="233.6" y="123.2" style="fill:#2B3B4E;" width="41.2" height="20.4"/>
<polygon style="fill:#E6E9EE;" points="282.4,351.2 272.8,254.4 235.2,254.4 225.6,351.2 "/>
<rect x="189.2" y="334.4" style="fill:#CED5E0;" width="129.2" height="50"/>
<ellipse style="fill:#2B3B4E;" cx="254" cy="80" rx="56" ry="38.4"/>
<path style="fill:#FFFFFF;" d="M312.8,266.4H195.2c-4,0-7.2-3.2-7.2-7.2v-108c0-4,3.2-7.2,7.2-7.2h117.2c4,0,7.2,3.2,7.2,7.2v108  C320,263.2,316.8,266.4,312.8,266.4z"/>
<g>
	<path style="fill:#2B3B4E;" d="M352.8,418.8H318c-6,0-10.4-4.8-10.4-10.4V310c0-6,4.8-10.4,10.4-10.4h34.8c6,0,10.4,4.8,10.4,10.4   v98.4C363.2,414,358.4,418.8,352.8,418.8z"/>
	<path style="fill:#2B3B4E;" d="M190,418.8h-34.8c-6,0-10.4-4.8-10.4-10.4V310c0-6,4.8-10.4,10.4-10.4H190c6,0,10.4,4.8,10.4,10.4   v98.4C200.4,414,195.6,418.8,190,418.8z"/>
</g>
<g>
	<path style="fill:#FFFFFF;" d="M409.6,316.4c1.6,0,3.6-0.4,5.2-0.8l-4,21.6c-0.8,3.6-4,5.6-7.2,4.8c-3.2-0.8-5.6-4-4.8-7.2l4-20   C404.4,316,407.2,316.4,409.6,316.4z"/>
	<path style="fill:#FFFFFF;" d="M440.4,352c-0.4,0-0.8,0-0.8,0c-3.2,0-5.6-2.4-6-5.2c-2-12-7.2-23.2-15.6-32c4-1.6,7.2-4.8,9.2-8.4   c10,10.4,16.8,24,18.8,38.8C446.4,348.4,444,351.6,440.4,352z"/>
</g>
<polygon style="fill:#2B3B4E;" points="360,181.2 341.6,181.2 366.4,231.2 384.8,231.2 "/>
<path style="fill:#FFFFFF;" d="M414,287.2l-17.2,8c-10.4,4.8-22.4-0.8-25.6-11.2L360,247.6c-2.8-8.8,1.6-18.4,10-22.4l8-3.6  c8.4-4,18.4-1.2,23.6,6.8l20.8,32C427.6,270,424,282.4,414,287.2z"/>
<circle style="fill:#324A5E;" cx="409.6" cy="297.2" r="19.6"/>
<path style="fill:#FFFFFF;" d="M354,143.6h-26v53.2h26c4.4,0,8-3.6,8-8v-37.2C362,147.2,358.4,143.6,354,143.6z"/>
<rect x="320" y="152.4" style="fill:#2B3B4E;" width="8.4" height="36"/>
<g>
	<path style="fill:#FFFFFF;" d="M98.4,316.4c-1.6,0-3.6-0.4-5.2-0.8l4,21.6c0.8,3.6,4,5.6,7.2,4.8c3.2-0.8,5.6-4,4.8-7.2l-4-20   C103.6,316,100.8,316.4,98.4,316.4z"/>
	<path style="fill:#FFFFFF;" d="M67.6,352c0.4,0,0.8,0,0.8,0c3.2,0,5.6-2.4,6-5.2c2-12,7.2-23.2,15.6-32c-4-1.6-7.2-4.8-9.2-8.4   c-10,10.4-16.8,24-18.8,38.8C61.6,348.4,64,351.6,67.6,352z"/>
</g>
<polygon style="fill:#2B3B4E;" points="148,181.2 123.2,231.2 141.6,231.2 166.4,181.2 "/>
<path style="fill:#FFFFFF;" d="M94,287.2l17.2,8c10.4,4.8,22.4-0.8,25.6-11.2l11.2-36.4c2.8-8.8-1.6-18.4-10-22.4l-8-3.6  c-8.4-4-18.4-1.2-23.6,6.8l-20.8,32C80.4,270,84,282.4,94,287.2z"/>
<circle style="fill:#324A5E;" cx="98.4" cy="297.2" r="19.6"/>
<path style="fill:#FFFFFF;" d="M154,143.6h26v53.2h-26c-4.4,0-8-3.6-8-8v-37.2C146,147.2,149.6,143.6,154,143.6z"/>
<rect x="179.6" y="152.4" style="fill:#2B3B4E;" width="8.4" height="36"/>
<ellipse style="fill:#E6E9EE;" cx="254" cy="200" rx="42.4" ry="27.6"/>
<path style="fill:#FFFFFF;" d="M291.6,70.4h-75.2c-2.8,0-5.6,2.4-5.6,5.6v42c0,2.8,2.4,5.6,5.6,5.6h75.2c2.8,0,5.6-2.4,5.6-5.6V75.6  C297.2,72.8,294.8,70.4,291.6,70.4z"/>
<g>
	<circle style="fill:#54C0EB;" cx="278" cy="88.4" r="8.4"/>
	<circle style="fill:#54C0EB;" cx="229.6" cy="88.4" r="8.4"/>
</g>
<g>
</g>
<g>
</g>
<g>
</g>
<g>
</g>
<g>
</g>
<g>
</g>
<g>
</g>
<g>
</g>
<g>
</g>
<g>
</g>
<g>
</g>
<g>
</g>
<g>
</g>
<g>
</g>
<g>
</g>
</svg>
