<?xml version="1.0" encoding="iso-8859-1"?>
<!-- Generator: Adobe Illustrator 19.0.0, SVG Export Plug-In . SVG Version: 6.00 Build 0)  -->
<svg xmlns="http://www.w3.org/2000/svg" xmlns:xlink="http://www.w3.org/1999/xlink" version="1.1" id="Layer_1" x="0px" y="0px" viewBox="0 0 508 508" style="enable-background:new 0 0 508 508;" xml:space="preserve">
<circle style="fill:#FFD05B;" cx="254" cy="254" r="254"/>
<path style="fill:#F9B54C;" d="M106.4,460.4C148,490.4,199.2,508,254,508s106-17.6,147.6-47.6H106.4z"/>
<g>
	<path style="fill:#324A5E;" d="M302.4,93.6h12.4c2,0,3.6-1.6,3.6-3.6v-8c0-2-1.6-3.6-3.6-3.6h-12.4V93.6z"/>
	<path style="fill:#324A5E;" d="M193.2,93.6h12.4V78h-12.4c-2,0-3.6,1.6-3.6,3.6V90C189.6,92,191.2,93.6,193.2,93.6z"/>
	<rect x="240.8" y="121.6" style="fill:#324A5E;" width="26.4" height="43.2"/>
</g>
<path style="fill:#FFFFFF;" d="M263.6,294.4v26c0,4.4,3.6,7.6,7.6,7.6H294c4.4,0,7.6-3.6,7.6-7.6v-26H263.6z"/>
<rect x="271.6" y="328.4" style="fill:#FF7058;" width="22" height="98.8"/>
<g>
	<circle style="fill:#FFFFFF;" cx="282.4" cy="366.4" r="16.8"/>
	<path style="fill:#FFFFFF;" d="M292.8,427.2H272c-3.6,0-6.4,2.8-6.4,6.4v16.8h33.6v-16.8C299.6,430,296.4,427.2,292.8,427.2z"/>
</g>
<path style="fill:#324A5E;" d="M299.2,450.4H266c-1.6,0-3.2,1.6-3.2,3.2v6.4H302v-6.4C302.4,452,300.8,450.4,299.2,450.4z"/>
<path style="fill:#FFFFFF;" d="M206.4,294.4v26c0,4.4,3.6,7.6,7.6,7.6h22.8c4.4,0,7.6-3.6,7.6-7.6v-26H206.4z"/>
<rect x="214.4" y="328.4" style="fill:#FF7058;" width="22" height="98.8"/>
<g>
	<circle style="fill:#FFFFFF;" cx="225.6" cy="366.4" r="16.8"/>
	<path style="fill:#FFFFFF;" d="M236,427.2h-20.8c-3.6,0-6.4,2.8-6.4,6.4v16.8h33.6v-16.8C242.4,430,239.2,427.2,236,427.2z"/>
</g>
<path style="fill:#324A5E;" d="M242,450.4h-33.2c-1.6,0-3.2,1.6-3.2,3.2v6.4h39.2v-6.4C245.2,452,243.6,450.4,242,450.4z"/>
<ellipse style="fill:#FF7058;" cx="254" cy="86" rx="59.2" ry="49.6"/>
<ellipse style="fill:#FFFFFF;" cx="254" cy="86" rx="59.2" ry="27.2"/>
<path style="fill:#FF7058;" d="M254,148.8c-43.2,0-78.4,43.2-78.4,96.8c0,0.4,0,0.4,0,0.8c0,33.2,27.6,59.6,60.4,59.6h35.2  c33.2,0,60.4-26.4,60.4-59.6c0-0.4,0-0.4,0-0.8C332.4,192,297.2,148.8,254,148.8z"/>
<g>

		<rect x="332.829" y="169.601" transform="matrix(-0.7905 0.6125 -0.6125 -0.7905 730.3442 148.1688)" style="fill:#324A5E;" width="14" height="58.801"/>
	<path style="fill:#324A5E;" d="M382.8,347.2c-1.2,11.6-10.4,20.8-22,22c-0.8,0-2,0-2.8,0c-6,0-12-2.4-16.8-6.4   c-5.2-4.8-8.4-11.6-8.4-18.4c0-3.6,3.2-6.8,6.8-6.8c3.6,0,6,3.2,6.8,6.8c2.8,16,17.6,9.6,19.2,8s8.8-8-0.4-16.4   c-9.2-8.4-14.4-20.4-14.4-33.2c2,0.4,11.2,0.4,13.6,0c0,9.2,3.6,17.6,10,23.6C380.8,331.2,383.6,339.2,382.8,347.2z"/>
</g>
<g>
	<path style="fill:#FFFFFF;" d="M380,272c0,28-10,31.2-22,31.2s-22-3.2-22-31.2s10-70,22-70S380,244,380,272z"/>
	<circle style="fill:#FFFFFF;" cx="314" cy="173.6" r="22.4"/>
</g>
<g>

		<rect x="161.169" y="169.541" transform="matrix(0.7905 0.6125 -0.6125 0.7905 157.0837 -61.3194)" style="fill:#324A5E;" width="14" height="58.801"/>
	<path style="fill:#324A5E;" d="M174.8,344.4c0,7.2-3.2,14-8.4,18.4c-4.8,4-10.4,6.4-16.8,6.4c-0.8,0-2,0-2.8,0   c-11.6-1.2-20.8-10.4-22-22c-0.8-8,2-15.6,8-21.2c6.4-6,10-14.4,10-23.6c2,0.4,11.2,0.4,13.6,0c0,12.8-5.2,24.8-14.4,33.2   c-2.8,2.4-4,6-3.6,9.6c0.4,5.2,4.8,9.2,10,10c3.2,0.4,6.4-0.8,8.8-2.8c2.4-2,3.6-5.2,3.6-8.4c0-3.6,3.2-6.8,6.8-6.8   C172,337.6,174.8,340.4,174.8,344.4z"/>
</g>
<g>
	<path style="fill:#FFFFFF;" d="M128,272c0,28,10,31.2,22,31.2s22-3.2,22-31.2s-10-70-22-70S128,244,128,272z"/>
	<circle style="fill:#FFFFFF;" cx="194" cy="173.6" r="22.4"/>
</g>
<g>
	<circle style="fill:#84DBFF;" cx="276.8" cy="86" r="11.2"/>
	<circle style="fill:#84DBFF;" cx="231.2" cy="86" r="11.2"/>
</g>
<g>
</g>
<g>
</g>
<g>
</g>
<g>
</g>
<g>
</g>
<g>
</g>
<g>
</g>
<g>
</g>
<g>
</g>
<g>
</g>
<g>
</g>
<g>
</g>
<g>
</g>
<g>
</g>
<g>
</g>
</svg>
