<?xml version="1.0" encoding="iso-8859-1"?>
<!-- Generator: Adobe Illustrator 19.0.0, SVG Export Plug-In . SVG Version: 6.00 Build 0)  -->
<svg xmlns="http://www.w3.org/2000/svg" xmlns:xlink="http://www.w3.org/1999/xlink" version="1.1" id="Layer_1" x="0px" y="0px" viewBox="0 0 508 508" style="enable-background:new 0 0 508 508;" xml:space="preserve">
<circle style="fill:#324A5E;" cx="254" cy="254" r="254"/>
<path style="fill:#2B3B4E;" d="M69.6,428.8C116,477.6,181.2,508,254,508s138-30.4,184.4-79.2H69.6z"/>
<g>
	<rect x="219.6" y="291.6" style="fill:#E6E9EE;" width="68.4" height="68.4"/>
	<polygon style="fill:#E6E9EE;" points="346.8,272.8 361.6,272.8 383.6,219.2 358.8,167.6 344,167.6 368.8,219.6  "/>
</g>
<g>
	<circle style="fill:#FFFFFF;" cx="376.4" cy="219.6" r="20"/>
	<path style="fill:#FFFFFF;" d="M366,294.8c-5.2,12.8-16.8,20.4-26,16.8c-1.2-0.4-2.4-1.2-3.2-2c11.6-6.8,18.8-16.4,16-21.2   c-2.4-4.4-12-3.6-22.8,1.2c0.4-2.8,1.2-5.2,2-8c5.2-12.8,16.8-20.4,26-16.8C367.6,268.4,371.2,281.6,366,294.8z"/>
</g>
<polygon style="fill:#E6E9EE;" points="161.2,272.8 139.2,219.6 164,167.6 149.2,167.6 124.4,219.2 146.4,272.8 "/>
<g>
	<circle style="fill:#FFFFFF;" cx="131.6" cy="219.6" r="20"/>
	<path style="fill:#FFFFFF;" d="M142,294.8c5.2,12.8,16.8,20.4,26,16.8c1.2-0.4,2.4-1.2,3.2-2c-11.6-6.8-18.8-16.4-16-21.2   c2.4-4.4,12-3.6,22.8,1.2c-0.4-2.8-1.2-5.2-2-8c-5.2-12.8-16.8-20.4-26-16.8C140.4,268.4,136.8,281.6,142,294.8z"/>
	<path style="fill:#FFFFFF;" d="M348.8,428.8H159.2c-21.6,0-39.2-17.6-39.2-39.2l0,0c0-21.6,17.6-39.2,39.2-39.2h189.6   c21.6,0,39.2,17.6,39.2,39.2l0,0C388,411.2,370.4,428.8,348.8,428.8z"/>
</g>
<g>
	<circle style="fill:#E6E9EE;" cx="160.4" cy="389.6" r="23.2"/>
	<circle style="fill:#E6E9EE;" cx="222.8" cy="389.6" r="23.2"/>
	<circle style="fill:#E6E9EE;" cx="285.2" cy="389.6" r="23.2"/>
	<circle style="fill:#E6E9EE;" cx="347.6" cy="389.6" r="23.2"/>
</g>
<g>
	<path style="fill:#FFFFFF;" d="M344.4,127.6c-8,0-14.8,3.6-19.2,9.2c-4.4-5.6-11.2-9.2-19.2-9.2H202.4c-7.6,0-14.8,3.6-19.2,9.2   c-4.4-5.6-11.6-9.2-19.2-9.2c-13.6,0-24.8,11.2-24.8,24.8s11.2,24.8,24.8,24.8c5.6,0,10.8-2,14.8-4.8l0.8,16.8c0,1.2,0.4,2.8,0.4,4   l19.2,88.8c2.4,11.2,12.4,19.2,24,19.2h62c11.6,0,21.6-8,24-19.2l19.2-88.4c0.4-1.2,0.4-2.8,0.4-4l0.8-16.8c4,3.2,9.2,4.8,14.8,4.8   c13.6,0,24.8-11.2,24.8-24.8C369.2,138.8,358,127.6,344.4,127.6z"/>
	<path style="fill:#FFFFFF;" d="M300,112.8h-92c-6.4,0-12-5.2-12-12V52.4c0-6.4,5.2-12,12-12h92c6.4,0,12,5.2,12,12v48.4   C312,107.2,306.8,112.8,300,112.8z"/>
</g>
<circle style="fill:#84DBFF;" cx="279.6" cy="70.8" r="21.2"/>
<circle style="fill:#FFFFFF;" cx="279.6" cy="70.8" r="16.4"/>
<circle style="fill:#324A5E;" cx="279.6" cy="70.8" r="9.2"/>
<ellipse transform="matrix(0.7071 -0.7072 0.7072 0.7071 33.255 214.9808)" style="fill:#FFFFFF;" cx="276.106" cy="67.352" rx="3.2" ry="2"/>
<circle style="fill:#84DBFF;" cx="228.4" cy="70.8" r="21.2"/>
<circle style="fill:#FFFFFF;" cx="228.4" cy="70.8" r="16.4"/>
<circle style="fill:#324A5E;" cx="228.4" cy="70.8" r="9.2"/>
<ellipse transform="matrix(0.7071 -0.7072 0.7072 0.7071 18.2962 178.4898)" style="fill:#FFFFFF;" cx="224.583" cy="67.162" rx="3.2" ry="2"/>
<rect x="222.8" y="112.8" style="fill:#E6E9EE;" width="62.4" height="14.8"/>
<g>
</g>
<g>
</g>
<g>
</g>
<g>
</g>
<g>
</g>
<g>
</g>
<g>
</g>
<g>
</g>
<g>
</g>
<g>
</g>
<g>
</g>
<g>
</g>
<g>
</g>
<g>
</g>
<g>
</g>
</svg>
