<?xml version="1.0" encoding="iso-8859-1"?>
<!-- Generator: Adobe Illustrator 19.0.0, SVG Export Plug-In . SVG Version: 6.00 Build 0)  -->
<svg xmlns="http://www.w3.org/2000/svg" xmlns:xlink="http://www.w3.org/1999/xlink" version="1.1" id="Layer_1" x="0px" y="0px" viewBox="0 0 508 508" style="enable-background:new 0 0 508 508;" xml:space="preserve">
<circle style="fill:#90DFAA;" cx="254" cy="254" r="254"/>
<path style="fill:#2C9984;" d="M125.2,472.8C162.8,495.2,206.8,508,254,508c46.8,0,90.8-12.8,128.8-35.2H125.2z"/>
<rect x="346" y="191.6" style="fill:#E6E9EE;" width="14" height="108"/>
<circle style="fill:#324A5E;" cx="353.2" cy="294.8" r="14.4"/>
<rect x="148" y="191.6" style="fill:#E6E9EE;" width="14" height="108"/>
<g>
	<circle style="fill:#324A5E;" cx="154.8" cy="294.8" r="14.4"/>
	<rect x="250.8" y="41.6" style="fill:#324A5E;" width="6.4" height="36.4"/>
</g>
<g>
	<path style="fill:#FFFFFF;" d="M295.2,142h-82.4c-3.2,0-6-2.8-6-6V88.8c0-3.2,2.8-6,6-6h82.8c3.2,0,6,2.8,6,6V136   C301.6,139.2,298.8,142,295.2,142z"/>
	<path style="fill:#FFFFFF;" d="M320,154.8H188c-5.6,0-10,4.4-10,10v140c0,5.6,4.4,10,10,10h132.4c5.6,0,10-4.4,10-10v-140   C330.4,159.2,325.6,154.8,320,154.8z"/>
</g>
<path style="fill:#84DBFF;" d="M281.6,111.2h-55.2c-6,0-10.8-4.8-10.8-10.8l0,0c0-6,4.8-10.8,10.8-10.8H282c6,0,10.8,4.8,10.8,10.8  l0,0C292.4,106.4,287.6,111.2,281.6,111.2z"/>
<g>
	<circle style="fill:#FFFFFF;" cx="281.2" cy="100.8" r="7.6"/>
	<circle style="fill:#FFFFFF;" cx="226.8" cy="100.8" r="7.6"/>
</g>
<g>
	<path style="fill:#CED5E0;" d="M240.8,128.8H238c-0.8,0-1.6-0.8-1.6-1.6v-8.8c0-0.8,0.8-1.6,1.6-1.6h2.8c0.8,0,1.6,0.8,1.6,1.6v8.8   C242.4,128,241.6,128.8,240.8,128.8z"/>
	<path style="fill:#CED5E0;" d="M250.4,128.8h-2.8c-0.8,0-1.6-0.8-1.6-1.6v-8.8c0-0.8,0.8-1.6,1.6-1.6h2.8c0.8,0,1.6,0.8,1.6,1.6   v8.8C252,128,251.6,128.8,250.4,128.8z"/>
	<path style="fill:#CED5E0;" d="M260,128.8h-2.8c-0.8,0-1.6-0.8-1.6-1.6v-8.8c0-0.8,0.8-1.6,1.6-1.6h2.8c0.8,0,1.6,0.8,1.6,1.6v8.8   C262,128,261.2,128.8,260,128.8z"/>
	<path style="fill:#CED5E0;" d="M270,128.8h-2.8c-0.8,0-1.6-0.8-1.6-1.6v-8.8c0-0.8,0.8-1.6,1.6-1.6h2.8c0.8,0,1.6,0.8,1.6,1.6v8.8   C271.6,128,270.8,128.8,270,128.8z"/>
	<path style="fill:#CED5E0;" d="M266.8,82.4C266,76,260.4,71.2,254,71.2c-6.4,0-12,4.8-12.8,11.2H266.8z"/>
</g>
<circle style="fill:#FF7058;" cx="254" cy="41.6" r="6"/>
<g>
	<path style="fill:#324A5E;" d="M352.8,216.8H330v-45.2h22.8c12.4,0,22.8,10,22.8,22.8l0,0C375.6,206.4,365.6,216.8,352.8,216.8z"/>
	<path style="fill:#324A5E;" d="M155.2,216.8H178v-45.2h-22.8c-12.4,0-22.8,10-22.8,22.8l0,0C132.4,206.4,142.4,216.8,155.2,216.8z"/>
</g>
<g>
	<rect x="278.8" y="315.2" style="fill:#E6E9EE;" width="25.6" height="124"/>
	<rect x="204" y="315.2" style="fill:#E6E9EE;" width="25.6" height="124"/>
</g>
<g>
	<path style="fill:#324A5E;" d="M313.6,472.4c3.2-4.4,5.2-10,5.2-15.6c0-14.8-12-27.2-27.2-27.2s-27.2,12-27.2,27.2   c0,6,2,11.2,5.2,15.6H313.6z"/>
	<path style="fill:#324A5E;" d="M238.8,472.4c3.2-4.4,5.2-10,5.2-15.6c0-14.8-12-27.2-27.2-27.2c-14.8,0-27.2,12-27.2,27.2   c0,6,2,11.2,5.2,15.6H238.8z"/>
</g>
<g>
</g>
<g>
</g>
<g>
</g>
<g>
</g>
<g>
</g>
<g>
</g>
<g>
</g>
<g>
</g>
<g>
</g>
<g>
</g>
<g>
</g>
<g>
</g>
<g>
</g>
<g>
</g>
<g>
</g>
</svg>
