<?xml version="1.0" encoding="iso-8859-1"?>
<!-- Generator: Adobe Illustrator 19.0.0, SVG Export Plug-In . SVG Version: 6.00 Build 0)  -->
<svg xmlns="http://www.w3.org/2000/svg" xmlns:xlink="http://www.w3.org/1999/xlink" version="1.1" id="Layer_1" x="0px" y="0px" viewBox="0 0 508 508" style="enable-background:new 0 0 508 508;" xml:space="preserve">
<circle style="fill:#FD8469;" cx="254" cy="254" r="254"/>
<path style="fill:#F1543F;" d="M66,424.8C112.4,476,179.6,508,254,508s141.6-32,188-83.2H66z"/>
<path style="fill:#84DBFF;" d="M254,47.2L254,47.2c-17.6,0-31.6,14-31.6,31.6v20.4h63.2V78.8C285.6,61.6,271.6,47.2,254,47.2z"/>
<path style="fill:#FFFFFF;" d="M268,77.6h-10.8v-3.2h6c1.6,0,2.8-1.2,2.8-2.8c0-1.6-1.2-2.8-2.8-2.8h-6V66h1.2  c1.6,0,2.8-1.2,2.8-2.8c0-1.6-1.2-2.8-2.8-2.8H250c-1.6,0-2.8,1.2-2.8,2.8s1.2,2.8,2.8,2.8h1.2v3.2h-6c-1.6,0-2.8,1.2-2.8,2.8  c0,1.6,1.2,2.8,2.8,2.8h6V78h-10.8c-1.6,0-2.8,1.2-2.8,2.8c0,1.6,1.2,2.8,2.8,2.8h10.8v16h6.4v-16h10.8c1.6,0,2.8-1.2,2.8-2.8  C270.8,78.8,269.2,77.6,268,77.6z"/>
<polygon style="fill:#CED5E0;" points="279.2,186.4 269.6,162.8 238.4,162.8 228.8,186.4 "/>
<g>
	<path style="fill:#2B3B4E;" d="M406,236.4l-65.2-10v-10.8L408,226C406,228.8,405.2,232.8,406,236.4z"/>
	<path style="fill:#2B3B4E;" d="M424.4,246.4l-10,66l-10.4-1.6l9.6-64.8C416.8,247.6,420.8,247.6,424.4,246.4z"/>
</g>
<circle style="fill:#324A5E;" cx="419.6" cy="233.2" r="14"/>
<path style="fill:#E6E9EE;" d="M418.4,305.2c2.8-3.2,3.2-8.4,0.8-12.4c-3.2-4.8-9.6-6.4-14.4-3.2c-4.4,2.8-6,8.4-4,13.2  c-8.4,4.8-16,16.8-19.6,32c-1.2,4.8-1.6,10-1.6,14.4c5.6-13.2,14.4-21.2,21.6-19.6c9.6,2,14,20.4,10,40.8c5.6-6,10-15.6,12.4-26.4  C427.6,327.6,425.2,312.4,418.4,305.2z"/>
<path style="fill:#324A5E;" d="M332,200.4h-7.2v48.4h7.2c5.6,0,10-4.4,10-10v-28.4C342,205.2,337.6,200.4,332,200.4z"/>
<g>
	<polygon style="fill:#2B3B4E;" points="83.6,244.8 93.6,312.4 104,310.8 94,244.8  "/>
	<polygon style="fill:#2B3B4E;" points="99.2,226 99.2,236.8 167.2,226.4 167.2,215.6  "/>
</g>
<circle style="fill:#324A5E;" cx="88.4" cy="233.2" r="14"/>
<path style="fill:#E6E9EE;" d="M126.4,334.8c-3.2-15.2-11.2-27.2-19.6-32c2-4.8,0.4-10.4-4-13.2c-4.8-3.2-11.2-1.6-14.4,3.2  c-2.4,4-2,8.8,0.8,12.4c-6.8,7.2-9.2,22.4-5.6,38.8c2.4,10.8,7.2,20,12.4,26.4c-4-20.8,0.4-38.8,10-40.8c7.6-1.6,16,6.8,21.6,19.6  C128,344.8,127.6,339.6,126.4,334.8z"/>
<g>
	<path style="fill:#324A5E;" d="M182.8,200.4H176c-5.6,0-10,4.4-10,10v28.4c0,5.6,4.4,10,10,10h6.8V200.4z"/>
	<path style="fill:#324A5E;" d="M345.6,408.8c-9.2-28.4-46.8-50-91.6-50s-82.4,21.2-91.6,50H345.6z"/>
</g>
<g>
	<path style="fill:#E6E9EE;" d="M298,162.8h-88c-4.8,0-8.8-4-8.8-8.8v-46c0-4.8,4-8.8,8.8-8.8h88c4.8,0,8.8,4,8.8,8.8v46   C306.8,158.8,302.8,162.8,298,162.8z"/>
	<path style="fill:#E6E9EE;" d="M309.2,368H198.8c-9.6,0-17.6-8-17.6-17.6V204c0-9.6,8-17.6,17.6-17.6h110.4c9.6,0,17.6,8,17.6,17.6   v146.8C326.8,360.4,319.2,368,309.2,368z"/>
	<path style="fill:#E6E9EE;" d="M338,424.8h14.8c3.6,0,6.4-2.8,6.4-6.4v-44c0-3.6-2.8-6.4-6.4-6.4H338c-3.6,0-6.4,2.8-6.4,6.4v44   C332,422,334.8,424.8,338,424.8z"/>
	<path style="fill:#E6E9EE;" d="M154.8,424.8H170c3.6,0,6.4-2.8,6.4-6.4v-44c0-3.6-2.8-6.4-6.4-6.4h-14.8c-3.6,0-6.4,2.8-6.4,6.4v44   C148.8,422,151.6,424.8,154.8,424.8z"/>
</g>
<g>
	<path style="fill:#CED5E0;" d="M306.4,214H201.6c-3.6,0-6.8-2.8-6.8-6.8l0,0c0-3.6,2.8-6.8,6.8-6.8H306c3.6,0,6.8,2.8,6.8,6.8l0,0   C312.8,210.8,310,214,306.4,214z"/>
	<path style="fill:#CED5E0;" d="M306.4,236.8H201.6c-3.6,0-6.8-2.8-6.8-6.8l0,0c0-3.6,2.8-6.8,6.8-6.8H306c3.6,0,6.8,2.8,6.8,6.8   l0,0C312.8,233.6,310,236.8,306.4,236.8z"/>
	<path style="fill:#CED5E0;" d="M306.4,259.6H201.6c-3.6,0-6.8-2.8-6.8-6.8l0,0c0-3.6,2.8-6.8,6.8-6.8H306c3.6,0,6.8,2.8,6.8,6.8   l0,0C312.8,256.4,310,259.6,306.4,259.6z"/>
</g>
<g>
	<circle style="fill:#FFFFFF;" cx="277.6" cy="131.2" r="17.2"/>
	<circle style="fill:#FFFFFF;" cx="277.6" cy="131.2" r="17.2"/>
</g>
<circle style="fill:#324A5E;" cx="277.6" cy="131.2" r="9.6"/>
<circle style="fill:#FFFFFF;" cx="230" cy="131.2" r="17.2"/>
<circle style="fill:#84DBFF;" cx="230" cy="131.2" r="9.6"/>
<g>
</g>
<g>
</g>
<g>
</g>
<g>
</g>
<g>
</g>
<g>
</g>
<g>
</g>
<g>
</g>
<g>
</g>
<g>
</g>
<g>
</g>
<g>
</g>
<g>
</g>
<g>
</g>
<g>
</g>
</svg>
