<?xml version="1.0" encoding="iso-8859-1"?>
<!-- Generator: Adobe Illustrator 19.0.0, SVG Export Plug-In . SVG Version: 6.00 Build 0)  -->
<svg xmlns="http://www.w3.org/2000/svg" xmlns:xlink="http://www.w3.org/1999/xlink" version="1.1" id="Layer_1" x="0px" y="0px" viewBox="0 0 508 508" style="enable-background:new 0 0 508 508;" xml:space="preserve">
<circle style="fill:#324A5E;" cx="254" cy="254" r="254"/>
<g>
	<path style="fill:#54C0EB;" d="M374,335.2v-16h-15.2v16c-8,3.2-14,10.8-14,20c0,4.4,1.6,8.8,4,12h6.4v-18.4H378v18.4h6.4   c2.4-3.6,4-7.6,4-12C388.4,346,382.4,338,374,335.2z"/>
	<polygon style="fill:#54C0EB;" points="369.2,286.8 356,252.8 339.6,252.8 351.2,286.8  "/>
	<path style="fill:#54C0EB;" d="M316.4,264.4h-10.8v-62.8h10.8c5.6,0,10.4,4.8,10.4,10.4v42C326.8,259.6,322,264.4,316.4,264.4z"/>
</g>
<g>
	<path style="fill:#FFFFFF;" d="M339.6,206c-4.8,0-9.2,1.2-12.8,3.2v47.6c4,2,8.4,3.2,12.8,3.2c14.8,0,27.2-12,27.2-27.2   C366.4,218,354.4,206,339.6,206z"/>
	<circle style="fill:#FFFFFF;" cx="366.8" cy="301.2" r="22.4"/>
</g>
<g>
	<path style="fill:#54C0EB;" d="M148.8,335.2v-16H134v16c-8,3.2-14,10.8-14,20c0,4.4,1.6,8.8,4,12h6v-18.4h23.2v18.4h6.4   c2.4-3.6,4-7.6,4-12C162.8,346,157.2,338,148.8,335.2z"/>
	<polygon style="fill:#54C0EB;" points="156.8,286.8 168.4,252.8 152,252.8 138.8,286.8  "/>
	<path style="fill:#54C0EB;" d="M191.6,264.4h10.8v-62.8h-10.8c-5.6,0-10.4,4.8-10.4,10.4v42C181.2,259.6,186,264.4,191.6,264.4z"/>
</g>
<g>
	<path style="fill:#FFFFFF;" d="M168.4,206c4.8,0,9.2,1.2,12.8,3.2v47.6c-4,2-8.4,3.2-12.8,3.2c-14.8,0-27.2-12-27.2-27.2   C141.6,218,153.6,206,168.4,206z"/>
	<circle style="fill:#FFFFFF;" cx="141.2" cy="301.2" r="22.4"/>
</g>
<path style="fill:#2B3B4E;" d="M103.2,458.4c42,31.2,94.4,49.6,150.8,49.6s108.4-18.4,150.8-49.6H103.2z"/>
<path style="fill:#FFFFFF;" d="M280.4,427.2L280.4,427.2c-7.2,0-13.2-6-13.2-13.2v-60c0-7.2,6-13.2,13.2-13.2l0,0  c7.2,0,13.2,6,13.2,13.2v60C293.6,421.2,287.6,427.2,280.4,427.2z"/>
<path style="fill:#54C0EB;" d="M274.8,331.6v18.8c0,3.2,2.4,5.6,5.6,5.6s5.6-2.4,5.6-5.6v-18.8H274.8z"/>
<path style="fill:#FFFFFF;" d="M232.8,427.2L232.8,427.2c-7.2,0-13.2-6-13.2-13.2v-60c0-7.2,6-13.2,13.2-13.2l0,0  c7.2,0,13.2,6,13.2,13.2v60C245.6,421.2,240,427.2,232.8,427.2z"/>
<g>
	<path style="fill:#54C0EB;" d="M227.2,331.6v18.8c0,3.2,2.4,5.6,5.6,5.6c3.2,0,5.6-2.4,5.6-5.6v-18.8H227.2z"/>
	<path style="fill:#54C0EB;" d="M285.6,439.6v-19.2c0-3.2-2.4-5.6-5.6-5.6s-5.6,2.4-5.6,5.6v19.2H285.6z"/>
	<path style="fill:#54C0EB;" d="M238,439.6v-19.2c0-3.2-2.4-5.6-5.6-5.6c-3.2,0-5.6,2.4-5.6,5.6v19.2H238z"/>
</g>
<g>
	<path style="fill:#FFFFFF;" d="M306.8,202L306.8,202L306.8,202L306.8,202L306.8,202L306.8,202c-14.8-10-33.2-16-52.8-16   s-38,6-52.8,16l0,0l0,0l0,0l0,0l0,0c-8,15.6-11.6,33.6-9.6,52.4s9.6,63.6,20.8,77.2h42.4H296c11.6-13.2,18.8-58.4,20.8-77.2   C318.8,235.6,315.2,217.6,306.8,202z"/>
	<path style="fill:#FFFFFF;" d="M300,458.4c0.4-1.2,0.4-2.8,0.4-4.4c0-11.2-8.8-20-20-20s-20,8.8-20,20c0,1.6,0,2.8,0.4,4.4H300z"/>
	<path style="fill:#FFFFFF;" d="M252,458.4c0.4-1.2,0.4-2.8,0.4-4.4c0-11.2-8.8-20-20-20s-20,8.8-20,20c0,1.6,0,2.8,0.4,4.4H252z"/>
</g>
<path style="fill:#54C0EB;" d="M280.4,190.4c0,8-12,14.8-26.4,14.8c-14.8,0-26.4-6.4-26.4-14.8c0-0.4,0-0.4,0-0.8  c8.4-2.4,17.2-3.6,26.4-3.6c9.2,0,18,1.2,26.4,3.6C280.4,190,280.4,190.4,280.4,190.4z"/>
<path style="fill:#84DBFF;" d="M243.6,161.2v43.2c3.2,0.8,6.8,1.2,10.4,1.2c3.6,0,7.2-0.4,10.4-1.2v-43.2H243.6z"/>
<g>
	<path style="fill:#324A5E;" d="M166,365.2L166,365.2c2.4,0.4,4.4-1.6,4.8-4l1.2-12.8c0.4-2.4-1.6-4.4-4-4.8l0,0   c-2.4-0.4-4.4,1.6-4.8,4l-1.2,12.8C161.6,362.8,163.6,364.8,166,365.2z"/>
	<path style="fill:#324A5E;" d="M184,360L184,360c2.4-0.8,3.2-3.2,2.4-5.6l-4.4-12c-0.8-2.4-3.2-3.2-5.6-2.4l0,0   c-2.4,0.8-3.2,3.2-2.4,5.6l4.4,12.4C179.2,359.6,181.6,360.8,184,360z"/>
	<path style="fill:#324A5E;" d="M197.2,323.6L197.2,323.6c0.8-2.4-0.4-4.8-2.4-5.6l-12-4.4c-2.4-0.8-4.8,0.4-5.6,2.4l0,0   c-0.8,2.4,0.4,4.8,2.4,5.6l12,4.4C193.6,327.2,196.4,326,197.2,323.6z"/>
	<path style="fill:#324A5E;" d="M200.4,353.2L200.4,353.2c-1.6,1.6-4.4,1.6-6,0l-9.2-9.2c-1.6-1.6-1.6-4.4,0-6l0,0   c1.6-1.6,4.4-1.6,6,0l9.2,9.2C202,348.8,202,351.6,200.4,353.2z"/>
</g>
<g>
	<polygon style="fill:#54C0EB;" points="310.8,95.2 328.8,59.6 319.6,59.6 301.2,95.2  "/>
	<polygon style="fill:#54C0EB;" points="206.8,95.2 188.4,59.6 179.2,59.6 197.2,95.2  "/>
</g>
<path style="fill:#FFFFFF;" d="M311.6,164.8H196.4c-6.8,0-12-5.6-12-12v-47.2c0-6.8,5.6-12,12-12h114.8c6.8,0,12,5.6,12,12v47.2  C323.6,159.6,318,164.8,311.6,164.8z"/>
<circle style="fill:#54C0EB;" cx="289.6" cy="129.2" r="21.6"/>
<circle style="fill:#84DBFF;" cx="289.6" cy="129.2" r="16"/>
<circle style="fill:#FFFFFF;" cx="289.6" cy="129.2" r="7.6"/>
<circle style="fill:#54C0EB;" cx="220" cy="129.2" r="21.6"/>
<circle style="fill:#84DBFF;" cx="220" cy="129.2" r="16"/>
<g>
	<circle style="fill:#FFFFFF;" cx="327.2" cy="52.4" r="12.8"/>
	<circle style="fill:#FFFFFF;" cx="180.8" cy="52.4" r="12.8"/>
</g>
<g>
</g>
<g>
</g>
<g>
</g>
<g>
</g>
<g>
</g>
<g>
</g>
<g>
</g>
<g>
</g>
<g>
</g>
<g>
</g>
<g>
</g>
<g>
</g>
<g>
</g>
<g>
</g>
<g>
</g>
</svg>
