<?xml version="1.0" encoding="iso-8859-1"?>
<!-- Generator: Adobe Illustrator 19.0.0, SVG Export Plug-In . SVG Version: 6.00 Build 0)  -->
<svg xmlns="http://www.w3.org/2000/svg" xmlns:xlink="http://www.w3.org/1999/xlink" version="1.1" id="Layer_1" x="0px" y="0px" viewBox="0 0 508 508" style="enable-background:new 0 0 508 508;" xml:space="preserve">
<circle style="fill:#90DFAA;" cx="254" cy="254" r="254"/>
<path style="fill:#2C9984;" d="M103.2,458.4c42,31.2,94.4,49.6,150.8,49.6s108.4-18.4,150.8-49.6H103.2z"/>
<g>
	<rect x="325.2" y="288.8" style="fill:#324A5E;" width="26.4" height="12"/>
	<rect x="156.4" y="288.8" style="fill:#324A5E;" width="26.4" height="12"/>
	<rect x="271.2" y="410" style="fill:#324A5E;" width="26.4" height="17.2"/>
	<rect x="210.4" y="410" style="fill:#324A5E;" width="26.4" height="17.2"/>
	<rect x="278.8" y="282.4" style="fill:#324A5E;" width="11.2" height="138.8"/>
</g>
<g>
	<path style="fill:#FFFFFF;" d="M300.4,410.4H268c-2.4,0-4.4-2-4.4-4.4v-9.6c0-2.4,2-4.4,4.4-4.4h32.4c2.4,0,4.4,2,4.4,4.4v9.6   C305.2,408.4,303.2,410.4,300.4,410.4z"/>
	<circle style="fill:#FFFFFF;" cx="284.4" cy="336.8" r="20.4"/>
	<path style="fill:#FFFFFF;" d="M309.2,458.4c1.6-3.6,2.4-7.2,2.4-11.2c0-15.2-12.4-27.2-27.2-27.2c-15.2,0-27.2,12.4-27.2,27.2   c0,4,0.8,8,2.4,11.2H309.2z"/>
</g>
<rect x="218" y="282.4" style="fill:#324A5E;" width="11.2" height="138.8"/>
<g>
	<path style="fill:#FFFFFF;" d="M240,410.4h-32.4c-2.4,0-4.4-2-4.4-4.4v-9.6c0-2.4,2-4.4,4.4-4.4H240c2.4,0,4.4,2,4.4,4.4v9.6   C244.4,408.4,242.4,410.4,240,410.4z"/>
	<circle style="fill:#FFFFFF;" cx="223.6" cy="336.8" r="20.4"/>
	<path style="fill:#FFFFFF;" d="M248.4,458.4c1.6-3.6,2.4-7.2,2.4-11.2c0-15.2-12.4-27.2-27.2-27.2c-15.2,0-27.2,12.4-27.2,27.2   c0,4,0.8,8,2.4,11.2H248.4z"/>
</g>
<g>
	<circle style="fill:#E6E9EE;" cx="284.4" cy="268.8" r="20.4"/>
	<circle style="fill:#E6E9EE;" cx="223.6" cy="268.8" r="20.4"/>
</g>
<rect x="332.4" y="168.4" style="fill:#324A5E;" width="11.2" height="80.4"/>
<path style="fill:#FFFFFF;" d="M354.4,289.2H322c-2.4,0-4.4-2-4.4-4.4V238c0-2.4,2-4.4,4.4-4.4h32.4c2.4,0,4.4,2,4.4,4.4v46.4  C358.8,287.2,356.8,289.2,354.4,289.2z"/>
<rect x="164" y="168.4" style="fill:#324A5E;" width="11.2" height="80.4"/>
<path style="fill:#FFFFFF;" d="M186,289.2h-32.4c-2.4,0-4.4-2-4.4-4.4V238c0-2.4,2-4.4,4.4-4.4H186c2.4,0,4.4,2,4.4,4.4v46.4  C190.4,287.2,188.4,289.2,186,289.2z"/>
<rect x="234.8" y="105.6" style="fill:#324A5E;" width="38.4" height="18.8"/>
<g>
	<circle style="fill:#E6E9EE;" cx="335.6" cy="156" r="29.2"/>
	<circle style="fill:#E6E9EE;" cx="172.4" cy="156" r="29.2"/>
</g>
<g>
	<path style="fill:#FFFFFF;" d="M317.6,164.8c0,42.8-28.4,109.2-63.6,109.2s-63.6-66.4-63.6-109.2S218.8,120,254,120   S317.6,122.4,317.6,164.8z"/>
	<path style="fill:#FFFFFF;" d="M289.6,107.6h-71.2V68.4c0-19.6,16-35.6,35.6-35.6l0,0c19.6,0,35.6,16,35.6,35.6V107.6z"/>
</g>
<rect x="226.4" y="64" style="fill:#54C0EB;" width="55.6" height="19.6"/>
<polygon style="fill:#84DBFF;" points="260.8,64 238.8,83.6 281.6,83.6 281.6,64 "/>
<polygon style="fill:#E6E9EE;" points="238.8,208.8 223.6,182.4 238.8,156 269.2,156 284.4,182.4 269.2,208.8 "/>
<g>
</g>
<g>
</g>
<g>
</g>
<g>
</g>
<g>
</g>
<g>
</g>
<g>
</g>
<g>
</g>
<g>
</g>
<g>
</g>
<g>
</g>
<g>
</g>
<g>
</g>
<g>
</g>
<g>
</g>
</svg>
