<?xml version="1.0" encoding="iso-8859-1"?>
<!-- Generator: Adobe Illustrator 19.0.0, SVG Export Plug-In . SVG Version: 6.00 Build 0)  -->
<svg xmlns="http://www.w3.org/2000/svg" xmlns:xlink="http://www.w3.org/1999/xlink" version="1.1" id="Layer_1" x="0px" y="0px" viewBox="0 0 508 508" style="enable-background:new 0 0 508 508;" xml:space="preserve">
<circle style="fill:#84DBFF;" cx="254" cy="254" r="254"/>
<path style="fill:#54C0EB;" d="M90,448c44.4,37.6,101.6,60,164,60s119.6-22.8,164-60H90z"/>
<path style="fill:#324A5E;" d="M397.2,355.6c-0.8,0-1.6,0-2.4-0.4c-5.6-1.2-9.2-7.2-8-12.8l13.6-58.4L344,228c-4-4-4-10.8,0-15.2  c4-4,10.8-4,15.2,0l64.8,64.8l-16.4,70C406.4,352.4,402,355.6,397.2,355.6z"/>
<path style="fill:#E6E9EE;" d="M342,241.6L342,241.6c10.8,0,19.6-8.8,19.6-19.6v-3.6c0-10.8-8.8-19.6-19.6-19.6l0,0V241.6z"/>
<path style="fill:#324A5E;" d="M400.8,384.8c-2,0-4.4-0.8-6-2c-4.8-3.2-6-10-2.8-14.8c3.6-5.2,2.4-12-2.8-15.6  c-5.2-3.6-12-2.4-15.6,2.8c-3.2,4.8-10,6-14.8,2.8s-6-10-2.8-14.8c10.4-14.8,30.4-18.4,45.2-8.4c14.8,10.4,18.4,30.4,8.4,45.2  C407.6,383.2,404,384.8,400.8,384.8z"/>
<circle style="fill:#FFFFFF;" cx="408.4" cy="282.8" r="21.2"/>
<path style="fill:#324A5E;" d="M110.8,355.6c0.8,0,1.6,0,2.4-0.4c5.6-1.2,9.2-7.2,8-12.8L107.6,284l56.4-56.4c4-4,4-10.8,0-15.2  c-4-4-10.8-4-15.2,0l-64.4,65.2l16.4,70C101.6,352.4,106,355.6,110.8,355.6z"/>
<path style="fill:#E6E9EE;" d="M166,241.6L166,241.6c-10.8,0-19.6-8.8-19.6-19.6v-3.6c0-10.8,8.8-19.6,19.6-19.6l0,0V241.6z"/>
<path style="fill:#324A5E;" d="M107.2,384.8c2,0,4.4-0.8,6-2c4.8-3.2,6-10,2.8-14.8c-3.6-5.2-2.4-12,2.8-15.6  c5.2-3.6,12-2.4,15.6,2.8c3.2,4.8,10,6,14.8,2.8s6-10,2.8-14.8c-10.4-14.8-30.4-18.4-45.2-8.4C92,345.2,88.4,365.2,98.4,380  C100.4,383.2,104,384.8,107.2,384.8z"/>
<g>
	<circle style="fill:#FFFFFF;" cx="99.6" cy="282.8" r="21.2"/>
	<path style="fill:#FFFFFF;" d="M332.4,324.8H175.6c-5.2,0-9.6-4.4-9.6-9.6V192.8c0-5.2,4.4-9.6,9.6-9.6h156.8   c5.2,0,9.6,4.4,9.6,9.6v122.8C342,320.4,337.6,324.8,332.4,324.8z"/>
	<path style="fill:#FFFFFF;" d="M310.8,164H197.2c-4,0-6.8-3.2-6.8-6.8V86.4c0-4,3.2-6.8,6.8-6.8h113.2c4,0,6.8,3.2,6.8,6.8v70.8   C317.6,161.2,314.4,164,310.8,164z"/>
</g>
<rect x="212.8" y="164" style="fill:#324A5E;" width="82.4" height="18.8"/>
<circle style="fill:#E6E9EE;" cx="284" cy="112" r="15.2"/>
<circle style="fill:#324A5E;" cx="284" cy="112" r="9.2"/>
<circle style="fill:#FFFFFF;" cx="288.8" cy="107.2" r="4"/>
<circle style="fill:#E6E9EE;" cx="224" cy="112" r="15.2"/>
<circle style="fill:#324A5E;" cx="224" cy="112" r="9.2"/>
<circle style="fill:#FFFFFF;" cx="229.2" cy="107.2" r="4"/>
<g>
	<path style="fill:#E6E9EE;" d="M317.6,127.2L317.6,127.2c7.2,0,13.2-6,13.2-13.2v-8.8c0-7.2-6-13.2-13.2-13.2l0,0V127.2z"/>
	<path style="fill:#E6E9EE;" d="M190.4,127.2L190.4,127.2c-7.2,0-13.2-6-13.2-13.2v-8.8c0-7.2,6-13.2,13.2-13.2l0,0V127.2z"/>
	<rect x="260" y="324.8" style="fill:#E6E9EE;" width="57.2" height="32"/>
</g>
<rect x="267.2" y="356.8" style="fill:#FFFFFF;" width="43.6" height="32"/>
<g>
	<rect x="277.2" y="388.8" style="fill:#324A5E;" width="23.2" height="32"/>
	<rect x="201.2" y="388.8" style="fill:#324A5E;" width="23.2" height="32"/>
</g>
<rect x="184" y="324.8" style="fill:#E6E9EE;" width="57.2" height="32"/>
<rect x="191.2" y="356.8" style="fill:#FFFFFF;" width="43.6" height="32"/>
<g>
	<path style="fill:#E6E9EE;" d="M314,448.8c0.8-2.8,1.2-5.6,1.2-8.4c0-14.8-12-26.4-26.4-26.4c-14.8,0-26.4,12-26.4,26.4   c0,2.8,0.4,5.6,1.2,8.4H314z"/>
	<path style="fill:#E6E9EE;" d="M238,448.8c0.8-2.8,1.2-5.6,1.2-8.4c0-14.8-12-26.4-26.4-26.4c-14.8,0-26.4,12-26.4,26.4   c0,2.8,0.4,5.6,1.2,8.4H238z"/>
</g>
<g>
</g>
<g>
</g>
<g>
</g>
<g>
</g>
<g>
</g>
<g>
</g>
<g>
</g>
<g>
</g>
<g>
</g>
<g>
</g>
<g>
</g>
<g>
</g>
<g>
</g>
<g>
</g>
<g>
</g>
</svg>
