<?xml version="1.0" encoding="iso-8859-1"?>
<!-- Generator: Adobe Illustrator 19.0.0, SVG Export Plug-In . SVG Version: 6.00 Build 0)  -->
<svg xmlns="http://www.w3.org/2000/svg" xmlns:xlink="http://www.w3.org/1999/xlink" version="1.1" id="Layer_1" x="0px" y="0px" viewBox="0 0 508 508" style="enable-background:new 0 0 508 508;" xml:space="preserve">
<circle style="fill:#FD8469;" cx="254" cy="254" r="254"/>
<path style="fill:#F1543F;" d="M79.2,438c45.6,43.2,107.2,70,174.8,70s129.2-26.8,174.8-70H79.2z"/>
<g>
	<circle style="fill:#E6E9EE;" cx="202.4" cy="402.8" r="16"/>

		<ellipse transform="matrix(-0.171 0.9853 -0.9853 -0.171 592.2827 197.078)" style="fill:#E6E9EE;" cx="213.231" cy="347.711" rx="50.401" ry="18.401"/>
</g>
<path style="fill:#324A5E;" d="M178,404.4h40.8v34.4h-75.2l0,0C143.6,419.6,158.8,404.4,178,404.4z"/>
<g>
	<circle style="fill:#E6E9EE;" cx="305.6" cy="402.8" r="16"/>

		<ellipse transform="matrix(-0.171 -0.9853 0.9853 -0.171 2.2251 697.1452)" style="fill:#E6E9EE;" cx="294.401" cy="347.636" rx="50.401" ry="18.401"/>
</g>
<path style="fill:#324A5E;" d="M330,404.4h-40.4v34.4h75.2l0,0C364.4,419.6,349.2,404.4,330,404.4z"/>
<ellipse transform="matrix(-0.5405 -0.8413 0.8413 -0.5405 416.7577 584.2968)" style="fill:#CED5E0;" cx="367.931" cy="178.346" rx="45.198" ry="16.399"/>
<circle style="fill:#E6E9EE;" cx="390.4" cy="222.8" r="14.4"/>
<ellipse transform="matrix(0.0113 -0.9999 0.9999 0.0113 130.4071 643.0635)" style="fill:#CED5E0;" cx="390.383" cy="255.589" rx="25.599" ry="12.8"/>
<path style="fill:#324A5E;" d="M402,296c0,8.8-2.4,16.4-5.6,20.8c0-14-4.4-25.6-9.6-25.6c-4,0-7.6,6.4-9.2,15.6  c-0.8-3.2-1.2-7.2-1.2-11.2c0-14,6-25.6,13.2-25.6C396.4,270,402,281.6,402,296z"/>
<circle style="fill:#E6E9EE;" cx="339.2" cy="139.6" r="18"/>
<ellipse transform="matrix(-0.5405 0.8413 -0.8413 -0.5405 366.2438 157.1786)" style="fill:#CED5E0;" cx="140.202" cy="178.598" rx="45.198" ry="16.399"/>
<circle style="fill:#E6E9EE;" cx="117.6" cy="222.8" r="14.4"/>
<ellipse transform="matrix(0.0113 0.9999 -0.9999 0.0113 371.4588 134.8367)" style="fill:#CED5E0;" cx="117.546" cy="255.255" rx="25.599" ry="12.8"/>
<path style="fill:#324A5E;" d="M106,296c0,8.8,2.4,16.4,5.6,20.8c0-14,4.4-25.6,9.6-25.6c4,0,7.6,6.4,9.2,15.6  c0.8-3.2,1.2-7.2,1.2-11.2c0-14-6-25.6-13.2-25.6C111.6,270,106,281.6,106,296z"/>
<g>
	<circle style="fill:#E6E9EE;" cx="168.8" cy="139.6" r="18"/>
	<path style="fill:#E6E9EE;" d="M294.4,247.2c12.8-16,21.2-39.2,21.2-65.2c0-48-27.6-86.8-61.6-86.8S192.4,134,192.4,182   c0,26,8,49.6,21.2,65.2H294.4z"/>
</g>
<path style="fill:#CED5E0;" d="M215.6,263.2c9.2,15.2,22.8,24.8,38.4,24.8c15.2,0,28.8-9.6,38.4-24.8H215.6z"/>
<g>
	<ellipse style="fill:#FFFFFF;" cx="254" cy="135.6" rx="86.8" ry="61.6"/>
	<polygon style="fill:#FFFFFF;" points="294.4,247.2 213.6,247.2 215.6,263.2 292.4,263.2  "/>
</g>
<path style="fill:#84DBFF;" d="M289.2,79.2c0,5.2-1.2,10-3.2,14.4c-8.8,4.8-20,7.6-32,7.6s-23.2-2.8-32-7.6c-2-4.4-3.2-9.2-3.2-14.4  c0-19.6,15.6-35.2,35.2-35.2S289.2,59.6,289.2,79.2z"/>
<g>
	<circle style="fill:#FFFFFF;" cx="226" cy="295.6" r="20"/>
	<circle style="fill:#FFFFFF;" cx="282" cy="295.6" r="20"/>
	<circle style="fill:#FFFFFF;" cx="267.2" cy="70.8" r="7.2"/>
	<circle style="fill:#FFFFFF;" cx="240.8" cy="70.8" r="7.2"/>
</g>
<g>
</g>
<g>
</g>
<g>
</g>
<g>
</g>
<g>
</g>
<g>
</g>
<g>
</g>
<g>
</g>
<g>
</g>
<g>
</g>
<g>
</g>
<g>
</g>
<g>
</g>
<g>
</g>
<g>
</g>
</svg>
