<?xml version="1.0" encoding="iso-8859-1"?>
<!-- Generator: Adobe Illustrator 19.0.0, SVG Export Plug-In . SVG Version: 6.00 Build 0)  -->
<svg xmlns="http://www.w3.org/2000/svg" xmlns:xlink="http://www.w3.org/1999/xlink" version="1.1" id="Layer_1" x="0px" y="0px" viewBox="0 0 508 508" style="enable-background:new 0 0 508 508;" xml:space="preserve">
<circle style="fill:#324A5E;" cx="254" cy="254" r="254"/>
<path style="fill:#2B3B4E;" d="M86.8,445.2C131.6,484.4,190,508,254,508s122.4-23.6,167.2-62.8H86.8z"/>
<polygon style="fill:#84DBFF;" points="357.2,232.8 360.8,296 377.6,296 381.2,232.8 352.4,181.6 333.2,200.8 357.6,232.8 "/>
<g>
	<path style="fill:#E6E9EE;" d="M330.4,147.2v56.4c14.4-1.2,26-13.6,26-28.4C356,160.8,344.8,148.4,330.4,147.2z"/>
	<circle style="fill:#E6E9EE;" cx="369.2" cy="234" r="20.4"/>
</g>
<path style="fill:#FFFFFF;" d="M390,332c-5.2,0-9.2-4-9.2-9.2c0-6.4-5.2-11.2-11.2-11.2c-6.4,0-11.2,5.2-11.2,11.2  c0,5.2-4,9.2-9.2,9.2s-9.2-4-9.2-9.2c0-16.4,13.2-30,30-30s30,13.2,30,30C399.2,328,395.2,332,390,332z"/>
<polygon style="fill:#84DBFF;" points="146.8,296 150.4,232.8 150.4,232.8 175.2,200 155.2,182.4 126.4,232.8 130.4,296 "/>
<g>
	<path style="fill:#E6E9EE;" d="M177.6,147.2v56.4c-14.4-1.2-26-13.6-26-28.4C151.6,160.8,163.2,148.4,177.6,147.2z"/>
	<circle style="fill:#E6E9EE;" cx="138.4" cy="234" r="20.4"/>
</g>
<path style="fill:#FFFFFF;" d="M118,332c5.2,0,9.2-4,9.2-9.2c0-6.4,5.2-11.2,11.2-11.2c6.4,0,11.2,5.2,11.2,11.2  c0,5.2,4,9.2,9.2,9.2s9.2-4,9.2-9.2c0-16.4-13.2-30-30-30s-30,13.2-30,30C108.4,328,112.8,332,118,332z"/>
<g>
	<circle style="fill:#CED5E0;" cx="204.8" cy="412" r="15.2"/>

		<ellipse transform="matrix(-0.171 0.9853 -0.9853 -0.171 605.3253 208.4462)" style="fill:#CED5E0;" cx="214.97" cy="358.883" rx="48.401" ry="17.601"/>
</g>
<path style="fill:#FFFFFF;" d="M180.8,413.2H220V446h-72l0,0C148,428,162.8,413.2,180.8,413.2z"/>
<g>
	<circle style="fill:#CED5E0;" cx="303.2" cy="412" r="15.2"/>

		<ellipse transform="matrix(-0.171 -0.9853 0.9853 -0.171 -10.6781 708.6744)" style="fill:#CED5E0;" cx="292.799" cy="358.829" rx="48.401" ry="17.601"/>
</g>
<path style="fill:#FFFFFF;" d="M327.2,413.2H288V446h72l0,0C360,428,345.2,413.2,327.2,413.2z"/>
<g>
	<path style="fill:#CED5E0;" d="M292.8,262.4c12.4-15.2,20.4-37.6,20.4-62.8c0-46-26.4-83.2-58.8-83.2s-58.8,37.2-58.8,83.2   c0,25.2,8,47.6,20.4,62.8H292.8z"/>
	<path style="fill:#CED5E0;" d="M217.2,277.6c8.8,14.4,22,23.6,36.8,23.6c14.8,0,28-9.2,36.8-23.6H217.2z"/>
</g>
<g>
	<polygon style="fill:#E6E9EE;" points="292.8,262.4 215.2,262.4 217.2,277.6 290.8,277.6  "/>
	<circle style="fill:#E6E9EE;" cx="227.2" cy="308.8" r="19.2"/>
	<circle style="fill:#E6E9EE;" cx="280.8" cy="308.8" r="19.2"/>
	<polygon style="fill:#E6E9EE;" points="262.8,90.8 258,46.8 250,46.8 245.2,90.8  "/>
</g>
<path style="fill:#FFFFFF;" d="M310.8,222H197.2c-11.2,0-20-8.8-20-20v-48c0-35.6,28.8-64.4,64.4-64.4H266  c35.6,0,64.4,28.8,64.4,64.4v48C330.8,213.2,322,222,310.8,222z"/>
<circle style="fill:#FFD05B;" cx="254" cy="40.8" r="8.8"/>
<path style="fill:#84DBFF;" d="M290.8,166.8h-73.6c-10.8,0-19.6-8.8-19.6-19.6l0,0c0-10.8,8.8-19.6,19.6-19.6h73.2  c10.8,0,19.6,8.8,19.6,19.6l0,0C310.4,158,301.6,166.8,290.8,166.8z"/>
<g>
	<circle style="fill:#324A5E;" cx="288" cy="147.2" r="9.6"/>
	<circle style="fill:#324A5E;" cx="220" cy="147.2" r="9.6"/>
</g>
<g>
</g>
<g>
</g>
<g>
</g>
<g>
</g>
<g>
</g>
<g>
</g>
<g>
</g>
<g>
</g>
<g>
</g>
<g>
</g>
<g>
</g>
<g>
</g>
<g>
</g>
<g>
</g>
<g>
</g>
</svg>
