<?xml version="1.0" encoding="iso-8859-1"?>
<!-- Generator: Adobe Illustrator 19.0.0, SVG Export Plug-In . SVG Version: 6.00 Build 0)  -->
<svg xmlns="http://www.w3.org/2000/svg" xmlns:xlink="http://www.w3.org/1999/xlink" version="1.1" id="Layer_1" x="0px" y="0px" viewBox="0 0 508 508" style="enable-background:new 0 0 508 508;" xml:space="preserve">
<circle style="fill:#FFD05B;" cx="254" cy="254" r="254"/>
<path style="fill:#F9B54C;" d="M99.6,455.6C142.4,488.4,196,508,254,508s111.6-19.6,154.4-52.4H99.6z"/>
<path style="fill:#2B3B4E;" d="M302.8,438c-4-3.2-9.2-5.2-14.8-5.2c-8.4,0-16,4.4-20.4,11.2l-8.8-98c7.2-1.2,14-4.8,18.8-10  L302.8,438z"/>
<path style="fill:#FFFFFF;" d="M312,455.2c-0.8-12.8-11.2-22.8-24-22.8s-23.2,10-24,22.8H312z"/>
<path style="fill:#2B3B4E;" d="M248.8,346l-8.4,98c-4.4-6.8-11.6-11.2-20.4-11.2c-5.6,0-10.8,2-14.8,5.2l25.2-101.6  C235.2,341.2,241.6,344.8,248.8,346z"/>
<path style="fill:#FFFFFF;" d="M196,455.2c0.8-12.8,11.2-22.8,24-22.8s23.2,10,24,22.8H196z"/>
<g>
	<rect x="245.2" y="116.8" style="fill:#2B3B4E;" width="17.6" height="21.6"/>
	<polygon style="fill:#2B3B4E;" points="286.4,116.8 277.2,116.8 268.8,138.4 277.6,138.4  "/>
	<polygon style="fill:#2B3B4E;" points="221.6,116.8 230.8,116.8 239.2,138.4 230.4,138.4  "/>
	<path style="fill:#2B3B4E;" d="M414,200l-10.8,65.2c-3.6-4-8.8-6.8-14.8-6.8L398,200L414,200L414,200z"/>
	<path style="fill:#2B3B4E;" d="M383.6,258.8c-2.8,0.4-5.2,1.6-7.6,3.6l-4-62h8L383.6,258.8z"/>
	<path style="fill:#2B3B4E;" d="M400.4,312.8c-1.2,5.2-3.2,10.4-4.8,16c-10,29.6-24.4,53.2-36,61.2l0,0l-15.6-4   c-5.2-12.4-2.4-40.8,8.4-72c2-5.6,4-10.8,6-15.6c2-4.8,7.2-8,12.4-8l0,0c5.2,8,15.2,11.2,24,8l0,0   C399.6,301.2,402,306.8,400.4,312.8z"/>
</g>
<path style="fill:#FFFFFF;" d="M361.2,409.6l3.6-14.8c0.4-2-0.8-4-2.8-4.4l-19.2-4.8c-2-0.4-4,0.8-4.4,2.8l-0.4,2  c-2.4-0.4-6.4,0.4-10.8,2c-7.6,2.8-13.6,7.6-11.2,10s11.2,0,18-3.6c0.8-0.4,1.6-1.2,2.4-1.6l-1.6,6.4c-0.4,1.2,0,2,0.4,2.8  c-1.6,1.2-4,4-6.4,8.4c-4.4,7.2-7.2,15.6-4.8,16c2,0.4,7.6-7.2,10.8-14.8c1.6-3.6,2.4-6.4,2.4-8l0,0l4.4,1.2c-1.2,1.6-2.8,4-4,7.6  c-3.2,7.6-4.4,16.4-2.4,16.8s6.4-7.2,8.4-15.2c0.8-3.6,1.2-6.4,1.2-8.4l4.4,1.2c-0.8,1.6-2,4.4-2.8,8c-1.6,8-1.6,16.8,0.4,17.6  c2,0.4,4.8-7.6,5.6-16c0.4-3.6,0.4-6.8,0-8.8l4.4,1.2l0,0c-0.8,1.6-1.2,4.4-1.6,8.4c-0.4,8.4,0.8,17.6,3.2,18c2,0.4,3.6-8,3.2-16.4  c-0.4-4.8-1.2-8.4-2-10.4C360,411.2,360.8,410.4,361.2,409.6z"/>
<g>
	<path style="fill:#2B3B4E;" d="M119.6,258.4c-6,0-11.2,2.8-14.8,6.8L94,200h16L119.6,258.4z"/>
	<path style="fill:#2B3B4E;" d="M136,200l-4,62c-2.4-1.6-4.8-2.8-7.6-3.6l3.6-58.8h8V200z"/>
	<path style="fill:#2B3B4E;" d="M164,386l-15.6,3.6l0,0c-11.6-8-26-31.2-36-61.2c-2-5.2-3.6-10.8-4.8-16c-1.6-5.6,0.8-11.6,5.6-14.4   l0,0c8.8,3.2,18.8,0,24-8c5.2,0,10,2.8,12.4,8c2,4.8,4,10,6,15.6C166,344.8,169.2,373.6,164,386z"/>
</g>
<path style="fill:#FFFFFF;" d="M146.8,409.6l-3.6-14.8c-0.4-2,0.8-4,2.8-4.4l19.2-4.8c2-0.4,4,0.8,4.4,2.8l0.4,2  c2.4-0.4,6.4,0.4,10.8,2c7.6,2.8,13.6,7.6,11.2,10c-2.4,2.4-11.2,0-18-3.6c-0.8-0.4-1.6-1.2-2.4-1.6l1.6,6.4c0.4,1.2,0,2-0.4,2.8  c1.6,1.2,4,4,6.4,8.4c4.4,7.2,7.2,15.6,4.8,16c-2,0.4-7.6-7.2-10.8-14.8c-1.6-3.6-2.4-6.4-2.4-8l0,0l-4.4,1.2c1.2,1.6,2.8,4,4,7.6  c3.2,7.6,4.4,16.4,2.4,16.8s-6.4-7.2-8.4-15.2c-0.8-3.6-1.2-6.4-1.2-8.4l-4.4,1.2c0.8,1.6,2,4.4,2.8,8c1.6,8,1.6,16.8-0.4,17.6  c-2,0.4-4.8-7.6-5.6-16c-0.4-3.6-0.4-6.8,0-8.8l-4.4,1.2l0,0c0.8,1.6,1.2,4.4,1.6,8.4c0.4,8.4-0.8,17.6-3.2,18  c-2,0.4-3.6-8-3.2-16.4c0.4-4.8,1.2-8.4,2-10.4C148,411.2,147.2,410.4,146.8,409.6z"/>
<g>
	<polygon style="fill:#2B3B4E;" points="268.8,288.8 262.8,315.2 272.8,315.2 278.4,288.8  "/>
	<polygon style="fill:#2B3B4E;" points="258.8,288.8 255.6,315.2 260.8,315.2 264,288.8  "/>
	<polygon style="fill:#2B3B4E;" points="229.6,288.8 235.2,315.2 245.2,315.2 239.2,288.8  "/>
	<polygon style="fill:#2B3B4E;" points="244,288.8 247.2,315.2 252.4,315.2 249.2,288.8  "/>
</g>
<g>
	<path style="fill:#FFFFFF;" d="M333.6,288.8H174.4c-5.6,0-10-4.4-10-10V148.4c0-5.6,4.4-10,10-10H334c5.6,0,10,4.4,10,10v130.4   C343.6,284.4,339.2,288.8,333.6,288.8z"/>
	<path style="fill:#FFFFFF;" d="M421.6,200c-1.6-33.6-28.8-60.4-62.8-61.6V200H421.6z"/>
</g>
<rect x="343.6" y="155.2" style="fill:#2B3B4E;" width="15.2" height="37.2"/>
<path style="fill:#FFFFFF;" d="M86.4,200c1.6-33.6,28.8-60.4,62.8-61.6V200H86.4z"/>
<rect x="149.2" y="155.2" style="fill:#2B3B4E;" width="15.2" height="37.2"/>
<g>
	<path style="fill:#FFFFFF;" d="M221.2,315.2c0.8,17.2,15.2,31.2,32.8,31.2s32-13.6,32.8-31.2H221.2z"/>
	<path style="fill:#FFFFFF;" d="M296.4,116.8c2.4-5.6,3.6-11.6,3.6-18c0-25.6-20.8-46-46-46s-46,20.8-46,46c0,6.4,1.2,12.4,3.6,18   H296.4z"/>
</g>
<path style="fill:#84DBFF;" d="M280.4,101.6h-52.8c-2,0-3.6-1.6-3.6-3.6V82.4c0-2,1.6-3.6,3.6-3.6h52.8c2,0,3.6,1.6,3.6,3.6V98  C284,100,282.4,101.6,280.4,101.6z"/>
<g>
	<circle style="fill:#324A5E;" cx="272.4" cy="90.4" r="5.2"/>
	<circle style="fill:#324A5E;" cx="235.6" cy="90.4" r="5.2"/>
</g>
<g>
	<rect x="181.6" y="152.4" style="fill:#E6E9EE;" width="16.8" height="122.4"/>
	<rect x="213.6" y="152.4" style="fill:#E6E9EE;" width="16.8" height="122.4"/>
	<rect x="245.6" y="152.4" style="fill:#E6E9EE;" width="16.8" height="122.4"/>
	<rect x="277.6" y="152.4" style="fill:#E6E9EE;" width="16.8" height="122.4"/>
	<rect x="309.6" y="152.4" style="fill:#E6E9EE;" width="16.8" height="122.4"/>
</g>
<g>
	<circle style="fill:#FFFFFF;" cx="388" cy="278.8" r="20.4"/>
	<circle style="fill:#FFFFFF;" cx="120" cy="278.8" r="20.4"/>
</g>
<g>
</g>
<g>
</g>
<g>
</g>
<g>
</g>
<g>
</g>
<g>
</g>
<g>
</g>
<g>
</g>
<g>
</g>
<g>
</g>
<g>
</g>
<g>
</g>
<g>
</g>
<g>
</g>
<g>
</g>
</svg>
