<?xml version="1.0" encoding="iso-8859-1"?>
<!-- Generator: Adobe Illustrator 19.0.0, SVG Export Plug-In . SVG Version: 6.00 Build 0)  -->
<svg xmlns="http://www.w3.org/2000/svg" xmlns:xlink="http://www.w3.org/1999/xlink" version="1.1" id="Layer_1" x="0px" y="0px" viewBox="0 0 508 508" style="enable-background:new 0 0 508 508;" xml:space="preserve">
<circle style="fill:#324A5E;" cx="254" cy="254" r="254"/>
<g>
	<path style="fill:#CED5E0;" d="M219.2,227.2l-6.8-9.2c-1.2,0.8-30.4,24.8-51.6,81.6l10.8,4C191.2,250,219.2,227.2,219.2,227.2z"/>
	<path style="fill:#CED5E0;" d="M295.6,218l-7.2,8.8c0.4,0.4,28,23.2,48,76.8l10.8-4C326.4,242.8,297.2,219.2,295.6,218z"/>
	<polygon style="fill:#CED5E0;" points="288.8,355.6 301.2,348.8 292.8,292.8 260,292.8 280.8,355.6 280,355.6 264.8,432 302,411.6    300.4,355.6  "/>
	<polygon style="fill:#CED5E0;" points="215.2,292.8 206.8,348.8 219.2,355.6 207.6,355.6 206,411.6 243.2,432 228,355.6    227.2,355.6 248,292.8  "/>
</g>
<path style="fill:#2B3B4E;" d="M80.8,439.6C126,482,186.8,508,254,508s128-26,173.2-68.4H80.8z"/>
<rect x="244" y="184" style="fill:#CED5E0;" width="19.6" height="38.4"/>
<path style="fill:#324A5E;" d="M176.4,312.4c-2.4,3.2-7.6,4-10.8,2c0,0-0.4,0-0.4-0.4c-0.4,0-1.6-0.4-2-0.8c-1.2-0.4-2.8-0.8-4-0.8  c-3.6-0.8-5.6-4.4-6-7.6c-7.2,5.2-18.4,15.2-18,28c0,0,3.6,5.2,8.4,4c-0.4,2.8-0.4,5.6,0.4,8.8c0,0,6.8,6.4,11.6-0.8v0.4  c0,0,7.6,6,10.8-4.8c0,0-2.8-13.6,5.2-23.2c4,7.6,3.6,15.6,3.6,15.6c4.4,10.4,10.8,4.8,10.8,4.8  C187.6,328.8,181.2,318.4,176.4,312.4z"/>
<ellipse transform="matrix(-0.3035 0.9528 -0.9528 -0.3035 504.9329 239.4649)" style="fill:#FFFFFF;" cx="164.945" cy="304.278" rx="12.8" ry="15.6"/>
<path style="fill:#324A5E;" d="M331.6,312.4c2.4,3.2,7.6,4,10.8,2c0,0,0.4,0,0.4-0.4c0.4,0,1.6-0.4,2-0.8c1.2-0.4,2.8-0.8,4-0.8  c3.6-0.8,5.6-4.4,6-7.6c7.2,5.2,18.4,15.2,18,28c0,0-3.6,5.2-8.4,4c0.4,2.8,0.4,5.6-0.4,8.8c0,0-6.8,6.4-11.6-0.8v0.4  c0,0-7.6,6-10.8-4.8c0,0,2.8-13.6-5.2-23.2c-4,7.6-3.6,15.6-3.6,15.6c-4.4,10.4-10.8,4.8-10.8,4.8  C320.4,328.8,326.8,318.4,331.6,312.4z"/>
<g>

		<ellipse transform="matrix(-0.3035 -0.9528 0.9528 -0.3035 157.3655 723.7932)" style="fill:#FFFFFF;" cx="343.219" cy="304.382" rx="12.8" ry="15.6"/>
	<path style="fill:#FFFFFF;" d="M354,438.8c-1.2-24-20.8-42.8-45.2-42.8c-24.4,0-44,19.2-45.2,42.8H354z"/>
	<circle style="fill:#FFFFFF;" cx="290.8" cy="355.6" r="15.2"/>
	<path style="fill:#FFFFFF;" d="M154,438.8c1.2-24,20.8-42.8,45.2-42.8s44,19.2,45.2,42.8H154z"/>
	<circle style="fill:#FFFFFF;" cx="217.2" cy="355.6" r="15.2"/>
	<path style="fill:#FFFFFF;" d="M303.6,252.4c-2-5.6-4-10.4-6.4-15.2c6-2.4,10-8.4,10-14.8c0-8.8-7.2-16.4-16.4-16.4   c-6,0-11.6,3.6-14,8.4c-7.2-1.2-14.8-1.6-22.8-1.6c-7.6,0-15.2,0.4-22.8,1.6c-2.8-5.2-8-8.4-14-8.4c-8.8,0-16.4,7.2-16.4,16.4   c0,6.8,4,12.4,10,14.8c-2.4,4.4-4.4,9.6-6.4,15.2c-6,17.2-9.6,37.6-10,59.2c17.2,5.6,37.6,9.2,59.6,9.2s42.4-3.2,59.6-9.2   C313.2,290,309.6,270,303.6,252.4z"/>
</g>
<path style="fill:#E6E9EE;" d="M315.2,56.4H192.8c-7.6,0-14.4,4.4-17.6,11.2c-16,35.6-16,76.4,0,112c3.2,6.8,10,11.2,17.6,11.2h122  c7.6,0,14.4-4.4,17.6-11.2c16-35.6,16-76.4,0-112C329.6,60.8,322.4,56.4,315.2,56.4z"/>
<g>
	<rect x="302.4" y="56.4" style="fill:#CED5E0;" width="9.6" height="134.4"/>
	<rect x="196" y="56.4" style="fill:#CED5E0;" width="9.6" height="134.4"/>
</g>
<circle style="fill:#FFFFFF;" cx="200.8" cy="105.2" r="21.2"/>
<circle style="fill:#FF7058;" cx="200.8" cy="105.2" r="15.6"/>
<g>

		<ellipse transform="matrix(-0.7205 -0.6935 0.6935 -0.7205 265.7847 305.2827)" style="fill:#FFFFFF;" cx="194.418" cy="99.076" rx="2.8" ry="5.6"/>
	<circle style="fill:#FFFFFF;" cx="305.2" cy="105.2" r="21.2"/>
</g>
<circle style="fill:#FF7058;" cx="305.2" cy="105.2" r="15.6"/>
<ellipse transform="matrix(-0.7205 -0.6935 0.6935 -0.7205 445.4234 378.0738)" style="fill:#FFFFFF;" cx="298.907" cy="99.268" rx="2.8" ry="5.6"/>
<g>
	<path style="fill:#CED5E0;" d="M254,136.8c-2.4,0-4,2-4,4v30.8c0,2.4,2,4,4,4c2.4,0,4-2,4-4v-30.8C258,138.4,256.4,136.8,254,136.8   z"/>
	<path style="fill:#CED5E0;" d="M266,139.6c-2.4,0-4,2-4,4v24.8c0,2.4,2,4,4,4c2.4,0,4-2,4-4v-24.8C270,141.6,268.4,139.6,266,139.6   z"/>
	<path style="fill:#CED5E0;" d="M278,142.8c-2.4,0-4,2-4,4v18.8c0,2.4,2,4,4,4s4-2,4-4v-18.8C282,144.4,280.4,142.8,278,142.8z"/>
	<path style="fill:#CED5E0;" d="M242,139.6c2.4,0,4,2,4,4v24.8c0,2.4-2,4-4,4c-2.4,0-4-2-4-4v-24.8C238,141.6,239.6,139.6,242,139.6   z"/>
	<path style="fill:#CED5E0;" d="M230,142.8c2.4,0,4,2,4,4v18.8c0,2.4-2,4-4,4s-4-2-4-4v-18.8C226,144.4,227.6,142.8,230,142.8z"/>
</g>
<g>
</g>
<g>
</g>
<g>
</g>
<g>
</g>
<g>
</g>
<g>
</g>
<g>
</g>
<g>
</g>
<g>
</g>
<g>
</g>
<g>
</g>
<g>
</g>
<g>
</g>
<g>
</g>
<g>
</g>
</svg>
