<?xml version="1.0" encoding="iso-8859-1"?>
<!-- Generator: Adobe Illustrator 19.0.0, SVG Export Plug-In . SVG Version: 6.00 Build 0)  -->
<svg xmlns="http://www.w3.org/2000/svg" xmlns:xlink="http://www.w3.org/1999/xlink" version="1.1" id="Layer_1" x="0px" y="0px" viewBox="0 0 508 508" style="enable-background:new 0 0 508 508;" xml:space="preserve">
<circle style="fill:#FD8469;" cx="254" cy="254" r="254"/>
<path style="fill:#F1543F;" d="M80.8,439.6C126,482,186.8,508,254,508s128-26,173.2-68.4H80.8z"/>
<g>
	<rect x="245.2" y="216.8" style="fill:#324A5E;" width="17.2" height="33.6"/>
	<path style="fill:#324A5E;" d="M182,321.2c17.2-46.8,41.6-66.8,41.6-66.8l-6.4-7.6c-1.2,0.8-26.8,21.6-44.8,71.2L182,321.2z"/>
	<path style="fill:#324A5E;" d="M186,328.8c-2,2.8-6.4,3.6-9.6,2c0,0-0.4,0-0.4-0.4c-0.4,0-1.6-0.4-1.6-0.4   c-1.2-0.4-2.4-0.8-3.6-0.8c-2.8-0.8-4.8-4-4.8-7.2c-6.4,4.4-16,13.2-15.6,24.4c0,0,3.2,4.4,7.2,3.6c-0.4,2.4-0.4,5.2,0.4,7.6   c0,0,6,5.6,10.4-0.8v0.4c0,0,6.8,5.2,9.2-4c0,0-2.4-12,4.4-20c3.6,6.8,3.2,13.6,3.2,13.6c4,9.2,9.2,4.4,9.2,4.4   C196,342.8,190.4,334,186,328.8z"/>
</g>
<ellipse transform="matrix(-0.3035 0.9528 -0.9528 -0.3035 536.1602 251.301)" style="fill:#FFFFFF;" cx="176.233" cy="321.61" rx="11.2" ry="13.6"/>
<g>
	<path style="fill:#324A5E;" d="M326,321.2c-17.2-46.8-41.6-66.8-41.6-66.8l6.4-7.6c1.2,0.8,26.8,21.6,44.8,71.2L326,321.2z"/>
	<path style="fill:#324A5E;" d="M322,328.8c2,2.8,6.4,3.6,9.6,2c0,0,0.4,0,0.4-0.4c0.4,0,1.6-0.4,1.6-0.4c1.2-0.4,2.4-0.8,3.6-0.8   c3.2-0.8,5.2-3.6,5.2-6.8c6.4,4.4,16,13.2,15.6,24.4c0,0-3.2,4.4-7.2,3.6c0.4,2.4,0.4,5.2-0.4,7.6c0,0-6,5.6-10.4-0.8v0.4   c0,0-6.8,5.2-9.2-4c0,0,2.4-12-4.4-20c-3.6,6.8-3.2,13.6-3.2,13.6c-4,9.2-9.2,4.4-9.2,4.4C312,342.8,317.6,334,322,328.8z"/>
</g>
<g>

		<ellipse transform="matrix(-0.3035 -0.9528 0.9528 -0.3035 125.7599 735.2039)" style="fill:#FFFFFF;" cx="331.587" cy="321.638" rx="11.2" ry="13.6"/>
	<circle style="fill:#FFFFFF;" cx="286" cy="250.4" r="14"/>
	<circle style="fill:#FFFFFF;" cx="222" cy="250.4" r="14"/>
</g>
<g>
	<polygon style="fill:#324A5E;" points="294.4,366 296,415.2 263.6,432.8 276.8,366  "/>
	<polygon style="fill:#324A5E;" points="259.2,311.6 278.4,369.2 295.2,360.4 288,311.6  "/>
</g>
<g>
	<path style="fill:#FFFFFF;" d="M341.2,438.8c-1.2-20.8-18.4-37.6-39.2-37.6c-21.2,0-38.4,16.4-39.2,37.6H341.2z"/>
	<circle style="fill:#FFFFFF;" cx="286" cy="366" r="13.2"/>
</g>
<g>
	<polygon style="fill:#324A5E;" points="213.6,366 212,415.2 244.4,432.8 231.2,366  "/>
	<polygon style="fill:#324A5E;" points="248.8,311.6 229.6,369.2 212.8,360.4 220,311.6  "/>
</g>
<g>
	<path style="fill:#FFFFFF;" d="M166.8,438.8c1.2-20.8,18.4-37.6,39.2-37.6c21.2,0,38.4,16.4,39.2,37.6H166.8z"/>
	<circle style="fill:#FFFFFF;" cx="222" cy="366" r="13.2"/>
	<path style="fill:#FFFFFF;" d="M297.2,276.4c5.2,15.2,8.4,32.8,8.4,51.6c-14.8,5.2-32.8,8-52,8s-36.8-2.8-52-8   c0-18.8,3.2-36.8,8.4-51.6c5.2-14.8,12-25.2,18.8-32.4c8-1.2,16-2,24.4-2c8.4,0,16.4,0.8,24.4,2C285.2,251.2,292,262,297.2,276.4z"/>
</g>
<polygon style="fill:#324A5E;" points="279.2,99.2 275.2,97.6 280.8,85.2 275.6,72.8 288.4,67.6 293.2,56.4 297.6,58.4 292,71.2   281.6,75.2 285.6,85.2 "/>
<circle style="fill:#CED5E0;" cx="298" cy="54.4" r="9.6"/>
<polygon style="fill:#324A5E;" points="228.8,99.2 232.8,97.6 227.2,85.2 232.4,72.8 219.6,67.6 214.8,56.4 210.4,58.4 216,71.2   226.4,75.2 222.4,85.2 "/>
<circle style="fill:#CED5E0;" cx="210" cy="54.4" r="9.6"/>
<path style="fill:#E6E9EE;" d="M326.4,148.4c0,28.8-8.4,54.4-22.4,72.8c-15.6,4-32.4,6-50,6s-34.4-2-50-6  c-14-18.4-22.4-44.4-22.4-72.8c0-19.6,4-38,11.2-53.6c18.8-5.2,39.6-8,61.2-8s42.8,2.8,61.2,8C322.4,110,326.4,128.4,326.4,148.4z"/>
<circle style="fill:#324A5E;" cx="313.2" cy="154.8" r="27.2"/>
<circle style="fill:#54C0EB;" cx="313.2" cy="154.8" r="20.4"/>
<path style="fill:#84DBFF;" d="M329.6,166.8c-3.6,4.8-9.6,8.4-16.4,8.4c-11.2,0-20.4-9.2-20.4-20.4c0-6.8,3.2-12.8,8.4-16.4  c-2.4,3.2-4,7.6-4,12.4c0,11.2,9.2,20.4,20.4,20.4C322,170.8,326,169.6,329.6,166.8z"/>
<circle style="fill:#FFFFFF;" cx="320.8" cy="147.6" r="3.6"/>
<circle style="fill:#324A5E;" cx="194.8" cy="154.8" r="27.2"/>
<circle style="fill:#54C0EB;" cx="194.8" cy="154.8" r="20.4"/>
<path style="fill:#84DBFF;" d="M211.2,166.8c-3.6,4.8-9.6,8.4-16.4,8.4c-11.2,0-20.4-9.2-20.4-20.4c0-6.8,3.2-12.8,8.4-16.4  c-2.4,3.2-4,7.6-4,12.4c0,11.2,9.2,20.4,20.4,20.4C203.6,170.8,207.6,169.6,211.2,166.8z"/>
<circle style="fill:#FFFFFF;" cx="202" cy="147.6" r="3.6"/>
<g>
	<rect x="248" y="177.2" style="fill:#CED5E0;" width="12" height="31.2"/>
	<rect x="266.8" y="184" style="fill:#CED5E0;" width="12" height="18"/>
	<rect x="229.2" y="184" style="fill:#CED5E0;" width="12" height="18"/>
</g>
<g>
</g>
<g>
</g>
<g>
</g>
<g>
</g>
<g>
</g>
<g>
</g>
<g>
</g>
<g>
</g>
<g>
</g>
<g>
</g>
<g>
</g>
<g>
</g>
<g>
</g>
<g>
</g>
<g>
</g>
</svg>
