<?xml version="1.0" encoding="iso-8859-1"?>
<!-- Generator: Adobe Illustrator 19.0.0, SVG Export Plug-In . SVG Version: 6.00 Build 0)  -->
<svg xmlns="http://www.w3.org/2000/svg" xmlns:xlink="http://www.w3.org/1999/xlink" version="1.1" id="Layer_1" x="0px" y="0px" viewBox="0 0 508 508" style="enable-background:new 0 0 508 508;" xml:space="preserve">
<circle style="fill:#F1543F;" cx="254" cy="254" r="254"/>
<path style="fill:#FF7058;" d="M94.4,451.6C138,486.8,193.6,508,254,508s116-21.2,159.6-56.4H94.4z"/>
<g>
	<rect x="234" y="166.8" style="fill:#324A5E;" width="40" height="18"/>
	<rect x="285.6" y="332.4" style="fill:#324A5E;" width="17.2" height="90.8"/>
</g>
<path style="fill:#FFFFFF;" d="M322.8,451.6c2.4-4.4,4-9.6,4-15.2c0-17.2-14-31.6-31.6-31.6c-17.2,0-31.6,14-31.6,31.6  c0,5.6,1.2,10.8,4,15.2H322.8z"/>
<rect x="203.2" y="332.4" style="fill:#324A5E;" width="17.2" height="90.8"/>
<path style="fill:#FFFFFF;" d="M240.4,451.6c2.4-4.4,4-9.6,4-15.2c0-17.2-14-31.6-31.6-31.6s-31.6,14-31.6,31.6  c0,5.6,1.2,10.8,4,15.2H240.4z"/>
<g>
	<path style="fill:#324A5E;" d="M394,336.8v-13.6h-15.2v13.6c-8,3.2-14,10.8-14,20c0,4.4,1.6,8.8,4,12h6.4v-18.4h23.2v18.4h6.4   c2.4-3.6,4-7.6,4-12C408,347.6,402,339.6,394,336.8z"/>
	<polygon style="fill:#324A5E;" points="359.2,254 368.4,281.6 386.4,281.6 375.6,254  "/>
	<path style="fill:#324A5E;" d="M336,203.2h-6.4V266h6.4c5.6,0,10.4-4.4,10.4-10.4v-42.4C346.4,207.6,341.6,203.2,336,203.2z"/>
</g>
<path style="fill:#FFFFFF;" d="M359.2,207.6c-4.8,0-9.2,1.2-12.8,3.2v47.6c4,2,8.4,3.2,12.8,3.2c14.8,0,27.2-12,27.2-27.2  C386.4,219.6,374,207.6,359.2,207.6z"/>
<g>
	<path style="fill:#324A5E;" d="M129.2,336.8v-13.6H114v13.6c-8,3.2-14,10.8-14,20c0,4.4,1.6,8.8,4,12h6v-18.4h23.2v18.4h6.4   c2.4-3.6,4-7.6,4-12C143.2,347.6,137.6,339.6,129.2,336.8z"/>
	<polygon style="fill:#324A5E;" points="132.4,254 121.6,281.6 139.6,281.6 148.8,254  "/>
	<path style="fill:#324A5E;" d="M176.4,203.2H172c-5.6,0-10.4,4.4-10.4,10.4V256c0,5.6,4.4,10.4,10.4,10.4h4.4V203.2z"/>
</g>
<g>
	<path style="fill:#FFFFFF;" d="M148.8,207.6c4.8,0,9.2,1.2,12.8,3.2v47.6c-4,2-8.4,3.2-12.8,3.2c-14.8,0-27.2-12-27.2-27.2   C121.6,219.6,134,207.6,148.8,207.6z"/>
	<path style="fill:#FFFFFF;" d="M303.2,166.8h-98.4c-8.4,0-15.2-6.8-15.2-15.2V78c0-8.4,6.8-15.2,15.2-15.2h98   c8.4,0,15.2,6.8,15.2,15.2v73.6C318,160,311.2,166.8,303.2,166.8z"/>
	<path style="fill:#FFFFFF;" d="M317.2,339.2H190.8c-9.6,0-17.2-7.6-17.2-17.2V202c0-9.6,7.6-17.2,17.2-17.2h126   c9.6,0,17.2,7.6,17.2,17.2v120C334,331.2,326.4,339.2,317.2,339.2z"/>
	<circle style="fill:#FFFFFF;" cx="282.4" cy="102.8" r="18.4"/>
</g>
<circle style="fill:#84DBFF;" cx="282.4" cy="102.8" r="13.6"/>
<g>

		<ellipse transform="matrix(-0.7071 -0.7071 0.7071 -0.7071 403.9605 362.5436)" style="fill:#FFFFFF;" cx="277.065" cy="97.609" rx="2.4" ry="5.2"/>
	<circle style="fill:#FFFFFF;" cx="225.6" cy="102.8" r="18.4"/>
</g>
<circle style="fill:#84DBFF;" cx="225.6" cy="102.8" r="13.6"/>
<g>

		<ellipse transform="matrix(-0.7071 -0.7071 0.7071 -0.7071 307.6802 322.6399)" style="fill:#FFFFFF;" cx="220.661" cy="97.597" rx="2.4" ry="5.2"/>
	<path style="fill:#FFFFFF;" d="M397.2,326l-14.8,3.6c-4,0.8-8.4-1.6-9.2-5.6l-8.4-36.8c-0.8-4,1.6-8.4,5.6-9.2l14.8-3.6   c4-0.8,8.4,1.6,9.2,5.6l8.4,36.8C404,320.8,401.6,324.8,397.2,326z"/>
	<path style="fill:#FFFFFF;" d="M110.8,326l14.8,3.6c4,0.8,8.4-1.6,9.2-5.6l8.4-36.8c0.8-4-1.6-8.4-5.6-9.2l-14.8-4   c-4-0.8-8.4,1.6-9.2,5.6l-8.4,36.8C104,320.8,106.4,324.8,110.8,326z"/>
</g>
<g>
	<rect x="190.4" y="206" style="fill:#E6E9EE;" width="126.8" height="24"/>
	<rect x="190.4" y="250" style="fill:#E6E9EE;" width="126.8" height="24"/>
	<rect x="190.4" y="293.6" style="fill:#E6E9EE;" width="126.8" height="24"/>
</g>
<g>
</g>
<g>
</g>
<g>
</g>
<g>
</g>
<g>
</g>
<g>
</g>
<g>
</g>
<g>
</g>
<g>
</g>
<g>
</g>
<g>
</g>
<g>
</g>
<g>
</g>
<g>
</g>
<g>
</g>
</svg>
