<?xml version="1.0" encoding="iso-8859-1"?>
<!-- Generator: Adobe Illustrator 19.0.0, SVG Export Plug-In . SVG Version: 6.00 Build 0)  -->
<svg xmlns="http://www.w3.org/2000/svg" xmlns:xlink="http://www.w3.org/1999/xlink" version="1.1" id="Layer_1" x="0px" y="0px" viewBox="0 0 508 508" style="enable-background:new 0 0 508 508;" xml:space="preserve">
<circle style="fill:#FFD05B;" cx="254" cy="254" r="254"/>
<path style="fill:#F9B54C;" d="M85.2,443.6c44.8,40,104,64.4,168.8,64.4s124-24.4,168.8-64.4H85.2z"/>
<rect x="251.2" y="40" style="fill:#324A5E;" width="5.6" height="28.8"/>
<g>
	<path style="fill:#FFFFFF;" d="M266.4,88.8h-24.8V72c0-6.8,5.6-12.4,12.4-12.4l0,0c6.8,0,12.4,5.6,12.4,12.4V88.8z"/>
	<circle style="fill:#FFFFFF;" cx="254" cy="40" r="6.8"/>
</g>
<rect x="321.2" y="112.8" style="fill:#324A5E;" width="28.8" height="5.6"/>
<g>
	<path style="fill:#FFFFFF;" d="M318,103.2h-4.8V128h4.8c6.8,0,12.4-5.6,12.4-12.4C330.4,108.8,324.8,103.2,318,103.2z"/>
	<circle style="fill:#FFFFFF;" cx="350" cy="115.6" r="6.8"/>
</g>
<rect x="158" y="112.8" style="fill:#324A5E;" width="28.8" height="5.6"/>
<g>
	<path style="fill:#FFFFFF;" d="M190,103.2h4.8V128H190c-6.8,0-12.4-5.6-12.4-12.4C177.6,108.8,183.2,103.2,190,103.2z"/>
	<circle style="fill:#FFFFFF;" cx="158" cy="115.6" r="6.8"/>
</g>
<g>
	<polygon style="fill:#324A5E;" points="282.8,375.2 292.8,369.6 286,323.2 258.8,323.2 276,375.2 275.6,375.2 262.8,438    293.6,421.6 292.4,375.2  "/>
	<polygon style="fill:#324A5E;" points="222,323.2 215.2,369.6 225.2,375.2 215.6,375.2 214.4,421.6 245.2,438 232.4,375.2    232,375.2 249.2,323.2  "/>
</g>
<g>
	<path style="fill:#F1543F;" d="M336.4,444c-0.8-19.6-17.2-35.6-37.2-35.6S262.8,424,262,444H336.4z"/>
	<circle style="fill:#F1543F;" cx="284.4" cy="375.2" r="12.4"/>
	<path style="fill:#F1543F;" d="M171.6,444c0.8-19.6,17.2-35.6,37.2-35.6S245.2,424,246,444H171.6z"/>
	<circle style="fill:#F1543F;" cx="223.6" cy="375.2" r="12.4"/>
</g>
<polygon style="fill:#324A5E;" points="367.2,285.6 370.8,348.8 387.6,348.8 391.2,285.6 355.6,222.8 342.4,253.2 367.6,285.6 "/>
<g>
	<path style="fill:#F1543F;" d="M342.4,200.4V256c13.2-2.4,23.6-14,23.6-28C366,214.4,356,202.8,342.4,200.4z"/>
	<circle style="fill:#F1543F;" cx="379.2" cy="286.8" r="20.4"/>
	<path style="fill:#F1543F;" d="M400,385.2c-5.2,0-9.2-4-9.2-9.2c0-6.4-5.2-11.2-11.2-11.2s-11.2,5.2-11.2,11.2c0,5.2-4,9.2-9.2,9.2   s-9.2-4-9.2-9.2c0-16.4,13.6-30,30-30s30,13.6,30,30C409.2,380.8,405.2,385.2,400,385.2z"/>
</g>
<polygon style="fill:#324A5E;" points="137.2,348.8 140.8,285.6 140.4,285.6 165.6,253.2 152.4,222.8 116.8,285.6 120.4,348.8 "/>
<g>
	<path style="fill:#F1543F;" d="M165.6,200.4V256c-13.2-2.4-23.6-14-23.6-28C142,214.4,152,202.8,165.6,200.4z"/>
	<circle style="fill:#F1543F;" cx="128.8" cy="286.8" r="20.4"/>
	<path style="fill:#F1543F;" d="M108,385.2c5.2,0,9.2-4,9.2-9.2c0-6.4,5.2-11.2,11.2-11.2c6.4,0,11.2,5.2,11.2,11.2   c0,5.2,4,9.2,9.2,9.2s9.2-4,9.2-9.2c0-16.4-13.6-30-30-30s-30,13.6-30,30C98.8,380.8,102.8,385.2,108,385.2z"/>
</g>
<path style="fill:#FF7058;" d="M298.4,151.6h-88.8c-8.4,0-15.2-6.8-15.2-15.2v-42c0-8.4,6.8-15.2,15.2-15.2h88.8  c8.4,0,15.2,6.8,15.2,15.2v42C313.6,144.8,306.8,151.6,298.4,151.6z"/>
<circle style="fill:#FFFFFF;" cx="284" cy="115.6" r="17.2"/>
<circle style="fill:#54C0EB;" cx="284" cy="115.6" r="10.4"/>
<g>
	<circle style="fill:#FFFFFF;" cx="289.2" cy="112.4" r="3.2"/>
	<circle style="fill:#FFFFFF;" cx="224" cy="115.6" r="17.2"/>
</g>
<circle style="fill:#54C0EB;" cx="224" cy="115.6" r="10.4"/>
<circle style="fill:#FFFFFF;" cx="229.2" cy="112.4" r="3.2"/>
<path style="fill:#FF7058;" d="M322.8,176H185.2c-10.8,0-20,8.8-20,20v116.4c0,10.8,8.8,20,20,20h137.6c10.8,0,20-8.8,20-20V196  C342.4,185.2,333.6,176,322.8,176z"/>
<g>
	<rect x="216.8" y="151.6" style="fill:#F1543F;" width="74.4" height="24.8"/>
	<path style="fill:#F1543F;" d="M198.8,222L198.8,222c-3.6,0-6.4-2.8-6.4-6.4v-16c0-3.6,2.8-6.4,6.4-6.4l0,0c3.6,0,6.4,2.8,6.4,6.4   v16C205.2,219.2,202.4,222,198.8,222z"/>
	<path style="fill:#F1543F;" d="M220.8,222L220.8,222c-3.6,0-6.4-2.8-6.4-6.4v-16c0-3.6,2.8-6.4,6.4-6.4l0,0c3.6,0,6.4,2.8,6.4,6.4   v16C227.2,219.2,224.4,222,220.8,222z"/>
	<path style="fill:#F1543F;" d="M242.8,222L242.8,222c-3.6,0-6.4-2.8-6.4-6.4v-16c0-3.6,2.8-6.4,6.4-6.4l0,0c3.6,0,6.4,2.8,6.4,6.4   v16C249.2,219.2,246.4,222,242.8,222z"/>
	<path style="fill:#F1543F;" d="M265.2,222L265.2,222c-3.6,0-6.4-2.8-6.4-6.4v-16c0-3.6,2.8-6.4,6.4-6.4l0,0c3.6,0,6.4,2.8,6.4,6.4   v16C271.2,219.2,268.4,222,265.2,222z"/>
	<path style="fill:#F1543F;" d="M287.2,222L287.2,222c-3.6,0-6.4-2.8-6.4-6.4v-16c0-3.6,2.8-6.4,6.4-6.4l0,0c3.6,0,6.4,2.8,6.4,6.4   v16C293.2,219.2,290.4,222,287.2,222z"/>
	<path style="fill:#F1543F;" d="M309.2,222L309.2,222c-3.6,0-6.4-2.8-6.4-6.4v-16c0-3.6,2.8-6.4,6.4-6.4l0,0c3.6,0,6.4,2.8,6.4,6.4   v16C315.2,219.2,312.4,222,309.2,222z"/>
</g>
<path style="fill:#FFFFFF;" d="M318,316.4H190c-5.6,0-10-4.4-10-10v-52.8c0-5.6,4.4-10,10-10h128c5.6,0,10,4.4,10,10v52.8  C328.4,312,323.6,316.4,318,316.4z"/>
<g>
</g>
<g>
</g>
<g>
</g>
<g>
</g>
<g>
</g>
<g>
</g>
<g>
</g>
<g>
</g>
<g>
</g>
<g>
</g>
<g>
</g>
<g>
</g>
<g>
</g>
<g>
</g>
<g>
</g>
</svg>
