<?xml version="1.0" encoding="iso-8859-1"?>
<!-- Generator: Adobe Illustrator 19.0.0, SVG Export Plug-In . SVG Version: 6.00 Build 0)  -->
<svg xmlns="http://www.w3.org/2000/svg" xmlns:xlink="http://www.w3.org/1999/xlink" version="1.1" id="Layer_1" x="0px" y="0px" viewBox="0 0 508 508" style="enable-background:new 0 0 508 508;" xml:space="preserve">
<circle style="fill:#90DFAA;" cx="254" cy="254" r="254"/>
<path style="fill:#FFFFFF;" d="M258.8,369.2v-25.6h-11.6v25.6c-23.6,2.8-42.8,23.2-43.2,47.6v6h98v-6  C301.6,392,282.8,372,258.8,369.2z M216.4,410.8c3.2-17.6,18.8-30.8,36.8-30.8s33.6,13.2,36.8,30.8H216.4z"/>
<path style="fill:#324A5E;" d="M253.2,470.4L253.2,470.4c-9.6,0-17.6-7.6-17.6-17.6v-48.4c0-9.6,7.6-17.6,17.6-17.6l0,0  c9.6,0,17.6,7.6,17.6,17.6v48.4C270.4,462.8,262.8,470.4,253.2,470.4z"/>
<circle style="fill:#FFFFFF;" cx="253.2" cy="278.8" r="67.6"/>
<polygon style="fill:#2B3B4E;" points="394,249.2 380.8,249.2 380.8,208.4 344.4,172.4 354,162.8 394,203.2 "/>
<g>
	<circle style="fill:#324A5E;" cx="337.6" cy="165.6" r="24"/>
	<path style="fill:#324A5E;" d="M378,305.2v-14.4c-3.2-2.8-5.2-6.4-5.2-10.8c0-8,6.4-14.4,14.4-14.4s14.4,6.4,14.4,14.4   c0,4.4-2,8.4-5.2,10.8v14.4h7.2c4.8-9.6,7.6-22.8,7.6-34c0-5.2-0.8-9.6-1.6-13.2h-44c-1.2,3.6-1.6,8-1.6,13.2c0,11.2,2.8,24,7.6,34   H378z"/>
</g>
<path style="fill:#FFFFFF;" d="M410.4,258H364c-4.8,0-8.8-4-8.8-8.8l0,0c0-4.8,4-8.8,8.8-8.8h46.8c4.8,0,8.8,4,8.8,8.8l0,0  C419.2,254,415.2,258,410.4,258z"/>
<circle style="fill:#324A5E;" cx="386.8" cy="208.4" r="18.8"/>
<polygon style="fill:#2B3B4E;" points="114,249.2 127.2,249.2 127.2,208.4 163.6,172.4 154,162.8 114,203.2 "/>
<g>
	<circle style="fill:#324A5E;" cx="170.4" cy="165.6" r="24"/>
	<path style="fill:#324A5E;" d="M130,305.2v-14.4c3.2-2.8,5.2-6.4,5.2-10.8c0-8-6.4-14.4-14.4-14.4s-14.4,6.4-14.4,14.4   c0,4.4,2,8.4,5.2,10.8v14.4h-7.2c-4.8-9.6-7.6-22.8-7.6-34c0-5.2,0.8-9.6,1.6-13.2h44c1.2,3.6,1.6,8,1.6,13.2c0,11.2-2.8,24-7.6,34   H130z"/>
</g>
<path style="fill:#FFFFFF;" d="M97.6,258h46.8c4.8,0,8.8-4,8.8-8.8l0,0c0-4.8-4-8.8-8.8-8.8H97.6c-4.8,0-8.8,4-8.8,8.8l0,0  C88.8,254,92.8,258,97.6,258z"/>
<g>
	<circle style="fill:#324A5E;" cx="121.2" cy="208.4" r="18.8"/>
	<polygon style="fill:#324A5E;" points="342.4,72 337.6,67.2 298.4,100.4 309.2,111.2  "/>
</g>
<path style="fill:#E6E9EE;" d="M294.4,115.2L294.4,115.2c-5.6-5.6-5.6-14.4,0-20l0,0c5.6-5.6,14.4-5.6,20,0l0,0  c5.6,5.6,5.6,14.4,0,20l0,0C308.8,120.8,300,120.8,294.4,115.2z"/>
<circle style="fill:#FFFFFF;" cx="341.6" cy="68" r="8"/>
<polygon style="fill:#324A5E;" points="164,72 169.2,67.2 208,100.4 197.6,111.2 "/>
<path style="fill:#E6E9EE;" d="M212.4,115.2L212.4,115.2c5.6-5.6,5.6-14.4,0-20l0,0c-5.6-5.6-14.4-5.6-20,0l0,0  c-5.6,5.6-5.6,14.4,0,20l0,0C198,120.8,206.8,120.8,212.4,115.2z"/>
<circle style="fill:#FFFFFF;" cx="165.2" cy="68" r="8"/>
<path style="fill:#E6E9EE;" d="M324,278.8H182.8c-7.6,0-13.6-6-13.6-13.6V143.6c0-7.6,6-13.6,13.6-13.6H324c7.6,0,13.6,6,13.6,13.6  v121.6C337.6,272.8,331.2,278.8,324,278.8z"/>
<path style="fill:#FFFFFF;" d="M302.8,130c0-0.4,0-0.8,0-1.2c0-42.4-22-77.2-49.6-77.2c-27.2,0-49.6,34.4-49.6,77.2  c0,0.4,0,0.8,0,1.2H302.8z"/>
<path style="fill:#84DBFF;" d="M273.2,106.8h-40c-6.4,0-11.6-5.2-11.6-11.6l0,0c0-6.4,5.2-11.6,11.6-11.6h40  c6.4,0,11.6,5.2,11.6,11.6l0,0C284.8,101.6,279.6,106.8,273.2,106.8z"/>
<g>
	<circle style="fill:#324A5E;" cx="269.6" cy="95.2" r="5.6"/>
	<circle style="fill:#324A5E;" cx="236.8" cy="95.2" r="5.6"/>
</g>
<g>
</g>
<g>
</g>
<g>
</g>
<g>
</g>
<g>
</g>
<g>
</g>
<g>
</g>
<g>
</g>
<g>
</g>
<g>
</g>
<g>
</g>
<g>
</g>
<g>
</g>
<g>
</g>
<g>
</g>
</svg>
