<?xml version="1.0" encoding="iso-8859-1"?>
<!-- Generator: Adobe Illustrator 19.0.0, SVG Export Plug-In . SVG Version: 6.00 Build 0)  -->
<svg xmlns="http://www.w3.org/2000/svg" xmlns:xlink="http://www.w3.org/1999/xlink" version="1.1" id="Layer_1" x="0px" y="0px" viewBox="0 0 508 508" style="enable-background:new 0 0 508 508;" xml:space="preserve">
<circle style="fill:#90DFAA;" cx="254" cy="254" r="254"/>
<path style="fill:#2C9984;" d="M94.4,451.6C138,486.8,193.6,508,254,508s116-21.2,159.6-56.4H94.4z"/>
<polygon style="fill:#CED5E0;" points="258.4,57.6 249.6,57.6 240.8,97.2 267.2,97.2 "/>
<g>
	<rect x="234" y="173.6" style="fill:#324A5E;" width="40" height="9.6"/>
	<circle style="fill:#324A5E;" cx="305.2" cy="118.4" r="15.6"/>
	<circle style="fill:#324A5E;" cx="202.8" cy="118.4" r="15.6"/>
	<rect x="285.6" y="330.8" style="fill:#324A5E;" width="17.2" height="90.8"/>
</g>
<g>
	<circle style="fill:#E6E9EE;" cx="294" cy="369.6" r="21.2"/>
	<path style="fill:#E6E9EE;" d="M322.8,450c2.4-4.4,4-9.6,4-15.2c0-17.2-14-31.6-31.6-31.6c-17.2,0-31.6,14-31.6,31.6   c0,5.6,1.2,10.8,4,15.2H322.8z"/>
</g>
<rect x="203.2" y="330.8" style="fill:#324A5E;" width="17.2" height="90.8"/>
<g>
	<circle style="fill:#E6E9EE;" cx="211.6" cy="369.6" r="21.2"/>
	<path style="fill:#E6E9EE;" d="M240.4,450c2.4-4.4,4-9.6,4-15.2c0-17.2-14-31.6-31.6-31.6s-31.6,14-31.6,31.6   c0,5.6,1.2,10.8,4,15.2H240.4z"/>
</g>
<g>
	<path style="fill:#324A5E;" d="M364.8,355.2c0,4.4,1.6,8.8,4,12h6.4v-18.4h23.2v18.4h6.4c2.4-3.6,4-7.6,4-12c0-9.2-6-17.2-14-20   V308h-15.2v27.2C370.4,338,364.8,346,364.8,355.2z"/>
	<polygon style="fill:#324A5E;" points="372,243.6 389.6,288.8 373.6,295.2 358,248.8  "/>
	<path style="fill:#324A5E;" d="M336,264.4h-10.8v-62.8H336c5.6,0,10.4,4.8,10.4,10.4v42C346.4,259.6,341.6,264.4,336,264.4z"/>
</g>
<g>
	<path style="fill:#E6E9EE;" d="M359.2,206c-4.8,0-9.2,1.2-12.8,3.2v47.6c4,2,8.4,3.2,12.8,3.2c14.8,0,27.2-12,27.2-27.2   C386.4,218,374,206,359.2,206z"/>
	<circle style="fill:#E6E9EE;" cx="386.4" cy="301.2" r="22.4"/>
</g>
<g>
	<path style="fill:#324A5E;" d="M143.2,355.2c0,4.4-1.6,8.8-4,12h-6.4v-18.4H110v18.4h-6.4c-2.4-3.6-4-7.6-4-12c0-9.2,6-17.2,14-20   V308h15.2v27.2C137.6,338,143.2,346,143.2,355.2z"/>
	<polygon style="fill:#324A5E;" points="136,243.6 118.4,288.8 134.4,295.2 150,248.8  "/>
	<path style="fill:#324A5E;" d="M172,264.4h10.8v-62.8H172c-5.6,0-10.4,4.8-10.4,10.4v42C161.6,259.6,166.4,264.4,172,264.4z"/>
</g>
<g>
	<path style="fill:#E6E9EE;" d="M148.8,206c4.8,0,9.2,1.2,12.8,3.2v47.6c-4,2-8.4,3.2-12.8,3.2c-14.8,0-27.2-12-27.2-27.2   C121.6,218,134,206,148.8,206z"/>
	<circle style="fill:#E6E9EE;" cx="121.6" cy="301.2" r="22.4"/>
	<path style="fill:#E6E9EE;" d="M293.2,173.6h-78.4c-6.8,0-12-5.2-12-12v-58.8c0-6.8,5.2-12,12-12h78.4c6.8,0,12,5.2,12,12v58.8   C305.2,168.4,300,173.6,293.2,173.6z"/>
	<path style="fill:#E6E9EE;" d="M317.2,337.6H190.8c-9.6,0-17.2-7.6-17.2-17.2v-120c0-9.6,7.6-17.2,17.2-17.2h126   c9.6,0,17.2,7.6,17.2,17.2v120C334,329.6,326.4,337.6,317.2,337.6z"/>
</g>
<g>
	<circle style="fill:#ACB3BA;" cx="224" cy="232" r="11.6"/>
	<circle style="fill:#ACB3BA;" cx="254" cy="232" r="11.6"/>
	<circle style="fill:#ACB3BA;" cx="284" cy="232" r="11.6"/>
	<circle style="fill:#ACB3BA;" cx="224" cy="260.4" r="11.6"/>
	<circle style="fill:#ACB3BA;" cx="254" cy="260.4" r="11.6"/>
	<circle style="fill:#ACB3BA;" cx="284" cy="260.4" r="11.6"/>
	<circle style="fill:#ACB3BA;" cx="224" cy="288.8" r="11.6"/>
	<circle style="fill:#ACB3BA;" cx="254" cy="288.8" r="11.6"/>
	<circle style="fill:#ACB3BA;" cx="284" cy="288.8" r="11.6"/>
</g>
<circle style="fill:#FFFFFF;" cx="276.4" cy="122.4" r="14.8"/>
<circle style="fill:#84DBFF;" cx="276.4" cy="122.4" r="10.8"/>
<g>

		<ellipse transform="matrix(-0.7071 -0.7071 0.7071 -0.7071 381.1424 394.8875)" style="fill:#FFFFFF;" cx="272.355" cy="118.507" rx="2" ry="4"/>
	<circle style="fill:#FFFFFF;" cx="231.6" cy="122.4" r="14.8"/>
</g>
<circle style="fill:#84DBFF;" cx="231.6" cy="122.4" r="10.8"/>
<ellipse transform="matrix(-0.7071 -0.7071 0.7071 -0.7071 304.6598 362.8036)" style="fill:#FFFFFF;" cx="227.469" cy="118.305" rx="2" ry="4"/>
<circle style="fill:#324A5E;" cx="254" cy="55.6" r="8.4"/>
<g>
</g>
<g>
</g>
<g>
</g>
<g>
</g>
<g>
</g>
<g>
</g>
<g>
</g>
<g>
</g>
<g>
</g>
<g>
</g>
<g>
</g>
<g>
</g>
<g>
</g>
<g>
</g>
<g>
</g>
</svg>
