<?xml version="1.0" encoding="iso-8859-1"?>
<!-- Generator: Adobe Illustrator 19.0.0, SVG Export Plug-In . SVG Version: 6.00 Build 0)  -->
<svg xmlns="http://www.w3.org/2000/svg" xmlns:xlink="http://www.w3.org/1999/xlink" version="1.1" id="Layer_1" x="0px" y="0px" viewBox="0 0 508 508" style="enable-background:new 0 0 508 508;" xml:space="preserve">
<circle style="fill:#84DBFF;" cx="254" cy="254" r="254"/>
<path style="fill:#54C0EB;" d="M90,448c44.4,37.2,101.2,60,164,60c62.4,0,119.6-22.4,164-60H90z"/>
<g>
	<rect x="315.2" y="330.8" style="fill:#2B3B4E;" width="12.8" height="101.6"/>
	<polygon style="fill:#2B3B4E;" points="315.2,293.6 305.2,280 294,288.4 310.4,310.4  "/>
</g>
<ellipse transform="matrix(0.9913 -0.1314 0.1314 0.9913 -38.5137 44.7066)" style="fill:#324A5E;" cx="319.491" cy="314.177" rx="16.4" ry="25.199"/>
<g>
	<path style="fill:#FFFFFF;" d="M308.8,304l26.8,35.2c13.6-10.4,16-30,5.6-43.6c-2.8-3.6-6-6.4-9.6-8.4L308.8,304z"/>
	<path style="fill:#FFFFFF;" d="M322,357.2L322,357.2c-10.4,0-18.8,8.4-18.8,18.8v21.6c0,10.4,8.4,18.8,18.8,18.8l0,0   c10.4,0,18.8-8.4,18.8-18.8V376C340.4,365.6,332,357.2,322,357.2z"/>
	<path style="fill:#FFFFFF;" d="M361.2,448h-51.6v-16h35.6C354,432,361.2,439.2,361.2,448L361.2,448z"/>
</g>
<g>
	<rect x="179.6" y="330.8" style="fill:#2B3B4E;" width="12.8" height="101.6"/>
	<polygon style="fill:#2B3B4E;" points="192.8,293.6 202.8,280 214,288.4 197.6,310.4  "/>
</g>
<ellipse transform="matrix(0.9913 0.1314 -0.1314 0.9913 42.9251 -22.0019)" style="fill:#324A5E;" cx="188.174" cy="314.249" rx="16.4" ry="25.199"/>
<g>
	<path style="fill:#FFFFFF;" d="M199.2,304l-26.8,35.2c-13.6-10.4-16-30-5.6-43.6c2.8-3.6,6-6.4,9.6-8.4L199.2,304z"/>
	<path style="fill:#FFFFFF;" d="M186,357.2L186,357.2c10.4,0,18.8,8.4,18.8,18.8v21.6c0,10.4-8.4,18.8-18.8,18.8l0,0   c-10.4,0-18.8-8.4-18.8-18.8V376C167.6,365.6,176,357.2,186,357.2z"/>
	<path style="fill:#FFFFFF;" d="M146.8,448h51.6v-16h-35.6C154,432,146.8,439.2,146.8,448L146.8,448z"/>
</g>
<rect x="216" y="246" style="fill:#324A5E;" width="75.6" height="23.6"/>
<g>

		<rect x="370.402" y="233.422" transform="matrix(-0.8202 -0.572 0.572 -0.8202 560.4578 648.9731)" style="fill:#2B3B4E;" width="23.599" height="6"/>

		<rect x="363.899" y="244.925" transform="matrix(-0.6888 -0.7249 0.7249 -0.6888 454.762 691.0562)" style="fill:#2B3B4E;" width="23.599" height="6"/>
	<polygon style="fill:#2B3B4E;" points="364.4,264 357.2,240 362.8,238.4 370,262.8  "/>
	<polygon style="fill:#2B3B4E;" points="309.2,160 298,160 298,169.2 316,169.2  "/>

		<rect x="325.698" y="178.164" transform="matrix(-0.7135 -0.7007 0.7007 -0.7135 457.2461 550.1058)" style="fill:#2B3B4E;" width="30.801" height="6.8"/>
	<polygon style="fill:#2B3B4E;" points="338.4,207.2 320.8,173.6 325.6,171.2 343.2,205.2  "/>
</g>
<ellipse transform="matrix(0.4961 -0.8683 0.8683 0.4961 18.1874 363.1996)" style="fill:#324A5E;" cx="322" cy="165.931" rx="11.2" ry="16.8"/>
<g>
	<path style="fill:#FFFFFF;" d="M312.4,167.6H342c0-11.6-9.6-20.8-21.2-20.8c-3.2,0-6,0.8-8.4,1.6V167.6z"/>
	<path style="fill:#FFFFFF;" d="M323.6,210.8c1.6,5.2,4,10.4,8,15.6c11.6,16,29.6,22.8,40,15.2s9.2-26.8-2.4-42.8   c-3.6-5.2-8-9.2-12.4-12L323.6,210.8z"/>

		<ellipse transform="matrix(-0.8262 -0.5634 0.5634 -0.8262 585.339 672.1409)" style="fill:#FFFFFF;" cx="396.35" cy="245.78" rx="12.8" ry="6"/>
	<path style="fill:#FFFFFF;" d="M390.4,257.2c4,6,4.8,12.4,1.6,14.4c-2.8,2-8.4-1.6-12-7.6c-4-6-4.8-12.4-1.6-14.4   S386.8,251.2,390.4,257.2z"/>
	<path style="fill:#FFFFFF;" d="M373.6,266c1.2,7.2-0.4,13.2-3.6,14s-7.2-4.4-8.4-11.6c-1.2-7.2,0.4-13.2,3.6-14   S372.4,259.2,373.6,266z"/>
</g>
<g>

		<rect x="113.828" y="233.373" transform="matrix(0.8202 -0.572 0.572 0.8202 -112.6281 114.3533)" style="fill:#2B3B4E;" width="23.599" height="6"/>

		<rect x="120.069" y="244.774" transform="matrix(0.6888 -0.7249 0.7249 0.6888 -138.5839 172.696)" style="fill:#2B3B4E;" width="23.599" height="6"/>
	<polygon style="fill:#2B3B4E;" points="143.6,264 150.8,240 145.2,238.4 138,262.8  "/>
	<polygon style="fill:#2B3B4E;" points="198.8,160 210,160 210,169.2 192,169.2  "/>

		<rect x="151.99" y="178.202" transform="matrix(0.7135 -0.7007 0.7007 0.7135 -79.2838 169.3197)" style="fill:#2B3B4E;" width="30.801" height="6.8"/>
	<polygon style="fill:#2B3B4E;" points="169.6,207.2 187.2,173.6 182.4,171.2 164.8,205.2  "/>
</g>
<ellipse transform="matrix(0.4961 0.8683 -0.8683 0.4961 237.6519 -77.6629)" style="fill:#324A5E;" cx="185.735" cy="165.912" rx="11.2" ry="16.801"/>
<g>
	<path style="fill:#FFFFFF;" d="M195.6,167.6H166c0-11.6,9.6-20.8,21.2-20.8c3.2,0,6,0.8,8.4,1.6L195.6,167.6L195.6,167.6z"/>
	<path style="fill:#FFFFFF;" d="M184.4,210.8c-1.6,5.2-4,10.4-8,15.6c-11.6,16-29.6,22.8-40,15.2s-9.2-26.8,2.4-42.8   c3.6-5.2,8-9.2,12.4-12L184.4,210.8z"/>

		<ellipse transform="matrix(-0.8262 0.5634 -0.5634 -0.8262 341.6157 385.9808)" style="fill:#FFFFFF;" cx="111.269" cy="245.686" rx="12.8" ry="6"/>
	<path style="fill:#FFFFFF;" d="M117.6,257.2c-4,6-4.8,12.4-1.6,14.4c2.8,2,8.4-1.6,12-7.6c4-6,4.8-12.4,1.6-14.4   S121.2,251.2,117.6,257.2z"/>
	<path style="fill:#FFFFFF;" d="M134.4,266c-1.2,7.2,0.4,13.2,3.6,14c3.2,0.8,7.2-4.4,8.4-11.6s-0.4-13.2-3.6-14   S135.6,259.2,134.4,266z"/>
</g>
<rect x="248.4" y="130.8" style="fill:#2B3B4E;" width="11.6" height="16"/>
<path style="fill:#324A5E;" d="M268.8,154h-29.6v-7.6c0-1.6,1.6-3.2,3.2-3.2h23.2c1.6,0,3.2,1.6,3.2,3.2V154z"/>
<path style="fill:#FFFFFF;" d="M292,249.2h-76c-10.4,0-18-8.8-17.2-18.8l6.8-65.6c0.8-8.8,8.4-15.6,17.2-15.6h62.8  c8.8,0,16,6.8,17.2,15.6l6.8,65.6C310.4,240.4,302.4,249.2,292,249.2z"/>
<path style="fill:#E6E9EE;" d="M214.4,216.4l4-37.6c0.8-8.8,8.4-15.2,17.2-15.2h37.6c8.8,0,16,6.8,17.2,15.2l4,37.6  c1.2,10-6.8,18.8-17.2,18.8h-46C221.2,235.6,213.2,226.8,214.4,216.4z"/>
<path style="fill:#FFFFFF;" d="M221.6,218.8l4.4-40.4c0.4-4,4-7.2,8-7.2h40c4,0,7.6,3.2,8,7.2l4.4,40.4c0.4,4.8-3.2,8.8-8,8.8h-48.8  C224.8,227.6,221.2,223.6,221.6,218.8z"/>
<g>
	<path style="fill:#E6E9EE;" d="M270,188.4h-32c-2.4,0-4.4-2-4.4-4.4l0,0c0-2.4,2-4.4,4.4-4.4h32c2.4,0,4.4,2,4.4,4.4l0,0   C274.4,186.4,272.4,188.4,270,188.4z"/>
	<path style="fill:#E6E9EE;" d="M272.8,204h-37.6c-2.4,0-4.4-2-4.4-4.4l0,0c0-2.4,2-4.4,4.4-4.4h37.6c2.4,0,4.4,2,4.4,4.4l0,0   C277.2,202,275.2,204,272.8,204z"/>
	<path style="fill:#E6E9EE;" d="M276,219.6h-44c-2.4,0-4.4-2-4.4-4.4l0,0c0-2.4,2-4.4,4.4-4.4h44c2.4,0,4.4,2,4.4,4.4l0,0   C280.4,217.6,278.4,219.6,276,219.6z"/>
</g>
<path style="fill:#FFFFFF;" d="M194.4,260.4c-2,2.8-2.8,5.6-2.8,8.8c0,16.4,28,29.6,62.4,29.6s62.4-13.2,62.4-29.6  c0-3.2-0.8-6-2.8-8.8H194.4z"/>
<g>
	<polygon style="fill:#2B3B4E;" points="316,56 292.4,52.8 292.4,85.6 316,82.4  "/>
	<polygon style="fill:#2B3B4E;" points="192.4,56 192.4,82.8 216.8,86 216.8,52.8  "/>
</g>
<path style="fill:#FFFFFF;" d="M282.4,136h-56.8c-6.4,0-11.6-5.2-11.6-11.6V42.8c0-6.4,5.2-11.6,11.6-11.6H282  c6.4,0,11.6,5.2,11.6,11.6v81.6C294,130.8,288.8,136,282.4,136z"/>
<path style="fill:#E6E9EE;" d="M270.4,122.4h-32.8c-2.4,0-4-2-4-4v-11.2c0-2.4,2-4,4-4h32.8c2.4,0,4,2,4,4v11.2  C274.4,120.4,272.4,122.4,270.4,122.4z"/>
<circle style="fill:#FFFFFF;" cx="334" cy="69.2" r="24.4"/>
<circle style="fill:#84DBFF;" cx="334" cy="69.2" r="18.4"/>
<circle style="fill:#54C0EB;" cx="334" cy="69.2" r="10.4"/>
<g>

		<ellipse transform="matrix(-0.5544 -0.8322 0.8322 -0.5544 455.7997 371.2418)" style="fill:#FFFFFF;" cx="327.281" cy="63.604" rx="3.2" ry="6.4"/>
	<circle style="fill:#FFFFFF;" cx="174" cy="69.2" r="24.4"/>
</g>
<circle style="fill:#84DBFF;" cx="174" cy="69.2" r="18.4"/>
<circle style="fill:#54C0EB;" cx="174" cy="69.2" r="10.4"/>
<ellipse transform="matrix(-0.5545 -0.8322 0.8322 -0.5545 207.7792 238.3316)" style="fill:#FFFFFF;" cx="167.684" cy="63.549" rx="3.2" ry="6.4"/>
<path style="fill:#E6E9EE;" d="M272.8,31.6h-37.2v38.8c0,4.4,3.6,8.4,8.4,8.4h20.8c4.4,0,8.4-3.6,8.4-8.4V31.6H272.8z"/>
<g>
	<circle style="fill:#FFFFFF;" cx="262.8" cy="44" r="4.4"/>
	<circle style="fill:#FFFFFF;" cx="245.2" cy="44" r="4.4"/>
	<circle style="fill:#FFFFFF;" cx="262.8" cy="56.4" r="4.4"/>
	<circle style="fill:#FFFFFF;" cx="245.2" cy="56.4" r="4.4"/>
	<circle style="fill:#FFFFFF;" cx="262.8" cy="69.2" r="4.4"/>
	<circle style="fill:#FFFFFF;" cx="245.2" cy="69.2" r="4.4"/>
</g>
<g>
</g>
<g>
</g>
<g>
</g>
<g>
</g>
<g>
</g>
<g>
</g>
<g>
</g>
<g>
</g>
<g>
</g>
<g>
</g>
<g>
</g>
<g>
</g>
<g>
</g>
<g>
</g>
<g>
</g>
</svg>
