<?xml version="1.0" encoding="iso-8859-1"?>
<!-- Generator: Adobe Illustrator 19.0.0, SVG Export Plug-In . SVG Version: 6.00 Build 0)  -->
<svg xmlns="http://www.w3.org/2000/svg" xmlns:xlink="http://www.w3.org/1999/xlink" version="1.1" id="Layer_1" x="0px" y="0px" viewBox="0 0 508 508" style="enable-background:new 0 0 508 508;" xml:space="preserve">
<circle style="fill:#84DBFF;" cx="254" cy="254" r="254"/>
<path style="fill:#54C0EB;" d="M103.6,458.4C145.6,489.6,198,508,254,508s108.4-18.4,150.4-49.6H103.6z"/>
<g>
	<path style="fill:#324A5E;" d="M400.4,270.8V232h-16.8v38.8C373.2,274,366,284,366,295.6c0,4.4,3.6,8.4,8.4,8.4   c4.4,0,8.4-3.6,8.4-8.4c0-5.2,4.4-9.6,9.6-9.6s9.6,4.4,9.6,9.6c0,4.4,3.6,8.4,8.4,8.4c4.4,0,8.4-3.6,8.4-8.4   C418.4,284,410.8,274,400.4,270.8z"/>
	<rect x="332.4" y="199.6" style="fill:#324A5E;" width="45.2" height="23.6"/>
</g>
<path style="fill:#FFFFFF;" d="M382.8,183.2c-2.4,0-4.8,0.4-7.2,0.8v54.4c2.4,0.8,4.8,0.8,7.2,0.8c15.6,0,28-12.4,28-28  S398.4,183.2,382.8,183.2z"/>
<g>
	<rect x="130.8" y="199.6" style="fill:#324A5E;" width="45.2" height="23.6"/>
	<path style="fill:#324A5E;" d="M124.4,270.8v-39.2h-16.8v39.2C97.2,274.4,90,284,90,295.6c0,4.4,3.6,8.4,8.4,8.4   c4.4,0,8.4-3.6,8.4-8.4c0-5.2,4.4-9.6,9.6-9.6s9.6,4.4,9.6,9.6c0,4.4,3.6,8.4,8.4,8.4s8.4-3.6,8.4-8.4   C142,284,134.8,274,124.4,270.8z"/>
</g>
<g>
	<path style="fill:#FFFFFF;" d="M125.2,183.2c2.4,0,4.8,0.4,7.2,0.8v54.4c-2.4,0.8-4.8,0.8-7.2,0.8c-15.6,0-28-12.4-28-28   S109.6,183.2,125.2,183.2z"/>
	<path style="fill:#FFFFFF;" d="M297.6,395.6c0-22.8-17.6-41.6-40-43.6v-29.6h-8V352c-22.4,2-40,20.8-40,43.6v16h4v4H294v-4h4v-16   H297.6z M254,360c19.6,0,36,16,36,36v12h-72v-12C218,376,234.4,360,254,360z"/>
</g>
<g>
	<path style="fill:#324A5E;" d="M282,309.6h-56V320c0,4.4,3.6,8,8,8h40c4.4,0,8-3.6,8-8V309.6z"/>
	<polygon style="fill:#324A5E;" points="276.8,137.2 231.2,137.2 219.6,181.6 288.4,181.6  "/>
</g>
<path style="fill:#FFFFFF;" d="M328.8,316H179.2c-7.6,0-14-6.4-14-14V180c0-7.6,6.4-14,14-14h149.6c7.6,0,14,6.4,14,14v122  C342.8,310,336.4,316,328.8,316z"/>
<g>
	<path style="fill:#324A5E;" d="M310.8,108.8h-15.6V77.2h15.6c8.8,0,15.6,7.2,15.6,15.6l0,0C326.8,102,319.6,108.8,310.8,108.8z"/>
	<path style="fill:#324A5E;" d="M197.2,108.8h15.6V77.2h-15.6c-8.8,0-15.6,7.2-15.6,15.6l0,0C181.2,102,188.4,108.8,197.2,108.8z"/>
</g>
<g>
	<circle style="fill:#FFFFFF;" cx="254" cy="93.6" r="58.4"/>
	<path style="fill:#FFFFFF;" d="M266.8,137.2h-25.2c-4,0-7.2-3.2-7.2-7.2l0,0c0-4,3.2-7.2,7.2-7.2h25.2c4,0,7.2,3.2,7.2,7.2l0,0   C274,134,270.8,137.2,266.8,137.2z"/>
</g>
<circle style="fill:#324A5E;" cx="280.8" cy="93.6" r="11.2"/>
<path style="fill:#FFFFFF;" d="M299.6,96.4v-6l-4-0.4c-0.4-1.6-1.2-3.2-2-4.4l2.4-3.2l-4-4.4l-3.2,2.4c-1.2-0.8-2.8-1.6-4.4-2  l-0.4-4h-6l-0.4,4c-1.6,0.4-3.2,1.2-4.4,2l-3.6-2.4l-4.4,4.4l2.4,3.2c-0.8,1.2-1.6,2.8-2,4.4l-4,0.4v6l4,0.4c0.4,1.6,1.2,3.2,2,4.4  l-2.4,3.2l3.2,3.2c0.8,0.8,1.6,0.8,2.4,0l0.8-0.8c0.8-0.4,1.6-0.4,2-0.4c1.2,0.4,2,0.8,3.2,1.2l0.4,4h6l0.4-4c1.6-0.4,3.2-1.2,4.4-2  l3.2,2.4l4.4-4.4l-1.6-2c0.8-1.2,1.6-2.8,2-4.4L299.6,96.4z M280.8,103.6c-5.6,0-10-4.4-10-10s4.4-10,10-10s10,4.4,10,10  S286.4,103.6,280.8,103.6z"/>
<circle style="fill:#324A5E;" cx="227.2" cy="93.6" r="11.2"/>
<path style="fill:#FFFFFF;" d="M246,96.4v-6l-4-0.4c-0.4-1.6-1.2-3.2-2-4.4l2.4-3.2l-4-4.4l-3.2,2.4c-1.2-0.8-2.8-1.6-4.4-2l-0.4-4  h-6l-0.4,4c-1.6,0.4-3.2,1.2-4.4,2L216,78l-4.4,4.4l2.4,3.2c-0.8,1.2-1.6,2.8-2,4.4l-4,0.4v6l4,0.4c0.4,1.6,1.2,3.2,2,4.4l-2.4,3.2  l3.2,3.2c0.8,0.8,1.6,0.8,2.4,0l0.8-0.8c0.8-0.4,1.6-0.4,2-0.4c1.2,0.4,2,0.8,3.2,1.2l0.4,4h6l0.4-4c1.6-0.4,3.2-1.2,4.4-2l3.2,2.4  l4.4-4.4l-2.4-3.2c0.8-1.2,1.6-2.8,2-4.4L246,96.4z M227.2,103.6c-5.6,0-10-4.4-10-10s4.4-10,10-10s10,4.4,10,10  S232.8,103.6,227.2,103.6z"/>
<path style="fill:#E6E9EE;" d="M340.4,232.4H167.6c-11.6,0-20.8-9.2-20.8-20.8l0,0c0-11.6,9.2-20.8,20.8-20.8h172.8  c11.6,0,20.8,9.2,20.8,20.8l0,0C361.6,222.8,352,232.4,340.4,232.4z"/>
<g>
	<path style="fill:#324A5E;" d="M254,456.8L254,456.8c-11.2,0-20.4-9.2-20.4-20.4v-45.2c0-11.2,9.2-20.4,20.4-20.4l0,0   c11.2,0,20.4,9.2,20.4,20.4v45.2C274.4,447.6,265.2,456.8,254,456.8z"/>
	<circle style="fill:#324A5E;" cx="294" cy="412" r="11.2"/>
	<circle style="fill:#324A5E;" cx="214" cy="412" r="11.2"/>
</g>
<g>
	<circle style="fill:#FFFFFF;" cx="305.2" cy="269.2" r="15.2"/>
	<circle style="fill:#FFFFFF;" cx="254" cy="269.2" r="15.2"/>
	<circle style="fill:#FFFFFF;" cx="202.8" cy="269.2" r="15.2"/>
</g>
<g>
</g>
<g>
</g>
<g>
</g>
<g>
</g>
<g>
</g>
<g>
</g>
<g>
</g>
<g>
</g>
<g>
</g>
<g>
</g>
<g>
</g>
<g>
</g>
<g>
</g>
<g>
</g>
<g>
</g>
</svg>
