<?xml version="1.0" encoding="iso-8859-1"?>
<!-- Generator: Adobe Illustrator 19.0.0, SVG Export Plug-In . SVG Version: 6.00 Build 0)  -->
<svg xmlns="http://www.w3.org/2000/svg" xmlns:xlink="http://www.w3.org/1999/xlink" version="1.1" id="Layer_1" x="0px" y="0px" viewBox="0 0 508 508" style="enable-background:new 0 0 508 508;" xml:space="preserve">
<circle style="fill:#90DFAA;" cx="254" cy="254" r="254"/>
<path style="fill:#2C9984;" d="M97.2,453.6c43.2,34,97.6,54.4,156.8,54.4s113.6-20.4,156.8-54.4H97.2z"/>
<g>
	<polygon style="fill:#324A5E;" points="262.4,87.6 245.6,87.6 251.2,45.6 256.8,45.6  "/>
	<polygon style="fill:#324A5E;" points="308.8,327.2 304.4,302 281.2,302 281.2,327.2  "/>
</g>
<path style="fill:#E6E9EE;" d="M320,364.4l-6.4-34c-0.8-3.6-4.8-6.4-9.2-6.4h-20c-4.4,0-8,2.8-8,6.4v34H320z"/>
<path style="fill:#FFFFFF;" d="M334.8,453.6H278c-7.2,0-12.8-6-12.4-12.8l5.2-72.8c0.4-4.4,4.4-8,10-8h34.8c5.2,0,10,3.2,11.2,8  l18.4,72.8C346.4,447.6,342,453.6,334.8,453.6z"/>
<polygon style="fill:#324A5E;" points="227.2,327.2 227.2,302 204,302 199.6,327.2 "/>
<path style="fill:#E6E9EE;" d="M231.6,364.4v-34c0-3.6-3.6-6.4-8-6.4h-20c-4.4,0-8.4,2.8-9.2,6.4l-6.4,34H231.6z"/>
<path style="fill:#FFFFFF;" d="M230.4,453.6h-56.8c-7.2,0-11.6-6-10-12.8L182,368c1.2-4.4,6-8,11.2-8H228c5.2,0,9.6,3.2,10,8  l5.2,72.8C243.2,447.6,237.6,453.6,230.4,453.6z"/>
<g>
	<rect x="232" y="148" style="fill:#324A5E;" width="44" height="54.8"/>
	<rect x="330" y="210.8" style="fill:#324A5E;" width="25.6" height="27.6"/>
</g>
<path style="fill:#E6E9EE;" d="M325.6,245.2L325.6,245.2V204l0,0c5.2,0,9.6,4.4,9.6,9.6v22C335.6,240.8,331.2,245.2,325.6,245.2z"/>
<g>
	<path style="fill:#324A5E;" d="M376.8,327.6v-18h-10.4v18c-9.6,2.4-16.8,11.2-16.8,21.6c0,2.8,2,4.8,4.8,4.8s4.8-2,4.8-4.8   c0-6.8,5.6-12.4,12.4-12.4s12.4,5.6,12.4,12.4c0,2.8,2,4.8,4.8,4.8s4.8-2,4.8-4.8C393.6,338.4,386.4,329.6,376.8,327.6z"/>
	<rect x="366" y="264.8" style="fill:#324A5E;" width="10.4" height="21.6"/>
</g>
<path style="fill:#FFFFFF;" d="M378,312h-13.2c-0.8,0-1.6-0.8-1.6-1.6v-23.6c0-0.8,0.8-1.6,1.6-1.6H378c0.8,0,1.6,0.8,1.6,1.6v23.6  C379.6,311.2,379.2,312,378,312z"/>
<path style="fill:#CED5E0;" d="M363.2,245.6V264c0,2,1.6,4,4,4h8.8c2,0,4-1.6,4-4v-18.4H363.2z"/>
<circle style="fill:#FFFFFF;" cx="371.6" cy="227.6" r="24.4"/>
<rect x="150.4" y="210.8" style="fill:#324A5E;" width="28" height="27.6"/>
<path style="fill:#E6E9EE;" d="M182.4,245.2L182.4,245.2V204l0,0c-5.2,0-9.6,4.4-9.6,9.6v22C172.8,240.8,177.2,245.2,182.4,245.2z"/>
<g>
	<path style="fill:#324A5E;" d="M142,327.6v-18h-10.4v18c-9.6,2.4-16.8,11.2-16.8,21.6c0,2.8,2,4.8,4.8,4.8s4.8-2,4.8-4.8   c0-6.8,5.6-12.4,12.4-12.4c6.8,0,12.4,5.6,12.4,12.4c0,2.8,2,4.8,4.8,4.8s4.8-2,4.8-4.8C158.8,338.4,151.6,329.6,142,327.6z"/>
	<rect x="132" y="264.8" style="fill:#324A5E;" width="10.4" height="21.6"/>
</g>
<path style="fill:#FFFFFF;" d="M130,312h13.2c0.8,0,1.6-0.8,1.6-1.6v-23.6c0-0.8-0.8-1.6-1.6-1.6H130c-0.8,0-1.6,0.8-1.6,1.6v23.6  C128.4,311.2,129.2,312,130,312z"/>
<path style="fill:#CED5E0;" d="M128.4,245.6V264c0,2,1.6,4,4,4h8.8c2,0,4-1.6,4-4v-18.4H128.4z"/>
<g>
	<circle style="fill:#FFFFFF;" cx="136.8" cy="227.6" r="24.4"/>
	<path style="fill:#FFFFFF;" d="M295.2,169.6h-82c-5.2,0-9.6-4.4-9.6-9.6V98.8c0-5.2,4.4-9.6,9.6-9.6h82.4c5.2,0,9.6,4.4,9.6,9.6   V160C304.8,165.2,300.4,169.6,295.2,169.6z"/>
	<path style="fill:#FFFFFF;" d="M312.4,304.4H196c-7.2,0-13.2-6-13.2-13.2v-86.8c0-7.2,6-13.2,13.2-13.2h116.4   c7.2,0,13.2,6,13.2,13.2v86.8C325.6,298.4,319.6,304.4,312.4,304.4z"/>
</g>
<circle style="fill:#FF7058;" cx="280.4" cy="114" r="12.8"/>
<ellipse transform="matrix(0.7065 -0.7077 0.7077 0.7065 3.281 227.2711)" style="fill:#FFFFFF;" cx="275.652" cy="109.68" rx="4.8" ry="2.4"/>
<circle style="fill:#FF7058;" cx="228" cy="114" r="12.8"/>
<ellipse transform="matrix(0.7065 -0.7077 0.7077 0.7065 -11.9874 190.2049)" style="fill:#FFFFFF;" cx="223.329" cy="109.555" rx="4.8" ry="2.4"/>
<path style="fill:#CED5E0;" d="M277.2,89.2c-6-6-14.4-9.6-23.2-9.6s-17.2,3.6-23.2,9.6H277.2z"/>
<circle style="fill:#FFFFFF;" cx="254" cy="46.4" r="9.6"/>
<g>
</g>
<g>
</g>
<g>
</g>
<g>
</g>
<g>
</g>
<g>
</g>
<g>
</g>
<g>
</g>
<g>
</g>
<g>
</g>
<g>
</g>
<g>
</g>
<g>
</g>
<g>
</g>
<g>
</g>
</svg>
