<?xml version="1.0" encoding="iso-8859-1"?>
<!-- Generator: Adobe Illustrator 19.0.0, SVG Export Plug-In . SVG Version: 6.00 Build 0)  -->
<svg xmlns="http://www.w3.org/2000/svg" xmlns:xlink="http://www.w3.org/1999/xlink" version="1.1" id="Layer_1" x="0px" y="0px" viewBox="0 0 508 508" style="enable-background:new 0 0 508 508;" xml:space="preserve">
<circle style="fill:#FFD05B;" cx="254" cy="254" r="254"/>
<path style="fill:#F9B54C;" d="M79.2,438.4C124.8,481.6,186,508,254,508c67.6,0,129.2-26.4,174.8-69.6H79.2z"/>
<g>
	<circle style="fill:#54C0EB;" cx="300.8" cy="296.8" r="26.8"/>
	<circle style="fill:#54C0EB;" cx="207.2" cy="296.8" r="26.8"/>
</g>
<g>
	<path style="fill:#E6E9EE;" d="M288.4,228.8h-68.8v76c0,10.8,8.8,19.6,19.6,19.6h29.6c10.8,0,19.6-8.8,19.6-19.6   C288.4,304.8,288.4,228.8,288.4,228.8z"/>
	<path style="fill:#E6E9EE;" d="M365.2,140.8h-0.8c-16,0-30.8-7.6-39.6-21.2c-15.2-22.8-41.2-38-70.8-38s-55.6,15.2-70.8,38   c-8.8,13.2-24,21.2-39.6,21.2h-0.8v50.4l0,0c16,0,31.2,8,40,21.6C198,236,224,251.6,254,251.6s56-15.6,71.2-38.8   c8.8-13.6,24-21.6,40-21.6l0,0V140.8z"/>
</g>
<circle style="fill:#FFFFFF;" cx="254" cy="166.4" r="84.8"/>
<circle style="fill:#84DBFF;" cx="254" cy="153.2" r="51.6"/>
<circle style="fill:#324A5E;" cx="254" cy="153.2" r="51.6"/>
<path style="fill:#E6E9EE;" d="M254,218.8c-36,0-65.2-29.2-65.2-65.2S218,88.4,254,88.4s65.2,29.2,65.2,65.2  C319.2,189.2,290,218.8,254,218.8z M254,92c-34,0-61.6,27.6-61.6,61.6s27.6,61.6,61.6,61.6s61.6-27.6,61.6-61.6  C315.6,119.2,288,92,254,92z"/>
<path style="fill:#324A5E;" d="M446.8,376.4c0,3.2-2.4,5.6-5.2,6.4c-0.8,0-9.2,1.6-9.6-6.8c-0.4-7.2-2-16.8-5.2-24.8  c-3.2-7.6-14-7.2-16.8,0.4c-0.8,2.8-1.6,6.4-1.2,10.4s-2.8,7.2-6.8,7.2c0,0-7.6,1.6-7.6-7.2c0-6,0.4-14.4,3.2-22.4  c0.8,0,40.4-10,41.2-10.4C442.8,339.2,448,354.8,446.8,376.4z"/>
<rect x="384.346" y="251.275" transform="matrix(0.9706 -0.2406 0.2406 0.9706 -52.2217 104.0399)" style="fill:#54C0EB;" width="31.199" height="29.199"/>
<g>
	<path style="fill:#FFFFFF;" d="M411.2,261.2c4.8-1.2,8-5.6,7.6-10.4c-0.8-13.6-3.2-29.2-7.2-45.6c-11.2-45.6-31.6-80-45.2-76.8   s-15.6,43.2-4,88.8c4,16.4,9.2,31.6,15.2,44c2,4.4,6.8,6.8,11.6,5.6L411.2,261.2z"/>
	<path style="fill:#FFFFFF;" d="M435.6,331.2l-36.4,8.8c-4.8,1.2-10-2-10.4-7.2l-6.4-44.4c-0.8-4.4,2-8.4,6.4-9.6L416,272   c4.4-1.2,8.8,1.2,10,5.6l15.2,42C443.2,324.8,440.4,330,435.6,331.2z"/>
</g>
<path style="fill:#324A5E;" d="M113.6,362.4c0,4-3.2,7.2-7.2,7.2c0,0-7.6,0.4-7.2-7.2c0.4-4.4,0-7.6-1.2-10.4  c-2.8-8-13.6-8-16.8-0.4c-3.6,8-4.8,18-5.2,24.8c-0.4,4-3.6,6.8-7.6,6.8c-0.8,0-7.2-0.4-7.6-6.8c-1.2-21.6,3.6-37.2,8.4-46.4  c0.8,0.4,40.4,10.4,41.2,10.4C113.2,348.4,114,356.8,113.6,362.4z"/>
<rect x="92.353" y="251.629" transform="matrix(-0.9706 -0.2406 0.2406 -0.9706 148.6786 550.611)" style="fill:#54C0EB;" width="31.199" height="29.199"/>
<g>
	<path style="fill:#FFFFFF;" d="M96.8,261.2c-4.8-1.2-8-5.6-7.6-10.4c0.8-13.6,3.2-29.2,7.2-45.6c11.2-45.6,31.6-80,45.2-76.8   s15.6,43.2,4,88.8c-4,16.4-9.2,31.6-15.2,44c-2,4.4-6.8,6.8-11.6,5.6L96.8,261.2z"/>
	<path style="fill:#FFFFFF;" d="M72.4,331.2l36.4,8.8c4.8,1.2,10-2,10.4-7.2l6.4-44.4c0.8-4.4-2-8.4-6.4-9.6L92,272   c-4.4-1.2-8.8,1.2-10,5.6l-15.2,42C64.8,324.8,67.6,330,72.4,331.2z"/>
</g>
<rect x="298.4" y="341.2" style="fill:#324A5E;" width="34" height="68.8"/>
<g>
	<path style="fill:#FFFFFF;" d="M341.2,316.8c0,9.2-2,17.2-5.2,24h-41.6c-2.4-5.6-4.4-12-4.8-18.8c13.2-10.4,28.8-32,35.6-42.8   C334.4,285.6,341.2,300,341.2,316.8z"/>
	<path style="fill:#FFFFFF;" d="M315.6,352.4c-8.4,0-16,2.4-21.6,6v32.4c5.6,3.6,13.2,6,21.6,6c8,0,15.6-2,21.2-5.6V358   C331.2,354.8,324,352.4,315.6,352.4z"/>
	<path style="fill:#FFFFFF;" d="M348,417.2c-4.4-4.8-11.6-7.6-18-7.6h-29.2c-6.4,0-13.6,2.8-18,7.6c-8.4,9.2-4.4,22,10.8,22h44   C352.8,439.2,356.8,426.4,348,417.2z"/>
</g>
<rect x="175.6" y="341.2" style="fill:#324A5E;" width="34" height="68.8"/>
<g>
	<path style="fill:#FFFFFF;" d="M166.8,316.8c0,9.2,2,17.2,5.2,24h42c2.4-5.6,4.4-12,4.8-18.8c-13.2-10.4-28.8-32-35.6-42.8   C173.6,285.6,166.8,300,166.8,316.8z"/>
	<path style="fill:#FFFFFF;" d="M192.4,352.4c8.4,0,16,2.4,21.6,6v32.4c-5.6,3.6-13.2,6-21.6,6c-8,0-15.6-2-21.2-5.6V358   C176.8,354.8,184,352.4,192.4,352.4z"/>
	<path style="fill:#FFFFFF;" d="M160,417.2c4.4-4.8,11.6-7.6,18-7.6h29.2c6.4,0,13.6,2.8,18,7.6c8.4,9.2,4.4,22-10.8,22h-44   C155.2,439.2,151.2,426.4,160,417.2z"/>
</g>
<circle style="fill:#54C0EB;" cx="240.8" cy="136.8" r="16.4"/>
<g>
</g>
<g>
</g>
<g>
</g>
<g>
</g>
<g>
</g>
<g>
</g>
<g>
</g>
<g>
</g>
<g>
</g>
<g>
</g>
<g>
</g>
<g>
</g>
<g>
</g>
<g>
</g>
<g>
</g>
</svg>
