<?xml version="1.0" encoding="iso-8859-1"?>
<!-- Generator: Adobe Illustrator 19.0.0, SVG Export Plug-In . SVG Version: 6.00 Build 0)  -->
<svg xmlns="http://www.w3.org/2000/svg" xmlns:xlink="http://www.w3.org/1999/xlink" version="1.1" id="Layer_1" x="0px" y="0px" viewBox="0 0 508 508" style="enable-background:new 0 0 508 508;" xml:space="preserve">
<path style="fill:#FD8469;" d="M508,254c0,140.4-113.6,254-254,254S0,394.4,0,254S113.6,0,254,0c110.8,0,204.8,70.8,239.6,169.6  c7.6,21.2,12,43.6,13.6,66.8C508,242.4,508,248,508,254z"/>
<path style="fill:#F1543F;" d="M79.6,438.8C125.2,481.6,186.4,508,254,508s128.8-26.4,174.4-69.2H79.6z"/>
<rect x="243.6" y="174" style="fill:#324A5E;" width="20.4" height="40"/>
<rect x="348.4" y="109.2" style="fill:#2B3B4E;" width="22.4" height="12"/>
<path style="fill:#324A5E;" d="M343.6,91.6l-14-2.8v52.4l14-2.8c4-0.8,6.8-4,6.8-8.4V99.6C350.4,96,347.6,92.4,343.6,91.6z"/>
<circle style="fill:#E6E9EE;" cx="379.2" cy="115.2" r="12"/>
<rect x="137.6" y="109.2" style="fill:#2B3B4E;" width="22.4" height="12"/>
<path style="fill:#324A5E;" d="M164.4,91.6l14-2.8v52.4l-14-2.8c-4-0.8-6.8-4-6.8-8.4V99.6C157.6,96,160.4,92.4,164.4,91.6z"/>
<g>
	<circle style="fill:#E6E9EE;" cx="128.8" cy="115.2" r="12"/>
	<path style="fill:#E6E9EE;" d="M338.4,115.2c0,16-2.4,31.2-6.8,44.8c-20.4,11.2-47.6,18-77.6,18s-57.2-6.8-77.2-17.6   c-4.4-13.6-6.8-28.8-6.8-44.8s2.4-31.2,6.8-44.8c20-11.2,47.2-17.6,77.2-17.6s57.2,6.8,77.2,17.6C335.6,84,338.4,99.2,338.4,115.2z   "/>
</g>
<circle style="fill:#FFFFFF;" cx="291.6" cy="100.8" r="26.4"/>
<circle style="fill:#84DBFF;" cx="291.6" cy="100.8" r="12"/>
<circle style="fill:#FFFFFF;" cx="216.4" cy="100.8" r="26.4"/>
<g>
	<path style="fill:#CED5E0;" d="M219.6,160.4c-2.8-0.8-5.6-1.6-8-2.4c2-5.6,3.6-10.8,5.6-16.4c2.4,0.8,4.8,1.6,7.2,2   C222.8,149.2,221.2,154.8,219.6,160.4z"/>
	<path style="fill:#CED5E0;" d="M238.8,164c-2.8-0.4-5.6-0.8-8.4-1.2c1.2-5.6,2-11.2,3.2-17.2c2.4,0.4,4.8,0.8,7.2,1.2   C240.4,152.4,239.6,158.4,238.8,164z"/>
	<path style="fill:#CED5E0;" d="M258.4,164.8c-2.8,0-5.6,0-8.4,0c0-5.6,0.4-11.6,0.4-17.2c2.4,0,4.8,0,7.2,0   C258,153.2,258,159.2,258.4,164.8z"/>
	<path style="fill:#CED5E0;" d="M277.6,162.8c-2.8,0.4-5.6,0.8-8.4,1.2c-0.8-5.6-1.2-11.6-2-17.2c2.4-0.4,4.8-0.8,7.2-1.2   C275.6,151.2,276.4,157.2,277.6,162.8z"/>
	<path style="fill:#CED5E0;" d="M296.4,158c-2.8,0.8-5.6,1.6-8,2.4c-1.6-5.6-3.2-11.2-4.4-16.8c2.4-0.8,4.8-1.2,7.2-2   C292.8,146.8,294.4,152.4,296.4,158z"/>
</g>
<g>
	<polygon style="fill:#324A5E;" points="280,357.2 265.2,431.6 304,410.4 302.4,357.2  "/>
	<polygon style="fill:#324A5E;" points="266,304 283.2,356 302.8,345.2 296.8,304  "/>
</g>
<g>
	<path style="fill:#FFFFFF;" d="M358,438.8c-1.2-24.8-21.6-44.8-46.8-44.8c-25.2,0-45.6,20-46.8,44.8H358z"/>
	<circle style="fill:#FFFFFF;" cx="292.4" cy="352" r="15.6"/>
</g>
<g>
	<polygon style="fill:#324A5E;" points="205.6,357.2 204,410.4 242.8,431.6 228,357.2  "/>
	<polygon style="fill:#324A5E;" points="211.2,304 205.2,345.2 224.8,356 242,304  "/>
</g>
<g>
	<path style="fill:#FFFFFF;" d="M150,438.8c1.2-24.8,21.6-44.8,46.8-44.8s45.6,20,46.8,44.8H150z"/>
	<circle style="fill:#FFFFFF;" cx="215.6" cy="352" r="15.6"/>
	<path style="fill:#FFFFFF;" d="M305.6,245.2c6.4,18,10,39.2,10.4,61.6c-18,6-38.8,9.6-62,9.6s-44-3.6-62-9.6   c0-22.4,4-43.6,10.4-61.6c6-17.6,14.4-30.4,22.8-38.4c9.2-1.6,18.8-2.4,28.8-2.4s19.6,0.8,28.8,2.4   C291.2,214.8,299.6,227.6,305.6,245.2z"/>
</g>
<circle style="fill:#84DBFF;" cx="216.4" cy="100.8" r="12"/>
<polygon style="fill:#324A5E;" points="312,210 296.4,234.4 348.4,262.8 348,262.8 380.4,325.6 394.8,319.2 370,253.2 "/>
<g>
	<path style="fill:#FFFFFF;" d="M418,340.4c-4.8,2-10,0-12.4-4.8c-2.4-5.6-9.2-8.4-14.8-5.6c-5.6,2.4-8.4,9.2-5.6,14.8   c2,4.8,0,10-4.8,12.4c-4.8,2-10,0-12.4-4.8c-6.8-15.2,0-32.8,15.2-39.2c15.2-6.8,32.8,0,39.2,15.2   C424.8,332.8,422.8,338.4,418,340.4z"/>
	<circle style="fill:#FFFFFF;" cx="359.6" cy="258.8" r="20.4"/>
</g>
<circle style="fill:#E6E9EE;" cx="304.4" cy="224.4" r="26.8"/>
<polygon style="fill:#324A5E;" points="196,210 211.6,234.4 159.6,262.8 160,262.8 127.6,325.6 113.2,319.2 138,253.2 "/>
<g>
	<path style="fill:#FFFFFF;" d="M90,340.4c4.8,2,10,0,12.4-4.8c2.4-5.6,9.2-8.4,14.8-5.6c5.6,2.4,8.4,9.2,5.6,14.8   c-2,4.8,0,10,4.8,12.4c4.8,2,10,0,12.4-4.8c6.8-15.2,0-32.8-15.2-39.2c-15.2-6.8-32.8,0-39.2,15.2C83.2,332.8,85.2,338.4,90,340.4z   "/>
	<circle style="fill:#FFFFFF;" cx="148.4" cy="258.8" r="20.4"/>
</g>
<circle style="fill:#E6E9EE;" cx="203.6" cy="224.4" r="26.8"/>
<g>
</g>
<g>
</g>
<g>
</g>
<g>
</g>
<g>
</g>
<g>
</g>
<g>
</g>
<g>
</g>
<g>
</g>
<g>
</g>
<g>
</g>
<g>
</g>
<g>
</g>
<g>
</g>
<g>
</g>
</svg>
