<?xml version="1.0" encoding="iso-8859-1"?>
<!-- Generator: Adobe Illustrator 19.0.0, SVG Export Plug-In . SVG Version: 6.00 Build 0)  -->
<svg xmlns="http://www.w3.org/2000/svg" xmlns:xlink="http://www.w3.org/1999/xlink" version="1.1" id="Layer_1" x="0px" y="0px" viewBox="0 0 508 508" style="enable-background:new 0 0 508 508;" xml:space="preserve">
<circle style="fill:#324A5E;" cx="254" cy="254" r="254"/>
<g>
	<path style="fill:#2B3B4E;" d="M96.8,453.6C140,487.6,194.4,508,254,508s114-20.4,157.2-54.4H96.8z"/>
	<path style="fill:#2B3B4E;" d="M97.2,453.6c43.2,34,97.6,54.4,156.8,54.4s113.6-20.4,156.8-54.4H97.2z"/>
</g>
<polygon style="fill:#FFFFFF;" points="335.2,80.4 318.4,118.8 304.8,111.6 328,76.4 "/>
<circle style="fill:#FF7058;" cx="334.8" cy="72.4" r="12.4"/>
<polygon style="fill:#FFFFFF;" points="172.8,80.4 189.6,118.8 203.2,111.6 180,76.4 "/>
<circle style="fill:#FF7058;" cx="173.2" cy="72.4" r="12.4"/>
<g>
	<rect x="232.8" y="177.6" style="fill:#54C0EB;" width="42.8" height="10.8"/>
	<rect x="284.4" y="360.4" style="fill:#54C0EB;" width="21.2" height="75.6"/>
</g>
<g>
	<path style="fill:#E6E9EE;" d="M312.8,406h-35.6c-4,0-7.2-3.2-7.2-7.2v-8c0-4,3.2-7.2,7.2-7.2h35.6c4,0,7.2,3.2,7.2,7.2v8   C320,402.8,316.8,406,312.8,406z"/>
	<path style="fill:#E6E9EE;" d="M321.2,453.6c1.2-2.8,2-5.6,2-8.4c0-12.8-12.8-23.6-28.4-23.6s-28.4,10.4-28.4,23.6   c0,2.8,0.8,5.6,2,8.4H321.2z"/>
</g>
<rect x="202.4" y="360.4" style="fill:#54C0EB;" width="21.2" height="75.6"/>
<g>
	<path style="fill:#E6E9EE;" d="M231.2,406h-35.6c-4,0-7.2-3.2-7.2-7.2v-8c0-4,3.2-7.2,7.2-7.2h35.6c4,0,7.2,3.2,7.2,7.2v8   C238.4,402.8,234.8,406,231.2,406z"/>
	<path style="fill:#E6E9EE;" d="M239.6,453.6c1.2-2.8,2-5.6,2-8.4c0-12.8-12.8-23.6-28.4-23.6s-28.4,10.4-28.4,23.6   c0,2.8,0.8,5.6,2,8.4H239.6z"/>
	<path style="fill:#E6E9EE;" d="M295.2,177.6h-82.4c-5.2,0-9.6-4.4-9.6-9.6V92c0-5.2,4.4-9.6,9.6-9.6h82.4c5.2,0,9.6,4.4,9.6,9.6v76   C304.4,173.2,300.4,177.6,295.2,177.6z"/>
	<path style="fill:#E6E9EE;" d="M312,360.8H196c-7.2,0-13.2-6-13.2-13.2v-146c0-7.2,6-13.2,13.2-13.2h116.4c7.2,0,13.2,6,13.2,13.2   v145.6C325.6,354.8,319.6,360.8,312,360.8z"/>
</g>
<path style="fill:#FFD05B;" d="M281.6,82.4h-55.2l4-10.4c1.2-3.6,4.8-5.6,8.4-5.6h30.4c3.6,0,7.2,2.4,8.4,5.6L281.6,82.4z"/>
<g>
	<path style="fill:#CED5E0;" d="M304.4,101.2V144c8.8-3.2,15.2-11.6,15.2-21.2S313.6,104.4,304.4,101.2z"/>
	<path style="fill:#CED5E0;" d="M203.6,101.2V144c-8.8-3.2-15.2-11.6-15.2-21.2S194.4,104.4,203.6,101.2z"/>
</g>
<path style="fill:#FFFFFF;" d="M368.4,344v-27.6H358V344c-9.6,2.4-16.8,11.2-16.8,21.6c0,2.8,2,4.8,4.8,4.8s4.8-2,4.8-4.8  c0-6.8,5.6-12.4,12.4-12.4s12.4,5.6,12.4,12.4c0,2.8,2,4.8,4.8,4.8s4.8-2,4.8-4.8C385.6,354.8,378.4,346.4,368.4,344z"/>
<g>
	<rect x="353.2" y="251.6" style="fill:#54C0EB;" width="21.2" height="84.8"/>
	<rect x="325.6" y="215.6" style="fill:#54C0EB;" width="13.2" height="27.6"/>
</g>
<g>
	<path style="fill:#E6E9EE;" d="M345.6,251.6H382c3.6,0,6.4-2.8,6.4-6.4v-32.8c0-3.6-2.8-6.4-6.4-6.4h-36.8c-3.6,0-6.4,2.8-6.4,6.4   v32.8C338.8,248.8,341.6,251.6,345.6,251.6z"/>
	<path style="fill:#E6E9EE;" d="M375.6,316h-23.2c-2,0-3.6-1.6-3.6-3.6v-29.6c0-2,1.6-3.6,3.6-3.6h23.2c2,0,3.6,1.6,3.6,3.6v29.6   C379.2,314.4,377.6,316,375.6,316z"/>
</g>
<path style="fill:#FFFFFF;" d="M139.6,344v-27.6H150V344c9.6,2.4,16.8,11.2,16.8,21.6c0,2.8-2,4.8-4.8,4.8s-4.8-2-4.8-4.8  c0-6.8-5.6-12.4-12.4-12.4c-6.8,0-12.4,5.6-12.4,12.4c0,2.8-2,4.8-4.8,4.8s-4.8-2-4.8-4.8C122.4,354.8,129.6,346.4,139.6,344z"/>
<g>
	<rect x="133.6" y="251.6" style="fill:#54C0EB;" width="21.2" height="84.8"/>
	<rect x="169.2" y="215.6" style="fill:#54C0EB;" width="13.2" height="27.6"/>
</g>
<g>
	<path style="fill:#E6E9EE;" d="M162.4,251.6H126c-3.6,0-6.4-2.8-6.4-6.4v-32.8c0-3.6,2.8-6.4,6.4-6.4h36.8c3.6,0,6.4,2.8,6.4,6.4   v32.8C169.2,248.8,166.4,251.6,162.4,251.6z"/>
	<path style="fill:#E6E9EE;" d="M132.4,316h23.2c2,0,3.6-1.6,3.6-3.6v-29.6c0-2-1.6-3.6-3.6-3.6h-23.2c-2,0-3.6,1.6-3.6,3.6v29.6   C128.8,314.4,130.4,316,132.4,316z"/>
</g>
<circle style="fill:#324A5E;" cx="277.2" cy="114.4" r="14.4"/>
<ellipse transform="matrix(0.7041 -0.7101 0.7101 0.7041 2.7005 225.785)" style="fill:#FFFFFF;" cx="272.27" cy="109.652" rx="6" ry="3.6"/>
<circle style="fill:#324A5E;" cx="230.8" cy="114.4" r="14.4"/>
<g>

		<ellipse transform="matrix(0.7041 -0.7101 0.7101 0.7041 -11.0672 192.5616)" style="fill:#FFFFFF;" cx="225.521" cy="109.56" rx="6" ry="3.6"/>
	<rect x="215.6" y="144" style="fill:#FFFFFF;" width="9.2" height="16.4"/>
	<rect x="232.4" y="144" style="fill:#FFFFFF;" width="9.2" height="16.4"/>
	<rect x="249.2" y="144" style="fill:#FFFFFF;" width="9.2" height="16.4"/>
	<rect x="266.4" y="144" style="fill:#FFFFFF;" width="9.2" height="16.4"/>
	<rect x="283.2" y="144" style="fill:#FFFFFF;" width="9.2" height="16.4"/>
</g>
<g>
</g>
<g>
</g>
<g>
</g>
<g>
</g>
<g>
</g>
<g>
</g>
<g>
</g>
<g>
</g>
<g>
</g>
<g>
</g>
<g>
</g>
<g>
</g>
<g>
</g>
<g>
</g>
<g>
</g>
</svg>
