<?xml version="1.0" encoding="iso-8859-1"?>
<!-- Generator: Adobe Illustrator 19.0.0, SVG Export Plug-In . SVG Version: 6.00 Build 0)  -->
<svg xmlns="http://www.w3.org/2000/svg" xmlns:xlink="http://www.w3.org/1999/xlink" version="1.1" id="Layer_1" x="0px" y="0px" viewBox="0 0 508 508" style="enable-background:new 0 0 508 508;" xml:space="preserve">
<circle style="fill:#324A5E;" cx="254" cy="254" r="254"/>
<path style="fill:#2B3B4E;" d="M100,456c42.8,32.8,96,52,154,52s111.2-19.6,154-52H100z"/>
<path style="fill:#E6E9EE;" d="M269.2,112.8h-30l5.6-13.6c2.8,1.2,6,2,9.2,2s6.4-0.8,9.2-2L269.2,112.8z"/>
<g>
	<path style="fill:#FFFFFF;" d="M329.6,265.2c-0.8,1.2-0.8,3.2,0.4,4c1.6,1.2,4,1.2,4.8-0.8l2.4-4.4c-2-0.4-4-1.2-5.6-2.4   L329.6,265.2z"/>
	<path style="fill:#FFFFFF;" d="M348,262c-1.6,1.2-4,2.4-6.4,2.8c-0.8,0-1.2,0-2,0c2,4.4,0,10-1.6,13.6c-0.8,2,0,4,1.6,5.2   c2,1.2,4.8,0,5.6-2C348,274.4,348.4,267.6,348,262z"/>
	<path style="fill:#FFFFFF;" d="M169.6,278.4c0.8,2,0,4-1.6,5.2c-2,1.2-4.8,0-5.6-2c-2.8-7.2-3.2-14-2.8-19.6c1.6,1.2,4,2.4,6.4,2.8   c0.8,0,1.2,0,2,0C166.4,268.8,168,274.8,169.6,278.4z"/>
	<path style="fill:#FFFFFF;" d="M178,269.6c-1.6,1.2-4,1.2-4.8-0.8l-2.4-4.4c2-0.4,4-1.2,5.6-2.4l2.4,3.2   C179.2,266.8,179.2,268.4,178,269.6z"/>
</g>
<g>
	<path style="fill:#E6E9EE;" d="M308.8,354.8h-30.4l-10-73.6c4.4-4,7.2-9.6,7.2-15.6v-0.4H286L308.8,354.8z"/>
	<path style="fill:#E6E9EE;" d="M239.6,280.8l-10,73.6h-30.4l22.8-89.6h10.4v0.4C232.8,271.2,235.2,276.8,239.6,280.8z"/>
</g>
<g>
	<path style="fill:#FFFFFF;" d="M321.2,444.8c-5.6-4-14-6.8-23.6-6.8c-10.4,0-19.6,3.2-24.8,8l2-87.6c0-2,1.6-4,3.6-4H308   c2,0,3.6,1.6,3.6,3.6L321.2,444.8z"/>
	<path style="fill:#FFFFFF;" d="M235.2,446c-5.6-4.8-14.8-7.6-24.8-7.6c-9.6,0-18,2.4-23.6,6.8l8.8-87.2c0-2,2-3.6,3.6-3.6h29.6   c2,0,3.6,1.6,3.6,4L235.2,446z"/>
</g>
<g>
	<path style="fill:#E6E9EE;" d="M352.8,248l-14.4-54c-2.4,1.6-4.8,2.4-7.6,2.4c-2,0-3.6-0.4-5.2-1.2l1.2,56.4c0,8,7.2,14,15.2,12.8   C349.6,263.6,354.8,255.6,352.8,248z"/>
	<path style="fill:#E6E9EE;" d="M337.6,170L337.6,170c-6.8-4-15.6-1.2-19.2,5.6l-15.2-32.8l20-18.8L337.6,170z"/>
</g>
<circle style="fill:#FFFFFF;" cx="330.8" cy="182" r="14"/>
<g>
	<path style="fill:#E6E9EE;" d="M177.2,196.4c-2.8,0-5.6-0.8-7.6-2.4l-14.4,54c-2,7.6,3.2,15.6,11.2,16.4c8,1.2,14.8-4.8,15.2-12.8   l1.2-56.4C181.2,196,179.2,196.4,177.2,196.4z"/>
	<path style="fill:#E6E9EE;" d="M205.2,142.4l-15.6,32.8c-2.4-4.4-6.8-7.2-12.4-7.2c-2.4,0-4.8,0.8-6.8,2l14.8-46.4L205.2,142.4z"/>
</g>
<circle style="fill:#FFFFFF;" cx="177.2" cy="182" r="14"/>
<g>
	<path style="fill:#E6E9EE;" d="M286.4,67.2c0,4.4-3.6,8.4-8,8.4V62c0-1.2,0-2-0.4-3.2C282.8,59.2,286.4,62.8,286.4,67.2z"/>
	<path style="fill:#E6E9EE;" d="M229.6,58.8c0,1.2-0.4,2-0.4,3.2v14c-4.4-0.4-8-4-8-8.4C221.6,62.8,225.2,59.2,229.6,58.8z"/>
</g>
<path style="fill:#FFFFFF;" d="M254,37.6c-13.6,0-24.4,10.8-24.4,24.4v14.4c0,13.6,10.8,24.4,24.4,24.4c13.6,0,24.4-10.8,24.4-24.4  V62C278.4,48.4,267.6,37.6,254,37.6z"/>
<rect x="234.4" y="59.2" style="fill:#84DBFF;" width="38.8" height="19.2"/>
<polygon style="fill:#54C0EB;" points="263.6,59.2 250.4,78.4 273.6,78.4 273.6,59.2 "/>
<path style="fill:#FFFFFF;" d="M327.2,119.2l-24.4,23.2l-18,52V238h-61.6v-43.2l-18-52l-24.4-23.2c8.8-7.6,21.2-8.8,30.8-2.8  c3.2-2.4,7.2-3.6,11.6-3.6h61.6c4.4,0,8.4,1.2,11.6,3.6C306,110.8,318.4,111.6,327.2,119.2z"/>
<path style="fill:#E6E9EE;" d="M284.8,238h-61.6c-3.6,0-6.8,3.2-6.8,6.8l0,0c0,3.6,3.2,6.8,6.8,6.8h61.2c3.6,0,6.8-3.2,6.8-6.8l0,0  C291.6,240.8,288.4,238,284.8,238z"/>
<path style="fill:#ACB3BA;" d="M232.8,251.6v13.6c0,11.6,9.6,21.2,21.2,21.2c11.6,0,21.2-9.6,21.2-21.2v-13.6H232.8z"/>
<g>
	<path style="fill:#CED5E0;" d="M328,456c-0.4-10-13.6-18-30.4-18c-16.4,0-30,8-30.4,18H328z"/>
	<path style="fill:#CED5E0;" d="M180,456c0.4-10,13.6-18,30.4-18s30,8,30.4,18H180z"/>
</g>
<g>
</g>
<g>
</g>
<g>
</g>
<g>
</g>
<g>
</g>
<g>
</g>
<g>
</g>
<g>
</g>
<g>
</g>
<g>
</g>
<g>
</g>
<g>
</g>
<g>
</g>
<g>
</g>
<g>
</g>
</svg>
