<?xml version="1.0" encoding="iso-8859-1"?>
<!-- Generator: Adobe Illustrator 19.0.0, SVG Export Plug-In . SVG Version: 6.00 Build 0)  -->
<svg xmlns="http://www.w3.org/2000/svg" xmlns:xlink="http://www.w3.org/1999/xlink" version="1.1" id="Layer_1" x="0px" y="0px" viewBox="0 0 508 508" style="enable-background:new 0 0 508 508;" xml:space="preserve">
<circle style="fill:#90DFAA;" cx="254" cy="254" r="254"/>
<path style="fill:#2C9984;" d="M71.2,430.4c46,48,110.8,77.6,182.8,77.6c71.6,0,136.4-29.6,182.8-77.6H71.2z"/>
<g>

		<rect x="349.986" y="130.657" transform="matrix(-0.6695 0.7428 -0.7428 -0.6695 727.9878 19.8123)" style="fill:#324A5E;" width="19.2" height="82.399"/>

		<rect x="139.162" y="130.83" transform="matrix(0.6695 0.7428 -0.7428 0.6695 176.95 -53.6469)" style="fill:#324A5E;" width="19.2" height="82.399"/>
	<path style="fill:#324A5E;" d="M289.6,282c-2.8,15.6-4.8,40-4.8,67.2c0,23.2,1.2,44,3.2,59.2h17.2c2-15.2,3.2-36.4,3.2-59.2   c0-27.6-2-51.6-4.8-67.2H289.6z"/>
</g>
<path style="fill:#E6E9EE;" d="M283.2,272.8v8c0,4.8,4,8.8,8.8,8.8h10c4.8,0,8.8-4,8.8-8.8v-8H283.2z"/>
<g>
	<path style="fill:#FFFFFF;" d="M290,430.4h13.6c6.4,0,12-5.2,12-11.6l0,0c0-9.2-8.4-17.2-18.8-17.2s-18.8,7.6-18.8,17.2l0,0   C278,425.2,283.6,430.4,290,430.4z"/>
	<path style="fill:#FFFFFF;" d="M309.2,363.2h-24c-3.6,0-6.4-2.8-6.4-6.4v-13.6c0-3.6,2.8-6.4,6.4-6.4h24c3.6,0,6.4,2.8,6.4,6.4   v13.6C315.6,360,312.8,363.2,309.2,363.2z"/>
</g>
<path style="fill:#324A5E;" d="M203.6,282c-2.8,15.6-4.8,40-4.8,67.2c0,23.2,1.2,44,3.2,59.2h17.2c2-15.2,3.2-36.4,3.2-59.2  c0-27.6-2-51.6-4.8-67.2H203.6z"/>
<path style="fill:#E6E9EE;" d="M196.8,272.8v8c0,4.8,4,8.8,8.8,8.8h10c4.8,0,8.8-4,8.8-8.8v-8H196.8z"/>
<g>
	<path style="fill:#FFFFFF;" d="M204,430.4h14c6.4,0,12-5.2,12-11.6l0,0c0-9.2-8.4-17.2-18.8-17.2s-18.8,7.6-18.8,17.2l0,0   C192,425.2,197.6,430.4,204,430.4z"/>
	<path style="fill:#FFFFFF;" d="M222.8,363.2h-24c-3.6,0-6.4-2.8-6.4-6.4v-13.6c0-3.6,2.8-6.4,6.4-6.4h24c3.6,0,6.4,2.8,6.4,6.4   v13.6C229.6,360,226.4,363.2,222.8,363.2z"/>
</g>
<path style="fill:#324A5E;" d="M261.6,111.6l-5.2-28h-4.8l-5.2,28c-12.4,1.6-23.2,6.4-28.8,13.6H290  C284.4,118.4,274,113.2,261.6,111.6z"/>
<path style="fill:#FFFFFF;" d="M316.8,276H191.2c-10.4,0-18.8-8.4-18.8-18.8V142c0-10.4,8.4-18.8,18.8-18.8h125.6  c10.4,0,18.8,8.4,18.8,18.8v115.2C335.6,267.6,327.2,276,316.8,276z"/>
<circle style="fill:#84DBFF;" cx="298.4" cy="156" r="16.4"/>
<ellipse style="fill:#54C0EB;" cx="298.4" cy="156" rx="6.4" ry="12"/>
<circle style="fill:#FFFFFF;" cx="302.8" cy="149.2" r="3.2"/>
<circle style="fill:#84DBFF;" cx="209.6" cy="156" r="16.4"/>
<ellipse style="fill:#54C0EB;" cx="209.6" cy="156" rx="6.4" ry="12"/>
<circle style="fill:#FFFFFF;" cx="213.6" cy="149.2" r="3.2"/>
<g>
	<path style="fill:#E6E9EE;" d="M198.8,249.6L198.8,249.6c-3.6,0-6.4-2.8-6.4-6.4v-42.4c0-3.6,2.8-6.4,6.4-6.4l0,0   c3.6,0,6.4,2.8,6.4,6.4v42.4C205.2,246.8,202.4,249.6,198.8,249.6z"/>
	<path style="fill:#E6E9EE;" d="M220.8,249.6L220.8,249.6c-3.6,0-6.4-2.8-6.4-6.4v-42.4c0-3.6,2.8-6.4,6.4-6.4l0,0   c3.6,0,6.4,2.8,6.4,6.4v42.4C227.2,246.8,224.4,249.6,220.8,249.6z"/>
	<path style="fill:#E6E9EE;" d="M242.8,249.6L242.8,249.6c-3.6,0-6.4-2.8-6.4-6.4v-42.4c0-3.6,2.8-6.4,6.4-6.4l0,0   c3.6,0,6.4,2.8,6.4,6.4v42.4C249.2,246.8,246.4,249.6,242.8,249.6z"/>
	<path style="fill:#E6E9EE;" d="M265.2,249.6L265.2,249.6c-3.6,0-6.4-2.8-6.4-6.4v-42.4c0-3.6,2.8-6.4,6.4-6.4l0,0   c3.6,0,6.4,2.8,6.4,6.4v42.4C271.2,246.8,268.4,249.6,265.2,249.6z"/>
	<path style="fill:#E6E9EE;" d="M287.2,249.6L287.2,249.6c-3.6,0-6.4-2.8-6.4-6.4v-42.4c0-3.6,2.8-6.4,6.4-6.4l0,0   c3.6,0,6.4,2.8,6.4,6.4v42.4C293.6,246.8,290.8,249.6,287.2,249.6z"/>
	<path style="fill:#E6E9EE;" d="M309.2,249.6L309.2,249.6c-3.6,0-6.4-2.8-6.4-6.4v-42.4c0-3.6,2.8-6.4,6.4-6.4l0,0   c3.6,0,6.4,2.8,6.4,6.4v42.4C315.6,246.8,312.8,249.6,309.2,249.6z"/>
</g>
<circle style="fill:#FF7058;" cx="254" cy="75.2" r="10.4"/>
<polygon style="fill:#324A5E;" points="416.4,349.6 416.4,324.4 398.4,195.2 381.6,195.2 363.6,324.4 363.6,349.6 "/>
<circle style="fill:#FFFFFF;" cx="390" cy="199.6" r="14.4"/>
<polygon style="fill:#324A5E;" points="144.4,349.6 144.4,324.4 144.4,324.4 126.4,195.2 109.6,195.2 91.6,324.4 91.6,349.6 "/>
<g>
	<circle style="fill:#FFFFFF;" cx="118" cy="199.6" r="14.4"/>
	<path style="fill:#FFFFFF;" d="M86.8,390.8l6.4-25.6c-2-0.4-3.6-2-3.6-4.4V352c0-2.4,2-4.4,4.4-4.4h49.6c2,0,3.6,1.2,4,2.8l20.4,10   c3.2,1.6,4,5.6,1.6,8.4l-2,2.4c-1.6,2-4.8,2.4-7.2,1.2l-13.6-9.2c-0.8,0.8-1.6,1.6-2.8,1.6l6.4,25.6c1.2,4.4-2,8.4-6.4,8.4h-4.4   c-3.6,0-6.4-2.4-6.8-6l-3.2-28h-4.4l2,26.8c0.4,4-2.8,7.2-6.8,7.2H116c-4,0-7.2-3.2-6.8-7.2l2-26.8h-4.4l-3.2,28   c-0.4,3.6-3.2,6-6.8,6h-4.4C88.8,399.2,85.6,395.2,86.8,390.8z"/>
	<path style="fill:#FFFFFF;" d="M421.2,390.8l-6.4-25.6c2-0.4,3.6-2,3.6-4.4V352c0-2.4-2-4.4-4.4-4.4h-49.2c-2,0-3.6,1.2-4,2.8   l-20.4,10c-3.2,1.6-4,5.6-1.6,8.4l2,2.4c1.6,2,4.8,2.4,7.2,1.2l13.6-9.2c0.8,0.8,1.6,1.6,2.8,1.6l-6.4,25.6c-1.2,4.4,2,8.4,6.4,8.4   h4.4c3.6,0,6.4-2.4,6.8-6l3.2-28h4.4l-2,26.8c-0.4,4,2.8,7.2,6.8,7.2h4.4c4,0,7.2-3.2,6.8-7.2l-2-26.8h4.4l3.2,28   c0.4,3.6,3.2,6,6.8,6h4.4C419.2,399.2,422.4,395.2,421.2,390.8z"/>
</g>
<g>
</g>
<g>
</g>
<g>
</g>
<g>
</g>
<g>
</g>
<g>
</g>
<g>
</g>
<g>
</g>
<g>
</g>
<g>
</g>
<g>
</g>
<g>
</g>
<g>
</g>
<g>
</g>
<g>
</g>
</svg>
