<?xml version="1.0" encoding="iso-8859-1"?>
<!-- Generator: Adobe Illustrator 19.0.0, SVG Export Plug-In . SVG Version: 6.00 Build 0)  -->
<svg xmlns="http://www.w3.org/2000/svg" xmlns:xlink="http://www.w3.org/1999/xlink" version="1.1" id="Layer_1" x="0px" y="0px" viewBox="0 0 508 508" style="enable-background:new 0 0 508 508;" xml:space="preserve">
<circle style="fill:#324A5E;" cx="254" cy="254" r="254"/>
<path style="fill:#2B3B4E;" d="M104,458.8c42,30.8,94,49.2,150,49.2c56.4,0,108-18.4,150-49.2H104z"/>
<g>
	<polygon style="fill:#ACB3BA;" points="346.4,298.4 324.4,300.8 316,197.6 329.6,196  "/>
	<polygon style="fill:#ACB3BA;" points="161.6,298.4 183.6,300.8 192,197.6 178.4,196  "/>
</g>
<g>
	<circle style="fill:#CED5E0;" cx="318" cy="190" r="20"/>
	<circle style="fill:#CED5E0;" cx="190" cy="190" r="20"/>
</g>
<polygon style="fill:#ACB3BA;" points="279.2,146.8 271.6,125.2 236.4,125.2 228.8,146.8 "/>
<path style="fill:#FFFFFF;" d="M298,101.6c0,9.2-2,17.6-5.6,25.2c-2-0.4-3.6-0.4-5.6-0.4c-5.2,0-10,1.2-14.4,3.2  c-12,5.2-25.2,5.2-37.2,0c-4.4-2-9.2-3.2-14.4-3.2c-2,0-3.6,0-5.6,0.4c-3.6-7.2-5.6-16-5.6-25.2c0-28,19.6-50.8,44-50.8  C278.4,50.8,298,73.6,298,101.6z"/>
<polygon style="fill:#84DBFF;" points="280.8,78 254,80.8 227.2,78 221.2,101.6 254,109.2 286.8,101.6 "/>
<polygon style="fill:#ACB3BA;" points="303.2,385.2 281.2,387.6 272.8,284.4 286.4,282.8 "/>
<path style="fill:#FFFFFF;" d="M318.4,436l-9.6-22v-40.8h-36V414l-9.6,22c-4.4,10,2.4,21.2,12.8,21.2h29.6  C316,457.2,322.8,446,318.4,436z"/>
<polygon style="fill:#ACB3BA;" points="204.8,385.2 226.8,387.6 235.2,284.4 221.6,282.8 "/>
<g>
	<path style="fill:#FFFFFF;" d="M189.6,436l9.6-22v-40.8h36V414l9.6,22c4.4,10-2.4,21.2-12.8,21.2h-29.6   C192,457.2,185.2,446,189.6,436z"/>
	<path style="fill:#FFFFFF;" d="M321.6,178.8c0-20.4-30.4-36.8-67.6-36.8s-67.6,16.4-67.6,36.8c0,12.8,12.4,24.4,30.8,30.8   c1.6,13.2,4.8,25.2,9.2,34.8c-16,5.2-26.4,15.2-26.4,26.4c0,5.6,2.8,10.8,7.6,15.6c-0.8,2.4-1.2,4.8-1.2,7.2c0,11.2,8.8,20,20,20   c8.4,0,15.6-5.2,18.8-12.8c2.8,0.4,6,0.4,8.8,0.4c3.2,0,6,0,8.8-0.4c2.8,7.6,10,12.8,18.8,12.8c11.2,0,20-8.8,20-20   c0-2.4-0.4-4.8-1.2-7.2c4.8-4.4,7.6-10,7.6-15.6c0-11.2-10.8-20.8-26.4-26.4c4.4-9.6,7.6-21.6,9.2-34.8   C309.2,202.8,321.6,191.6,321.6,178.8z"/>
</g>
<g>
	<path style="fill:#CED5E0;" d="M358.4,318.8c-2-4.4-4.4-8-6.4-10.8c3.2-2.4,5.2-5.6,5.2-8.8c0-7.6-9.6-14-21.6-14s-21.6,6-21.6,14   c0,2.8,1.2,5.2,3.6,7.6c-1.6,2.4-3.6,5.2-5.2,8c-6,10.8-8.8,20.8-6,22.4s9.6-5.6,15.6-16.4c2-3.2,3.2-6.4,4.4-9.2   c1.2,0.4,2.4,0.8,3.6,0.8c-0.8,2.8-1.6,6-2,9.6c-2,12-0.8,22.4,2.4,23.2c3.2,0.8,7.2-8.8,9.2-20.8c0.8-4.4,0.8-8.4,0.8-11.6   c1.2,0,2.4-0.4,3.6-0.8c0.8,3.6,2.4,7.6,4.4,12c4.8,10,11.2,17.2,14,16C365.2,338.4,363.2,329.2,358.4,318.8z"/>
	<path style="fill:#CED5E0;" d="M196,314.8c-1.6-3.2-3.6-5.6-5.2-8c2.4-2,3.6-4.8,3.6-7.6c0-7.6-9.6-14-21.6-14s-21.6,6-21.6,14   c0,3.6,2,6.4,5.2,8.8c-2,2.8-4.4,6.4-6.4,10.8c-4.8,10-6.8,19.6-4,20.8c2.8,1.2,9.2-5.6,14-16c2-4.4,3.6-8.4,4.4-12   c1.2,0.4,2.4,0.4,3.6,0.8c0,3.6,0.4,7.6,0.8,11.6c2,12,6,21.2,9.2,20.8c3.2-0.8,4-11.2,2.4-23.2c-0.4-3.6-1.2-6.8-2-9.6   c1.2-0.4,2.4-0.4,3.6-0.8c1.2,2.8,2.4,6,4.4,9.2c6,10.8,13.2,18,15.6,16.4C204.8,335.6,202,325.6,196,314.8z"/>
</g>
<g>
</g>
<g>
</g>
<g>
</g>
<g>
</g>
<g>
</g>
<g>
</g>
<g>
</g>
<g>
</g>
<g>
</g>
<g>
</g>
<g>
</g>
<g>
</g>
<g>
</g>
<g>
</g>
<g>
</g>
</svg>
