<?xml version="1.0" encoding="iso-8859-1"?>
<!-- Generator: Adobe Illustrator 19.0.0, SVG Export Plug-In . SVG Version: 6.00 Build 0)  -->
<svg xmlns="http://www.w3.org/2000/svg" xmlns:xlink="http://www.w3.org/1999/xlink" version="1.1" id="Layer_1" x="0px" y="0px" viewBox="0 0 508 508" style="enable-background:new 0 0 508 508;" xml:space="preserve">
<circle style="fill:#54C0EB;" cx="254" cy="254" r="254"/>
<g>
	<path style="fill:#324A5E;" d="M327.6,242c2.8,7.6,7.2,16.4,12.8,25.2c14.8,22.8,32.8,37.2,40,32.4c7.2-4.8,1.2-27.2-13.2-49.6   c-5.6-8.8-12-16.4-17.6-22L327.6,242z"/>
	<path style="fill:#324A5E;" d="M387.6,333.6c0,0,6.8,17.6-5.2,43.6c-0.8,2-3.2,3.2-5.6,3.2l0,0c-3.6-0.4-5.6-4-4.8-7.2   c1.6-4.8,3.2-12,3.2-18.4c0-6-7.6-8.8-11.6-4.4c-1.6,1.6-2.8,4-3.6,6.8c-0.8,2.8-4,4-6.4,3.2l0,0c-2.8-0.8-4.4-4-3.2-6.8   C354,343.2,365.2,322,387.6,333.6z"/>
</g>
<path style="fill:#FFFFFF;" d="M398.4,343.2c0,9.6-2.4,16.4-6,20.4c-9.6-18.8-27.6-26.4-38-29.6c1.2-8.8,3.6-18,7.2-24.8  c-2-3.6-3.2-7.6-4-12.4c17.6-8.8,25.2-17.6,28.8-24c3.2,4.8,5.2,11.6,5.2,18.8c0,5.2-0.8,10-2.4,14  C394.8,315.2,398.4,330.4,398.4,343.2z"/>
<circle style="fill:#E6E9EE;" cx="336.4" cy="235.2" r="25.6"/>
<g>
	<path style="fill:#324A5E;" d="M180.8,242c-2.8,7.6-7.2,16.4-12.8,25.2c-14.8,22.8-32.8,37.2-40,32.4c-7.2-4.8-1.2-27.2,13.2-49.6   c5.6-8.8,12-16.4,17.6-22L180.8,242z"/>
	<path style="fill:#324A5E;" d="M120.8,333.6c0,0-6.8,17.6,5.2,43.6c0.8,2,3.2,3.2,5.6,3.2l0,0c3.6-0.4,5.6-4,4.8-7.2   c-1.6-4.8-3.2-12-3.2-18.4c0-6,7.6-8.8,11.6-4.4c1.6,1.6,2.8,4,3.6,6.8s4,4,6.4,3.2l0,0c2.8-0.8,4.4-4,3.2-6.8   C154.4,343.2,142.8,322,120.8,333.6z"/>
</g>
<path style="fill:#FFFFFF;" d="M109.6,343.2c0,9.6,2.4,16.4,6,20.4c9.6-18.8,27.6-26.4,38-29.6c-1.2-8.8-3.6-18-7.2-24.8  c2-3.6,3.2-7.6,4-12.4c-17.6-8.8-25.2-17.6-28.8-24c-3.2,4.8-5.2,11.6-5.2,18.8c0,5.2,0.8,10,2.4,14  C113.6,315.2,109.6,330.4,109.6,343.2z"/>
<circle style="fill:#E6E9EE;" cx="172" cy="235.2" r="25.6"/>
<rect x="289.6" y="381.6" style="fill:#324A5E;" width="24" height="62.8"/>
<path style="fill:#FFFFFF;" d="M324.4,439.2c-3.2-3.6-8-5.6-12.8-5.6h-20.4c-4.4,0-9.6,2-12.8,5.6c-6,6.4-3.2,15.6,7.6,15.6h30.8  C327.6,454.8,330.4,445.6,324.4,439.2z"/>
<rect x="194.8" y="381.6" style="fill:#324A5E;" width="24" height="62.8"/>
<path style="fill:#FFFFFF;" d="M229.6,439.2c-3.2-3.6-8-5.6-12.8-5.6h-20.4c-4.4,0-9.6,2-12.8,5.6c-6,6.4-3.2,15.6,7.6,15.6H222  C232.8,454.8,235.6,445.6,229.6,439.2z"/>
<path style="fill:#84DBFF;" d="M97.2,453.6c43.2,34,97.6,54.4,156.8,54.4s113.6-20.4,156.8-54.4H97.2z"/>
<g>
	<polygon style="fill:#324A5E;" points="262.4,85.6 245.6,85.6 251.2,43.6 256.8,43.6  "/>
	<path style="fill:#324A5E;" d="M304,334h-16c-3.6,0-6.8-2.4-6.8-5.2v-30c0-2.4,2.4-4,5.6-4H298c3.2,0,6,1.6,6.4,4l5.2,30   C310,332,307.6,334,304,334z"/>
</g>
<path style="fill:#FFFFFF;" d="M315.6,400.8h-29.2c-5.6,0-10-4.4-10-9.6l0.4-61.6c0-4,3.6-6.8,8-6.8h20c4.4,0,8.4,3.2,9.2,6.8  l10,61.6C324.8,396,320.8,400.8,315.6,400.8z"/>
<path style="fill:#324A5E;" d="M220.4,334h-16c-3.6,0-6-2.4-5.6-5.2l5.2-30c0.4-2.4,3.2-4,6.4-4H222c3.2,0,5.6,1.6,5.6,4v30  C227.2,332,224,334,220.4,334z"/>
<path style="fill:#FFFFFF;" d="M221.6,400.8h-29.2c-5.6,0-9.2-4.4-8.4-9.6l10-61.6c0.8-4,4.8-6.8,9.2-6.8h20c4.4,0,8,3.2,8,6.8  l0.4,61.6C231.6,396,227.2,400.8,221.6,400.8z"/>
<rect x="232" y="145.6" style="fill:#324A5E;" width="44" height="54.8"/>
<g>
	<path style="fill:#FFFFFF;" d="M295.2,167.6h-82c-5.2,0-9.6-4.4-9.6-9.6V96.8c0-5.2,4.4-9.6,9.6-9.6h82.4c5.2,0,9.6,4.4,9.6,9.6   V158C304.8,163.2,300.4,167.6,295.2,167.6z"/>
	<path style="fill:#FFFFFF;" d="M312.4,302.4H196c-7.2,0-13.2-6-13.2-13.2v-86.8c0-7.2,6-13.2,13.2-13.2h116.4   c7.2,0,13.2,6,13.2,13.2v86.8C325.6,296.4,319.6,302.4,312.4,302.4z"/>
</g>
<circle style="fill:#FF7058;" cx="280.4" cy="112" r="12.8"/>
<ellipse transform="matrix(0.7065 -0.7077 0.7077 0.7065 4.7215 226.6016)" style="fill:#FFFFFF;" cx="275.565" cy="107.608" rx="4.8" ry="2.4"/>
<circle style="fill:#FF7058;" cx="228" cy="112" r="12.8"/>
<ellipse transform="matrix(0.7066 -0.7077 0.7077 0.7066 -10.5868 189.5138)" style="fill:#FFFFFF;" cx="223.219" cy="107.522" rx="4.8" ry="2.4"/>
<path style="fill:#CED5E0;" d="M277.2,87.2c-6-6-14.4-9.6-23.2-9.6s-17.2,3.6-23.2,9.6H277.2z"/>
<circle style="fill:#FFFFFF;" cx="254" cy="44" r="9.6"/>
<g>
</g>
<g>
</g>
<g>
</g>
<g>
</g>
<g>
</g>
<g>
</g>
<g>
</g>
<g>
</g>
<g>
</g>
<g>
</g>
<g>
</g>
<g>
</g>
<g>
</g>
<g>
</g>
<g>
</g>
</svg>
