<?xml version="1.0" encoding="iso-8859-1"?>
<!-- Generator: Adobe Illustrator 19.0.0, SVG Export Plug-In . SVG Version: 6.00 Build 0)  -->
<svg xmlns="http://www.w3.org/2000/svg" xmlns:xlink="http://www.w3.org/1999/xlink" version="1.1" id="Layer_1" x="0px" y="0px" viewBox="0 0 508 508" style="enable-background:new 0 0 508 508;" xml:space="preserve">
<circle style="fill:#84DBFF;" cx="254" cy="254" r="254"/>
<path style="fill:#54C0EB;" d="M87.6,445.6C132,484.4,190.4,508,254,508s122-23.6,166.4-62.4H87.6z"/>
<g>
	<path style="fill:#324A5E;" d="M274.4,151.2h-40.8c6-7.2,8.8-14.4,10-20.4c6.8,1.6,14,1.6,20.4,0   C265.6,137.2,268.4,144.4,274.4,151.2z"/>
	<path style="fill:#324A5E;" d="M393.6,332c-1.2,0.8-6,2.8-8.4-1.6c-2.4-4.8-6-10.8-10.8-15.6c-4.4-4.4-11.6-0.8-11.2,5.2   c0,2.4,0.8,4.8,2.4,7.6c1.2,2.4,0,5.6-2.4,6.8c-0.8,0.4-4.8,2-7.2-2.8c-2.4-4.4-4.4-11.6-4.4-18.8c3.6,0.4,7.6,0,11.2-2l12-6.4   c2-1.2,4-2.8,5.6-4.4c5.2,5.6,11.2,13.6,15.6,26C396.4,328,395.6,330.4,393.6,332z"/>
	<path style="fill:#324A5E;" d="M331.6,183.6c-1.6,4.4-5.2,10.8-12.8,18c-0.8-2.8-2.4-6.8-4-10.4c5.2-5.2,5.2-23.2,4.8-24.8   C323.6,170,328.8,175.6,331.6,183.6z"/>
</g>
<path style="fill:#FFFFFF;" d="M342.4,220c-3.2,1.2-14.4,4.4-24.8-0.8c-2-8-0.4-16-0.4-16c15.6-14.4,15.6-25.6,15.6-25.6s0,0,0.4,0  c5.6,4,7.6,11.6,5.6,18C336,204.8,340.4,215.2,342.4,220z"/>
<path style="fill:#324A5E;" d="M368.8,269.6c-4-0.8-8,0-11.6,2l-12,6.4c-2.8,1.6-5.2,4-6.8,6.4c-22.8-16-22.8-65.6-22.8-66.8  c13.2,8.8,28.4,2,28.4,2C350,228.4,365.6,262,368.8,269.6z"/>
<path style="fill:#FFFFFF;" d="M382.4,279.2c-4.8-9.2-16-12.8-25.2-8l-12,6.4c-9.2,4.8-12.8,16-8,25.2s16,12.8,25.2,8l12-6.4  C383.6,299.6,387.2,288.4,382.4,279.2z"/>
<g>
	<path style="fill:#324A5E;" d="M156.8,312.8c0,7.2-2.4,14.4-4.4,18.8c-0.8,2-3.6,4-7.2,2.8c-2.8-1.2-3.6-4.4-2.4-6.8   c1.6-2.8,2-5.2,2.4-7.6c0.4-6-6.8-9.6-11.2-5.2c-4.8,4.4-8.4,10.8-10.8,15.6c-0.8,2-4.4,4.8-8.4,1.6c-2-1.6-2.4-4-1.6-6   c4.4-12,10.4-20.4,15.6-26c1.6,1.6,3.6,3.2,5.6,4.4l12,6.4C149.2,312.4,153.2,313.2,156.8,312.8z"/>
	<path style="fill:#324A5E;" d="M192.8,191.6c-1.6,3.6-3.2,7.6-4,10.4c-7.6-7.2-10.8-13.6-12.8-18c2.8-8,8-13.6,12-16.8   C188,168,188.8,187.2,192.8,191.6z"/>
</g>
<path style="fill:#FFFFFF;" d="M190,219.2c-10.4,5.2-21.2,2-24.8,0.8c2.4-4.8,6.4-15.2,3.6-24c-2-6.4,0-14,5.6-18c0,0,0,0,0.4,0  c0,0,0.4,11.6,15.6,25.6C190.4,203.2,192,211.2,190,219.2z"/>
<path style="fill:#324A5E;" d="M192.8,217.6c0,0.8,0,50.4-22.8,66.8c-1.6-2.8-4-4.8-6.8-6.4l-12-6.4c-3.6-2-7.6-2.4-11.6-2  c3.2-7.2,18.4-41.2,25.2-50C164.4,219.6,179.6,226.4,192.8,217.6z"/>
<path style="fill:#FFFFFF;" d="M125.6,279.2c4.8-9.2,16-12.8,25.2-8l12,6.4c9.2,4.8,12.8,16,8,25.2s-16,12.8-25.2,8l-12-6.4  C124.4,299.6,120.8,288.4,125.6,279.2z"/>
<g>
	<path style="fill:#324A5E;" d="M280.8,300.4c-2.8-10.8-6.4-20-8-23.2c4.8-2.8,10-6.4,13.6-10.8c3.6,4.4,6.8,10.4,9.6,17.2   C293.2,288.8,288,295.6,280.8,300.4z"/>
	<path style="fill:#324A5E;" d="M309.2,332c-7.6-1.2-19.2-1.2-25.2,0.8c0.4-3.2,0.4-6.4,0.4-10c4.4-4,14.8-11.6,21.6-7.2   C307.6,322.4,308.8,328.4,309.2,332z"/>
</g>
<g>
	<path style="fill:#FFFFFF;" d="M300.4,275.6c0,0-7.2,19.2-24,27.2l5.6,22c0,0,16.8-17.6,25.6-8   C307.6,317.2,311.6,284.4,300.4,275.6z"/>
	<path style="fill:#FFFFFF;" d="M319.2,406c-2.4-25.2-10.8-43.6-20.8-43.6S280,380.8,277.6,406c-14-12.8,4-72,4-72   c4.8-4,29.6-4,34,0C315.2,334,333.2,393.2,319.2,406z"/>
</g>
<g>
	<path style="fill:#324A5E;" d="M309.6,444.4c5.2,0,10-6.4,10.4-14.4c0-2.4,0-5.2,0-7.6c0-33.2-9.6-59.6-21.6-59.6   s-21.6,26.8-21.6,59.6c0,2.8,0,5.2,0,7.6c0.4,8.4,5.2,14.4,10.4,14.4H309.6z"/>
	<path style="fill:#324A5E;" d="M224,332.8c-6-2-17.6-2-25.2-0.8c0.8-3.6,2-9.2,3.6-16.4c6.8-4.4,17.2,3.2,21.6,7.2   C223.6,326,223.6,329.6,224,332.8z"/>
	<path style="fill:#324A5E;" d="M235.2,277.2c-1.6,3.6-5.2,12.4-8,23.2c-7.2-4.8-12.4-11.6-15.6-16.8c2.8-6.8,6-13.2,9.6-17.2   C225.2,270.8,230.8,274.4,235.2,277.2z"/>
</g>
<g>
	<path style="fill:#FFFFFF;" d="M207.6,275.6c0,0,7.2,19.2,24,27.2l-5.6,22c0,0-16.8-17.6-25.6-8   C200.4,317.2,196.4,284.4,207.6,275.6z"/>
	<path style="fill:#FFFFFF;" d="M230.4,406c-2.4-25.2-10.8-43.6-20.8-43.6s-18.4,18.4-20.8,43.6c-14-12.8,4-72,4-72   c4.8-4,29.6-4,34,0C226.8,334,244.4,393.6,230.4,406z"/>
</g>
<path style="fill:#324A5E;" d="M198.4,444.4c-5.2,0-10-6.4-10.4-14.4c0-2.4,0-5.2,0-7.6c0-33.2,9.6-59.6,21.6-59.6  s21.6,26.8,21.6,59.6c0,2.8,0,5.2,0,7.6c-0.4,8.4-5.2,14.4-10.4,14.4H198.4z"/>
<circle style="fill:#FFFFFF;" cx="254" cy="87.2" r="44.8"/>
<path style="fill:#E6E9EE;" d="M227.2,68.8v22.8c17.6,3.6,36,3.6,53.2,0V68.8C263.2,65.2,244.8,65.2,227.2,68.8z"/>
<g>
	<path style="fill:#324A5E;" d="M273.6,85.2c-1.2,2.8-7.6,2.8-12,0.8s-5.2-4.8-4-8c1.2-2.8,4.8-6,9.2-4.4   C271.2,75.6,274.8,82,273.6,85.2z"/>
	<path style="fill:#324A5E;" d="M234.4,85.2c1.2,2.8,7.6,2.8,12,0.8s5.2-4.8,4-8c-1.2-2.8-4.8-6-9.2-4.4   C236.8,75.6,233.2,82,234.4,85.2z"/>
</g>
<path style="fill:#FFFFFF;" d="M320.8,170.8L320.8,170.8c-2-11.2-12-19.6-23.6-19.6H254h-43.2c-11.6,0-21.6,8.4-23.6,19.6l0,0  c-1.6,9.6,2.4,19.2,10.4,24.4c10,6.4,22,20.8,24,54.4c-1.2,0.8-1.6,2-1.6,2c-11.2,15.2,23.6,30,23.6,30c3.2,3.6,6.8,4.8,10.4,4.8  c3.2,0,6.8-0.8,10.4-4.8c0,0,34.8-14.8,23.6-30c0,0-0.4-0.8-1.6-2c2-33.6,14-48,24-54.4C318.4,190.4,322.8,180.4,320.8,170.8z"/>
<g>
</g>
<g>
</g>
<g>
</g>
<g>
</g>
<g>
</g>
<g>
</g>
<g>
</g>
<g>
</g>
<g>
</g>
<g>
</g>
<g>
</g>
<g>
</g>
<g>
</g>
<g>
</g>
<g>
</g>
</svg>
