<?xml version="1.0" encoding="iso-8859-1"?>
<!-- Generator: Adobe Illustrator 19.0.0, SVG Export Plug-In . SVG Version: 6.00 Build 0)  -->
<svg xmlns="http://www.w3.org/2000/svg" xmlns:xlink="http://www.w3.org/1999/xlink" version="1.1" id="Layer_1" x="0px" y="0px" viewBox="0 0 508 508" style="enable-background:new 0 0 508 508;" xml:space="preserve">
<circle style="fill:#4CDBC4;" cx="254" cy="254" r="254"/>
<path style="fill:#2C9984;" d="M103.6,458.8c42,31.2,94,49.2,150.4,49.2s108.4-18.4,150.4-49.2H103.6z"/>
<path style="fill:#2B3B4E;" d="M267.2,210.8c-3.6-2-8-3.2-12.4-3.2s-8.8,1.2-12.4,3.2l3.6-14c2.8,0.8,5.6,1.6,8.8,1.6  c3.2,0,6-0.4,8.8-1.6L267.2,210.8z"/>
<path style="fill:#E6E9EE;" d="M339.6,265.2l-15.2,9.2c-3.2,2-5.2,4.8-6,7.6l-18.8-49.2h16L339.6,265.2z"/>
<path style="fill:#FFFFFF;" d="M389.2,252l-48.4,44.4c-6,5.6-15.6,4.8-20.4-2c-1.6-2.4-2.4-5.6-2.4-8.4c0-4.8,2.4-9.2,6.8-12  l57.2-34C382,245.2,384.8,249.6,389.2,252z"/>
<g>
	<path style="fill:#E6E9EE;" d="M405.2,229.6c-2-2-4.4-3.2-7.2-3.6l0,0c3.2-4.4,7.2-6.8,9.2-5.6C408.8,221.2,408,225.6,405.2,229.6z   "/>
	<path style="fill:#E6E9EE;" d="M415.6,242.4c0,2-3.2,3.2-7.6,3.2c0.8-2,1.2-4,1.2-6c0-0.4,0-0.8,0-0.8   C413.2,239.2,415.6,240.8,415.6,242.4z"/>
	<path style="fill:#E6E9EE;" d="M208.4,232.8L189.6,282c-0.8-3.2-3.2-6-6-7.6l-15.2-9.2l24-32.4L208.4,232.8L208.4,232.8z"/>
</g>
<g>
	<path style="fill:#FFFFFF;" d="M190,286c0,2.8-0.8,5.6-2.8,8.4c-4.8,6.4-14.4,7.6-20.4,2l-48-44.8c4.4-2.4,7.2-6.8,7.6-12   l57.2,34.4C187.6,276.8,190,281.6,190,286z"/>
	<circle style="fill:#FFFFFF;" cx="112.4" cy="239.6" r="14"/>
</g>
<g>
	<path style="fill:#E6E9EE;" d="M109.6,226c-2.8,0.4-5.2,2-7.2,3.6c-2.8-4-3.6-8.4-2-9.6C102.4,218.8,106.4,221.6,109.6,226   L109.6,226z"/>
	<path style="fill:#E6E9EE;" d="M100,245.6c-4.4,0-7.6-1.2-7.6-3.2c0-1.6,2.4-3.2,6-4c0,0.4,0,0.8,0,0.8   C98.4,241.6,99.2,243.6,100,245.6z"/>
	<path style="fill:#E6E9EE;" d="M213.6,216h21.6c-3.6,3.6-6,7.6-7.2,12.4h-14.8V216H213.6z"/>
	<path style="fill:#E6E9EE;" d="M295.6,216v12.4h-14.8c-1.2-4.8-3.6-8.8-7.2-12.4H295.6z"/>
	<path style="fill:#E6E9EE;" d="M295.6,352.8c-1.6-0.8-3.6-1.2-5.6-1.2c-4,0-7.2,1.6-10,4l-11.6-65.2h13.2c0.8,0,1.6,0,2.8-0.4   L295.6,352.8z"/>
	<path style="fill:#E6E9EE;" d="M241.2,290.4L229.6,356c-2.4-2.8-6-4.4-10-4.4c-2,0-3.6,0.4-5.2,0.8l10.8-62.4c0.8,0,1.2,0,2,0h14   V290.4z"/>
	<path style="fill:#E6E9EE;" d="M240.4,439.2h-16l-10.8-60.4c1.6,0.8,3.6,1.2,5.6,1.2c3.6,0,7.2-1.6,9.6-4L240.4,439.2z"/>
	<path style="fill:#E6E9EE;" d="M296,378.8l-10.8,60.4h-16l11.2-62.4c2.4,2,5.6,3.6,9.2,3.6C292,380,294,379.6,296,378.8z"/>
	<path style="fill:#E6E9EE;" d="M278.8,180.8c-3.6,10-13.2,17.6-24.4,17.6c-11.2,0-20.8-7.2-24.4-17.6c7.6,1.2,16,1.6,24.4,1.6   C263.2,182.8,271.2,182,278.8,180.8z"/>
</g>
<polygon style="fill:#324A5E;" points="263.6,82.8 254.8,54.8 245.6,82.8 "/>
<path style="fill:#E6E9EE;" d="M282,96.4c-8.4-1.6-17.6-2.4-27.2-2.4s-18.8,0.8-27.2,2.4c4-11.2,14.8-19.2,27.2-19.2  C267.2,77.2,278,85.2,282,96.4z"/>
<g>
	<circle style="fill:#FFFFFF;" cx="254.8" cy="54.4" r="5.2"/>
	<path style="fill:#FFFFFF;" d="M281.6,262.8h-4.8l4.4-22c3.2-16.8-9.6-32.4-26.8-32.4s-30,15.6-26.8,32.4l4.4,22h-4.8   c-7.6,0-14,6.4-14,14s6.4,14,14,14h54.4c7.6,0,14-6.4,14-14C295.6,268.8,289.6,262.8,281.6,262.8z"/>
	<circle style="fill:#FFFFFF;" cx="289.6" cy="366" r="14.4"/>
	<circle style="fill:#FFFFFF;" cx="219.6" cy="366" r="14.4"/>
</g>
<g>
	<path style="fill:#2B3B4E;" d="M269.2,458.4h49.6c0-10.8-8.8-19.6-19.6-19.6h-30.4v19.6H269.2z"/>
	<path style="fill:#2B3B4E;" d="M240.4,458.4h-49.6c0-10.8,8.8-19.6,19.6-19.6h30.4v19.6H240.4z"/>
</g>
<g>
	<path style="fill:#FFFFFF;" d="M295.6,232.8H318c-0.4-12-10-21.6-22.4-21.6V232.8z"/>
	<path style="fill:#FFFFFF;" d="M213.6,232.8h-22.4c0.4-12,10-21.6,22.4-21.6V232.8z"/>
	<circle style="fill:#FFFFFF;" cx="395.6" cy="239.6" r="14"/>
	<circle style="fill:#FFFFFF;" cx="395.6" cy="239.6" r="14"/>
	<path style="fill:#FFFFFF;" d="M314.4,170.4c-15.6,7.6-36.4,12.4-59.6,12.4s-44.4-4.8-59.6-12.4c-2.4-10-2.4-53.6,0-63.6   c15.6-7.6,36.4-12.4,59.6-12.4s44,4.8,59.6,12.4C316.4,116.8,316.4,160.4,314.4,170.4z"/>
</g>
<circle style="fill:#324A5E;" cx="304.4" cy="135.6" r="20.4"/>
<circle style="fill:#84DBFF;" cx="304.4" cy="135.6" r="15.2"/>
<g>
	<ellipse style="fill:#324A5E;" cx="304.4" cy="135.6" rx="9.6" ry="2.8"/>
	<circle style="fill:#324A5E;" cx="204.8" cy="135.6" r="20.4"/>
</g>
<circle style="fill:#84DBFF;" cx="204.8" cy="135.6" r="15.2"/>
<ellipse style="fill:#324A5E;" cx="204.8" cy="135.6" rx="9.6" ry="2.8"/>
<polygon style="fill:#E6E9EE;" points="286.4,155.2 286.4,160.4 280.8,160.4 280.8,155.2 274.8,155.2 274.8,160.4 269.2,160.4   269.2,155.2 263.2,155.2 263.2,160.4 257.6,160.4 257.6,155.2 251.6,155.2 251.6,160.4 246,160.4 246,155.2 240,155.2 240,160.4   234.4,160.4 234.4,155.2 228.8,155.2 228.8,160.4 222.8,160.4 222.8,155.2 217.2,155.2 217.2,165.2 222.8,165.2 222.8,170   228.8,170 228.8,165.2 234.4,165.2 234.4,170 240,170 240,165.2 246,165.2 246,170 251.6,170 251.6,165.2 257.6,165.2 257.6,170   263.2,170 263.2,165.2 269.2,165.2 269.2,170 274.8,170 274.8,165.2 280.8,165.2 280.8,170 286.4,170 286.4,165.2 292,165.2   292,155.2 "/>
<g>
</g>
<g>
</g>
<g>
</g>
<g>
</g>
<g>
</g>
<g>
</g>
<g>
</g>
<g>
</g>
<g>
</g>
<g>
</g>
<g>
</g>
<g>
</g>
<g>
</g>
<g>
</g>
<g>
</g>
</svg>
