<?xml version="1.0" encoding="iso-8859-1"?>
<!-- Generator: Adobe Illustrator 19.0.0, SVG Export Plug-In . SVG Version: 6.00 Build 0)  -->
<svg xmlns="http://www.w3.org/2000/svg" xmlns:xlink="http://www.w3.org/1999/xlink" version="1.1" id="Layer_1" x="0px" y="0px" viewBox="0 0 508 508" style="enable-background:new 0 0 508 508;" xml:space="preserve">
<circle style="fill:#54C0EB;" cx="254" cy="254" r="254"/>
<path style="fill:#84DBFF;" d="M113.6,465.6C154,492.4,202,508,254,508s100.4-15.6,140.4-42.4H113.6z"/>
<g>
	<rect x="213.6" y="240.8" style="fill:#E6E9EE;" width="81.2" height="38.4"/>
	<path style="fill:#E6E9EE;" d="M281.2,397.6c6.8,0,12.8-2,16.8-4.8c-2,20.8-4.8,40.8-8.8,53.2h-15.6c-4-12.4-6.8-32.4-8.8-53.2   C268.8,395.6,274.8,397.6,281.2,397.6z"/>
	<path style="fill:#E6E9EE;" d="M300,353.6c0,7.2-0.4,14.8-0.8,22.8c-4-3.6-10.4-5.6-17.6-5.6s-14,2.4-17.6,5.6   c-0.4-8-0.8-15.6-0.8-22.8c0-10.8,0.4-39.2,1.6-49.6H296c0.8,0,1.6,0,2.8-0.4C299.2,313.6,300,342.8,300,353.6z"/>
</g>
<ellipse style="fill:#FFFFFF;" cx="281.2" cy="384" rx="21.6" ry="13.6"/>
<g>
	<path style="fill:#E6E9EE;" d="M226.8,397.6c6.8,0,12.8-2,16.8-4.8c-2,20.8-4.8,40.8-8.8,53.2h-15.6c-4-12.4-6.8-32.4-8.8-53.2   C214,395.6,220,397.6,226.8,397.6z"/>
	<path style="fill:#E6E9EE;" d="M245.2,353.6c0,7.2-0.4,14.8-0.8,22.8c-4-3.6-10.4-6-18-6c-7.2,0-14,2.4-18,6   c-0.4-8-0.8-15.6-0.8-22.8c0-10.8,0.4-40.4,1.6-50c0.8,0.4,1.6,0.4,2.8,0.4h31.2C244.8,314.4,245.2,342.8,245.2,353.6z"/>
</g>
<path id="SVGCleanerId_0" style="fill:#324A5E;" d="M146.8,214.4h30c1.2,0,2.4,1.2,2.4,2.4v20.8c0,1.2-1.2,2.4-2.4,2.4h-30  c-1.2,0-2.4-1.2-2.4-2.4v-20.8C144.4,215.2,145.2,214.4,146.8,214.4z"/>
<ellipse style="fill:#FFFFFF;" cx="226.8" cy="384" rx="21.6" ry="13.6"/>
<polygon style="fill:#2B3B4E;" points="359.2,146.8 359.2,214.4 332,214.4 328.4,168.8 "/>
<path style="fill:#E6E9EE;" d="M326.4,170.8c0-0.4,0-1.2,0-1.6c-0.4-14.4-8.4-26.4-19.6-33.6c18-11.6,42-7.6,55.2,9.6L326.4,170.8z"/>
<path style="fill:#2B3B4E;" d="M359.2,283.6c-0.4,1.2-1.2,2-2.4,2H356c-1.6,0-3.2-1.6-2.8-3.2c0-0.4,0-1.2,0-1.6c0-4.4-4-8-8.8-6.8  c-2.8,0.4-4.8,2.8-5.2,5.2c-0.4,1.2,0,2,0,3.2c0.4,1.6-0.8,3.2-2.4,3.2H336c-1.2,0-2.4-0.8-2.8-2c0-0.8-0.4-2-0.4-2.8  c0-6,4.4-11.2,10-12.8v-28.4h6V268c5.2,1.2,9.2,5.2,10,10.4C359.6,280,359.6,282,359.2,283.6z"/>
<path style="fill:#324A5E;" d="M361.2,214.4h-30c-1.2,0-2.4,1.2-2.4,2.4v20.8c0,1.2,1.2,2.4,2.4,2.4h30c1.2,0,2.4-1.2,2.4-2.4v-20.8  C363.6,215.2,362.8,214.4,361.2,214.4z"/>
<polygon style="fill:#2B3B4E;" points="179.6,168.8 176,214.4 148.8,214.4 148.8,146.8 "/>
<path style="fill:#E6E9EE;" d="M201.2,135.6c-11.2,7.2-19.2,19.2-19.6,33.6c0,0.4,0,1.2,0,1.6L146,145.2  C159.6,128,183.6,124,201.2,135.6z"/>
<path style="fill:#2B3B4E;" d="M174.8,280.4c0,1.2,0,2-0.4,2.8c-0.4,1.2-1.2,2-2.8,2h-0.8c-1.6,0-2.8-1.6-2.4-3.2  c0.4-0.8,0.4-2,0-3.2c-0.4-2.8-2.4-4.8-5.2-5.2c-4.4-1.2-8.8,2.4-8.8,6.8c0,0.4,0,1.2,0,1.6c0.4,1.6-0.8,3.2-2.8,3.2h-0.8  c-1.2,0-2.4-0.8-2.8-2c-0.4-1.6-0.4-3.2,0-5.2c0.8-5.2,4.8-9.2,10-10.4v-28.4h6v28.4C170.4,269.2,174.8,274.4,174.8,280.4z"/>
<g>
	<path id="SVGCleanerId_0_1_" style="fill:#324A5E;" d="M146.8,214.4h30c1.2,0,2.4,1.2,2.4,2.4v20.8c0,1.2-1.2,2.4-2.4,2.4h-30   c-1.2,0-2.4-1.2-2.4-2.4v-20.8C144.4,215.2,145.2,214.4,146.8,214.4z"/>
</g>
<circle style="fill:#FFFFFF;" cx="254" cy="72.8" r="43.6"/>
<ellipse style="fill:#FF7058;" cx="254" cy="74" rx="32" ry="16.4"/>
<g>
	<path style="fill:#FFFFFF;" d="M283.6,128.8h-59.2c-22.4,0-41.6,17.6-42.4,40c-0.4,10.8,3.6,20.4,10,28c8,9.2,11.6,21.2,11.6,33.6   c0,5.6,4.4,10,10,10h80.8c5.6,0,10-4.4,10-10c0-12,4-24,11.6-33.6c6.4-7.6,10-17.2,10-28C325.6,146.4,306.4,128.8,283.6,128.8z"/>
	<path style="fill:#FFFFFF;" d="M326.4,169.2c0.4,10.8-3.6,20.4-10,28c-8,9.2-11.6,21.2-11.6,33.6c0,5.6-4.4,10-10,10h-81.2   c-5.6,0-10-4.4-10-10c0-12-4-24-11.6-33.6c-6-7.2-9.6-16.4-10-26.4c0-0.4,0-1.2,0-1.6c0.4-14.4,8.4-26.4,19.6-33.6   c6.8-4,14.4-6.4,22.8-6.4H284C306.4,128.8,325.6,146.4,326.4,169.2z"/>
	<path style="fill:#FFFFFF;" d="M295.6,304.4h-83.2c-4.8,0-8.8-4-8.8-8.8v-24c0-4.8,4-8.8,8.8-8.8h83.2c4.8,0,8.8,4,8.8,8.8v24   C304.4,300.4,300.4,304.4,295.6,304.4z"/>
</g>
<g>
	<path style="fill:#324A5E;" d="M296.4,461.6l-1.6-12.8c0-1.6-1.2-2.8-2-2.8H270c-1.2,0-2,1.2-2,2.8l-1.6,12.8c-0.4,2,0.8,4,2,4H294   C295.6,465.6,296.4,463.6,296.4,461.6z"/>
	<path style="fill:#324A5E;" d="M241.6,461.6l-1.6-12.8c0-1.6-1.2-2.8-2-2.8h-22.8c-1.2,0-2,1.2-2,2.8l-1.6,12.8c-0.4,2,0.8,4,2,4   h25.6C240.8,465.6,242,463.6,241.6,461.6z"/>
</g>
<g>
</g>
<g>
</g>
<g>
</g>
<g>
</g>
<g>
</g>
<g>
</g>
<g>
</g>
<g>
</g>
<g>
</g>
<g>
</g>
<g>
</g>
<g>
</g>
<g>
</g>
<g>
</g>
<g>
</g>
</svg>
