<?xml version="1.0" encoding="iso-8859-1"?>
<!-- Generator: Adobe Illustrator 19.0.0, SVG Export Plug-In . SVG Version: 6.00 Build 0)  -->
<svg xmlns="http://www.w3.org/2000/svg" xmlns:xlink="http://www.w3.org/1999/xlink" version="1.1" id="Layer_1" x="0px" y="0px" viewBox="0 0 508 508" style="enable-background:new 0 0 508 508;" xml:space="preserve">
<circle style="fill:#84DBFF;" cx="254" cy="254" r="254"/>
<g>
	<polygon style="fill:#324A5E;" points="287.2,285.2 275.6,283.6 284.8,209.2 305.6,212.4  "/>
	<polygon style="fill:#324A5E;" points="271.2,282.8 266.8,282.4 268.8,207.2 276.8,208.4  "/>
	<polygon style="fill:#324A5E;" points="220.8,285.2 232.4,283.6 223.2,209.2 202.4,212.4  "/>
	<polygon style="fill:#324A5E;" points="236.8,282.8 241.2,282.4 239.2,207.2 231.2,208.4  "/>
</g>
<g>
	<polygon style="fill:#2B3B4E;" points="297.6,395.2 288,396.8 271.6,301.2 288.4,298.4  "/>
	<polygon style="fill:#2B3B4E;" points="284.4,397.2 280.8,398 258.4,303.2 265.2,302.4  "/>
	<polygon style="fill:#2B3B4E;" points="210.4,395.2 220,396.8 236.4,301.2 219.6,298.4  "/>
	<polygon style="fill:#2B3B4E;" points="223.6,397.2 227.2,398 249.6,303.2 242.8,302.4  "/>
</g>
<g>

		<rect x="334.705" y="177.001" transform="matrix(-0.7071 0.7071 -0.7071 -0.7071 729.8444 123.6908)" style="fill:#324A5E;" width="9.2" height="71.999"/>

		<rect x="330.776" y="183.981" transform="matrix(-0.7071 0.7071 -0.7071 -0.7071 723.2922 140.3637)" style="fill:#324A5E;" width="3.6" height="71.999"/>
</g>
<g>
	<polygon style="fill:#2B3B4E;" points="358,298.8 353.2,298.4 360.4,241.2 369.6,242.4  "/>
	<polygon style="fill:#2B3B4E;" points="351.2,298 349.2,297.6 353.2,240 356.8,240.4  "/>
</g>
<circle style="fill:#FFFFFF;" cx="361.6" cy="238.8" r="16"/>
<path style="fill:#324A5E;" d="M336.4,329.2c-10,6.8-20.8,8.4-25.6,4c11.6-3.2,19.6-9.2,18.4-14.4c-0.8-3.6-6-5.6-13.2-6  c1.6-1.6,4-3.6,6-5.2c10.8-7.2,22.8-8.4,26.8-2.8C352.8,310.8,347.2,321.6,336.4,329.2z"/>
<path style="fill:#FFFFFF;" d="M355.2,318c-2.8,6-6,9.2-9.6,10.4c0-14-8.4-24-14-29.2c3.2-4.8,7.6-9.6,11.6-12.8  c0-2.8,0.4-5.6,1.2-8.8c13.2,0,20.4-2.8,24.4-6c0.4,4-0.4,8.4-2.8,12.8c-1.6,3.2-3.6,5.6-5.6,7.6C361.6,300,359.2,310.4,355.2,318z"/>
<g>

		<rect x="163.793" y="177.327" transform="matrix(0.7071 0.7071 -0.7071 0.7071 200.1657 -56.5897)" style="fill:#324A5E;" width="9.2" height="71.999"/>

		<rect x="173.605" y="184.065" transform="matrix(0.7071 0.7071 -0.7071 0.7071 206.9838 -59.5745)" style="fill:#324A5E;" width="3.6" height="71.999"/>
	<polygon style="fill:#324A5E;" points="150,298.8 154.8,298.4 147.6,241.2 138.4,242.4  "/>
	<polygon style="fill:#324A5E;" points="156.8,298 158.8,297.6 154.8,240 151.2,240.4  "/>
</g>
<circle style="fill:#FFFFFF;" cx="146.4" cy="238.8" r="16"/>
<path style="fill:#324A5E;" d="M171.6,329.2c10,6.8,20.8,8.4,25.6,4C186,330,178,324,178.8,318.8c0.8-3.6,6-5.6,13.2-6  c-1.6-1.6-4-3.6-6-5.2c-10.8-7.2-22.8-8.4-26.8-2.8C155.2,310.8,160.8,321.6,171.6,329.2z"/>
<g>
	<path style="fill:#FFFFFF;" d="M152.8,318c2.8,6,6,9.2,9.6,10.4c0-14,8.4-24,14-29.2c-3.2-4.8-7.6-9.6-11.6-12.8   c0-2.8-0.4-5.6-1.2-8.8c-13.2,0-20.4-2.8-24.4-6c-0.4,4,0.4,8.4,2.8,12.8c1.6,3.2,3.6,5.6,5.6,7.6C146.4,300,148.8,310.4,152.8,318   z"/>
	<path style="fill:#FFFFFF;" d="M317.6,414c-0.8,32-13.6,33.2-29.2,32.4c-15.6-0.4-28.4-2-27.2-34.4c0.4-8.8,1.6-19.6,3.6-29.6   c19.6-9.6,31.6-26.4,38.8-41.6C312.8,357.6,318.4,390.8,317.6,414z"/>
</g>
<path style="fill:#2B3B4E;" d="M337.2,452.4c-3.6-17.6-19.2-31.2-38-31.2s-34.4,13.2-38,31.2H337.2z"/>
<path style="fill:#FFFFFF;" d="M190.4,414c0.8,32,13.6,33.2,29.2,32.4c15.6-0.4,28.4-2,27.2-34.4c-0.4-8.8-1.6-19.6-3.6-29.6  c-19.6-9.6-31.6-26.4-38.8-41.6C195.2,357.6,189.6,390.8,190.4,414z"/>
<path style="fill:#2B3B4E;" d="M170.8,452.4c3.6-17.6,19.2-31.2,38-31.2s34.4,13.2,38,31.2H170.8z"/>
<rect x="242.4" y="122" style="fill:#324A5E;" width="23.2" height="30.4"/>
<g>
	<path style="fill:#FFFFFF;" d="M312.8,158.8c-6.4,0-12.4,1.6-17.2,4.8c-9.2-13.2-24.4-21.6-41.6-21.6s-32.4,8.4-41.6,21.6   c-5.2-3.2-11.2-4.8-17.2-4.8c-18.8,0-33.6,15.2-33.6,33.6c0,18.8,15.2,33.6,33.6,33.6c6.4,0,12.4-1.6,17.2-4.8   c9.2,13.2,24.4,21.6,41.6,21.6s32.4-8.4,41.6-21.6c5.2,3.2,11.2,4.8,17.2,4.8c18.8,0,33.6-15.2,33.6-33.6   C346.4,174,331.6,158.8,312.8,158.8z"/>
	<path style="fill:#FFFFFF;" d="M284.8,130.4h-61.6c-2.8,0-5.2-2.4-5.2-5.2V80c0-10.8,8.8-20,20-20h31.6c10.8,0,20,8.8,20,20v45.2   C289.6,128,287.6,130.4,284.8,130.4z"/>
</g>
<rect x="224.4" y="84.8" style="fill:#84DBFF;" width="59.6" height="32"/>
<polygon style="fill:#54C0EB;" points="264.4,84.8 251.6,117.2 283.6,117.2 283.6,84.8 "/>
<rect x="294.8" y="61.6" style="fill:#324A5E;" width="3.6" height="39.6"/>
<path style="fill:#E6E9EE;" d="M289.6,111.6h9.6c2.4,0,4-2,4-4V96c0-2.4-2-4-4-4h-9.6V111.6z"/>
<circle style="fill:#FF7058;" cx="296.4" cy="61.6" r="6"/>
<rect x="209.6" y="61.6" style="fill:#324A5E;" width="3.6" height="39.6"/>
<path style="fill:#E6E9EE;" d="M218.4,111.6h-9.6c-2.4,0-4-2-4-4V96c0-2.4,2-4,4-4h9.6V111.6z"/>
<circle style="fill:#FF7058;" cx="211.6" cy="61.6" r="6"/>
<path style="fill:#FFFFFF;" d="M195.2,269.6C199.6,298,224,320,254,320s54.4-22,58.8-50.4H195.2z"/>
<g>
</g>
<g>
</g>
<g>
</g>
<g>
</g>
<g>
</g>
<g>
</g>
<g>
</g>
<g>
</g>
<g>
</g>
<g>
</g>
<g>
</g>
<g>
</g>
<g>
</g>
<g>
</g>
<g>
</g>
</svg>
