<?xml version="1.0" encoding="utf-8"?>
<!-- Generator: Adobe Illustrator 18.1.1, SVG Export Plug-In . SVG Version: 6.00 Build 0)  -->
<svg version="1.1" id="Calque_1" xmlns="http://www.w3.org/2000/svg" xmlns:xlink="http://www.w3.org/1999/xlink" x="0px" y="0px"
	 viewBox="0 0 283.5 283.5" enable-background="new 0 0 283.5 283.5" xml:space="preserve">
<g>
	<g>
		<circle fill="#17283E" cx="141.7" cy="141.7" r="137.5"/>
	</g>
	<path fill="#FFFFFF" d="M186.5,100c-19.7-0.3-36.9,11.2-45.2,27.7c-8-16.2-24.5-27.4-43.7-27.5c-27.4-0.5-49.9,21.5-50.2,49.1
		c-0.5,27.2,21.5,49.7,48.9,50.2c19.7,0.3,36.9-11.2,45.2-27.7c8,16.2,24.5,27.4,43.7,27.5c27.4,0.5,49.9-21.5,50.2-49.1
		C235.7,122.7,213.7,100.3,186.5,100z M96.5,169.1c-10.7-0.2-19.2-9-19-19.7c0.2-10.7,9-19.2,19.7-19s19.2,9,19,19.7
		C116,160.6,107.2,169.3,96.5,169.1z M185.5,168.9c-10.7-0.2-19.2-9-19-19.7c0.2-10.7,9-19.2,19.7-19c10.7,0.2,19.2,9,19,19.7
		C205,160.6,196.1,169.1,185.5,168.9z"/>
	<g>
		<circle fill="#FFFFFF" cx="217.2" cy="67" r="21.4"/>
	</g>
</g>
</svg>
