<svg xmlns="http://www.w3.org/2000/svg" xmlns:xlink="http://www.w3.org/1999/xlink" fill="#ffffff" version="1.1" x="0px" y="0px" viewBox="0 0 30 37.5" xml:space="preserve"><g transform="translate(-30 -320)"><g xmlns="http://www.w3.org/2000/svg" xmlns:xlink="http://www.w3.org/1999/xlink"><path d="M35,339h-2c-1.104,0-2-0.895-2-2v-4c0-1.103,0.896-2,2-2h2V339z"/><path d="M35,322.5c0-0.828-0.672-1.5-1.5-1.5s-1.5,0.672-1.5,1.5c0,0.652,0.419,1.201,1,1.408V330h1v-6.092    C34.581,323.701,35,323.152,35,322.5z"/><path d="M55,339h2c1.104,0,2-0.895,2-2v-4c0-1.103-0.896-2-2-2h-2V339z"/><path d="M50,325H40c-2.209,0-4,1.791-4,4v14h18v-14C54,326.791,52.209,325,50,325z M39,332.5c0-1.381,1.119-2.5,2.5-2.5    s2.5,1.119,2.5,2.5s-1.119,2.5-2.5,2.5S39,333.881,39,332.5z M50,340H40v-2h10V340z M48.5,335c-1.381,0-2.5-1.119-2.5-2.5    s1.119-2.5,2.5-2.5s2.5,1.119,2.5,2.5S49.881,335,48.5,335z"/><circle cx="41.5" cy="332.5" r="1.5"/><circle cx="48.5" cy="332.5" r="1.5"/><rect x="32" y="344" width="26" height="4"/><path d="M45,320c-2.057,0-3.731,1.754-3.955,4h7.91C48.731,321.754,47.057,320,45,320z"/></g></g><text x="0" y="45" fill="#000000" font-size="5px" font-weight="bold" font-family="'Helvetica Neue', Helvetica, Arial-Unicode, Arial, Sans-serif">Created by Hea Poh Lin</text><text x="0" y="50" fill="#000000" font-size="5px" font-weight="bold" font-family="'Helvetica Neue', Helvetica, Arial-Unicode, Arial, Sans-serif">from the Noun Project</text></svg>