<?xml version="1.0" encoding="utf-8"?>
<!-- Generator: Adobe Illustrator 18.1.1, SVG Export Plug-In . SVG Version: 6.00 Build 0)  -->
<svg version="1.1" id="Calque_1" xmlns="http://www.w3.org/2000/svg" xmlns:xlink="http://www.w3.org/1999/xlink" x="0px" y="0px"
	 viewBox="0 0 28 32" enable-background="new 0 0 28 32" xml:space="preserve">
<g>
	<path fill="#FFFFFF" d="M0,0v27.4h3.5L6.9,32L9,27.4h18.7V0.1H0V0z M26.6,26.2H8.3l-1.6,3.5L4,26.2H1.1V1.1h25.5V26.2z"/>
	<path fill="#FFFFFF" d="M9.5,18.8c1.8,0,3.4-1.1,4.1-2.6c0.8,1.5,2.3,2.5,4,2.5c2.5,0,4.5-2,4.5-4.5s-2-4.5-4.5-4.5
		c-1.8,0-3.4,1.1-4.1,2.6c-0.8-1.5-2.3-2.5-4-2.5C7,9.8,5,11.8,5,14.3S7,18.8,9.5,18.8z M17.7,12.3c1,0,1.8,0.8,1.8,1.8
		s-0.8,1.8-1.8,1.8s-1.8-0.8-1.8-1.8S16.7,12.3,17.7,12.3z M9.5,12.4c1,0,1.8,0.8,1.8,1.8s-0.8,1.8-1.8,1.8s-1.8-0.8-1.8-1.8
		S8.5,12.4,9.5,12.4z"/>
	<circle fill="#FFFFFF" cx="20.5" cy="6.5" r="2"/>
</g>
</svg>