<svg xmlns="http://www.w3.org/2000/svg" xmlns:xlink="http://www.w3.org/1999/xlink" version="1.1" x="0px" y="0px" viewBox="0 0 100 125" style="enable-background:new 0 0 100 100;" xml:space="preserve" fill="#ffffff"><path d="M90.2,51.7L90.2,51.7V38.6c0-2.7-2.2-4.9-4.9-4.9H52l-0.4-18.8c1.2-0.6,2-1.8,2-3.2c0-2-1.6-3.6-3.6-3.6  c-2,0-3.6,1.6-3.6,3.6c0,1.5,0.9,2.7,2.1,3.3L48,33.7H14.7c-2.7,0-4.9,2.2-4.9,4.9v13.1c-2.6,0-4.8,2.2-4.8,4.8v12.6  c0,2.6,2.2,4.8,4.8,4.8v13.1c0,2.7,2.2,4.9,4.9,4.9h70.5c2.7,0,4.9-2.2,4.9-4.9V73.9l0,0c2.6,0,4.8-2.2,4.8-4.8V56.5  C95,53.8,92.8,51.7,90.2,51.7z M20.6,56.1c0-6,4.9-10.9,10.9-10.9c6,0,10.9,4.9,10.9,10.9c0,6-4.9,10.9-10.9,10.9  C25.5,67.1,20.6,62.2,20.6,56.1z M63.7,80.2H36.3v-6.4h27.4V80.2z M68.5,67.1c-6,0-10.9-4.9-10.9-10.9c0-6,4.9-10.9,10.9-10.9  s10.9,4.9,10.9,10.9C79.4,62.2,74.5,67.1,68.5,67.1z"/><text x="0" y="115" fill="#000000" font-size="5px" font-weight="bold" font-family="'Helvetica Neue', Helvetica, Arial-Unicode, Arial, Sans-serif">Created by Darrin Loeliger</text><text x="0" y="120" fill="#000000" font-size="5px" font-weight="bold" font-family="'Helvetica Neue', Helvetica, Arial-Unicode, Arial, Sans-serif">from the Noun Project</text></svg>